<svg width="83" height="68" viewBox="0 0 83 68" fill="none" xmlns="http://www.w3.org/2000/svg">
<path d="M19.4646 68C12.9764 68 8.07965 65.697 4.77434 61.0909C1.59145 56.3636 0 49.8182 0 41.4545C0 32.3636 2.32596 24.3636 6.97788 17.4545C11.6298 10.4242 18.8525 4.60606 28.646 0L35.2566 13.4545C29.3805 16 24.9735 19.1515 22.0354 22.9091C19.0973 26.5455 17.6283 31.0909 17.6283 36.5455C17.9956 36.4243 18.6077 36.3636 19.4646 36.3636C23.8717 36.3636 27.6055 37.697 30.6659 40.3636C33.7264 43.0303 35.2566 46.6667 35.2566 51.2727C35.2566 56.3636 33.7876 60.4242 30.8496 63.4545C27.9115 66.4849 24.1165 68 19.4646 68ZM67.208 68C60.7198 68 55.823 65.697 52.5177 61.0909C49.3348 56.3636 47.7434 49.8182 47.7434 41.4545C47.7434 32.3636 50.0693 24.3636 54.7212 17.4545C59.3732 10.4242 66.5959 4.60606 76.3894 0L83 13.4545C77.1239 16 72.7168 19.1515 69.7788 22.9091C66.8407 26.5455 65.3717 31.0909 65.3717 36.5455C65.7389 36.4243 66.351 36.3636 67.208 36.3636C71.615 36.3636 75.3488 37.697 78.4093 40.3636C81.4698 43.0303 83 46.6667 83 51.2727C83 56.3636 81.531 60.4242 78.5929 63.4545C75.6549 66.4849 71.8599 68 67.208 68Z" fill="#6606EF"/>
</svg>
