<svg width="62" height="69" viewBox="0 0 62 69" fill="none" xmlns="http://www.w3.org/2000/svg">
<g clip-path="url(#clip0_67_5076)">
<path d="M59.9229 47.4808C55.8353 44.1736 52.6889 39.9239 51.2687 36.713C54.2493 31.4135 55.1563 25.2111 53.8163 19.2906C52.4763 13.3701 48.9833 8.14639 44.0045 4.61726C39.0257 1.08813 32.9099 -0.499111 26.8254 0.158713C20.7409 0.816537 15.114 3.67332 11.0196 8.1834C6.9251 12.6935 4.65 18.5408 4.62881 24.6084C4.60763 30.6761 6.84184 36.5389 10.9047 41.077C14.9676 45.615 20.5743 48.5104 26.6541 49.2099C32.7339 49.9095 38.8606 48.3643 43.8639 44.8694C51.7452 47.7935 60.5133 47.9651 59.9229 47.4808Z" fill="#6606EF"/>
<path d="M18.1146 16.607C23.5135 12.2279 31.8666 13.6876 32.8411 21.4749C33.5239 26.8812 28.4239 42.3947 40.7556 38.5657" stroke="white" stroke-width="1.01708" stroke-miterlimit="10"/>
<path d="M19.4686 18.2497C19.1416 18.5134 18.7432 18.6752 18.3235 18.7147C17.9039 18.7541 17.4818 18.6695 17.1106 18.4715C16.7394 18.2734 16.4357 17.9708 16.2378 17.6018C16.0399 17.2328 15.9567 16.814 15.9986 16.3981C16.0406 15.9823 16.2058 15.5881 16.4735 15.2653C16.7412 14.9425 17.0993 14.7055 17.5027 14.5842C17.9061 14.4629 18.3367 14.4628 18.7402 14.5839C19.1437 14.705 19.5019 14.9418 19.7698 15.2645C19.9485 15.4798 20.0825 15.728 20.1641 15.9948C20.2457 16.2616 20.2733 16.5417 20.2453 16.8191C20.2173 17.0966 20.1343 17.3658 20.001 17.6113C19.8677 17.8568 19.6868 18.0737 19.4686 18.2497Z" fill="white"/>
<path d="M41.3959 40.5894C41.7978 40.4633 42.1531 40.222 42.4168 39.896C42.6806 39.5699 42.841 39.1738 42.8778 38.7574C42.9147 38.3411 42.8263 37.9233 42.6239 37.5567C42.4214 37.1901 42.114 36.8911 41.7404 36.6976C41.3667 36.504 40.9436 36.4245 40.5245 36.4691C40.1053 36.5137 39.7088 36.6804 39.3851 36.9481C39.0614 37.2158 38.8249 37.5726 38.7055 37.9734C38.5861 38.3742 38.5892 38.8011 38.7143 39.2003C38.7977 39.4664 38.9334 39.7136 39.1135 39.9277C39.2936 40.1417 39.5146 40.3184 39.7638 40.4474C40.013 40.5765 40.2855 40.6555 40.5656 40.6799C40.8457 40.7043 41.1278 40.6735 41.3959 40.5894Z" fill="white"/>
<path d="M38.2422 11.925C39.1065 11.925 39.8071 11.2304 39.8071 10.3736C39.8071 9.51683 39.1065 8.82227 38.2422 8.82227C37.378 8.82227 36.6774 9.51683 36.6774 10.3736C36.6774 11.2304 37.378 11.925 38.2422 11.925Z" stroke="white" stroke-width="1.01708" stroke-miterlimit="10"/>
<path d="M0.0567735 58.1313H1.10477C1.1427 58.1313 1.16167 58.1549 1.16167 58.1878V61.5561C4.58069 59.2745 6.30917 58.1329 6.34711 58.1313H8.32692V58.1643L4.31988 60.865C5.63343 60.865 6.75493 61.4581 7.68437 62.6444C8.17296 63.3543 8.42199 64.1994 8.39568 65.0584V68.9438C8.39681 68.9513 8.3962 68.9589 8.39389 68.9661C8.39159 68.9733 8.38765 68.9799 8.38239 68.9853C8.37712 68.9907 8.37066 68.9949 8.36351 68.9975C8.35637 69.0001 8.34871 69.001 8.34114 69.0002H7.29789C7.29032 69.001 7.28267 69.0001 7.27552 68.9975C7.26837 68.9949 7.26191 68.9907 7.25665 68.9853C7.25138 68.9799 7.24745 68.9733 7.24514 68.9661C7.24284 68.9589 7.24223 68.9513 7.24336 68.9438V64.9173C7.24336 63.6763 6.5937 62.736 5.29437 62.0967C4.92994 61.9751 4.54995 61.9055 4.16576 61.8899C3.11777 61.8899 2.25788 62.3803 1.58609 63.3613C1.3142 63.7949 1.16741 64.294 1.16167 64.8045V68.9438C1.16289 68.9515 1.16225 68.9594 1.15982 68.9668C1.1574 68.9742 1.15324 68.9809 1.14769 68.9864C1.14214 68.9919 1.13536 68.996 1.1279 68.9984C1.12045 69.0008 1.11252 69.0014 1.10477 69.0002H0.0567735C0.0490234 69.0014 0.0410957 69.0008 0.0336367 68.9984C0.0261777 68.996 0.0193983 68.9919 0.0138512 68.9864C0.00830407 68.9809 0.00414613 68.9742 0.00171627 68.9668C-0.000713587 68.9594 -0.0013466 68.9515 -0.000131189 68.9438V58.1878C-0.000131189 58.1502 0.018837 58.1313 0.0567735 58.1313Z" fill="#17171A"/>
<path d="M13.311 60.8652H13.5149C14.9565 60.8652 16.1318 61.5195 17.0407 62.8279C17.4448 63.4681 17.6562 64.2094 17.65 64.9646C17.65 66.436 16.9387 67.6113 15.5161 68.4904C14.9577 68.8124 14.3267 68.9902 13.6809 69.0075H13.1095C12.0741 69.0075 11.0752 68.5068 10.1125 67.5055C9.54173 66.8012 9.22313 65.929 9.20679 65.0257V64.7906C9.20679 63.4226 9.926 62.2779 11.3644 61.3565C11.9666 61.0466 12.6327 60.8784 13.311 60.8652ZM10.3686 64.8141V65.075C10.3686 66.0435 10.8633 66.8701 11.8529 67.5549C12.288 67.7995 12.7756 67.9381 13.2755 67.9592H13.5718C14.604 67.9592 15.4671 67.4107 16.161 66.3138C16.3608 65.8909 16.4698 65.4314 16.4811 64.9646V64.9317C16.4811 63.6671 15.8322 62.7269 14.5345 62.111C14.1783 61.9874 13.8045 61.9207 13.4272 61.9136C12.0979 61.9136 11.1257 62.5968 10.5109 63.9632C10.4271 64.2397 10.3793 64.5257 10.3686 64.8141Z" fill="#17171A"/>
<path d="M22.5508 60.8652H22.7618C23.8778 60.8787 24.9444 61.3231 25.7351 62.104V60.9287C25.7351 60.8911 25.754 60.8723 25.792 60.8723H26.84C26.8779 60.8723 26.8969 60.8911 26.8969 60.9287V68.9511C26.8981 68.9588 26.8975 68.9666 26.895 68.974C26.8926 68.9814 26.8884 68.9881 26.8829 68.9936C26.8773 68.9991 26.8706 69.0032 26.8631 69.0057C26.8556 69.0081 26.8477 69.0087 26.84 69.0075H25.792C25.7842 69.0087 25.7763 69.0081 25.7688 69.0057C25.7614 69.0032 25.7546 68.9991 25.7491 68.9936C25.7435 68.9881 25.7393 68.9814 25.7369 68.974C25.7345 68.9666 25.7339 68.9588 25.7351 68.9511V67.7758C24.8325 68.6032 23.8999 69.0169 22.9373 69.0169H22.3492C21.3123 69.0169 20.3133 68.5162 19.3523 67.5149C18.7804 66.8113 18.4616 65.9386 18.4465 65.0351V64.8C18.4465 63.432 19.165 62.2873 20.6018 61.3659C21.2041 61.0529 21.871 60.8816 22.5508 60.8652ZM19.6083 64.8141V65.075C19.6083 66.0388 20.1063 66.8654 21.1021 67.5549C21.537 67.8001 22.0248 67.9387 22.5247 67.9591H22.8211C23.7252 67.9591 24.5156 67.5173 25.1921 66.6334C25.5447 66.1152 25.7292 65.5026 25.7208 64.8776C25.7208 63.729 25.1202 62.8232 23.9189 62.1604C23.5208 62.0004 23.0964 61.9143 22.667 61.9065C21.336 61.9065 20.3639 62.5897 19.7506 63.9562C19.6651 64.2347 19.6173 64.5232 19.6083 64.8141Z" fill="#17171A"/>
<path d="M31.7885 60.8652H31.99C33.351 60.8652 34.4859 61.4607 35.3948 62.6516L35.5395 62.8867L35.4826 62.9196H34.2022C33.908 62.6074 33.5534 62.3571 33.1594 62.1839C32.7655 62.0106 32.3403 61.9179 31.9094 61.9112C30.5785 61.9112 29.6064 62.5944 28.9931 63.9609C28.9068 64.2393 28.8581 64.5278 28.8484 64.8188V65.0797C28.8484 66.0482 29.3424 66.8748 30.3303 67.5596C30.7651 67.8051 31.253 67.9437 31.7529 67.9639H32.0493C32.7875 67.9639 33.4949 67.6379 34.1714 66.986H35.4778C35.5158 66.986 35.5347 67.0095 35.5347 67.0424C34.5673 68.3509 33.4427 69.0051 32.1608 69.0051H31.5846C30.5492 69.0051 29.5503 68.5045 28.5876 67.5031C28.0157 66.7995 27.697 65.9268 27.6819 65.0233V64.7883C27.6819 63.4203 28.4003 62.2756 29.8371 61.3541C30.4411 61.0448 31.1088 60.8775 31.7885 60.8652Z" fill="#17171A"/>
<path d="M36.3976 58.1412H37.4385C37.4812 58.1412 37.5025 58.1647 37.5025 58.1952V62.1042C38.313 61.3128 39.407 60.8724 40.5445 60.8795C42.2106 60.8795 43.4751 61.6529 44.3382 63.1995C44.6282 63.7835 44.7683 64.4294 44.746 65.0799V68.956C44.7471 68.9634 44.7465 68.9711 44.7442 68.9782C44.7419 68.9854 44.738 68.992 44.7327 68.9975C44.7274 69.0029 44.721 69.0071 44.7138 69.0097C44.7067 69.0123 44.699 69.0132 44.6914 69.0124H43.6411C43.6333 69.0136 43.6254 69.013 43.6179 69.0106C43.6105 69.0081 43.6037 69.004 43.5982 68.9985C43.5926 68.993 43.5885 68.9863 43.586 68.9789C43.5836 68.9715 43.583 68.9637 43.5842 68.956V64.9178C43.5842 63.6767 42.9377 62.7365 41.6447 62.0971C41.2794 61.9802 40.8996 61.9137 40.5161 61.8997C39.4633 61.8997 38.6034 62.387 37.9364 63.3617C37.6637 63.7929 37.5138 64.2891 37.5025 64.7979V68.9372C37.5025 68.9748 37.4812 68.9936 37.4385 68.9936H36.3976C36.3898 68.9948 36.3819 68.9942 36.3745 68.9918C36.367 68.9893 36.3602 68.9852 36.3547 68.9797C36.3491 68.9742 36.345 68.9675 36.3425 68.9601C36.3401 68.9527 36.3395 68.9449 36.3407 68.9372V58.1952C36.3407 58.1879 36.3422 58.1807 36.3451 58.174C36.3479 58.1673 36.3522 58.1612 36.3575 58.1561C36.3628 58.1511 36.3691 58.1472 36.376 58.1446C36.3829 58.142 36.3902 58.1408 36.3976 58.1412Z" fill="#17171A"/>
<path d="M54.913 60.8652H55.1122C56.2302 60.8755 57.2995 61.3203 58.0902 62.104V60.9287C58.0902 60.8911 58.1091 60.8723 58.1471 60.8723H59.1951C59.233 60.8723 59.252 60.8911 59.252 60.9287V68.9511C59.2532 68.9588 59.2526 68.9666 59.2501 68.974C59.2477 68.9814 59.2435 68.9881 59.238 68.9936C59.2324 68.9991 59.2257 69.0032 59.2182 69.0057C59.2107 69.0081 59.2028 69.0087 59.1951 69.0075H58.1471C58.1393 69.0087 58.1314 69.0081 58.1239 69.0057C58.1165 69.0032 58.1097 68.9991 58.1041 68.9936C58.0986 68.9881 58.0944 68.9814 58.092 68.974C58.0896 68.9666 58.0889 68.9588 58.0902 68.9511V67.7758C57.186 68.6032 56.2542 69.0169 55.2947 69.0169H54.7162C53.6793 69.0169 52.6803 68.5162 51.7192 67.5149C51.1484 66.8106 50.8298 65.9384 50.8135 65.0351V64.8C50.8135 63.432 51.5319 62.2873 52.9687 61.3659C53.5696 61.0536 54.2348 60.8823 54.913 60.8652ZM51.9705 64.8141V65.075C51.9705 66.0435 52.4653 66.8701 53.4548 67.5549C53.8895 67.8007 54.3774 67.9393 54.8774 67.9591H55.1738C56.0779 67.9591 56.8683 67.5173 57.5448 66.6334C57.9038 66.1165 58.0941 65.5028 58.0902 64.8752C58.0902 63.7266 57.4895 62.8209 56.2882 62.158C55.8902 61.9978 55.4658 61.9117 55.0363 61.9042C53.7069 61.9042 52.7348 62.5874 52.1199 63.9538C52.033 64.233 51.9827 64.5222 51.9705 64.8141Z" fill="#17171A"/>
<path d="M60.9354 58.1313H61.9526C61.9905 58.1439 62.0095 58.165 62.0095 58.1948V59.4265C62.0095 59.4688 61.9905 59.49 61.9526 59.49H60.9354C60.8975 59.49 60.8785 59.4688 60.8785 59.4265V58.1948C60.877 58.1525 60.8959 58.1313 60.9354 58.1313ZM60.9354 60.865H61.9526C61.9905 60.865 62.0095 60.8838 62.0095 60.9214V68.9438C62.0107 68.9515 62.0101 68.9594 62.0077 68.9668C62.0052 68.9742 62.0011 68.9809 61.9955 68.9864C61.99 68.9919 61.9832 68.996 61.9757 68.9984C61.9683 69.0008 61.9604 69.0014 61.9526 69.0002H60.9354C60.9277 69.0014 60.9198 69.0008 60.9123 68.9984C60.9048 68.996 60.8981 68.9919 60.8925 68.9864C60.887 68.9809 60.8828 68.9742 60.8804 68.9668C60.8779 68.9594 60.8773 68.9515 60.8785 68.9438V60.9214C60.877 60.8838 60.8959 60.865 60.9354 60.865Z" fill="#17171A"/>
<path d="M47.4039 67.6416H48.4234C48.4387 67.6439 48.4527 67.6515 48.4627 67.6632C48.4727 67.6749 48.4781 67.6897 48.478 67.7051V68.9368C48.478 68.9791 48.459 69.0002 48.4234 69.0002H47.4039C47.3683 69.0002 47.3494 68.9791 47.3494 68.9368V67.6957C47.3541 67.6628 47.3731 67.6416 47.4039 67.6416Z" fill="white"/>
<path d="M28.0565 21.1106C19.3406 18.9199 12.908 27.0763 17.1332 34.6145C22.0412 43.3749 35.7884 41.9152 44.6371 23.9078" stroke="#FF9408" stroke-width="1.01708" stroke-miterlimit="10"/>
<path d="M28.5803 19.0536C28.9879 19.1588 29.3549 19.3812 29.6352 19.6928C29.9155 20.0044 30.0965 20.3912 30.1555 20.8046C30.2145 21.218 30.1488 21.6394 29.9666 22.0158C29.7845 22.3922 29.494 22.7068 29.1319 22.9199C28.7698 23.133 28.3521 23.2352 27.9316 23.2135C27.511 23.1917 27.1064 23.0471 26.7685 22.7979C26.4307 22.5486 26.1748 22.2058 26.0331 21.8127C25.8914 21.4195 25.8702 20.9936 25.9722 20.5885C26.0405 20.3172 26.1624 20.0621 26.3308 19.8378C26.4992 19.6135 26.7108 19.4245 26.9533 19.2817C27.1959 19.139 27.4645 19.0454 27.7438 19.0062C28.0231 18.967 28.3074 18.9832 28.5803 19.0536Z" fill="#FF9408"/>
<path d="M46.548 24.8363C46.7314 24.4599 46.7982 24.0382 46.74 23.6242C46.6818 23.2103 46.5012 22.8227 46.2211 22.5104C45.9409 22.1981 45.5737 21.9751 45.1658 21.8695C44.7579 21.7638 44.3276 21.7803 43.9291 21.9169C43.5307 22.0535 43.182 22.304 42.927 22.6369C42.6721 22.9697 42.5223 23.37 42.4965 23.7871C42.4708 24.2043 42.5703 24.6197 42.7824 24.9808C42.9946 25.342 43.3099 25.6328 43.6886 25.8165C43.9411 25.939 44.2156 26.0108 44.4962 26.0278C44.7768 26.0448 45.0581 26.0067 45.3238 25.9156C45.5895 25.8245 45.8345 25.6823 46.0446 25.4971C46.2547 25.3118 46.4258 25.0873 46.548 24.8363Z" fill="#FF9408"/>
<path d="M38.7331 18.0664C38.7331 23.5244 36.7699 31.2083 44.8551 32.1273" stroke="#0EDDC9" stroke-width="1.01708" stroke-miterlimit="10"/>
<path d="M36.5944 18.0662C36.5944 17.6478 36.7195 17.2388 36.954 16.8909C37.1885 16.543 37.5217 16.2718 37.9117 16.1117C38.3016 15.9516 38.7307 15.9097 39.1446 15.9913C39.5585 16.073 39.9388 16.2744 40.2372 16.5703C40.5356 16.8662 40.7389 17.2431 40.8212 17.6535C40.9035 18.0638 40.8613 18.4892 40.6998 18.8757C40.5383 19.2623 40.2648 19.5927 39.9138 19.8251C39.5629 20.0576 39.1503 20.1816 38.7283 20.1816C38.1623 20.1816 37.6196 19.9588 37.2194 19.562C36.8192 19.1653 36.5944 18.6272 36.5944 18.0662Z" fill="#0EDDC9"/>
<path d="M44.6133 34.2335C45.0321 34.2799 45.4555 34.2022 45.8298 34.0103C46.2042 33.8184 46.5129 33.5209 46.717 33.1554C46.9211 32.7898 47.0113 32.3725 46.9765 31.9561C46.9416 31.5397 46.7831 31.1429 46.5211 30.8156C46.259 30.4884 45.905 30.2455 45.5038 30.1174C45.1027 29.9894 44.6722 29.982 44.2668 30.0961C43.8614 30.2103 43.4991 30.4409 43.2257 30.7589C42.9524 31.0769 42.7801 31.4681 42.7307 31.883C42.6977 32.16 42.7203 32.4408 42.7971 32.7091C42.874 32.9775 43.0037 33.2281 43.1787 33.4466C43.3536 33.665 43.5705 33.847 43.8167 33.9821C44.0629 34.1172 44.3336 34.2026 44.6133 34.2335Z" fill="#0EDDC9"/>
</g>
<defs>
<clipPath id="clip0_67_5076">
<rect width="62" height="69" fill="white"/>
</clipPath>
</defs>
</svg>
