<svg width="7" height="10" viewBox="0 0 7 10" fill="none" xmlns="http://www.w3.org/2000/svg">
<path d="M2.03033 0.46967C1.73744 0.176777 1.26256 0.176777 0.96967 0.46967C0.676777 0.762563 0.676777 1.23744 0.96967 1.53033L2.03033 0.46967ZM5.5 5L6.03033 5.53033C6.32322 5.23744 6.32322 4.76256 6.03033 4.46967L5.5 5ZM0.96967 8.46967C0.676777 8.76256 0.676777 9.23744 0.96967 9.53033C1.26256 9.82322 1.73744 9.82322 2.03033 9.53033L0.96967 8.46967ZM0.96967 1.53033L4.96967 5.53033L6.03033 4.46967L2.03033 0.46967L0.96967 1.53033ZM4.96967 4.46967L0.96967 8.46967L2.03033 9.53033L6.03033 5.53033L4.96967 4.46967Z" fill="#6606EF"/>
</svg>
