<svg width="336" height="25" viewBox="0 0 336 25" fill="none" xmlns="http://www.w3.org/2000/svg">
<rect y="0.00268555" width="24" height="24" rx="12" fill="#6606EF"/>
<path d="M8 12.0027L10.8284 14.8312L16.4853 9.17432" stroke="white" stroke-width="1.5" stroke-linecap="round" stroke-linejoin="round"/>
<path d="M37.664 7.90268H42.292C42.4393 7.90268 42.565 7.95035 42.669 8.04569C42.773 8.14102 42.825 8.26235 42.825 8.40969C42.825 8.55702 42.773 8.67835 42.669 8.77369C42.565 8.86035 42.4393 8.90369 42.292 8.90369H38.106L38.223 8.68268V11.9717L38.093 11.8287H41.707C41.8543 11.8287 41.98 11.8764 42.084 11.9717C42.188 12.067 42.24 12.1884 42.24 12.3357C42.24 12.483 42.188 12.6044 42.084 12.6997C41.98 12.7864 41.8543 12.8297 41.707 12.8297H38.132L38.223 12.7127V16.0797L38.145 15.9887H42.292C42.4393 15.9887 42.565 16.0407 42.669 16.1447C42.773 16.2487 42.825 16.3657 42.825 16.4957C42.825 16.643 42.773 16.7644 42.669 16.8597C42.565 16.955 42.4393 17.0027 42.292 17.0027H37.664C37.5167 17.0027 37.391 16.9507 37.287 16.8467C37.1917 16.7427 37.144 16.617 37.144 16.4697V8.42269C37.144 8.27535 37.1917 8.15402 37.287 8.05869C37.391 7.95469 37.5167 7.90268 37.664 7.90268ZM47.7171 10.1127C48.3064 10.1127 48.7701 10.234 49.1081 10.4767C49.4461 10.7194 49.6844 11.0444 49.8231 11.4517C49.9704 11.859 50.0441 12.314 50.0441 12.8167V16.4697C50.0441 16.617 49.9921 16.7427 49.8881 16.8467C49.7927 16.9507 49.6714 17.0027 49.5241 17.0027C49.3767 17.0027 49.2511 16.9507 49.1471 16.8467C49.0517 16.7427 49.0041 16.617 49.0041 16.4697V12.8427C49.0041 12.5134 48.9521 12.2187 48.8481 11.9587C48.7527 11.69 48.5881 11.4777 48.3541 11.3217C48.1287 11.157 47.8167 11.0747 47.4181 11.0747C47.0541 11.0747 46.7204 11.157 46.4171 11.3217C46.1137 11.4777 45.8711 11.69 45.6891 11.9587C45.5071 12.2187 45.4161 12.5134 45.4161 12.8427V16.4697C45.4161 16.617 45.3641 16.7427 45.2601 16.8467C45.1647 16.9507 45.0434 17.0027 44.8961 17.0027C44.7487 17.0027 44.6231 16.9507 44.5191 16.8467C44.4237 16.7427 44.3761 16.617 44.3761 16.4697V10.8017C44.3761 10.6544 44.4237 10.533 44.5191 10.4377C44.6231 10.3337 44.7487 10.2817 44.8961 10.2817C45.0521 10.2817 45.1777 10.3337 45.2731 10.4377C45.3684 10.533 45.4161 10.6544 45.4161 10.8017V11.7247L45.1561 12.0107C45.1994 11.7854 45.2991 11.56 45.4551 11.3347C45.6111 11.1007 45.8061 10.8927 46.0401 10.7107C46.2741 10.5287 46.5341 10.3857 46.8201 10.2817C47.1061 10.169 47.4051 10.1127 47.7171 10.1127ZM51.5909 15.9367C51.5129 15.824 51.4782 15.707 51.4869 15.5857C51.4955 15.4557 51.5692 15.343 51.7079 15.2477C51.7945 15.187 51.8942 15.161 52.0069 15.1697C52.1282 15.1784 52.2365 15.2347 52.3319 15.3387C52.5745 15.6247 52.8519 15.8544 53.1639 16.0277C53.4759 16.1924 53.8572 16.2747 54.3079 16.2747C54.5159 16.266 54.7239 16.2314 54.9319 16.1707C55.1399 16.11 55.3132 16.006 55.4519 15.8587C55.5992 15.7027 55.6729 15.499 55.6729 15.2477C55.6729 15.005 55.5992 14.8144 55.4519 14.6757C55.3045 14.5284 55.1139 14.4114 54.8799 14.3247C54.6459 14.2294 54.3902 14.147 54.1129 14.0777C53.8269 13.9997 53.5452 13.913 53.2679 13.8177C52.9905 13.7137 52.7392 13.588 52.5139 13.4407C52.2972 13.2847 52.1195 13.094 51.9809 12.8687C51.8509 12.6347 51.7859 12.353 51.7859 12.0237C51.7859 11.6337 51.8899 11.2957 52.0979 11.0097C52.3145 10.7237 52.6005 10.5027 52.9559 10.3467C53.3199 10.1907 53.7142 10.1127 54.1389 10.1127C54.3815 10.1127 54.6329 10.143 54.8929 10.2037C55.1615 10.2557 55.4215 10.351 55.6729 10.4897C55.9242 10.6197 56.1452 10.8017 56.3359 11.0357C56.4139 11.1224 56.4572 11.2307 56.4659 11.3607C56.4745 11.4907 56.4182 11.6077 56.2969 11.7117C56.2015 11.781 56.0932 11.8114 55.9719 11.8027C55.8592 11.794 55.7639 11.7507 55.6859 11.6727C55.5039 11.456 55.2742 11.2914 54.9969 11.1787C54.7282 11.0574 54.4292 10.9967 54.0999 10.9967C53.8919 10.9967 53.6882 11.027 53.4889 11.0877C53.2895 11.1484 53.1205 11.2524 52.9819 11.3997C52.8519 11.5384 52.7869 11.7334 52.7869 11.9847C52.7955 12.2187 52.8735 12.4094 53.0209 12.5567C53.1682 12.704 53.3675 12.8254 53.6189 12.9207C53.8702 13.0074 54.1475 13.094 54.4509 13.1807C54.7282 13.25 54.9925 13.3324 55.2439 13.4277C55.5039 13.5144 55.7379 13.6314 55.9459 13.7787C56.1539 13.926 56.3185 14.1167 56.4399 14.3507C56.5612 14.576 56.6219 14.862 56.6219 15.2087C56.6219 15.6074 56.5092 15.954 56.2839 16.2487C56.0585 16.5347 55.7595 16.7557 55.3869 16.9117C55.0229 17.059 54.6285 17.1327 54.2039 17.1327C53.7272 17.1327 53.2549 17.0417 52.7869 16.8597C52.3275 16.6777 51.9289 16.37 51.5909 15.9367ZM63.1561 10.2817C63.3121 10.2817 63.4378 10.3337 63.5331 10.4377C63.6284 10.533 63.6761 10.6544 63.6761 10.8017V14.3507C63.6761 15.226 63.4291 15.9064 62.9351 16.3917C62.4498 16.8684 61.7694 17.1067 60.8941 17.1067C60.0274 17.1067 59.3471 16.8684 58.8531 16.3917C58.3678 15.9064 58.1251 15.226 58.1251 14.3507V10.8017C58.1251 10.6544 58.1728 10.533 58.2681 10.4377C58.3721 10.3337 58.4978 10.2817 58.6451 10.2817C58.8011 10.2817 58.9268 10.3337 59.0221 10.4377C59.1174 10.533 59.1651 10.6544 59.1651 10.8017V14.3507C59.1651 14.94 59.3168 15.3864 59.6201 15.6897C59.9234 15.993 60.3481 16.1447 60.8941 16.1447C61.4574 16.1447 61.8864 15.993 62.1811 15.6897C62.4844 15.3864 62.6361 14.94 62.6361 14.3507V10.8017C62.6361 10.6544 62.6838 10.533 62.7791 10.4377C62.8831 10.3337 63.0088 10.2817 63.1561 10.2817ZM66.1226 17.0027C65.9753 17.0027 65.8496 16.9507 65.7456 16.8467C65.6503 16.7427 65.6026 16.617 65.6026 16.4697V10.8017C65.6026 10.6544 65.6503 10.533 65.7456 10.4377C65.8496 10.3337 65.9753 10.2817 66.1226 10.2817C66.2786 10.2817 66.4043 10.3337 66.4996 10.4377C66.595 10.533 66.6426 10.6544 66.6426 10.8017V12.5177L66.4866 12.2447C66.5386 11.976 66.6296 11.716 66.7596 11.4647C66.8983 11.2047 67.0716 10.975 67.2796 10.7757C67.4876 10.5677 67.726 10.4074 67.9946 10.2947C68.2633 10.1734 68.558 10.1127 68.8786 10.1127C69.0693 10.1127 69.2426 10.1604 69.3986 10.2557C69.5633 10.3424 69.6456 10.468 69.6456 10.6327C69.6456 10.8147 69.598 10.949 69.5026 11.0357C69.4073 11.1224 69.299 11.1657 69.1776 11.1657C69.065 11.1657 68.9566 11.144 68.8526 11.1007C68.7486 11.0487 68.6186 11.0227 68.4626 11.0227C68.246 11.0227 68.0293 11.0834 67.8126 11.2047C67.6046 11.3174 67.4096 11.482 67.2276 11.6987C67.0543 11.9154 66.9113 12.1624 66.7986 12.4397C66.6946 12.7084 66.6426 12.9987 66.6426 13.3107V16.4697C66.6426 16.617 66.5906 16.7427 66.4866 16.8467C66.3913 16.9507 66.27 17.0027 66.1226 17.0027ZM71.8214 16.4697C71.8214 16.617 71.7694 16.7427 71.6654 16.8467C71.5701 16.9507 71.4487 17.0027 71.3014 17.0027C71.1454 17.0027 71.0197 16.9507 70.9244 16.8467C70.8291 16.7427 70.7814 16.617 70.7814 16.4697V10.6977C70.7814 10.5504 70.8291 10.429 70.9244 10.3337C71.0284 10.2297 71.1541 10.1777 71.3014 10.1777C71.4487 10.1777 71.5701 10.2297 71.6654 10.3337C71.7694 10.429 71.8214 10.5504 71.8214 10.6977V16.4697ZM71.3014 9.30669C71.0847 9.30669 70.9244 9.26335 70.8204 9.17668C70.7164 9.09002 70.6644 8.95569 70.6644 8.77369V8.59169C70.6644 8.40969 70.7207 8.27535 70.8334 8.18869C70.9461 8.10202 71.1064 8.05869 71.3144 8.05869C71.5224 8.05869 71.6784 8.10202 71.7824 8.18869C71.8864 8.27535 71.9384 8.40969 71.9384 8.59169V8.77369C71.9384 8.95569 71.8821 9.09002 71.7694 9.17668C71.6654 9.26335 71.5094 9.30669 71.3014 9.30669ZM77.0305 10.1127C77.6199 10.1127 78.0835 10.234 78.4215 10.4767C78.7595 10.7194 78.9979 11.0444 79.1365 11.4517C79.2839 11.859 79.3575 12.314 79.3575 12.8167V16.4697C79.3575 16.617 79.3055 16.7427 79.2015 16.8467C79.1062 16.9507 78.9849 17.0027 78.8375 17.0027C78.6902 17.0027 78.5645 16.9507 78.4605 16.8467C78.3652 16.7427 78.3175 16.617 78.3175 16.4697V12.8427C78.3175 12.5134 78.2655 12.2187 78.1615 11.9587C78.0662 11.69 77.9015 11.4777 77.6675 11.3217C77.4422 11.157 77.1302 11.0747 76.7315 11.0747C76.3675 11.0747 76.0339 11.157 75.7305 11.3217C75.4272 11.4777 75.1845 11.69 75.0025 11.9587C74.8205 12.2187 74.7295 12.5134 74.7295 12.8427V16.4697C74.7295 16.617 74.6775 16.7427 74.5735 16.8467C74.4782 16.9507 74.3569 17.0027 74.2095 17.0027C74.0622 17.0027 73.9365 16.9507 73.8325 16.8467C73.7372 16.7427 73.6895 16.617 73.6895 16.4697V10.8017C73.6895 10.6544 73.7372 10.533 73.8325 10.4377C73.9365 10.3337 74.0622 10.2817 74.2095 10.2817C74.3655 10.2817 74.4912 10.3337 74.5865 10.4377C74.6819 10.533 74.7295 10.6544 74.7295 10.8017V11.7247L74.4695 12.0107C74.5129 11.7854 74.6125 11.56 74.7685 11.3347C74.9245 11.1007 75.1195 10.8927 75.3535 10.7107C75.5875 10.5287 75.8475 10.3857 76.1335 10.2817C76.4195 10.169 76.7185 10.1127 77.0305 10.1127ZM84.1023 10.1127C84.475 10.1127 84.8217 10.1777 85.1423 10.3077C85.463 10.429 85.7403 10.5894 85.9743 10.7887C86.217 10.988 86.4033 11.196 86.5333 11.4127C86.672 11.6294 86.7413 11.833 86.7413 12.0237L86.4943 11.8677V10.7367C86.4943 10.5894 86.542 10.468 86.6373 10.3727C86.7327 10.2687 86.8583 10.2167 87.0143 10.2167C87.1617 10.2167 87.283 10.2687 87.3783 10.3727C87.4823 10.468 87.5343 10.5894 87.5343 10.7367V16.4307C87.5343 17.1414 87.3827 17.7307 87.0793 18.1987C86.7847 18.6667 86.386 19.0177 85.8833 19.2517C85.3807 19.4857 84.8173 19.6027 84.1933 19.6027C83.9333 19.6027 83.6473 19.568 83.3353 19.4987C83.0233 19.4294 82.746 19.3427 82.5033 19.2387C82.2607 19.1434 82.1047 19.0437 82.0353 18.9397C81.9053 18.853 81.823 18.7534 81.7883 18.6407C81.7623 18.5367 81.784 18.437 81.8533 18.3417C81.9313 18.2204 82.031 18.1597 82.1523 18.1597C82.2823 18.1597 82.4427 18.1987 82.6333 18.2767C82.7113 18.3027 82.8327 18.346 82.9973 18.4067C83.1707 18.4674 83.3613 18.5194 83.5693 18.5627C83.786 18.6147 83.9983 18.6407 84.2063 18.6407C84.943 18.6407 85.5063 18.4457 85.8963 18.0557C86.295 17.6744 86.4943 17.1674 86.4943 16.5347V15.3257L86.6373 15.3907C86.5853 15.6334 86.477 15.8587 86.3123 16.0667C86.1563 16.2747 85.9613 16.461 85.7273 16.6257C85.502 16.7817 85.2507 16.9074 84.9733 17.0027C84.696 17.0894 84.4143 17.1327 84.1283 17.1327C83.5217 17.1327 82.9757 16.981 82.4903 16.6777C82.005 16.3744 81.6193 15.9584 81.3333 15.4297C81.056 14.901 80.9173 14.2987 80.9173 13.6227C80.9173 12.938 81.056 12.3314 81.3333 11.8027C81.6193 11.274 82.0007 10.8624 82.4773 10.5677C82.9627 10.2644 83.5043 10.1127 84.1023 10.1127ZM84.2323 11.0747C83.7903 11.0747 83.3917 11.1874 83.0363 11.4127C82.6897 11.6294 82.4167 11.9284 82.2173 12.3097C82.0267 12.691 81.9313 13.1287 81.9313 13.6227C81.9313 14.0994 82.0267 14.5327 82.2173 14.9227C82.4167 15.304 82.6897 15.6074 83.0363 15.8327C83.3917 16.058 83.7903 16.1707 84.2323 16.1707C84.683 16.1707 85.0817 16.0624 85.4283 15.8457C85.775 15.6204 86.048 15.317 86.2473 14.9357C86.4467 14.5544 86.5463 14.1167 86.5463 13.6227C86.5463 13.12 86.4467 12.678 86.2473 12.2967C86.048 11.9154 85.775 11.6164 85.4283 11.3997C85.0817 11.183 84.683 11.0747 84.2323 11.0747ZM99.8232 7.88969C99.9705 7.88969 100.096 7.93735 100.2 8.03268C100.304 8.11935 100.356 8.23635 100.356 8.38368C100.356 8.45302 100.339 8.53102 100.304 8.61769L96.9112 16.6647C96.8592 16.7774 96.7855 16.864 96.6902 16.9247C96.6035 16.9767 96.5082 17.0027 96.4042 17.0027C96.3089 16.994 96.2179 16.9637 96.1312 16.9117C96.0445 16.851 95.9795 16.7687 95.9362 16.6647L92.5562 8.63068C92.5389 8.59602 92.5259 8.56135 92.5172 8.52669C92.5085 8.48335 92.5042 8.44002 92.5042 8.39668C92.5042 8.23202 92.5605 8.10635 92.6732 8.01968C92.7945 7.92435 92.9115 7.87669 93.0242 7.87669C93.2582 7.87669 93.4272 7.99802 93.5312 8.24069L96.6382 15.6507H96.3392L99.3422 8.21468C99.4462 7.99802 99.6065 7.88969 99.8232 7.88969ZM104.536 17.1327C103.842 17.1327 103.236 16.9854 102.716 16.6907C102.196 16.396 101.788 15.993 101.494 15.4817C101.208 14.9617 101.065 14.3637 101.065 13.6877C101.065 12.9337 101.212 12.2924 101.507 11.7637C101.81 11.2264 102.2 10.819 102.677 10.5417C103.162 10.2557 103.673 10.1127 104.211 10.1127C104.609 10.1127 104.995 10.1864 105.368 10.3337C105.74 10.481 106.07 10.6977 106.356 10.9837C106.642 11.261 106.871 11.599 107.045 11.9977C107.218 12.3877 107.309 12.8254 107.318 13.3107C107.318 13.4494 107.266 13.5664 107.162 13.6617C107.058 13.757 106.936 13.8047 106.798 13.8047H101.663L101.429 12.9077H106.434L106.226 13.0897V12.8037C106.191 12.4484 106.07 12.145 105.862 11.8937C105.662 11.6337 105.415 11.4344 105.121 11.2957C104.835 11.157 104.531 11.0877 104.211 11.0877C103.951 11.0877 103.691 11.1354 103.431 11.2307C103.179 11.3174 102.95 11.4647 102.742 11.6727C102.542 11.872 102.378 12.132 102.248 12.4527C102.126 12.7734 102.066 13.159 102.066 13.6097C102.066 14.1124 102.165 14.5544 102.365 14.9357C102.573 15.317 102.859 15.6204 103.223 15.8457C103.587 16.0624 104.011 16.1707 104.497 16.1707C104.8 16.1707 105.064 16.1317 105.29 16.0537C105.515 15.9757 105.71 15.8804 105.875 15.7677C106.039 15.6464 106.178 15.525 106.291 15.4037C106.403 15.3257 106.512 15.2867 106.616 15.2867C106.746 15.2867 106.85 15.33 106.928 15.4167C107.014 15.5034 107.058 15.6074 107.058 15.7287C107.058 15.876 106.988 16.006 106.85 16.1187C106.607 16.3874 106.278 16.6257 105.862 16.8337C105.446 17.033 105.004 17.1327 104.536 17.1327ZM109.401 17.0027C109.254 17.0027 109.128 16.9507 109.024 16.8467C108.929 16.7427 108.881 16.617 108.881 16.4697V10.8017C108.881 10.6544 108.929 10.533 109.024 10.4377C109.128 10.3337 109.254 10.2817 109.401 10.2817C109.557 10.2817 109.683 10.3337 109.778 10.4377C109.873 10.533 109.921 10.6544 109.921 10.8017V12.5177L109.765 12.2447C109.817 11.976 109.908 11.716 110.038 11.4647C110.177 11.2047 110.35 10.975 110.558 10.7757C110.766 10.5677 111.004 10.4074 111.273 10.2947C111.542 10.1734 111.836 10.1127 112.157 10.1127C112.348 10.1127 112.521 10.1604 112.677 10.2557C112.842 10.3424 112.924 10.468 112.924 10.6327C112.924 10.8147 112.876 10.949 112.781 11.0357C112.686 11.1224 112.577 11.1657 112.456 11.1657C112.343 11.1657 112.235 11.144 112.131 11.1007C112.027 11.0487 111.897 11.0227 111.741 11.0227C111.524 11.0227 111.308 11.0834 111.091 11.2047C110.883 11.3174 110.688 11.482 110.506 11.6987C110.333 11.9154 110.19 12.1624 110.077 12.4397C109.973 12.7084 109.921 12.9987 109.921 13.3107V16.4697C109.921 16.617 109.869 16.7427 109.765 16.8467C109.67 16.9507 109.548 17.0027 109.401 17.0027ZM117.44 10.1127C118.029 10.1127 118.493 10.234 118.831 10.4767C119.169 10.7194 119.407 11.0444 119.546 11.4517C119.693 11.859 119.767 12.314 119.767 12.8167V16.4697C119.767 16.617 119.715 16.7427 119.611 16.8467C119.515 16.9507 119.394 17.0027 119.247 17.0027C119.099 17.0027 118.974 16.9507 118.87 16.8467C118.774 16.7427 118.727 16.617 118.727 16.4697V12.8427C118.727 12.5134 118.675 12.2187 118.571 11.9587C118.475 11.69 118.311 11.4777 118.077 11.3217C117.851 11.157 117.539 11.0747 117.141 11.0747C116.777 11.0747 116.443 11.157 116.14 11.3217C115.836 11.4777 115.594 11.69 115.412 11.9587C115.23 12.2187 115.139 12.5134 115.139 12.8427V16.4697C115.139 16.617 115.087 16.7427 114.983 16.8467C114.887 16.9507 114.766 17.0027 114.619 17.0027C114.471 17.0027 114.346 16.9507 114.242 16.8467C114.146 16.7427 114.099 16.617 114.099 16.4697V10.8017C114.099 10.6544 114.146 10.533 114.242 10.4377C114.346 10.3337 114.471 10.2817 114.619 10.2817C114.775 10.2817 114.9 10.3337 114.996 10.4377C115.091 10.533 115.139 10.6544 115.139 10.8017V11.7247L114.879 12.0107C114.922 11.7854 115.022 11.56 115.178 11.3347C115.334 11.1007 115.529 10.8927 115.763 10.7107C115.997 10.5287 116.257 10.3857 116.543 10.2817C116.829 10.169 117.128 10.1127 117.44 10.1127ZM127.229 10.2167C127.376 10.2167 127.497 10.2687 127.593 10.3727C127.697 10.468 127.749 10.5894 127.749 10.7367V16.4697C127.749 16.617 127.697 16.7427 127.593 16.8467C127.497 16.9507 127.376 17.0027 127.229 17.0027C127.073 17.0027 126.947 16.9507 126.852 16.8467C126.756 16.7427 126.709 16.617 126.709 16.4697V15.2347L126.956 15.2087C126.956 15.3994 126.891 15.6074 126.761 15.8327C126.631 16.058 126.453 16.2704 126.228 16.4697C126.002 16.6604 125.734 16.8207 125.422 16.9507C125.118 17.072 124.789 17.1327 124.434 17.1327C123.844 17.1327 123.316 16.981 122.848 16.6777C122.38 16.3657 122.007 15.9454 121.73 15.4167C121.461 14.888 121.327 14.2857 121.327 13.6097C121.327 12.925 121.461 12.3227 121.73 11.8027C122.007 11.274 122.38 10.8624 122.848 10.5677C123.316 10.2644 123.836 10.1127 124.408 10.1127C124.78 10.1127 125.127 10.1734 125.448 10.2947C125.768 10.416 126.046 10.5807 126.28 10.7887C126.522 10.9967 126.709 11.2264 126.839 11.4777C126.977 11.729 127.047 11.9804 127.047 12.2317L126.709 12.1537V10.7367C126.709 10.5894 126.756 10.468 126.852 10.3727C126.947 10.2687 127.073 10.2167 127.229 10.2167ZM124.551 16.1707C124.984 16.1707 125.365 16.058 125.695 15.8327C126.033 15.6074 126.293 15.304 126.475 14.9227C126.665 14.5327 126.761 14.095 126.761 13.6097C126.761 13.133 126.665 12.704 126.475 12.3227C126.293 11.9327 126.033 11.6294 125.695 11.4127C125.365 11.1874 124.984 11.0747 124.551 11.0747C124.126 11.0747 123.745 11.183 123.407 11.3997C123.077 11.6164 122.817 11.9154 122.627 12.2967C122.436 12.678 122.341 13.1157 122.341 13.6097C122.341 14.095 122.432 14.5327 122.614 14.9227C122.804 15.304 123.064 15.6074 123.394 15.8327C123.732 16.058 124.117 16.1707 124.551 16.1707ZM132.666 10.1127C133.108 10.1127 133.507 10.1604 133.862 10.2557C134.217 10.351 134.499 10.481 134.707 10.6457C134.915 10.8104 135.019 10.9967 135.019 11.2047C135.019 11.3174 134.98 11.4257 134.902 11.5297C134.824 11.6337 134.72 11.6857 134.59 11.6857C134.469 11.6857 134.369 11.664 134.291 11.6207C134.222 11.5774 134.152 11.521 134.083 11.4517C134.022 11.3824 133.936 11.3217 133.823 11.2697C133.719 11.209 133.567 11.1614 133.368 11.1267C133.169 11.092 132.969 11.0747 132.77 11.0747C132.293 11.0747 131.873 11.1874 131.509 11.4127C131.154 11.638 130.872 11.9414 130.664 12.3227C130.456 12.704 130.352 13.1374 130.352 13.6227C130.352 14.108 130.452 14.5414 130.651 14.9227C130.85 15.304 131.128 15.6074 131.483 15.8327C131.838 16.058 132.25 16.1707 132.718 16.1707C133.021 16.1707 133.264 16.1447 133.446 16.0927C133.628 16.0407 133.78 15.98 133.901 15.9107C134.057 15.824 134.174 15.7374 134.252 15.6507C134.339 15.564 134.451 15.5207 134.59 15.5207C134.737 15.5207 134.85 15.5684 134.928 15.6637C135.015 15.759 135.058 15.876 135.058 16.0147C135.058 16.1707 134.95 16.3354 134.733 16.5087C134.516 16.682 134.222 16.8294 133.849 16.9507C133.485 17.072 133.069 17.1327 132.601 17.1327C131.942 17.1327 131.366 16.981 130.872 16.6777C130.378 16.3657 129.992 15.9454 129.715 15.4167C129.446 14.8794 129.312 14.2814 129.312 13.6227C129.312 12.964 129.451 12.3704 129.728 11.8417C130.014 11.313 130.408 10.8927 130.911 10.5807C131.414 10.2687 131.999 10.1127 132.666 10.1127ZM141.448 10.2817C141.604 10.2817 141.73 10.3337 141.825 10.4377C141.92 10.533 141.968 10.6544 141.968 10.8017V14.3507C141.968 15.226 141.721 15.9064 141.227 16.3917C140.742 16.8684 140.061 17.1067 139.186 17.1067C138.319 17.1067 137.639 16.8684 137.145 16.3917C136.66 15.9064 136.417 15.226 136.417 14.3507V10.8017C136.417 10.6544 136.465 10.533 136.56 10.4377C136.664 10.3337 136.79 10.2817 136.937 10.2817C137.093 10.2817 137.219 10.3337 137.314 10.4377C137.409 10.533 137.457 10.6544 137.457 10.8017V14.3507C137.457 14.94 137.609 15.3864 137.912 15.6897C138.215 15.993 138.64 16.1447 139.186 16.1447C139.749 16.1447 140.178 15.993 140.473 15.6897C140.776 15.3864 140.928 14.94 140.928 14.3507V10.8017C140.928 10.6544 140.976 10.533 141.071 10.4377C141.175 10.3337 141.301 10.2817 141.448 10.2817ZM145.039 16.4697C145.039 16.617 144.987 16.7427 144.883 16.8467C144.779 16.9507 144.653 17.0027 144.506 17.0027C144.358 17.0027 144.237 16.9507 144.142 16.8467C144.046 16.7427 143.999 16.617 143.999 16.4697V7.90268C143.999 7.75535 144.046 7.63402 144.142 7.53868C144.246 7.43469 144.371 7.38269 144.519 7.38269C144.675 7.38269 144.8 7.43469 144.896 7.53868C144.991 7.63402 145.039 7.75535 145.039 7.90268V16.4697ZM152.594 10.2167C152.741 10.2167 152.862 10.2687 152.958 10.3727C153.062 10.468 153.114 10.5894 153.114 10.7367V16.4697C153.114 16.617 153.062 16.7427 152.958 16.8467C152.862 16.9507 152.741 17.0027 152.594 17.0027C152.438 17.0027 152.312 16.9507 152.217 16.8467C152.121 16.7427 152.074 16.617 152.074 16.4697V15.2347L152.321 15.2087C152.321 15.3994 152.256 15.6074 152.126 15.8327C151.996 16.058 151.818 16.2704 151.593 16.4697C151.367 16.6604 151.099 16.8207 150.787 16.9507C150.483 17.072 150.154 17.1327 149.799 17.1327C149.209 17.1327 148.681 16.981 148.213 16.6777C147.745 16.3657 147.372 15.9454 147.095 15.4167C146.826 14.888 146.692 14.2857 146.692 13.6097C146.692 12.925 146.826 12.3227 147.095 11.8027C147.372 11.274 147.745 10.8624 148.213 10.5677C148.681 10.2644 149.201 10.1127 149.773 10.1127C150.145 10.1127 150.492 10.1734 150.813 10.2947C151.133 10.416 151.411 10.5807 151.645 10.7887C151.887 10.9967 152.074 11.2264 152.204 11.4777C152.342 11.729 152.412 11.9804 152.412 12.2317L152.074 12.1537V10.7367C152.074 10.5894 152.121 10.468 152.217 10.3727C152.312 10.2687 152.438 10.2167 152.594 10.2167ZM149.916 16.1707C150.349 16.1707 150.73 16.058 151.06 15.8327C151.398 15.6074 151.658 15.304 151.84 14.9227C152.03 14.5327 152.126 14.095 152.126 13.6097C152.126 13.133 152.03 12.704 151.84 12.3227C151.658 11.9327 151.398 11.6294 151.06 11.4127C150.73 11.1874 150.349 11.0747 149.916 11.0747C149.491 11.0747 149.11 11.183 148.772 11.3997C148.442 11.6164 148.182 11.9154 147.992 12.2967C147.801 12.678 147.706 13.1157 147.706 13.6097C147.706 14.095 147.797 14.5327 147.979 14.9227C148.169 15.304 148.429 15.6074 148.759 15.8327C149.097 16.058 149.482 16.1707 149.916 16.1707ZM155.561 17.0027C155.414 17.0027 155.288 16.9507 155.184 16.8467C155.089 16.7427 155.041 16.617 155.041 16.4697V10.8017C155.041 10.6544 155.089 10.533 155.184 10.4377C155.288 10.3337 155.414 10.2817 155.561 10.2817C155.717 10.2817 155.843 10.3337 155.938 10.4377C156.033 10.533 156.081 10.6544 156.081 10.8017V12.5177L155.925 12.2447C155.977 11.976 156.068 11.716 156.198 11.4647C156.337 11.2047 156.51 10.975 156.718 10.7757C156.926 10.5677 157.164 10.4074 157.433 10.2947C157.702 10.1734 157.996 10.1127 158.317 10.1127C158.508 10.1127 158.681 10.1604 158.837 10.2557C159.002 10.3424 159.084 10.468 159.084 10.6327C159.084 10.8147 159.036 10.949 158.941 11.0357C158.846 11.1224 158.737 11.1657 158.616 11.1657C158.503 11.1657 158.395 11.144 158.291 11.1007C158.187 11.0487 158.057 11.0227 157.901 11.0227C157.684 11.0227 157.468 11.0834 157.251 11.2047C157.043 11.3174 156.848 11.482 156.666 11.6987C156.493 11.9154 156.35 12.1624 156.237 12.4397C156.133 12.7084 156.081 12.9987 156.081 13.3107V16.4697C156.081 16.617 156.029 16.7427 155.925 16.8467C155.83 16.9507 155.708 17.0027 155.561 17.0027ZM164.554 7.88969C164.632 7.88969 164.714 7.91135 164.801 7.95469C164.896 7.99802 164.97 8.05435 165.022 8.12369L168.467 13.3367L168.012 13.3237L171.496 8.12369C171.609 7.95902 171.756 7.88102 171.938 7.88969C172.077 7.89835 172.198 7.95035 172.302 8.04569C172.406 8.14102 172.458 8.26669 172.458 8.42269V16.4697C172.458 16.617 172.406 16.7427 172.302 16.8467C172.198 16.9507 172.068 17.0027 171.912 17.0027C171.756 17.0027 171.626 16.9507 171.522 16.8467C171.418 16.7427 171.366 16.617 171.366 16.4697V9.41068L171.691 9.47568L168.623 14.1427C168.571 14.2034 168.506 14.2554 168.428 14.2987C168.359 14.342 168.285 14.3637 168.207 14.3637C168.129 14.3637 168.051 14.342 167.973 14.2987C167.895 14.2554 167.83 14.2034 167.778 14.1427L164.749 9.47568L165.022 9.13769V16.4697C165.022 16.617 164.974 16.7427 164.879 16.8467C164.784 16.9507 164.662 17.0027 164.515 17.0027C164.368 17.0027 164.246 16.9507 164.151 16.8467C164.064 16.7427 164.021 16.617 164.021 16.4697V8.42269C164.021 8.28402 164.069 8.16268 164.164 8.05869C164.268 7.94602 164.398 7.88969 164.554 7.88969ZM177.661 17.1327C176.967 17.1327 176.361 16.9854 175.841 16.6907C175.321 16.396 174.913 15.993 174.619 15.4817C174.333 14.9617 174.19 14.3637 174.19 13.6877C174.19 12.9337 174.337 12.2924 174.632 11.7637C174.935 11.2264 175.325 10.819 175.802 10.5417C176.287 10.2557 176.798 10.1127 177.336 10.1127C177.734 10.1127 178.12 10.1864 178.493 10.3337C178.865 10.481 179.195 10.6977 179.481 10.9837C179.767 11.261 179.996 11.599 180.17 11.9977C180.343 12.3877 180.434 12.8254 180.443 13.3107C180.443 13.4494 180.391 13.5664 180.287 13.6617C180.183 13.757 180.061 13.8047 179.923 13.8047H174.788L174.554 12.9077H179.559L179.351 13.0897V12.8037C179.316 12.4484 179.195 12.145 178.987 11.8937C178.787 11.6337 178.54 11.4344 178.246 11.2957C177.96 11.157 177.656 11.0877 177.336 11.0877C177.076 11.0877 176.816 11.1354 176.556 11.2307C176.304 11.3174 176.075 11.4647 175.867 11.6727C175.667 11.872 175.503 12.132 175.373 12.4527C175.251 12.7734 175.191 13.159 175.191 13.6097C175.191 14.1124 175.29 14.5544 175.49 14.9357C175.698 15.317 175.984 15.6204 176.348 15.8457C176.712 16.0624 177.136 16.1707 177.622 16.1707C177.925 16.1707 178.189 16.1317 178.415 16.0537C178.64 15.9757 178.835 15.8804 179 15.7677C179.164 15.6464 179.303 15.525 179.416 15.4037C179.528 15.3257 179.637 15.2867 179.741 15.2867C179.871 15.2867 179.975 15.33 180.053 15.4167C180.139 15.5034 180.183 15.6074 180.183 15.7287C180.183 15.876 180.113 16.006 179.975 16.1187C179.732 16.3874 179.403 16.6257 178.987 16.8337C178.571 17.033 178.129 17.1327 177.661 17.1327ZM187.544 7.38269C187.691 7.38269 187.813 7.43469 187.908 7.53868C188.012 7.63402 188.064 7.75535 188.064 7.90268V16.4697C188.064 16.617 188.012 16.7427 187.908 16.8467C187.813 16.9507 187.691 17.0027 187.544 17.0027C187.388 17.0027 187.262 16.9507 187.167 16.8467C187.072 16.7427 187.024 16.617 187.024 16.4697V15.2347L187.271 15.1437C187.271 15.3517 187.206 15.5727 187.076 15.8067C186.946 16.032 186.768 16.2444 186.543 16.4437C186.318 16.643 186.049 16.8077 185.737 16.9377C185.434 17.0677 185.104 17.1327 184.749 17.1327C184.168 17.1327 183.64 16.981 183.163 16.6777C182.695 16.3744 182.322 15.9584 182.045 15.4297C181.776 14.901 181.642 14.2987 181.642 13.6227C181.642 12.938 181.776 12.3314 182.045 11.8027C182.322 11.274 182.695 10.8624 183.163 10.5677C183.631 10.2644 184.151 10.1127 184.723 10.1127C185.087 10.1127 185.429 10.1734 185.75 10.2947C186.071 10.416 186.348 10.5807 186.582 10.7887C186.825 10.9967 187.015 11.2264 187.154 11.4777C187.293 11.729 187.362 11.9804 187.362 12.2317L187.024 12.1537V7.90268C187.024 7.75535 187.072 7.63402 187.167 7.53868C187.262 7.43469 187.388 7.38269 187.544 7.38269ZM184.866 16.1707C185.299 16.1707 185.681 16.0624 186.01 15.8457C186.348 15.6204 186.608 15.317 186.79 14.9357C186.981 14.5457 187.076 14.108 187.076 13.6227C187.076 13.1287 186.981 12.691 186.79 12.3097C186.608 11.9284 186.348 11.6294 186.01 11.4127C185.681 11.1874 185.299 11.0747 184.866 11.0747C184.441 11.0747 184.06 11.1874 183.722 11.4127C183.393 11.6294 183.133 11.9284 182.942 12.3097C182.751 12.691 182.656 13.1287 182.656 13.6227C182.656 14.0994 182.751 14.5327 182.942 14.9227C183.133 15.304 183.393 15.6074 183.722 15.8327C184.06 16.058 184.441 16.1707 184.866 16.1707ZM190.992 16.4697C190.992 16.617 190.94 16.7427 190.836 16.8467C190.741 16.9507 190.62 17.0027 190.472 17.0027C190.316 17.0027 190.191 16.9507 190.095 16.8467C190 16.7427 189.952 16.617 189.952 16.4697V10.6977C189.952 10.5504 190 10.429 190.095 10.3337C190.199 10.2297 190.325 10.1777 190.472 10.1777C190.62 10.1777 190.741 10.2297 190.836 10.3337C190.94 10.429 190.992 10.5504 190.992 10.6977V16.4697ZM190.472 9.30669C190.256 9.30669 190.095 9.26335 189.991 9.17668C189.887 9.09002 189.835 8.95569 189.835 8.77369V8.59169C189.835 8.40969 189.892 8.27535 190.004 8.18869C190.117 8.10202 190.277 8.05869 190.485 8.05869C190.693 8.05869 190.849 8.10202 190.953 8.18869C191.057 8.27535 191.109 8.40969 191.109 8.59169V8.77369C191.109 8.95569 191.053 9.09002 190.94 9.17668C190.836 9.26335 190.68 9.30669 190.472 9.30669ZM197.891 10.2817C198.047 10.2817 198.173 10.3337 198.268 10.4377C198.364 10.533 198.411 10.6544 198.411 10.8017V14.3507C198.411 15.226 198.164 15.9064 197.67 16.3917C197.185 16.8684 196.505 17.1067 195.629 17.1067C194.763 17.1067 194.082 16.8684 193.588 16.3917C193.103 15.9064 192.86 15.226 192.86 14.3507V10.8017C192.86 10.6544 192.908 10.533 193.003 10.4377C193.107 10.3337 193.233 10.2817 193.38 10.2817C193.536 10.2817 193.662 10.3337 193.757 10.4377C193.853 10.533 193.9 10.6544 193.9 10.8017V14.3507C193.9 14.94 194.052 15.3864 194.355 15.6897C194.659 15.993 195.083 16.1447 195.629 16.1447C196.193 16.1447 196.622 15.993 196.916 15.6897C197.22 15.3864 197.371 14.94 197.371 14.3507V10.8017C197.371 10.6544 197.419 10.533 197.514 10.4377C197.618 10.3337 197.744 10.2817 197.891 10.2817ZM203.549 10.1777C204.138 10.1777 204.615 10.3294 204.979 10.6327C205.352 10.9274 205.599 11.3477 205.72 11.8937H205.525L205.616 11.6597C205.72 11.417 205.898 11.183 206.149 10.9577C206.4 10.7324 206.691 10.546 207.02 10.3987C207.349 10.2514 207.692 10.1777 208.047 10.1777C208.619 10.1777 209.07 10.3034 209.399 10.5547C209.728 10.7974 209.962 11.1267 210.101 11.5427C210.248 11.95 210.322 12.4094 210.322 12.9207V16.4697C210.322 16.617 210.27 16.7427 210.166 16.8467C210.071 16.9507 209.949 17.0027 209.802 17.0027C209.646 17.0027 209.52 16.9507 209.425 16.8467C209.33 16.7427 209.282 16.617 209.282 16.4697V12.9467C209.282 12.6087 209.23 12.3054 209.126 12.0367C209.031 11.7594 208.87 11.5427 208.645 11.3867C208.428 11.222 208.129 11.1397 207.748 11.1397C207.393 11.1397 207.068 11.222 206.773 11.3867C206.478 11.5427 206.244 11.7594 206.071 12.0367C205.898 12.3054 205.811 12.6087 205.811 12.9467V16.4697C205.811 16.617 205.763 16.7427 205.668 16.8467C205.573 16.9507 205.447 17.0027 205.291 17.0027C205.144 17.0027 205.018 16.9507 204.914 16.8467C204.819 16.7427 204.771 16.617 204.771 16.4697V12.9077C204.771 12.5784 204.723 12.2837 204.628 12.0237C204.541 11.755 204.39 11.5427 204.173 11.3867C203.956 11.222 203.657 11.1397 203.276 11.1397C202.929 11.1397 202.613 11.222 202.327 11.3867C202.041 11.5427 201.811 11.755 201.638 12.0237C201.465 12.2837 201.378 12.5784 201.378 12.9077V16.4697C201.378 16.617 201.326 16.7427 201.222 16.8467C201.127 16.9507 201.005 17.0027 200.858 17.0027C200.711 17.0027 200.585 16.9507 200.481 16.8467C200.386 16.7427 200.338 16.617 200.338 16.4697V10.8017C200.338 10.6544 200.386 10.533 200.481 10.4377C200.585 10.3337 200.711 10.2817 200.858 10.2817C201.014 10.2817 201.14 10.3337 201.235 10.4377C201.33 10.533 201.378 10.6544 201.378 10.8017V11.7897L201.092 12.1017C201.127 11.8764 201.213 11.651 201.352 11.4257C201.499 11.2004 201.686 10.9924 201.911 10.8017C202.136 10.611 202.388 10.4594 202.665 10.3467C202.942 10.234 203.237 10.1777 203.549 10.1777Z" fill="#17171A"/>
</svg>
