<svg width="270" height="270" viewBox="0 0 270 270" fill="none" xmlns="http://www.w3.org/2000/svg">
<g opacity="0.2" filter="url(#filter0_f_99_1573)">
<circle cx="135" cy="135" r="63" fill="#F7BB3D"/>
</g>
<g filter="url(#filter1_b_99_1573)">
<rect width="126" height="126" rx="63" transform="matrix(-2.18557e-08 -1 -1 2.18557e-08 197 198)" fill="white" fill-opacity="0.8"/>
<path d="M133.999 125.222C140.749 125.222 146.221 119.749 146.221 112.999C146.221 106.249 140.749 100.777 133.999 100.777C127.249 100.777 121.777 106.249 121.777 112.999C121.777 119.749 127.249 125.222 133.999 125.222Z" fill="#F7BB3C"/>
<mask id="mask0_99_1573" style="mask-type:alpha" maskUnits="userSpaceOnUse" x="121" y="100" width="26" height="26">
<path d="M133.999 125.222C140.749 125.222 146.221 119.749 146.221 112.999C146.221 106.249 140.749 100.777 133.999 100.777C127.249 100.777 121.777 106.249 121.777 112.999C121.777 119.749 127.249 125.222 133.999 125.222Z" fill="#15BE53"/>
</mask>
<g mask="url(#mask0_99_1573)">
<path d="M141.083 122.957C139.343 121.013 136.814 119.79 133.999 119.79C131.184 119.79 128.655 121.013 126.915 122.957V127.259H141.083V122.957Z" fill="#F7BB3C"/>
<path d="M133.999 115.716C136.249 115.716 138.073 113.892 138.073 111.642C138.073 109.392 136.249 107.568 133.999 107.568C131.749 107.568 129.925 109.392 129.925 111.642C129.925 113.892 131.749 115.716 133.999 115.716Z" fill="#F7BB3C"/>
</g>
<g opacity="0.3">
<path d="M155.596 128.481V134.999C155.596 135.864 155.253 136.693 154.641 137.304C154.03 137.915 153.201 138.259 152.337 138.259H145.818" stroke="#F7BB3C" stroke-width="1.22222" stroke-linecap="round" stroke-linejoin="round"/>
<path d="M145.818 95.8882H152.337C153.201 95.8882 154.03 96.2316 154.641 96.8428C155.253 97.454 155.596 98.283 155.596 99.1474V105.666" stroke="#F7BB3C" stroke-width="1.22222" stroke-linecap="round" stroke-linejoin="round"/>
<path d="M113.225 105.666V99.1474C113.225 98.283 113.569 97.454 114.18 96.8428C114.791 96.2316 115.62 95.8882 116.485 95.8882H123.003" stroke="#F7BB3C" stroke-width="1.22222" stroke-linecap="round" stroke-linejoin="round"/>
<path d="M123.003 138.259H116.485C115.62 138.259 114.791 137.915 114.18 137.304C113.569 136.693 113.225 135.864 113.225 134.999V128.481" stroke="#F7BB3C" stroke-width="1.22222" stroke-linecap="round" stroke-linejoin="round"/>
</g>
<g opacity="0.3">
<path d="M134.651 127.685C127.555 127.685 121.803 131.52 121.803 136.251H147.5C147.5 131.52 141.748 127.685 134.651 127.685Z" fill="#F7BB3C"/>
<path d="M134.652 123.185C139.382 123.185 143.218 119.35 143.218 114.62C143.218 109.889 139.382 106.054 134.652 106.054C129.921 106.054 126.086 109.889 126.086 114.62C126.086 119.35 129.921 123.185 134.652 123.185Z" fill="#F7BB3C"/>
</g>
<path d="M97.8158 157.8C98.3811 157.8 98.9038 157.955 99.3838 158.264C99.8638 158.563 100.248 158.973 100.536 159.496C100.824 160.019 100.968 160.605 100.968 161.256C100.968 161.907 100.824 162.499 100.536 163.032C100.248 163.555 99.8638 163.976 99.3838 164.296C98.9038 164.605 98.3811 164.76 97.8158 164.76H94.7278L94.8558 164.504V168.184C94.8558 168.419 94.7811 168.616 94.6318 168.776C94.4931 168.925 94.3065 169 94.0718 169C93.8478 169 93.6611 168.925 93.5118 168.776C93.3731 168.616 93.3038 168.419 93.3038 168.184V158.616C93.3038 158.381 93.3838 158.189 93.5438 158.04C93.7038 157.88 93.8958 157.8 94.1198 157.8H97.8158ZM97.8158 163.224C98.0931 163.224 98.3438 163.133 98.5678 162.952C98.8025 162.771 98.9891 162.531 99.1278 162.232C99.2771 161.933 99.3518 161.608 99.3518 161.256C99.3518 160.904 99.2771 160.584 99.1278 160.296C98.9891 160.008 98.8025 159.779 98.5678 159.608C98.3438 159.427 98.0931 159.336 97.8158 159.336H94.6958L94.8558 159.096V163.432L94.7118 163.224H97.8158ZM106.501 169.16C105.616 169.16 104.848 168.979 104.197 168.616C103.546 168.243 103.04 167.736 102.677 167.096C102.325 166.445 102.149 165.704 102.149 164.872C102.149 163.933 102.336 163.133 102.709 162.472C103.093 161.8 103.589 161.288 104.197 160.936C104.805 160.573 105.45 160.392 106.133 160.392C106.656 160.392 107.152 160.499 107.621 160.712C108.09 160.915 108.506 161.203 108.869 161.576C109.242 161.939 109.536 162.371 109.749 162.872C109.962 163.363 110.074 163.901 110.085 164.488C110.074 164.701 109.989 164.877 109.829 165.016C109.669 165.155 109.482 165.224 109.269 165.224H103.045L102.661 163.864H108.677L108.373 164.152V163.752C108.352 163.379 108.229 163.053 108.005 162.776C107.781 162.488 107.504 162.269 107.173 162.12C106.842 161.96 106.496 161.88 106.133 161.88C105.813 161.88 105.504 161.933 105.205 162.04C104.917 162.136 104.656 162.296 104.421 162.52C104.197 162.744 104.016 163.043 103.877 163.416C103.749 163.779 103.685 164.232 103.685 164.776C103.685 165.363 103.808 165.875 104.053 166.312C104.298 166.749 104.629 167.091 105.045 167.336C105.461 167.571 105.92 167.688 106.421 167.688C106.816 167.688 107.141 167.651 107.397 167.576C107.653 167.491 107.866 167.389 108.037 167.272C108.208 167.155 108.357 167.043 108.485 166.936C108.645 166.84 108.805 166.792 108.965 166.792C109.157 166.792 109.317 166.861 109.445 167C109.573 167.128 109.637 167.283 109.637 167.464C109.637 167.699 109.52 167.912 109.285 168.104C108.997 168.381 108.597 168.627 108.085 168.84C107.584 169.053 107.056 169.16 106.501 169.16ZM112.693 169C112.459 169 112.267 168.925 112.117 168.776C111.968 168.616 111.893 168.419 111.893 168.184V161.4C111.893 161.165 111.968 160.973 112.117 160.824C112.267 160.664 112.459 160.584 112.693 160.584C112.917 160.584 113.104 160.664 113.253 160.824C113.413 160.973 113.493 161.165 113.493 161.4V163.192L113.333 162.504C113.419 162.205 113.547 161.928 113.717 161.672C113.899 161.416 114.112 161.192 114.357 161C114.603 160.808 114.875 160.659 115.173 160.552C115.483 160.445 115.803 160.392 116.133 160.392C116.411 160.392 116.651 160.467 116.853 160.616C117.056 160.765 117.157 160.952 117.157 161.176C117.157 161.464 117.083 161.677 116.933 161.816C116.784 161.944 116.619 162.008 116.437 162.008C116.277 162.008 116.123 161.976 115.973 161.912C115.824 161.837 115.648 161.8 115.445 161.8C115.221 161.8 114.992 161.859 114.757 161.976C114.523 162.093 114.309 162.269 114.117 162.504C113.925 162.728 113.771 162.995 113.653 163.304C113.547 163.613 113.493 163.96 113.493 164.344V168.184C113.493 168.419 113.413 168.616 113.253 168.776C113.104 168.925 112.917 169 112.693 169ZM118.085 167.688C117.989 167.539 117.946 167.368 117.957 167.176C117.968 166.973 118.08 166.803 118.293 166.664C118.442 166.568 118.597 166.531 118.757 166.552C118.928 166.563 119.088 166.643 119.237 166.792C119.536 167.123 119.866 167.384 120.229 167.576C120.602 167.768 121.05 167.864 121.573 167.864C121.786 167.853 122.005 167.821 122.229 167.768C122.453 167.704 122.645 167.597 122.805 167.448C122.965 167.288 123.045 167.059 123.045 166.76C123.045 166.493 122.96 166.28 122.789 166.12C122.618 165.96 122.394 165.832 122.117 165.736C121.84 165.629 121.541 165.533 121.221 165.448C120.88 165.352 120.533 165.245 120.181 165.128C119.84 165.011 119.53 164.861 119.253 164.68C118.976 164.488 118.746 164.243 118.565 163.944C118.394 163.645 118.309 163.277 118.309 162.84C118.309 162.339 118.448 161.907 118.725 161.544C119.013 161.181 119.381 160.899 119.829 160.696C120.288 160.493 120.784 160.392 121.317 160.392C121.626 160.392 121.952 160.435 122.293 160.52C122.634 160.595 122.965 160.717 123.285 160.888C123.605 161.059 123.882 161.283 124.117 161.56C124.224 161.699 124.282 161.864 124.293 162.056C124.314 162.248 124.229 162.419 124.037 162.568C123.909 162.675 123.754 162.723 123.573 162.712C123.392 162.701 123.242 162.643 123.125 162.536C122.922 162.28 122.661 162.083 122.341 161.944C122.021 161.795 121.658 161.72 121.253 161.72C121.05 161.72 120.837 161.752 120.613 161.816C120.4 161.869 120.218 161.971 120.069 162.12C119.92 162.269 119.845 162.488 119.845 162.776C119.845 163.043 119.93 163.256 120.101 163.416C120.282 163.576 120.517 163.709 120.805 163.816C121.093 163.923 121.408 164.019 121.749 164.104C122.08 164.189 122.405 164.291 122.725 164.408C123.056 164.525 123.349 164.68 123.605 164.872C123.872 165.053 124.085 165.293 124.245 165.592C124.416 165.88 124.501 166.248 124.501 166.696C124.501 167.219 124.346 167.667 124.037 168.04C123.738 168.403 123.354 168.68 122.885 168.872C122.426 169.064 121.941 169.16 121.429 169.16C120.821 169.16 120.213 169.053 119.605 168.84C119.008 168.616 118.501 168.232 118.085 167.688ZM134.286 164.792C134.286 165.645 134.099 166.403 133.726 167.064C133.352 167.715 132.846 168.227 132.206 168.6C131.566 168.973 130.846 169.16 130.046 169.16C129.246 169.16 128.526 168.973 127.886 168.6C127.246 168.227 126.734 167.715 126.35 167.064C125.976 166.403 125.79 165.645 125.79 164.792C125.79 163.928 125.976 163.171 126.35 162.52C126.734 161.859 127.246 161.341 127.886 160.968C128.526 160.584 129.246 160.392 130.046 160.392C130.846 160.392 131.566 160.584 132.206 160.968C132.846 161.341 133.352 161.859 133.726 162.52C134.099 163.171 134.286 163.928 134.286 164.792ZM132.686 164.792C132.686 164.205 132.568 163.699 132.334 163.272C132.099 162.835 131.779 162.493 131.374 162.248C130.979 161.992 130.536 161.864 130.046 161.864C129.555 161.864 129.107 161.992 128.702 162.248C128.296 162.493 127.976 162.835 127.742 163.272C127.507 163.699 127.39 164.205 127.39 164.792C127.39 165.357 127.507 165.859 127.742 166.296C127.976 166.733 128.296 167.075 128.702 167.32C129.107 167.565 129.555 167.688 130.046 167.688C130.536 167.688 130.979 167.565 131.374 167.32C131.779 167.075 132.099 166.733 132.334 166.296C132.568 165.859 132.686 165.357 132.686 164.792ZM140.433 160.392C141.19 160.392 141.777 160.552 142.193 160.872C142.609 161.181 142.897 161.603 143.057 162.136C143.227 162.659 143.313 163.245 143.313 163.896V168.184C143.313 168.419 143.233 168.616 143.073 168.776C142.923 168.925 142.737 169 142.513 169C142.278 169 142.086 168.925 141.937 168.776C141.787 168.616 141.713 168.419 141.713 168.184V163.912C141.713 163.528 141.659 163.187 141.553 162.888C141.446 162.579 141.259 162.333 140.993 162.152C140.737 161.96 140.374 161.864 139.905 161.864C139.467 161.864 139.083 161.96 138.753 162.152C138.422 162.333 138.161 162.579 137.969 162.888C137.787 163.187 137.697 163.528 137.697 163.912V168.184C137.697 168.419 137.617 168.616 137.457 168.776C137.307 168.925 137.121 169 136.897 169C136.662 169 136.47 168.925 136.321 168.776C136.171 168.616 136.097 168.419 136.097 168.184V161.4C136.097 161.165 136.171 160.973 136.321 160.824C136.47 160.664 136.662 160.584 136.897 160.584C137.121 160.584 137.307 160.664 137.457 160.824C137.617 160.973 137.697 161.165 137.697 161.4V162.296L137.409 162.456C137.483 162.221 137.611 161.987 137.793 161.752C137.985 161.507 138.214 161.283 138.481 161.08C138.747 160.867 139.046 160.701 139.377 160.584C139.707 160.456 140.059 160.392 140.433 160.392ZM152.43 160.456C152.665 160.456 152.857 160.536 153.006 160.696C153.155 160.845 153.23 161.037 153.23 161.272V168.184C153.23 168.419 153.155 168.616 153.006 168.776C152.857 168.925 152.665 169 152.43 169C152.206 169 152.014 168.925 151.854 168.776C151.705 168.616 151.63 168.419 151.63 168.184V167.032L151.966 167.08C151.966 167.272 151.886 167.485 151.726 167.72C151.577 167.955 151.369 168.184 151.102 168.408C150.835 168.621 150.521 168.803 150.158 168.952C149.795 169.091 149.406 169.16 148.99 169.16C148.254 169.16 147.593 168.973 147.006 168.6C146.419 168.216 145.955 167.693 145.614 167.032C145.273 166.371 145.102 165.619 145.102 164.776C145.102 163.912 145.273 163.155 145.614 162.504C145.955 161.843 146.414 161.325 146.99 160.952C147.577 160.579 148.227 160.392 148.942 160.392C149.401 160.392 149.822 160.467 150.206 160.616C150.601 160.765 150.942 160.957 151.23 161.192C151.518 161.427 151.737 161.677 151.886 161.944C152.046 162.2 152.126 162.445 152.126 162.68L151.63 162.728V161.272C151.63 161.048 151.705 160.856 151.854 160.696C152.014 160.536 152.206 160.456 152.43 160.456ZM149.166 167.688C149.667 167.688 150.11 167.56 150.494 167.304C150.878 167.048 151.177 166.701 151.39 166.264C151.603 165.816 151.71 165.32 151.71 164.776C151.71 164.221 151.603 163.725 151.39 163.288C151.177 162.851 150.878 162.504 150.494 162.248C150.11 161.992 149.667 161.864 149.166 161.864C148.675 161.864 148.238 161.992 147.854 162.248C147.481 162.504 147.182 162.851 146.958 163.288C146.745 163.725 146.638 164.221 146.638 164.776C146.638 165.32 146.745 165.816 146.958 166.264C147.182 166.701 147.481 167.048 147.854 167.304C148.238 167.56 148.675 167.688 149.166 167.688ZM157.2 168.184C157.2 168.419 157.12 168.616 156.96 168.776C156.81 168.925 156.624 169 156.4 169C156.176 169 155.984 168.925 155.824 168.776C155.674 168.616 155.6 168.419 155.6 168.184V157.976C155.6 157.741 155.68 157.549 155.84 157.4C156 157.24 156.192 157.16 156.416 157.16C156.65 157.16 156.837 157.24 156.976 157.4C157.125 157.549 157.2 157.741 157.2 157.976V168.184ZM161.085 168.184C161.085 168.419 161.01 168.616 160.861 168.776C160.712 168.925 160.52 169 160.285 169C160.061 169 159.869 168.925 159.709 168.776C159.56 168.616 159.485 168.419 159.485 168.184V161.336C159.485 161.101 159.56 160.909 159.709 160.76C159.869 160.6 160.061 160.52 160.285 160.52C160.52 160.52 160.712 160.6 160.861 160.76C161.01 160.909 161.085 161.101 161.085 161.336V168.184ZM160.269 159.464C159.96 159.464 159.736 159.411 159.597 159.304C159.458 159.187 159.389 158.995 159.389 158.728V158.472C159.389 158.205 159.464 158.019 159.613 157.912C159.762 157.805 159.986 157.752 160.285 157.752C160.605 157.752 160.834 157.811 160.973 157.928C161.112 158.035 161.181 158.216 161.181 158.472V158.728C161.181 159.005 161.106 159.197 160.957 159.304C160.818 159.411 160.589 159.464 160.269 159.464ZM168.581 167.528C168.795 167.528 168.971 167.597 169.109 167.736C169.259 167.875 169.333 168.051 169.333 168.264C169.333 168.467 169.259 168.643 169.109 168.792C168.971 168.931 168.795 169 168.581 169H163.413C163.189 169 163.008 168.92 162.869 168.76C162.731 168.589 162.667 168.424 162.677 168.264C162.688 168.136 162.704 168.024 162.725 167.928C162.757 167.821 162.827 167.704 162.933 167.576L167.205 161.912V162.104H163.637C163.424 162.104 163.243 162.035 163.093 161.896C162.955 161.747 162.885 161.571 162.885 161.368C162.885 161.155 162.955 160.979 163.093 160.84C163.243 160.701 163.424 160.632 163.637 160.632H168.565C168.768 160.632 168.939 160.712 169.077 160.872C169.227 161.021 169.291 161.208 169.269 161.432C169.269 161.528 169.253 161.624 169.221 161.72C169.2 161.805 169.141 161.907 169.045 162.024L164.837 167.624L164.773 167.528H168.581ZM174.72 169.16C173.834 169.16 173.066 168.979 172.416 168.616C171.765 168.243 171.258 167.736 170.896 167.096C170.544 166.445 170.368 165.704 170.368 164.872C170.368 163.933 170.554 163.133 170.928 162.472C171.312 161.8 171.808 161.288 172.416 160.936C173.024 160.573 173.669 160.392 174.352 160.392C174.874 160.392 175.37 160.499 175.84 160.712C176.309 160.915 176.725 161.203 177.088 161.576C177.461 161.939 177.754 162.371 177.968 162.872C178.181 163.363 178.293 163.901 178.304 164.488C178.293 164.701 178.208 164.877 178.048 165.016C177.888 165.155 177.701 165.224 177.488 165.224H171.264L170.88 163.864H176.896L176.592 164.152V163.752C176.57 163.379 176.448 163.053 176.224 162.776C176 162.488 175.722 162.269 175.392 162.12C175.061 161.96 174.714 161.88 174.352 161.88C174.032 161.88 173.722 161.933 173.424 162.04C173.136 162.136 172.874 162.296 172.64 162.52C172.416 162.744 172.234 163.043 172.096 163.416C171.968 163.779 171.904 164.232 171.904 164.776C171.904 165.363 172.026 165.875 172.272 166.312C172.517 166.749 172.848 167.091 173.264 167.336C173.68 167.571 174.138 167.688 174.64 167.688C175.034 167.688 175.36 167.651 175.616 167.576C175.872 167.491 176.085 167.389 176.256 167.272C176.426 167.155 176.576 167.043 176.704 166.936C176.864 166.84 177.024 166.792 177.184 166.792C177.376 166.792 177.536 166.861 177.664 167C177.792 167.128 177.856 167.283 177.856 167.464C177.856 167.699 177.738 167.912 177.504 168.104C177.216 168.381 176.816 168.627 176.304 168.84C175.802 169.053 175.274 169.16 174.72 169.16Z" fill="#F7BB3C"/>
</g>
<defs>
<filter id="filter0_f_99_1573" x="0" y="0" width="270" height="270" filterUnits="userSpaceOnUse" color-interpolation-filters="sRGB">
<feFlood flood-opacity="0" result="BackgroundImageFix"/>
<feBlend mode="normal" in="SourceGraphic" in2="BackgroundImageFix" result="shape"/>
<feGaussianBlur stdDeviation="36" result="effect1_foregroundBlur_99_1573"/>
</filter>
<filter id="filter1_b_99_1573" x="61" y="62" width="146" height="146" filterUnits="userSpaceOnUse" color-interpolation-filters="sRGB">
<feFlood flood-opacity="0" result="BackgroundImageFix"/>
<feGaussianBlur in="BackgroundImage" stdDeviation="5"/>
<feComposite in2="SourceAlpha" operator="in" result="effect1_backgroundBlur_99_1573"/>
<feBlend mode="normal" in="SourceGraphic" in2="effect1_backgroundBlur_99_1573" result="shape"/>
</filter>
</defs>
</svg>
