<svg width="34" height="28" viewBox="0 0 34 28" fill="none" xmlns="http://www.w3.org/2000/svg">
<path d="M7.97345 28C5.31563 28 3.30973 27.0517 1.95575 25.1551C0.651917 23.2086 0 20.5134 0 17.0695C0 13.3262 0.952802 10.0321 2.85841 7.18717C4.76401 4.29233 7.72271 1.89661 11.7345 0L14.4425 5.54011C12.0354 6.58824 10.2301 7.88592 9.02655 9.43315C7.82301 10.9305 7.22124 12.8021 7.22124 15.0481C7.37168 14.9982 7.62242 14.9733 7.97345 14.9733C9.77876 14.9733 11.3083 15.5223 12.5619 16.6203C13.8156 17.7184 14.4425 19.2157 14.4425 21.1123C14.4425 23.2086 13.8407 24.8806 12.6372 26.1283C11.4336 27.3761 9.87906 28 7.97345 28ZM27.531 28C24.8732 28 22.8673 27.0517 21.5133 25.1551C20.2094 23.2086 19.5575 20.5134 19.5575 17.0695C19.5575 13.3262 20.5103 10.0321 22.4159 7.18717C24.3215 4.29233 27.2802 1.89661 31.292 0L34 5.54011C31.5929 6.58824 29.7876 7.88592 28.5841 9.43315C27.3805 10.9305 26.7788 12.8021 26.7788 15.0481C26.9292 14.9982 27.1799 14.9733 27.531 14.9733C29.3363 14.9733 30.8658 15.5223 32.1195 16.6203C33.3732 17.7184 34 19.2157 34 21.1123C34 23.2086 33.3982 24.8806 32.1947 26.1283C30.9911 27.3761 29.4366 28 27.531 28Z" fill="#6606EF"/>
</svg>
