<svg width="274" height="274" viewBox="0 0 274 274" fill="none" xmlns="http://www.w3.org/2000/svg">
<g opacity="0.2" filter="url(#filter0_f_99_1572)">
<circle cx="137" cy="137" r="65" fill="#7856FF"/>
</g>
<g filter="url(#filter1_b_99_1572)">
<rect x="72" y="202" width="130" height="130" rx="65" transform="rotate(-90 72 202)" fill="white" fill-opacity="0.8"/>
<path d="M109.268 160.886H114.804C115.028 160.886 115.215 160.96 115.364 161.11C115.524 161.259 115.604 161.446 115.604 161.67C115.604 161.894 115.524 162.075 115.364 162.214C115.215 162.352 115.028 162.422 114.804 162.422H109.972L110.132 162.15V165.734L109.988 165.574H114.084C114.308 165.574 114.495 165.648 114.644 165.798C114.804 165.947 114.884 166.139 114.884 166.374C114.884 166.598 114.804 166.779 114.644 166.918C114.495 167.056 114.308 167.126 114.084 167.126H110.02L110.132 166.982V170.678L110.02 170.55H114.804C115.028 170.55 115.215 170.63 115.364 170.79C115.524 170.939 115.604 171.115 115.604 171.318C115.604 171.542 115.524 171.728 115.364 171.878C115.215 172.016 115.028 172.086 114.804 172.086H109.268C109.044 172.086 108.852 172.011 108.692 171.862C108.532 171.702 108.452 171.504 108.452 171.27V161.702C108.452 161.467 108.532 161.275 108.692 161.126C108.852 160.966 109.044 160.886 109.268 160.886ZM121.753 163.478C122.51 163.478 123.097 163.638 123.513 163.958C123.929 164.267 124.217 164.688 124.377 165.222C124.548 165.744 124.633 166.331 124.633 166.982V171.27C124.633 171.504 124.553 171.702 124.393 171.862C124.244 172.011 124.057 172.086 123.833 172.086C123.598 172.086 123.406 172.011 123.257 171.862C123.108 171.702 123.033 171.504 123.033 171.27V166.998C123.033 166.614 122.98 166.272 122.873 165.974C122.766 165.664 122.58 165.419 122.313 165.238C122.057 165.046 121.694 164.95 121.225 164.95C120.788 164.95 120.404 165.046 120.073 165.238C119.742 165.419 119.481 165.664 119.289 165.974C119.108 166.272 119.017 166.614 119.017 166.998V171.27C119.017 171.504 118.937 171.702 118.777 171.862C118.628 172.011 118.441 172.086 118.217 172.086C117.982 172.086 117.79 172.011 117.641 171.862C117.492 171.702 117.417 171.504 117.417 171.27V164.486C117.417 164.251 117.492 164.059 117.641 163.91C117.79 163.75 117.982 163.67 118.217 163.67C118.441 163.67 118.628 163.75 118.777 163.91C118.937 164.059 119.017 164.251 119.017 164.486V165.382L118.729 165.542C118.804 165.307 118.932 165.072 119.113 164.838C119.305 164.592 119.534 164.368 119.801 164.166C120.068 163.952 120.366 163.787 120.697 163.67C121.028 163.542 121.38 163.478 121.753 163.478ZM130.358 163.478C130.817 163.478 131.238 163.552 131.622 163.702C132.006 163.851 132.337 164.043 132.614 164.278C132.902 164.502 133.126 164.736 133.286 164.982C133.446 165.227 133.526 165.44 133.526 165.622L133.158 165.638V164.358C133.158 164.134 133.233 163.942 133.382 163.782C133.532 163.622 133.724 163.542 133.958 163.542C134.193 163.542 134.385 163.622 134.534 163.782C134.684 163.931 134.758 164.123 134.758 164.358V171.414C134.758 172.32 134.566 173.056 134.182 173.622C133.798 174.198 133.286 174.619 132.646 174.886C132.017 175.152 131.324 175.286 130.566 175.286C130.3 175.286 129.985 175.248 129.622 175.174C129.26 175.11 128.924 175.03 128.614 174.934C128.316 174.838 128.108 174.742 127.99 174.646C127.745 174.518 127.58 174.368 127.494 174.198C127.42 174.027 127.42 173.856 127.494 173.686C127.601 173.451 127.745 173.307 127.926 173.254C128.108 173.2 128.316 173.216 128.55 173.302C128.657 173.334 128.822 173.392 129.046 173.478C129.27 173.563 129.521 173.638 129.798 173.702C130.076 173.776 130.337 173.814 130.582 173.814C131.436 173.814 132.076 173.616 132.502 173.222C132.94 172.827 133.158 172.288 133.158 171.606V170.166L133.334 170.278C133.302 170.502 133.201 170.731 133.03 170.966C132.87 171.19 132.657 171.398 132.39 171.59C132.124 171.782 131.814 171.942 131.462 172.07C131.121 172.187 130.769 172.246 130.406 172.246C129.649 172.246 128.972 172.059 128.374 171.686C127.777 171.302 127.302 170.784 126.95 170.134C126.598 169.472 126.422 168.715 126.422 167.862C126.422 167.008 126.598 166.256 126.95 165.606C127.302 164.944 127.772 164.427 128.358 164.054C128.956 163.67 129.622 163.478 130.358 163.478ZM130.598 164.95C130.076 164.95 129.617 165.078 129.222 165.334C128.828 165.59 128.518 165.936 128.294 166.374C128.07 166.811 127.958 167.307 127.958 167.862C127.958 168.416 128.07 168.912 128.294 169.35C128.518 169.787 128.828 170.134 129.222 170.39C129.617 170.646 130.076 170.774 130.598 170.774C131.121 170.774 131.58 170.651 131.974 170.406C132.369 170.15 132.678 169.803 132.902 169.366C133.126 168.918 133.238 168.416 133.238 167.862C133.238 167.307 133.126 166.811 132.902 166.374C132.678 165.926 132.369 165.579 131.974 165.334C131.58 165.078 131.121 164.95 130.598 164.95ZM143.797 163.542C144.032 163.542 144.224 163.622 144.373 163.782C144.523 163.931 144.597 164.123 144.597 164.358V171.27C144.597 171.504 144.523 171.702 144.373 171.862C144.224 172.011 144.032 172.086 143.797 172.086C143.573 172.086 143.381 172.011 143.221 171.862C143.072 171.702 142.997 171.504 142.997 171.27V170.118L143.333 170.166C143.333 170.358 143.253 170.571 143.093 170.806C142.944 171.04 142.736 171.27 142.469 171.494C142.203 171.707 141.888 171.888 141.525 172.038C141.163 172.176 140.773 172.246 140.357 172.246C139.621 172.246 138.96 172.059 138.373 171.686C137.787 171.302 137.323 170.779 136.981 170.118C136.64 169.456 136.469 168.704 136.469 167.862C136.469 166.998 136.64 166.24 136.981 165.59C137.323 164.928 137.781 164.411 138.357 164.038C138.944 163.664 139.595 163.478 140.309 163.478C140.768 163.478 141.189 163.552 141.573 163.702C141.968 163.851 142.309 164.043 142.597 164.278C142.885 164.512 143.104 164.763 143.253 165.03C143.413 165.286 143.493 165.531 143.493 165.766L142.997 165.814V164.358C142.997 164.134 143.072 163.942 143.221 163.782C143.381 163.622 143.573 163.542 143.797 163.542ZM140.533 170.774C141.035 170.774 141.477 170.646 141.861 170.39C142.245 170.134 142.544 169.787 142.757 169.35C142.971 168.902 143.077 168.406 143.077 167.862C143.077 167.307 142.971 166.811 142.757 166.374C142.544 165.936 142.245 165.59 141.861 165.334C141.477 165.078 141.035 164.95 140.533 164.95C140.043 164.95 139.605 165.078 139.221 165.334C138.848 165.59 138.549 165.936 138.325 166.374C138.112 166.811 138.005 167.307 138.005 167.862C138.005 168.406 138.112 168.902 138.325 169.35C138.549 169.787 138.848 170.134 139.221 170.39C139.605 170.646 140.043 170.774 140.533 170.774ZM150.343 163.478C150.801 163.478 151.223 163.552 151.607 163.702C151.991 163.851 152.321 164.043 152.599 164.278C152.887 164.502 153.111 164.736 153.271 164.982C153.431 165.227 153.511 165.44 153.511 165.622L153.143 165.638V164.358C153.143 164.134 153.217 163.942 153.367 163.782C153.516 163.622 153.708 163.542 153.943 163.542C154.177 163.542 154.369 163.622 154.519 163.782C154.668 163.931 154.743 164.123 154.743 164.358V171.414C154.743 172.32 154.551 173.056 154.167 173.622C153.783 174.198 153.271 174.619 152.631 174.886C152.001 175.152 151.308 175.286 150.551 175.286C150.284 175.286 149.969 175.248 149.607 175.174C149.244 175.11 148.908 175.03 148.599 174.934C148.3 174.838 148.092 174.742 147.975 174.646C147.729 174.518 147.564 174.368 147.479 174.198C147.404 174.027 147.404 173.856 147.479 173.686C147.585 173.451 147.729 173.307 147.911 173.254C148.092 173.2 148.3 173.216 148.535 173.302C148.641 173.334 148.807 173.392 149.031 173.478C149.255 173.563 149.505 173.638 149.783 173.702C150.06 173.776 150.321 173.814 150.567 173.814C151.42 173.814 152.06 173.616 152.487 173.222C152.924 172.827 153.143 172.288 153.143 171.606V170.166L153.319 170.278C153.287 170.502 153.185 170.731 153.015 170.966C152.855 171.19 152.641 171.398 152.375 171.59C152.108 171.782 151.799 171.942 151.447 172.07C151.105 172.187 150.753 172.246 150.391 172.246C149.633 172.246 148.956 172.059 148.359 171.686C147.761 171.302 147.287 170.784 146.935 170.134C146.583 169.472 146.407 168.715 146.407 167.862C146.407 167.008 146.583 166.256 146.935 165.606C147.287 164.944 147.756 164.427 148.343 164.054C148.94 163.67 149.607 163.478 150.343 163.478ZM150.583 164.95C150.06 164.95 149.601 165.078 149.207 165.334C148.812 165.59 148.503 165.936 148.279 166.374C148.055 166.811 147.943 167.307 147.943 167.862C147.943 168.416 148.055 168.912 148.279 169.35C148.503 169.787 148.812 170.134 149.207 170.39C149.601 170.646 150.06 170.774 150.583 170.774C151.105 170.774 151.564 170.651 151.959 170.406C152.353 170.15 152.663 169.803 152.887 169.366C153.111 168.918 153.223 168.416 153.223 167.862C153.223 167.307 153.111 166.811 152.887 166.374C152.663 165.926 152.353 165.579 151.959 165.334C151.564 165.078 151.105 164.95 150.583 164.95ZM160.571 172.246C159.686 172.246 158.918 172.064 158.267 171.702C157.617 171.328 157.11 170.822 156.747 170.182C156.395 169.531 156.219 168.79 156.219 167.958C156.219 167.019 156.406 166.219 156.779 165.558C157.163 164.886 157.659 164.374 158.267 164.022C158.875 163.659 159.521 163.478 160.203 163.478C160.726 163.478 161.222 163.584 161.691 163.798C162.161 164 162.577 164.288 162.939 164.662C163.313 165.024 163.606 165.456 163.819 165.958C164.033 166.448 164.145 166.987 164.155 167.574C164.145 167.787 164.059 167.963 163.899 168.102C163.739 168.24 163.553 168.31 163.339 168.31H157.115L156.731 166.95H162.747L162.443 167.238V166.838C162.422 166.464 162.299 166.139 162.075 165.862C161.851 165.574 161.574 165.355 161.243 165.206C160.913 165.046 160.566 164.966 160.203 164.966C159.883 164.966 159.574 165.019 159.275 165.126C158.987 165.222 158.726 165.382 158.491 165.606C158.267 165.83 158.086 166.128 157.947 166.502C157.819 166.864 157.755 167.318 157.755 167.862C157.755 168.448 157.878 168.96 158.123 169.398C158.369 169.835 158.699 170.176 159.115 170.422C159.531 170.656 159.99 170.774 160.491 170.774C160.886 170.774 161.211 170.736 161.467 170.662C161.723 170.576 161.937 170.475 162.107 170.358C162.278 170.24 162.427 170.128 162.555 170.022C162.715 169.926 162.875 169.878 163.035 169.878C163.227 169.878 163.387 169.947 163.515 170.086C163.643 170.214 163.707 170.368 163.707 170.55C163.707 170.784 163.59 170.998 163.355 171.19C163.067 171.467 162.667 171.712 162.155 171.926C161.654 172.139 161.126 172.246 160.571 172.246Z" fill="#6606EF"/>
<g opacity="0.3">
<path d="M131.82 131.018C124.319 131.018 118.24 135.071 118.24 140.071H145.4C145.4 135.071 139.32 131.018 131.82 131.018Z" fill="#6606EF"/>
<path d="M131.82 126.264C136.82 126.264 140.873 122.21 140.873 117.21C140.873 112.21 136.82 108.157 131.82 108.157C126.82 108.157 122.766 112.21 122.766 117.21C122.766 122.21 126.82 126.264 131.82 126.264Z" fill="#6606EF"/>
</g>
<rect x="135.556" y="100.012" width="32.592" height="22.407" rx="2.00305" fill="#6606EF"/>
<path d="M155.165 111.651C155.501 111.459 155.501 110.974 155.165 110.782L149.545 107.57C149.211 107.38 148.796 107.621 148.796 108.005V114.427C148.796 114.812 149.211 115.053 149.545 114.862L155.165 111.651Z" fill="#6606EF"/>
</g>
<defs>
<filter id="filter0_f_99_1572" x="0" y="0" width="274" height="274" filterUnits="userSpaceOnUse" color-interpolation-filters="sRGB">
<feFlood flood-opacity="0" result="BackgroundImageFix"/>
<feBlend mode="normal" in="SourceGraphic" in2="BackgroundImageFix" result="shape"/>
<feGaussianBlur stdDeviation="36" result="effect1_foregroundBlur_99_1572"/>
</filter>
<filter id="filter1_b_99_1572" x="62" y="62" width="150" height="150" filterUnits="userSpaceOnUse" color-interpolation-filters="sRGB">
<feFlood flood-opacity="0" result="BackgroundImageFix"/>
<feGaussianBlur in="BackgroundImage" stdDeviation="5"/>
<feComposite in2="SourceAlpha" operator="in" result="effect1_backgroundBlur_99_1572"/>
<feBlend mode="normal" in="SourceGraphic" in2="effect1_backgroundBlur_99_1572" result="shape"/>
</filter>
</defs>
</svg>
