<svg width="336" height="25" viewBox="0 0 336 25" fill="none" xmlns="http://www.w3.org/2000/svg">
<rect y="0.00268555" width="24" height="24" rx="12" fill="#6606EF"/>
<path d="M8 12.0027L10.8284 14.8312L16.4853 9.17432" stroke="white" stroke-width="1.5" stroke-linecap="round" stroke-linejoin="round"/>
<path d="M42.162 15.9757C42.3093 15.9757 42.435 16.0277 42.539 16.1317C42.643 16.227 42.695 16.3484 42.695 16.4957C42.695 16.643 42.643 16.7644 42.539 16.8597C42.435 16.955 42.3093 17.0027 42.162 17.0027H37.664C37.5167 17.0027 37.391 16.9507 37.287 16.8467C37.1917 16.7427 37.144 16.617 37.144 16.4697V8.42269C37.144 8.27535 37.196 8.15402 37.3 8.05869C37.404 7.95469 37.534 7.90268 37.69 7.90268C37.8373 7.90268 37.963 7.95469 38.067 8.05869C38.171 8.15402 38.223 8.27535 38.223 8.42269V16.2097L37.963 15.9757H42.162ZM47.1149 17.1327C46.4216 17.1327 45.8149 16.9854 45.2949 16.6907C44.7749 16.396 44.3676 15.993 44.0729 15.4817C43.7869 14.9617 43.6439 14.3637 43.6439 13.6877C43.6439 12.9337 43.7912 12.2924 44.0859 11.7637C44.3892 11.2264 44.7792 10.819 45.2559 10.5417C45.7412 10.2557 46.2526 10.1127 46.7899 10.1127C47.1886 10.1127 47.5742 10.1864 47.9469 10.3337C48.3196 10.481 48.6489 10.6977 48.9349 10.9837C49.2209 11.261 49.4506 11.599 49.6239 11.9977C49.7972 12.3877 49.8882 12.8254 49.8969 13.3107C49.8969 13.4494 49.8449 13.5664 49.7409 13.6617C49.6369 13.757 49.5156 13.8047 49.3769 13.8047H44.2419L44.0079 12.9077H49.0129L48.8049 13.0897V12.8037C48.7702 12.4484 48.6489 12.145 48.4409 11.8937C48.2416 11.6337 47.9946 11.4344 47.6999 11.2957C47.4139 11.157 47.1106 11.0877 46.7899 11.0877C46.5299 11.0877 46.2699 11.1354 46.0099 11.2307C45.7586 11.3174 45.5289 11.4647 45.3209 11.6727C45.1216 11.872 44.9569 12.132 44.8269 12.4527C44.7056 12.7734 44.6449 13.159 44.6449 13.6097C44.6449 14.1124 44.7446 14.5544 44.9439 14.9357C45.1519 15.317 45.4379 15.6204 45.8019 15.8457C46.1659 16.0624 46.5906 16.1707 47.0759 16.1707C47.3792 16.1707 47.6436 16.1317 47.8689 16.0537C48.0942 15.9757 48.2892 15.8804 48.4539 15.7677C48.6186 15.6464 48.7572 15.525 48.8699 15.4037C48.9826 15.3257 49.0909 15.2867 49.1949 15.2867C49.3249 15.2867 49.4289 15.33 49.5069 15.4167C49.5936 15.5034 49.6369 15.6074 49.6369 15.7287C49.6369 15.876 49.5676 16.006 49.4289 16.1187C49.1862 16.3874 48.8569 16.6257 48.4409 16.8337C48.0249 17.033 47.5829 17.1327 47.1149 17.1327ZM57.0488 10.2167C57.1962 10.2167 57.3175 10.2687 57.4128 10.3727C57.5168 10.468 57.5688 10.5894 57.5688 10.7367V16.4697C57.5688 16.617 57.5168 16.7427 57.4128 16.8467C57.3175 16.9507 57.1962 17.0027 57.0488 17.0027C56.8928 17.0027 56.7672 16.9507 56.6718 16.8467C56.5765 16.7427 56.5288 16.617 56.5288 16.4697V15.2347L56.7758 15.2087C56.7758 15.3994 56.7108 15.6074 56.5808 15.8327C56.4508 16.058 56.2732 16.2704 56.0478 16.4697C55.8225 16.6604 55.5538 16.8207 55.2418 16.9507C54.9385 17.072 54.6092 17.1327 54.2538 17.1327C53.6645 17.1327 53.1358 16.981 52.6678 16.6777C52.1998 16.3657 51.8272 15.9454 51.5498 15.4167C51.2812 14.888 51.1468 14.2857 51.1468 13.6097C51.1468 12.925 51.2812 12.3227 51.5498 11.8027C51.8272 11.274 52.1998 10.8624 52.6678 10.5677C53.1358 10.2644 53.6558 10.1127 54.2278 10.1127C54.6005 10.1127 54.9472 10.1734 55.2678 10.2947C55.5885 10.416 55.8658 10.5807 56.0998 10.7887C56.3425 10.9967 56.5288 11.2264 56.6588 11.4777C56.7975 11.729 56.8668 11.9804 56.8668 12.2317L56.5288 12.1537V10.7367C56.5288 10.5894 56.5765 10.468 56.6718 10.3727C56.7672 10.2687 56.8928 10.2167 57.0488 10.2167ZM54.3708 16.1707C54.8042 16.1707 55.1855 16.058 55.5148 15.8327C55.8528 15.6074 56.1128 15.304 56.2948 14.9227C56.4855 14.5327 56.5808 14.095 56.5808 13.6097C56.5808 13.133 56.4855 12.704 56.2948 12.3227C56.1128 11.9327 55.8528 11.6294 55.5148 11.4127C55.1855 11.1874 54.8042 11.0747 54.3708 11.0747C53.9462 11.0747 53.5648 11.183 53.2268 11.3997C52.8975 11.6164 52.6375 11.9154 52.4468 12.2967C52.2562 12.678 52.1608 13.1157 52.1608 13.6097C52.1608 14.095 52.2518 14.5327 52.4338 14.9227C52.6245 15.304 52.8845 15.6074 53.2138 15.8327C53.5518 16.058 53.9375 16.1707 54.3708 16.1707ZM60.0162 17.0027C59.8688 17.0027 59.7432 16.9507 59.6392 16.8467C59.5438 16.7427 59.4962 16.617 59.4962 16.4697V10.8017C59.4962 10.6544 59.5438 10.533 59.6392 10.4377C59.7432 10.3337 59.8688 10.2817 60.0162 10.2817C60.1722 10.2817 60.2978 10.3337 60.3932 10.4377C60.4885 10.533 60.5362 10.6544 60.5362 10.8017V12.5177L60.3802 12.2447C60.4322 11.976 60.5232 11.716 60.6532 11.4647C60.7918 11.2047 60.9652 10.975 61.1732 10.7757C61.3812 10.5677 61.6195 10.4074 61.8882 10.2947C62.1568 10.1734 62.4515 10.1127 62.7722 10.1127C62.9628 10.1127 63.1362 10.1604 63.2922 10.2557C63.4568 10.3424 63.5392 10.468 63.5392 10.6327C63.5392 10.8147 63.4915 10.949 63.3962 11.0357C63.3008 11.1224 63.1925 11.1657 63.0712 11.1657C62.9585 11.1657 62.8502 11.144 62.7462 11.1007C62.6422 11.0487 62.5122 11.0227 62.3562 11.0227C62.1395 11.0227 61.9228 11.0834 61.7062 11.2047C61.4982 11.3174 61.3032 11.482 61.1212 11.6987C60.9478 11.9154 60.8048 12.1624 60.6922 12.4397C60.5882 12.7084 60.5362 12.9987 60.5362 13.3107V16.4697C60.5362 16.617 60.4842 16.7427 60.3802 16.8467C60.2848 16.9507 60.1635 17.0027 60.0162 17.0027ZM68.055 10.1127C68.6443 10.1127 69.108 10.234 69.446 10.4767C69.784 10.7194 70.0223 11.0444 70.161 11.4517C70.3083 11.859 70.382 12.314 70.382 12.8167V16.4697C70.382 16.617 70.33 16.7427 70.226 16.8467C70.1306 16.9507 70.0093 17.0027 69.862 17.0027C69.7146 17.0027 69.589 16.9507 69.485 16.8467C69.3896 16.7427 69.342 16.617 69.342 16.4697V12.8427C69.342 12.5134 69.29 12.2187 69.186 11.9587C69.0906 11.69 68.926 11.4777 68.692 11.3217C68.4666 11.157 68.1546 11.0747 67.756 11.0747C67.392 11.0747 67.0583 11.157 66.755 11.3217C66.4516 11.4777 66.209 11.69 66.027 11.9587C65.845 12.2187 65.754 12.5134 65.754 12.8427V16.4697C65.754 16.617 65.702 16.7427 65.598 16.8467C65.5026 16.9507 65.3813 17.0027 65.234 17.0027C65.0866 17.0027 64.961 16.9507 64.857 16.8467C64.7616 16.7427 64.714 16.617 64.714 16.4697V10.8017C64.714 10.6544 64.7616 10.533 64.857 10.4377C64.961 10.3337 65.0866 10.2817 65.234 10.2817C65.39 10.2817 65.5156 10.3337 65.611 10.4377C65.7063 10.533 65.754 10.6544 65.754 10.8017V11.7247L65.494 12.0107C65.5373 11.7854 65.637 11.56 65.793 11.3347C65.949 11.1007 66.144 10.8927 66.378 10.7107C66.612 10.5287 66.872 10.3857 67.158 10.2817C67.444 10.169 67.743 10.1127 68.055 10.1127ZM73.3068 16.4697C73.3068 16.617 73.2548 16.7427 73.1508 16.8467C73.0554 16.9507 72.9341 17.0027 72.7868 17.0027C72.6308 17.0027 72.5051 16.9507 72.4098 16.8467C72.3144 16.7427 72.2668 16.617 72.2668 16.4697V10.6977C72.2668 10.5504 72.3144 10.429 72.4098 10.3337C72.5138 10.2297 72.6394 10.1777 72.7868 10.1777C72.9341 10.1777 73.0554 10.2297 73.1508 10.3337C73.2548 10.429 73.3068 10.5504 73.3068 10.6977V16.4697ZM72.7868 9.30669C72.5701 9.30669 72.4098 9.26335 72.3058 9.17668C72.2018 9.09002 72.1498 8.95569 72.1498 8.77369V8.59169C72.1498 8.40969 72.2061 8.27535 72.3188 8.18869C72.4314 8.10202 72.5918 8.05869 72.7998 8.05869C73.0078 8.05869 73.1638 8.10202 73.2678 8.18869C73.3718 8.27535 73.4238 8.40969 73.4238 8.59169V8.77369C73.4238 8.95569 73.3674 9.09002 73.2547 9.17668C73.1508 9.26335 72.9948 9.30669 72.7868 9.30669ZM78.5159 10.1127C79.1052 10.1127 79.5689 10.234 79.9069 10.4767C80.2449 10.7194 80.4832 11.0444 80.6219 11.4517C80.7692 11.859 80.8429 12.314 80.8429 12.8167V16.4697C80.8429 16.617 80.7909 16.7427 80.6869 16.8467C80.5916 16.9507 80.4702 17.0027 80.3229 17.0027C80.1756 17.0027 80.0499 16.9507 79.9459 16.8467C79.8506 16.7427 79.8029 16.617 79.8029 16.4697V12.8427C79.8029 12.5134 79.7509 12.2187 79.6469 11.9587C79.5516 11.69 79.3869 11.4777 79.1529 11.3217C78.9276 11.157 78.6156 11.0747 78.2169 11.0747C77.8529 11.0747 77.5192 11.157 77.2159 11.3217C76.9126 11.4777 76.6699 11.69 76.4879 11.9587C76.3059 12.2187 76.2149 12.5134 76.2149 12.8427V16.4697C76.2149 16.617 76.1629 16.7427 76.0589 16.8467C75.9636 16.9507 75.8422 17.0027 75.6949 17.0027C75.5476 17.0027 75.4219 16.9507 75.3179 16.8467C75.2226 16.7427 75.1749 16.617 75.1749 16.4697V10.8017C75.1749 10.6544 75.2226 10.533 75.3179 10.4377C75.4219 10.3337 75.5476 10.2817 75.6949 10.2817C75.8509 10.2817 75.9766 10.3337 76.0719 10.4377C76.1672 10.533 76.2149 10.6544 76.2149 10.8017V11.7247L75.9549 12.0107C75.9982 11.7854 76.0979 11.56 76.2539 11.3347C76.4099 11.1007 76.6049 10.8927 76.8389 10.7107C77.0729 10.5287 77.3329 10.3857 77.6189 10.2817C77.9049 10.169 78.2039 10.1127 78.5159 10.1127ZM85.5877 10.1127C85.9604 10.1127 86.307 10.1777 86.6277 10.3077C86.9484 10.429 87.2257 10.5894 87.4597 10.7887C87.7024 10.988 87.8887 11.196 88.0187 11.4127C88.1574 11.6294 88.2267 11.833 88.2267 12.0237L87.9797 11.8677V10.7367C87.9797 10.5894 88.0274 10.468 88.1227 10.3727C88.218 10.2687 88.3437 10.2167 88.4997 10.2167C88.647 10.2167 88.7684 10.2687 88.8637 10.3727C88.9677 10.468 89.0197 10.5894 89.0197 10.7367V16.4307C89.0197 17.1414 88.868 17.7307 88.5647 18.1987C88.27 18.6667 87.8714 19.0177 87.3687 19.2517C86.866 19.4857 86.3027 19.6027 85.6787 19.6027C85.4187 19.6027 85.1327 19.568 84.8207 19.4987C84.5087 19.4294 84.2314 19.3427 83.9887 19.2387C83.746 19.1434 83.59 19.0437 83.5207 18.9397C83.3907 18.853 83.3084 18.7534 83.2737 18.6407C83.2477 18.5367 83.2694 18.437 83.3387 18.3417C83.4167 18.2204 83.5164 18.1597 83.6377 18.1597C83.7677 18.1597 83.928 18.1987 84.1187 18.2767C84.1967 18.3027 84.318 18.346 84.4827 18.4067C84.656 18.4674 84.8467 18.5194 85.0547 18.5627C85.2714 18.6147 85.4837 18.6407 85.6917 18.6407C86.4284 18.6407 86.9917 18.4457 87.3817 18.0557C87.7804 17.6744 87.9797 17.1674 87.9797 16.5347V15.3257L88.1227 15.3907C88.0707 15.6334 87.9624 15.8587 87.7977 16.0667C87.6417 16.2747 87.4467 16.461 87.2127 16.6257C86.9874 16.7817 86.736 16.9074 86.4587 17.0027C86.1814 17.0894 85.8997 17.1327 85.6137 17.1327C85.007 17.1327 84.461 16.981 83.9757 16.6777C83.4904 16.3744 83.1047 15.9584 82.8187 15.4297C82.5414 14.901 82.4027 14.2987 82.4027 13.6227C82.4027 12.938 82.5414 12.3314 82.8187 11.8027C83.1047 11.274 83.486 10.8624 83.9627 10.5677C84.448 10.2644 84.9897 10.1127 85.5877 10.1127ZM85.7177 11.0747C85.2757 11.0747 84.877 11.1874 84.5217 11.4127C84.175 11.6294 83.902 11.9284 83.7027 12.3097C83.512 12.691 83.4167 13.1287 83.4167 13.6227C83.4167 14.0994 83.512 14.5327 83.7027 14.9227C83.902 15.304 84.175 15.6074 84.5217 15.8327C84.877 16.058 85.2757 16.1707 85.7177 16.1707C86.1684 16.1707 86.567 16.0624 86.9137 15.8457C87.2604 15.6204 87.5334 15.317 87.7327 14.9357C87.932 14.5544 88.0317 14.1167 88.0317 13.6227C88.0317 13.12 87.932 12.678 87.7327 12.2967C87.5334 11.9154 87.2604 11.6164 86.9137 11.3997C86.567 11.183 86.1684 11.0747 85.7177 11.0747ZM97.5255 17.0027C97.3695 17.0027 97.2395 16.9507 97.1355 16.8467C97.0315 16.7427 96.9795 16.617 96.9795 16.4697V8.43569H98.0845V16.4697C98.0845 16.617 98.0325 16.7427 97.9285 16.8467C97.8245 16.9507 97.6902 17.0027 97.5255 17.0027ZM94.5095 8.89069C94.3622 8.89069 94.2365 8.84735 94.1325 8.76069C94.0372 8.66535 93.9895 8.54402 93.9895 8.39668C93.9895 8.24935 94.0372 8.13235 94.1325 8.04569C94.2365 7.95035 94.3622 7.90268 94.5095 7.90268H100.555C100.702 7.90268 100.828 7.95035 100.932 8.04569C101.036 8.13235 101.088 8.24935 101.088 8.39668C101.088 8.55268 101.036 8.67402 100.932 8.76069C100.828 8.84735 100.702 8.89069 100.555 8.89069H94.5095ZM105.72 10.1777C106.292 10.1777 106.742 10.3034 107.072 10.5547C107.41 10.7974 107.648 11.1267 107.787 11.5427C107.934 11.95 108.008 12.405 108.008 12.9077V16.4697C108.008 16.617 107.956 16.7427 107.852 16.8467C107.756 16.9507 107.635 17.0027 107.488 17.0027C107.34 17.0027 107.215 16.9507 107.111 16.8467C107.015 16.7427 106.968 16.617 106.968 16.4697V12.9077C106.968 12.5784 106.92 12.2837 106.825 12.0237C106.729 11.755 106.569 11.5427 106.344 11.3867C106.127 11.222 105.828 11.1397 105.447 11.1397C105.091 11.1397 104.766 11.222 104.472 11.3867C104.177 11.5427 103.943 11.755 103.77 12.0237C103.596 12.2837 103.51 12.5784 103.51 12.9077V16.4697C103.51 16.617 103.458 16.7427 103.354 16.8467C103.258 16.9507 103.137 17.0027 102.99 17.0027C102.842 17.0027 102.717 16.9507 102.613 16.8467C102.517 16.7427 102.47 16.617 102.47 16.4697V7.90268C102.47 7.75535 102.517 7.63402 102.613 7.53868C102.717 7.43469 102.842 7.38269 102.99 7.38269C103.146 7.38269 103.271 7.43469 103.367 7.53868C103.462 7.63402 103.51 7.75535 103.51 7.90268V11.7897L103.25 12.0757C103.293 11.8504 103.388 11.625 103.536 11.3997C103.683 11.1657 103.869 10.9577 104.095 10.7757C104.32 10.5937 104.571 10.4507 104.849 10.3467C105.126 10.234 105.416 10.1777 105.72 10.1777ZM110.455 17.0027C110.307 17.0027 110.182 16.9507 110.078 16.8467C109.982 16.7427 109.935 16.617 109.935 16.4697V10.8017C109.935 10.6544 109.982 10.533 110.078 10.4377C110.182 10.3337 110.307 10.2817 110.455 10.2817C110.611 10.2817 110.736 10.3337 110.832 10.4377C110.927 10.533 110.975 10.6544 110.975 10.8017V12.5177L110.819 12.2447C110.871 11.976 110.962 11.716 111.092 11.4647C111.23 11.2047 111.404 10.975 111.612 10.7757C111.82 10.5677 112.058 10.4074 112.327 10.2947C112.595 10.1734 112.89 10.1127 113.211 10.1127C113.401 10.1127 113.575 10.1604 113.731 10.2557C113.895 10.3424 113.978 10.468 113.978 10.6327C113.978 10.8147 113.93 10.949 113.835 11.0357C113.739 11.1224 113.631 11.1657 113.51 11.1657C113.397 11.1657 113.289 11.144 113.185 11.1007C113.081 11.0487 112.951 11.0227 112.795 11.0227C112.578 11.0227 112.361 11.0834 112.145 11.2047C111.937 11.3174 111.742 11.482 111.56 11.6987C111.386 11.9154 111.243 12.1624 111.131 12.4397C111.027 12.7084 110.975 12.9987 110.975 13.3107V16.4697C110.975 16.617 110.923 16.7427 110.819 16.8467C110.723 16.9507 110.602 17.0027 110.455 17.0027ZM121.243 13.6227C121.243 14.2987 121.092 14.901 120.788 15.4297C120.494 15.9584 120.091 16.3744 119.579 16.6777C119.077 16.981 118.509 17.1327 117.876 17.1327C117.244 17.1327 116.672 16.981 116.16 16.6777C115.649 16.3744 115.242 15.9584 114.938 15.4297C114.644 14.901 114.496 14.2987 114.496 13.6227C114.496 12.9467 114.644 12.3444 114.938 11.8157C115.242 11.287 115.649 10.871 116.16 10.5677C116.672 10.2644 117.244 10.1127 117.876 10.1127C118.509 10.1127 119.077 10.2644 119.579 10.5677C120.091 10.871 120.494 11.287 120.788 11.8157C121.092 12.3444 121.243 12.9467 121.243 13.6227ZM120.203 13.6227C120.203 13.12 120.099 12.678 119.891 12.2967C119.692 11.9154 119.415 11.6164 119.059 11.3997C118.713 11.183 118.318 11.0747 117.876 11.0747C117.434 11.0747 117.036 11.183 116.68 11.3997C116.334 11.6164 116.056 11.9154 115.848 12.2967C115.64 12.678 115.536 13.12 115.536 13.6227C115.536 14.1167 115.64 14.5544 115.848 14.9357C116.056 15.317 116.334 15.6204 116.68 15.8457C117.036 16.0624 117.434 16.1707 117.876 16.1707C118.318 16.1707 118.713 16.0624 119.059 15.8457C119.415 15.6204 119.692 15.317 119.891 14.9357C120.099 14.5544 120.203 14.1167 120.203 13.6227ZM127.839 10.2817C127.995 10.2817 128.12 10.3337 128.216 10.4377C128.311 10.533 128.359 10.6544 128.359 10.8017V14.3507C128.359 15.226 128.112 15.9064 127.618 16.3917C127.132 16.8684 126.452 17.1067 125.577 17.1067C124.71 17.1067 124.03 16.8684 123.536 16.3917C123.05 15.9064 122.808 15.226 122.808 14.3507V10.8017C122.808 10.6544 122.855 10.533 122.951 10.4377C123.055 10.3337 123.18 10.2817 123.328 10.2817C123.484 10.2817 123.609 10.3337 123.705 10.4377C123.8 10.533 123.848 10.6544 123.848 10.8017V14.3507C123.848 14.94 123.999 15.3864 124.303 15.6897C124.606 15.993 125.031 16.1447 125.577 16.1447C126.14 16.1447 126.569 15.993 126.864 15.6897C127.167 15.3864 127.319 14.94 127.319 14.3507V10.8017C127.319 10.6544 127.366 10.533 127.462 10.4377C127.566 10.3337 127.691 10.2817 127.839 10.2817ZM132.979 10.1127C133.352 10.1127 133.699 10.1777 134.019 10.3077C134.34 10.429 134.617 10.5894 134.851 10.7887C135.094 10.988 135.28 11.196 135.41 11.4127C135.549 11.6294 135.618 11.833 135.618 12.0237L135.371 11.8677V10.7367C135.371 10.5894 135.419 10.468 135.514 10.3727C135.61 10.2687 135.735 10.2167 135.891 10.2167C136.039 10.2167 136.16 10.2687 136.255 10.3727C136.359 10.468 136.411 10.5894 136.411 10.7367V16.4307C136.411 17.1414 136.26 17.7307 135.956 18.1987C135.662 18.6667 135.263 19.0177 134.76 19.2517C134.258 19.4857 133.694 19.6027 133.07 19.6027C132.81 19.6027 132.524 19.568 132.212 19.4987C131.9 19.4294 131.623 19.3427 131.38 19.2387C131.138 19.1434 130.982 19.0437 130.912 18.9397C130.782 18.853 130.7 18.7534 130.665 18.6407C130.639 18.5367 130.661 18.437 130.73 18.3417C130.808 18.2204 130.908 18.1597 131.029 18.1597C131.159 18.1597 131.32 18.1987 131.51 18.2767C131.588 18.3027 131.71 18.346 131.874 18.4067C132.048 18.4674 132.238 18.5194 132.446 18.5627C132.663 18.6147 132.875 18.6407 133.083 18.6407C133.82 18.6407 134.383 18.4457 134.773 18.0557C135.172 17.6744 135.371 17.1674 135.371 16.5347V15.3257L135.514 15.3907C135.462 15.6334 135.354 15.8587 135.189 16.0667C135.033 16.2747 134.838 16.461 134.604 16.6257C134.379 16.7817 134.128 16.9074 133.85 17.0027C133.573 17.0894 133.291 17.1327 133.005 17.1327C132.399 17.1327 131.853 16.981 131.367 16.6777C130.882 16.3744 130.496 15.9584 130.21 15.4297C129.933 14.901 129.794 14.2987 129.794 13.6227C129.794 12.938 129.933 12.3314 130.21 11.8027C130.496 11.274 130.878 10.8624 131.354 10.5677C131.84 10.2644 132.381 10.1127 132.979 10.1127ZM133.109 11.0747C132.667 11.0747 132.269 11.1874 131.913 11.4127C131.567 11.6294 131.294 11.9284 131.094 12.3097C130.904 12.691 130.808 13.1287 130.808 13.6227C130.808 14.0994 130.904 14.5327 131.094 14.9227C131.294 15.304 131.567 15.6074 131.913 15.8327C132.269 16.058 132.667 16.1707 133.109 16.1707C133.56 16.1707 133.959 16.0624 134.305 15.8457C134.652 15.6204 134.925 15.317 135.124 14.9357C135.324 14.5544 135.423 14.1167 135.423 13.6227C135.423 13.12 135.324 12.678 135.124 12.2967C134.925 11.9154 134.652 11.6164 134.305 11.3997C133.959 11.183 133.56 11.0747 133.109 11.0747ZM141.584 10.1777C142.156 10.1777 142.607 10.3034 142.936 10.5547C143.274 10.7974 143.512 11.1267 143.651 11.5427C143.798 11.95 143.872 12.405 143.872 12.9077V16.4697C143.872 16.617 143.82 16.7427 143.716 16.8467C143.621 16.9507 143.499 17.0027 143.352 17.0027C143.205 17.0027 143.079 16.9507 142.975 16.8467C142.88 16.7427 142.832 16.617 142.832 16.4697V12.9077C142.832 12.5784 142.784 12.2837 142.689 12.0237C142.594 11.755 142.433 11.5427 142.208 11.3867C141.991 11.222 141.692 11.1397 141.311 11.1397C140.956 11.1397 140.631 11.222 140.336 11.3867C140.041 11.5427 139.807 11.755 139.634 12.0237C139.461 12.2837 139.374 12.5784 139.374 12.9077V16.4697C139.374 16.617 139.322 16.7427 139.218 16.8467C139.123 16.9507 139.001 17.0027 138.854 17.0027C138.707 17.0027 138.581 16.9507 138.477 16.8467C138.382 16.7427 138.334 16.617 138.334 16.4697V7.90268C138.334 7.75535 138.382 7.63402 138.477 7.53868C138.581 7.43469 138.707 7.38269 138.854 7.38269C139.01 7.38269 139.136 7.43469 139.231 7.53868C139.326 7.63402 139.374 7.75535 139.374 7.90268V11.7897L139.114 12.0757C139.157 11.8504 139.253 11.625 139.4 11.3997C139.547 11.1657 139.734 10.9577 139.959 10.7757C140.184 10.5937 140.436 10.4507 140.713 10.3467C140.99 10.234 141.281 10.1777 141.584 10.1777ZM150.159 17.0027C149.994 17.0027 149.851 16.9507 149.73 16.8467C149.617 16.7427 149.561 16.617 149.561 16.4697V8.42269C149.561 8.27535 149.609 8.15402 149.704 8.05869C149.808 7.95469 149.934 7.90268 150.081 7.90268H153.669C154.154 7.90268 154.592 8.01535 154.982 8.24069C155.372 8.45735 155.68 8.76068 155.905 9.15069C156.139 9.53202 156.256 9.97402 156.256 10.4767C156.256 10.8407 156.187 11.183 156.048 11.5037C155.909 11.8157 155.719 12.0887 155.476 12.3227C155.233 12.548 154.956 12.7214 154.644 12.8427L154.358 12.6347C154.653 12.704 154.917 12.8297 155.151 13.0117C155.385 13.185 155.576 13.4104 155.723 13.6877C155.87 13.9564 155.948 14.2727 155.957 14.6367C155.974 14.9574 155.996 15.213 156.022 15.4037C156.048 15.5944 156.087 15.746 156.139 15.8587C156.191 15.9627 156.265 16.045 156.36 16.1057C156.481 16.1837 156.559 16.2877 156.594 16.4177C156.637 16.5477 156.616 16.6734 156.529 16.7947C156.477 16.8727 156.403 16.929 156.308 16.9637C156.213 16.9897 156.117 16.9984 156.022 16.9897C155.927 16.981 155.844 16.955 155.775 16.9117C155.636 16.8337 155.502 16.721 155.372 16.5737C155.242 16.4177 155.134 16.1967 155.047 15.9107C154.96 15.6247 154.917 15.2347 154.917 14.7407C154.917 14.4634 154.874 14.2337 154.787 14.0517C154.7 13.8697 154.583 13.7224 154.436 13.6097C154.289 13.497 154.124 13.419 153.942 13.3757C153.76 13.3324 153.574 13.3107 153.383 13.3107H150.484L150.64 13.0767V16.4697C150.64 16.617 150.597 16.7427 150.51 16.8467C150.423 16.9507 150.306 17.0027 150.159 17.0027ZM150.484 12.3747H153.669C153.92 12.3574 154.154 12.2707 154.371 12.1147C154.596 11.9587 154.778 11.742 154.917 11.4647C155.064 11.1787 155.138 10.858 155.138 10.5027C155.138 10.0434 154.991 9.66202 154.696 9.35869C154.41 9.05535 154.046 8.90369 153.604 8.90369H150.536L150.64 8.65669V12.6087L150.484 12.3747ZM161.208 17.1327C160.514 17.1327 159.908 16.9854 159.388 16.6907C158.868 16.396 158.46 15.993 158.166 15.4817C157.88 14.9617 157.737 14.3637 157.737 13.6877C157.737 12.9337 157.884 12.2924 158.179 11.7637C158.482 11.2264 158.872 10.819 159.349 10.5417C159.834 10.2557 160.345 10.1127 160.883 10.1127C161.281 10.1127 161.667 10.1864 162.04 10.3337C162.412 10.481 162.742 10.6977 163.028 10.9837C163.314 11.261 163.543 11.599 163.717 11.9977C163.89 12.3877 163.981 12.8254 163.99 13.3107C163.99 13.4494 163.938 13.5664 163.834 13.6617C163.73 13.757 163.608 13.8047 163.47 13.8047H158.335L158.101 12.9077H163.106L162.898 13.0897V12.8037C162.863 12.4484 162.742 12.145 162.534 11.8937C162.334 11.6337 162.087 11.4344 161.793 11.2957C161.507 11.157 161.203 11.0877 160.883 11.0877C160.623 11.0877 160.363 11.1354 160.103 11.2307C159.851 11.3174 159.622 11.4647 159.414 11.6727C159.214 11.872 159.05 12.132 158.92 12.4527C158.798 12.7734 158.738 13.159 158.738 13.6097C158.738 14.1124 158.837 14.5544 159.037 14.9357C159.245 15.317 159.531 15.6204 159.895 15.8457C160.259 16.0624 160.683 16.1707 161.169 16.1707C161.472 16.1707 161.736 16.1317 161.962 16.0537C162.187 15.9757 162.382 15.8804 162.547 15.7677C162.711 15.6464 162.85 15.525 162.963 15.4037C163.075 15.3257 163.184 15.2867 163.288 15.2867C163.418 15.2867 163.522 15.33 163.6 15.4167C163.686 15.5034 163.73 15.6074 163.73 15.7287C163.73 15.876 163.66 16.006 163.522 16.1187C163.279 16.3874 162.95 16.6257 162.534 16.8337C162.118 17.033 161.676 17.1327 161.208 17.1327ZM166.697 16.4697C166.697 16.617 166.645 16.7427 166.541 16.8467C166.437 16.9507 166.311 17.0027 166.164 17.0027C166.016 17.0027 165.895 16.9507 165.8 16.8467C165.704 16.7427 165.657 16.617 165.657 16.4697V7.90268C165.657 7.75535 165.704 7.63402 165.8 7.53868C165.904 7.43469 166.029 7.38269 166.177 7.38269C166.333 7.38269 166.458 7.43469 166.554 7.53868C166.649 7.63402 166.697 7.75535 166.697 7.90268V16.4697ZM171.694 17.1327C171.001 17.1327 170.394 16.9854 169.874 16.6907C169.354 16.396 168.947 15.993 168.652 15.4817C168.366 14.9617 168.223 14.3637 168.223 13.6877C168.223 12.9337 168.37 12.2924 168.665 11.7637C168.968 11.2264 169.358 10.819 169.835 10.5417C170.32 10.2557 170.832 10.1127 171.369 10.1127C171.768 10.1127 172.153 10.1864 172.526 10.3337C172.899 10.481 173.228 10.6977 173.514 10.9837C173.8 11.261 174.03 11.599 174.203 11.9977C174.376 12.3877 174.467 12.8254 174.476 13.3107C174.476 13.4494 174.424 13.5664 174.32 13.6617C174.216 13.757 174.095 13.8047 173.956 13.8047H168.821L168.587 12.9077H173.592L173.384 13.0897V12.8037C173.349 12.4484 173.228 12.145 173.02 11.8937C172.821 11.6337 172.574 11.4344 172.279 11.2957C171.993 11.157 171.69 11.0877 171.369 11.0877C171.109 11.0877 170.849 11.1354 170.589 11.2307C170.338 11.3174 170.108 11.4647 169.9 11.6727C169.701 11.872 169.536 12.132 169.406 12.4527C169.285 12.7734 169.224 13.159 169.224 13.6097C169.224 14.1124 169.324 14.5544 169.523 14.9357C169.731 15.317 170.017 15.6204 170.381 15.8457C170.745 16.0624 171.17 16.1707 171.655 16.1707C171.958 16.1707 172.223 16.1317 172.448 16.0537C172.673 15.9757 172.868 15.8804 173.033 15.7677C173.198 15.6464 173.336 15.525 173.449 15.4037C173.562 15.3257 173.67 15.2867 173.774 15.2867C173.904 15.2867 174.008 15.33 174.086 15.4167C174.173 15.5034 174.216 15.6074 174.216 15.7287C174.216 15.876 174.147 16.006 174.008 16.1187C173.765 16.3874 173.436 16.6257 173.02 16.8337C172.604 17.033 172.162 17.1327 171.694 17.1327ZM175.976 10.1647C176.08 10.1647 176.179 10.195 176.275 10.2557C176.37 10.3077 176.439 10.3857 176.483 10.4897L178.641 15.5597L178.433 15.6637L180.63 10.5027C180.725 10.2687 180.885 10.156 181.111 10.1647C181.241 10.1647 181.353 10.208 181.449 10.2947C181.544 10.3814 181.592 10.4897 181.592 10.6197C181.592 10.6717 181.583 10.7237 181.566 10.7757C181.557 10.819 181.544 10.858 181.527 10.8927L179.018 16.6647C178.922 16.8814 178.771 16.994 178.563 17.0027C178.45 17.0114 178.342 16.9897 178.238 16.9377C178.142 16.877 178.073 16.786 178.03 16.6647L175.521 10.9057C175.503 10.871 175.486 10.832 175.469 10.7887C175.46 10.7454 175.456 10.6934 175.456 10.6327C175.456 10.52 175.499 10.416 175.586 10.3207C175.681 10.2167 175.811 10.1647 175.976 10.1647ZM188.509 10.2167C188.656 10.2167 188.777 10.2687 188.873 10.3727C188.977 10.468 189.029 10.5894 189.029 10.7367V16.4697C189.029 16.617 188.977 16.7427 188.873 16.8467C188.777 16.9507 188.656 17.0027 188.509 17.0027C188.353 17.0027 188.227 16.9507 188.132 16.8467C188.036 16.7427 187.989 16.617 187.989 16.4697V15.2347L188.236 15.2087C188.236 15.3994 188.171 15.6074 188.041 15.8327C187.911 16.058 187.733 16.2704 187.508 16.4697C187.282 16.6604 187.014 16.8207 186.702 16.9507C186.398 17.072 186.069 17.1327 185.714 17.1327C185.124 17.1327 184.596 16.981 184.128 16.6777C183.66 16.3657 183.287 15.9454 183.01 15.4167C182.741 14.888 182.607 14.2857 182.607 13.6097C182.607 12.925 182.741 12.3227 183.01 11.8027C183.287 11.274 183.66 10.8624 184.128 10.5677C184.596 10.2644 185.116 10.1127 185.688 10.1127C186.06 10.1127 186.407 10.1734 186.728 10.2947C187.048 10.416 187.326 10.5807 187.56 10.7887C187.802 10.9967 187.989 11.2264 188.119 11.4777C188.257 11.729 188.327 11.9804 188.327 12.2317L187.989 12.1537V10.7367C187.989 10.5894 188.036 10.468 188.132 10.3727C188.227 10.2687 188.353 10.2167 188.509 10.2167ZM185.831 16.1707C186.264 16.1707 186.645 16.058 186.975 15.8327C187.313 15.6074 187.573 15.304 187.755 14.9227C187.945 14.5327 188.041 14.095 188.041 13.6097C188.041 13.133 187.945 12.704 187.755 12.3227C187.573 11.9327 187.313 11.6294 186.975 11.4127C186.645 11.1874 186.264 11.0747 185.831 11.0747C185.406 11.0747 185.025 11.183 184.687 11.3997C184.357 11.6164 184.097 11.9154 183.907 12.2967C183.716 12.678 183.621 13.1157 183.621 13.6097C183.621 14.095 183.712 14.5327 183.894 14.9227C184.084 15.304 184.344 15.6074 184.674 15.8327C185.012 16.058 185.397 16.1707 185.831 16.1707ZM194.297 10.1127C194.886 10.1127 195.35 10.234 195.688 10.4767C196.026 10.7194 196.264 11.0444 196.403 11.4517C196.55 11.859 196.624 12.314 196.624 12.8167V16.4697C196.624 16.617 196.572 16.7427 196.468 16.8467C196.373 16.9507 196.251 17.0027 196.104 17.0027C195.957 17.0027 195.831 16.9507 195.727 16.8467C195.632 16.7427 195.584 16.617 195.584 16.4697V12.8427C195.584 12.5134 195.532 12.2187 195.428 11.9587C195.333 11.69 195.168 11.4777 194.934 11.3217C194.709 11.157 194.397 11.0747 193.998 11.0747C193.634 11.0747 193.3 11.157 192.997 11.3217C192.694 11.4777 192.451 11.69 192.269 11.9587C192.087 12.2187 191.996 12.5134 191.996 12.8427V16.4697C191.996 16.617 191.944 16.7427 191.84 16.8467C191.745 16.9507 191.623 17.0027 191.476 17.0027C191.329 17.0027 191.203 16.9507 191.099 16.8467C191.004 16.7427 190.956 16.617 190.956 16.4697V10.8017C190.956 10.6544 191.004 10.533 191.099 10.4377C191.203 10.3337 191.329 10.2817 191.476 10.2817C191.632 10.2817 191.758 10.3337 191.853 10.4377C191.948 10.533 191.996 10.6544 191.996 10.8017V11.7247L191.736 12.0107C191.779 11.7854 191.879 11.56 192.035 11.3347C192.191 11.1007 192.386 10.8927 192.62 10.7107C192.854 10.5287 193.114 10.3857 193.4 10.2817C193.686 10.169 193.985 10.1127 194.297 10.1127ZM198.288 10.3207H201.343C201.482 10.3207 201.594 10.3684 201.681 10.4637C201.776 10.559 201.824 10.6717 201.824 10.8017C201.824 10.9404 201.776 11.0574 201.681 11.1527C201.594 11.2394 201.482 11.2827 201.343 11.2827H198.288C198.158 11.2827 198.045 11.235 197.95 11.1397C197.855 11.0444 197.807 10.9274 197.807 10.7887C197.807 10.6587 197.855 10.5504 197.95 10.4637C198.045 10.3684 198.158 10.3207 198.288 10.3207ZM199.653 8.55269C199.8 8.55269 199.922 8.60469 200.017 8.70869C200.112 8.80402 200.16 8.92535 200.16 9.07269V15.3517C200.16 15.5597 200.19 15.7157 200.251 15.8197C200.312 15.9237 200.39 15.9974 200.485 16.0407C200.589 16.0754 200.689 16.0927 200.784 16.0927C200.871 16.0927 200.944 16.0797 201.005 16.0537C201.074 16.019 201.152 16.0017 201.239 16.0017C201.326 16.0017 201.404 16.045 201.473 16.1317C201.551 16.2097 201.59 16.3137 201.59 16.4437C201.59 16.5997 201.499 16.734 201.317 16.8467C201.135 16.9507 200.931 17.0027 200.706 17.0027C200.585 17.0027 200.433 16.994 200.251 16.9767C200.078 16.9594 199.904 16.903 199.731 16.8077C199.558 16.7124 199.41 16.5564 199.289 16.3397C199.176 16.1144 199.12 15.8024 199.12 15.4037V9.07269C199.12 8.92535 199.172 8.80402 199.276 8.70869C199.38 8.60469 199.506 8.55269 199.653 8.55269ZM209.685 17.1327C209.043 17.1327 208.48 17.0374 207.995 16.8467C207.509 16.656 207.041 16.3527 206.591 15.9367C206.53 15.876 206.478 15.811 206.435 15.7417C206.4 15.6637 206.383 15.5814 206.383 15.4947C206.383 15.356 206.43 15.2347 206.526 15.1307C206.63 15.018 206.755 14.9617 206.903 14.9617C207.024 14.9617 207.132 15.0094 207.228 15.1047C207.566 15.434 207.93 15.6854 208.32 15.8587C208.718 16.032 209.165 16.1187 209.659 16.1187C210.04 16.1187 210.382 16.058 210.686 15.9367C210.998 15.8154 211.245 15.6464 211.427 15.4297C211.609 15.213 211.7 14.9617 211.7 14.6757C211.691 14.329 211.587 14.043 211.388 13.8177C211.197 13.5924 210.928 13.406 210.582 13.2587C210.244 13.1027 209.849 12.9727 209.399 12.8687C209 12.7734 208.632 12.6564 208.294 12.5177C207.964 12.379 207.678 12.21 207.436 12.0107C207.193 11.8027 207.002 11.5557 206.864 11.2697C206.734 10.975 206.669 10.6327 206.669 10.2427C206.669 9.74869 206.799 9.31535 207.059 8.94269C207.319 8.57002 207.678 8.28402 208.138 8.08468C208.597 7.87669 209.126 7.77269 209.724 7.77269C210.252 7.77269 210.751 7.85935 211.219 8.03268C211.695 8.20602 212.077 8.44435 212.363 8.74768C212.536 8.91235 212.623 9.07268 212.623 9.22868C212.623 9.35869 212.566 9.48002 212.454 9.59268C212.35 9.69669 212.228 9.74869 212.09 9.74869C211.994 9.74869 211.908 9.71402 211.83 9.64468C211.682 9.48002 211.496 9.33269 211.271 9.20269C211.045 9.07269 210.798 8.96869 210.53 8.89069C210.261 8.81269 209.992 8.77369 209.724 8.77369C209.325 8.77369 208.974 8.83435 208.671 8.95569C208.367 9.06835 208.129 9.23302 207.956 9.44969C207.791 9.65769 207.709 9.90902 207.709 10.2037C207.709 10.533 207.804 10.806 207.995 11.0227C208.185 11.2307 208.441 11.404 208.762 11.5427C209.082 11.6727 209.438 11.7897 209.828 11.8937C210.252 11.9977 210.642 12.119 210.998 12.2577C211.362 12.3877 211.674 12.5524 211.934 12.7517C212.194 12.951 212.393 13.2067 212.532 13.5187C212.679 13.822 212.753 14.199 212.753 14.6497C212.753 15.1264 212.618 15.551 212.35 15.9237C212.081 16.2964 211.713 16.591 211.245 16.8077C210.785 17.0157 210.265 17.124 209.685 17.1327ZM217.306 10.1127C217.748 10.1127 218.146 10.1604 218.502 10.2557C218.857 10.351 219.139 10.481 219.347 10.6457C219.555 10.8104 219.659 10.9967 219.659 11.2047C219.659 11.3174 219.62 11.4257 219.542 11.5297C219.464 11.6337 219.36 11.6857 219.23 11.6857C219.108 11.6857 219.009 11.664 218.931 11.6207C218.861 11.5774 218.792 11.521 218.723 11.4517C218.662 11.3824 218.575 11.3217 218.463 11.2697C218.359 11.209 218.207 11.1614 218.008 11.1267C217.808 11.092 217.609 11.0747 217.41 11.0747C216.933 11.0747 216.513 11.1874 216.149 11.4127C215.793 11.638 215.512 11.9414 215.304 12.3227C215.096 12.704 214.992 13.1374 214.992 13.6227C214.992 14.108 215.091 14.5414 215.291 14.9227C215.49 15.304 215.767 15.6074 216.123 15.8327C216.478 16.058 216.89 16.1707 217.358 16.1707C217.661 16.1707 217.904 16.1447 218.086 16.0927C218.268 16.0407 218.419 15.98 218.541 15.9107C218.697 15.824 218.814 15.7374 218.892 15.6507C218.978 15.564 219.091 15.5207 219.23 15.5207C219.377 15.5207 219.49 15.5684 219.568 15.6637C219.654 15.759 219.698 15.876 219.698 16.0147C219.698 16.1707 219.589 16.3354 219.373 16.5087C219.156 16.682 218.861 16.8294 218.489 16.9507C218.125 17.072 217.709 17.1327 217.241 17.1327C216.582 17.1327 216.006 16.981 215.512 16.6777C215.018 16.3657 214.632 15.9454 214.355 15.4167C214.086 14.8794 213.952 14.2814 213.952 13.6227C213.952 12.964 214.09 12.3704 214.368 11.8417C214.654 11.313 215.048 10.8927 215.551 10.5807C216.053 10.2687 216.638 10.1127 217.306 10.1127ZM224.164 17.1327C223.47 17.1327 222.864 16.9854 222.344 16.6907C221.824 16.396 221.416 15.993 221.122 15.4817C220.836 14.9617 220.693 14.3637 220.693 13.6877C220.693 12.9337 220.84 12.2924 221.135 11.7637C221.438 11.2264 221.828 10.819 222.305 10.5417C222.79 10.2557 223.301 10.1127 223.839 10.1127C224.237 10.1127 224.623 10.1864 224.996 10.3337C225.368 10.481 225.698 10.6977 225.984 10.9837C226.27 11.261 226.499 11.599 226.673 11.9977C226.846 12.3877 226.937 12.8254 226.946 13.3107C226.946 13.4494 226.894 13.5664 226.79 13.6617C226.686 13.757 226.564 13.8047 226.426 13.8047H221.291L221.057 12.9077H226.062L225.854 13.0897V12.8037C225.819 12.4484 225.698 12.145 225.49 11.8937C225.29 11.6337 225.043 11.4344 224.749 11.2957C224.463 11.157 224.159 11.0877 223.839 11.0877C223.579 11.0877 223.319 11.1354 223.059 11.2307C222.807 11.3174 222.578 11.4647 222.37 11.6727C222.17 11.872 222.006 12.132 221.876 12.4527C221.754 12.7734 221.694 13.159 221.694 13.6097C221.694 14.1124 221.793 14.5544 221.993 14.9357C222.201 15.317 222.487 15.6204 222.851 15.8457C223.215 16.0624 223.639 16.1707 224.125 16.1707C224.428 16.1707 224.692 16.1317 224.918 16.0537C225.143 15.9757 225.338 15.8804 225.503 15.7677C225.667 15.6464 225.806 15.525 225.919 15.4037C226.031 15.3257 226.14 15.2867 226.244 15.2867C226.374 15.2867 226.478 15.33 226.556 15.4167C226.642 15.5034 226.686 15.6074 226.686 15.7287C226.686 15.876 226.616 16.006 226.478 16.1187C226.235 16.3874 225.906 16.6257 225.49 16.8337C225.074 17.033 224.632 17.1327 224.164 17.1327ZM231.85 10.1127C232.439 10.1127 232.903 10.234 233.241 10.4767C233.579 10.7194 233.817 11.0444 233.956 11.4517C234.103 11.859 234.177 12.314 234.177 12.8167V16.4697C234.177 16.617 234.125 16.7427 234.021 16.8467C233.926 16.9507 233.804 17.0027 233.657 17.0027C233.51 17.0027 233.384 16.9507 233.28 16.8467C233.185 16.7427 233.137 16.617 233.137 16.4697V12.8427C233.137 12.5134 233.085 12.2187 232.981 11.9587C232.886 11.69 232.721 11.4777 232.487 11.3217C232.262 11.157 231.95 11.0747 231.551 11.0747C231.187 11.0747 230.853 11.157 230.55 11.3217C230.247 11.4777 230.004 11.69 229.822 11.9587C229.64 12.2187 229.549 12.5134 229.549 12.8427V16.4697C229.549 16.617 229.497 16.7427 229.393 16.8467C229.298 16.9507 229.176 17.0027 229.029 17.0027C228.882 17.0027 228.756 16.9507 228.652 16.8467C228.557 16.7427 228.509 16.617 228.509 16.4697V10.8017C228.509 10.6544 228.557 10.533 228.652 10.4377C228.756 10.3337 228.882 10.2817 229.029 10.2817C229.185 10.2817 229.311 10.3337 229.406 10.4377C229.501 10.533 229.549 10.6544 229.549 10.8017V11.7247L229.289 12.0107C229.332 11.7854 229.432 11.56 229.588 11.3347C229.744 11.1007 229.939 10.8927 230.173 10.7107C230.407 10.5287 230.667 10.3857 230.953 10.2817C231.239 10.169 231.538 10.1127 231.85 10.1127ZM241.639 10.2167C241.786 10.2167 241.907 10.2687 242.003 10.3727C242.107 10.468 242.159 10.5894 242.159 10.7367V16.4697C242.159 16.617 242.107 16.7427 242.003 16.8467C241.907 16.9507 241.786 17.0027 241.639 17.0027C241.483 17.0027 241.357 16.9507 241.262 16.8467C241.166 16.7427 241.119 16.617 241.119 16.4697V15.2347L241.366 15.2087C241.366 15.3994 241.301 15.6074 241.171 15.8327C241.041 16.058 240.863 16.2704 240.638 16.4697C240.412 16.6604 240.144 16.8207 239.832 16.9507C239.528 17.072 239.199 17.1327 238.844 17.1327C238.254 17.1327 237.726 16.981 237.258 16.6777C236.79 16.3657 236.417 15.9454 236.14 15.4167C235.871 14.888 235.737 14.2857 235.737 13.6097C235.737 12.925 235.871 12.3227 236.14 11.8027C236.417 11.274 236.79 10.8624 237.258 10.5677C237.726 10.2644 238.246 10.1127 238.818 10.1127C239.19 10.1127 239.537 10.1734 239.858 10.2947C240.178 10.416 240.456 10.5807 240.69 10.7887C240.932 10.9967 241.119 11.2264 241.249 11.4777C241.387 11.729 241.457 11.9804 241.457 12.2317L241.119 12.1537V10.7367C241.119 10.5894 241.166 10.468 241.262 10.3727C241.357 10.2687 241.483 10.2167 241.639 10.2167ZM238.961 16.1707C239.394 16.1707 239.775 16.058 240.105 15.8327C240.443 15.6074 240.703 15.304 240.885 14.9227C241.075 14.5327 241.171 14.095 241.171 13.6097C241.171 13.133 241.075 12.704 240.885 12.3227C240.703 11.9327 240.443 11.6294 240.105 11.4127C239.775 11.1874 239.394 11.0747 238.961 11.0747C238.536 11.0747 238.155 11.183 237.817 11.3997C237.487 11.6164 237.227 11.9154 237.037 12.2967C236.846 12.678 236.751 13.1157 236.751 13.6097C236.751 14.095 236.842 14.5327 237.024 14.9227C237.214 15.304 237.474 15.6074 237.804 15.8327C238.142 16.058 238.527 16.1707 238.961 16.1707ZM244.606 17.0027C244.459 17.0027 244.333 16.9507 244.229 16.8467C244.134 16.7427 244.086 16.617 244.086 16.4697V10.8017C244.086 10.6544 244.134 10.533 244.229 10.4377C244.333 10.3337 244.459 10.2817 244.606 10.2817C244.762 10.2817 244.888 10.3337 244.983 10.4377C245.078 10.533 245.126 10.6544 245.126 10.8017V12.5177L244.97 12.2447C245.022 11.976 245.113 11.716 245.243 11.4647C245.382 11.2047 245.555 10.975 245.763 10.7757C245.971 10.5677 246.209 10.4074 246.478 10.2947C246.747 10.1734 247.041 10.1127 247.362 10.1127C247.553 10.1127 247.726 10.1604 247.882 10.2557C248.047 10.3424 248.129 10.468 248.129 10.6327C248.129 10.8147 248.081 10.949 247.986 11.0357C247.891 11.1224 247.782 11.1657 247.661 11.1657C247.548 11.1657 247.44 11.144 247.336 11.1007C247.232 11.0487 247.102 11.0227 246.946 11.0227C246.729 11.0227 246.513 11.0834 246.296 11.2047C246.088 11.3174 245.893 11.482 245.711 11.6987C245.538 11.9154 245.395 12.1624 245.282 12.4397C245.178 12.7084 245.126 12.9987 245.126 13.3107V16.4697C245.126 16.617 245.074 16.7427 244.97 16.8467C244.875 16.9507 244.753 17.0027 244.606 17.0027ZM250.305 16.4697C250.305 16.617 250.253 16.7427 250.149 16.8467C250.053 16.9507 249.932 17.0027 249.785 17.0027C249.629 17.0027 249.503 16.9507 249.408 16.8467C249.312 16.7427 249.265 16.617 249.265 16.4697V10.6977C249.265 10.5504 249.312 10.429 249.408 10.3337C249.512 10.2297 249.637 10.1777 249.785 10.1777C249.932 10.1777 250.053 10.2297 250.149 10.3337C250.253 10.429 250.305 10.5504 250.305 10.6977V16.4697ZM249.785 9.30669C249.568 9.30669 249.408 9.26335 249.304 9.17668C249.2 9.09002 249.148 8.95569 249.148 8.77369V8.59169C249.148 8.40969 249.204 8.27535 249.317 8.18869C249.429 8.10202 249.59 8.05869 249.798 8.05869C250.006 8.05869 250.162 8.10202 250.266 8.18869C250.37 8.27535 250.422 8.40969 250.422 8.59169V8.77369C250.422 8.95569 250.365 9.09002 250.253 9.17668C250.149 9.26335 249.993 9.30669 249.785 9.30669ZM258.556 13.6227C258.556 14.2987 258.404 14.901 258.101 15.4297C257.806 15.9584 257.403 16.3744 256.892 16.6777C256.389 16.981 255.822 17.1327 255.189 17.1327C254.556 17.1327 253.984 16.981 253.473 16.6777C252.962 16.3744 252.554 15.9584 252.251 15.4297C251.956 14.901 251.809 14.2987 251.809 13.6227C251.809 12.9467 251.956 12.3444 252.251 11.8157C252.554 11.287 252.962 10.871 253.473 10.5677C253.984 10.2644 254.556 10.1127 255.189 10.1127C255.822 10.1127 256.389 10.2644 256.892 10.5677C257.403 10.871 257.806 11.287 258.101 11.8157C258.404 12.3444 258.556 12.9467 258.556 13.6227ZM257.516 13.6227C257.516 13.12 257.412 12.678 257.204 12.2967C257.005 11.9154 256.727 11.6164 256.372 11.3997C256.025 11.183 255.631 11.0747 255.189 11.0747C254.747 11.0747 254.348 11.183 253.993 11.3997C253.646 11.6164 253.369 11.9154 253.161 12.2967C252.953 12.678 252.849 13.12 252.849 13.6227C252.849 14.1167 252.953 14.5544 253.161 14.9357C253.369 15.317 253.646 15.6204 253.993 15.8457C254.348 16.0624 254.747 16.1707 255.189 16.1707C255.631 16.1707 256.025 16.0624 256.372 15.8457C256.727 15.6204 257.005 15.317 257.204 14.9357C257.412 14.5544 257.516 14.1167 257.516 13.6227ZM259.743 15.9367C259.665 15.824 259.631 15.707 259.639 15.5857C259.648 15.4557 259.722 15.343 259.86 15.2477C259.947 15.187 260.047 15.161 260.159 15.1697C260.281 15.1784 260.389 15.2347 260.484 15.3387C260.727 15.6247 261.004 15.8544 261.316 16.0277C261.628 16.1924 262.01 16.2747 262.46 16.2747C262.668 16.266 262.876 16.2314 263.084 16.1707C263.292 16.11 263.466 16.006 263.604 15.8587C263.752 15.7027 263.825 15.499 263.825 15.2477C263.825 15.005 263.752 14.8144 263.604 14.6757C263.457 14.5284 263.266 14.4114 263.032 14.3247C262.798 14.2294 262.543 14.147 262.265 14.0777C261.979 13.9997 261.698 13.913 261.42 13.8177C261.143 13.7137 260.892 13.588 260.666 13.4407C260.45 13.2847 260.272 13.094 260.133 12.8687C260.003 12.6347 259.938 12.353 259.938 12.0237C259.938 11.6337 260.042 11.2957 260.25 11.0097C260.467 10.7237 260.753 10.5027 261.108 10.3467C261.472 10.1907 261.867 10.1127 262.291 10.1127C262.534 10.1127 262.785 10.143 263.045 10.2037C263.314 10.2557 263.574 10.351 263.825 10.4897C264.077 10.6197 264.298 10.8017 264.488 11.0357C264.566 11.1224 264.61 11.2307 264.618 11.3607C264.627 11.4907 264.571 11.6077 264.449 11.7117C264.354 11.781 264.246 11.8114 264.124 11.8027C264.012 11.794 263.916 11.7507 263.838 11.6727C263.656 11.456 263.427 11.2914 263.149 11.1787C262.881 11.0574 262.582 10.9967 262.252 10.9967C262.044 10.9967 261.841 11.027 261.641 11.0877C261.442 11.1484 261.273 11.2524 261.134 11.3997C261.004 11.5384 260.939 11.7334 260.939 11.9847C260.948 12.2187 261.026 12.4094 261.173 12.5567C261.321 12.704 261.52 12.8254 261.771 12.9207C262.023 13.0074 262.3 13.094 262.603 13.1807C262.881 13.25 263.145 13.3324 263.396 13.4277C263.656 13.5144 263.89 13.6314 264.098 13.7787C264.306 13.926 264.471 14.1167 264.592 14.3507C264.714 14.576 264.774 14.862 264.774 15.2087C264.774 15.6074 264.662 15.954 264.436 16.2487C264.211 16.5347 263.912 16.7557 263.539 16.9117C263.175 17.059 262.781 17.1327 262.356 17.1327C261.88 17.1327 261.407 17.0417 260.939 16.8597C260.48 16.6777 260.081 16.37 259.743 15.9367Z" fill="#17171A"/>
</svg>
