<svg width="274" height="274" viewBox="0 0 274 274" fill="none" xmlns="http://www.w3.org/2000/svg">
<g opacity="0.2" filter="url(#filter0_f_99_1574)">
<circle cx="137" cy="137" r="65" fill="#15BE53"/>
</g>
<g filter="url(#filter1_b_99_1574)">
<rect x="197" y="70" width="130" height="130" rx="65" transform="rotate(90 197 70)" fill="white" fill-opacity="0.8"/>
<g opacity="0.3">
<path d="M116.94 124.428H125.189C127.924 124.428 130.547 125.291 132.481 126.828C134.414 128.366 135.501 130.45 135.501 132.624" stroke="#0EDDC9" stroke-width="1.5" stroke-linecap="round" stroke-linejoin="round"/>
<path d="M123.127 132.626H143.75C145.938 132.626 148.037 133.317 149.584 134.547C151.131 135.776 152 137.444 152 139.183C152 139.618 151.783 140.035 151.396 140.342C151.009 140.65 150.485 140.823 149.938 140.823H116.94" stroke="#0EDDC9" stroke-width="1.5" stroke-linecap="round" stroke-linejoin="round"/>
</g>
<path d="M142.197 123.538C141.791 123.914 141.165 123.914 140.759 123.538L128.364 112.072C121.216 104.892 131.642 90.9909 141.478 102.237C151.314 91.0237 161.839 104.925 154.593 112.072L142.197 123.538Z" fill="#0EDDC9"/>
<path d="M145.563 108L141.149 112.482L139.31 110.615L136 113.977" stroke="white" stroke-opacity="0.8" stroke-width="0.794042" stroke-linecap="round" stroke-linejoin="round"/>
<path d="M145.563 111.586V108H141.977" stroke="white" stroke-opacity="0.8" stroke-width="0.794042" stroke-linecap="round" stroke-linejoin="round"/>
<path d="M110.103 173.449C109.335 173.449 108.653 173.342 108.055 173.129C107.458 172.915 106.887 172.563 106.343 172.073C106.226 171.987 106.135 171.886 106.071 171.769C106.018 171.641 105.991 171.513 105.991 171.385C105.991 171.182 106.066 171.001 106.215 170.841C106.365 170.681 106.551 170.601 106.775 170.601C106.946 170.601 107.106 170.659 107.255 170.777C107.661 171.15 108.082 171.433 108.519 171.625C108.967 171.817 109.49 171.913 110.087 171.913C110.514 171.913 110.903 171.843 111.255 171.705C111.618 171.566 111.906 171.379 112.119 171.145C112.333 170.91 112.439 170.638 112.439 170.329C112.439 169.945 112.327 169.63 112.103 169.385C111.89 169.129 111.575 168.921 111.159 168.761C110.754 168.59 110.263 168.446 109.687 168.329C109.154 168.233 108.674 168.099 108.247 167.929C107.831 167.758 107.474 167.545 107.175 167.289C106.877 167.022 106.647 166.707 106.487 166.345C106.327 165.982 106.247 165.561 106.247 165.081C106.247 164.43 106.418 163.87 106.759 163.401C107.101 162.931 107.565 162.569 108.151 162.313C108.738 162.057 109.399 161.929 110.135 161.929C110.807 161.929 111.437 162.035 112.023 162.249C112.61 162.451 113.085 162.729 113.447 163.081C113.703 163.305 113.831 163.545 113.831 163.801C113.831 163.993 113.751 164.174 113.591 164.345C113.442 164.505 113.266 164.585 113.063 164.585C112.914 164.585 112.786 164.542 112.679 164.457C112.509 164.275 112.279 164.115 111.991 163.977C111.703 163.827 111.394 163.705 111.063 163.609C110.743 163.513 110.434 163.465 110.135 163.465C109.655 163.465 109.245 163.534 108.903 163.673C108.562 163.801 108.301 163.982 108.119 164.217C107.938 164.441 107.847 164.707 107.847 165.017C107.847 165.379 107.949 165.678 108.151 165.913C108.365 166.147 108.658 166.339 109.031 166.489C109.405 166.627 109.831 166.755 110.311 166.873C110.898 167.001 111.421 167.145 111.879 167.305C112.349 167.465 112.743 167.673 113.063 167.929C113.383 168.174 113.629 168.483 113.799 168.857C113.97 169.23 114.055 169.694 114.055 170.249C114.055 170.889 113.874 171.449 113.511 171.929C113.149 172.409 112.669 172.782 112.071 173.049C111.485 173.315 110.829 173.449 110.103 173.449ZM122.119 164.873C122.343 164.873 122.529 164.953 122.679 165.113C122.839 165.262 122.919 165.454 122.919 165.689V169.897C122.919 171.006 122.609 171.875 121.991 172.505C121.372 173.123 120.497 173.433 119.367 173.433C118.247 173.433 117.377 173.123 116.759 172.505C116.151 171.875 115.847 171.006 115.847 169.897V165.689C115.847 165.454 115.921 165.262 116.071 165.113C116.22 164.953 116.412 164.873 116.647 164.873C116.871 164.873 117.057 164.953 117.207 165.113C117.367 165.262 117.447 165.454 117.447 165.689V169.897C117.447 170.59 117.607 171.107 117.927 171.449C118.257 171.79 118.737 171.961 119.367 171.961C120.007 171.961 120.492 171.79 120.823 171.449C121.153 171.107 121.319 170.59 121.319 169.897V165.689C121.319 165.454 121.393 165.262 121.543 165.113C121.692 164.953 121.884 164.873 122.119 164.873ZM129.383 164.729C130.13 164.729 130.791 164.915 131.367 165.289C131.954 165.662 132.418 166.174 132.759 166.825C133.101 167.465 133.271 168.211 133.271 169.065C133.271 169.918 133.101 170.675 132.759 171.337C132.418 171.987 131.959 172.499 131.383 172.873C130.807 173.246 130.157 173.433 129.431 173.433C129.026 173.433 128.642 173.369 128.279 173.241C127.917 173.113 127.597 172.947 127.319 172.745C127.042 172.531 126.813 172.307 126.631 172.073C126.461 171.838 126.354 171.619 126.311 171.417L126.743 171.209V175.673C126.743 175.907 126.663 176.099 126.503 176.249C126.354 176.409 126.167 176.489 125.943 176.489C125.709 176.489 125.517 176.409 125.367 176.249C125.218 176.099 125.143 175.907 125.143 175.673V165.657C125.143 165.433 125.218 165.241 125.367 165.081C125.517 164.921 125.709 164.841 125.943 164.841C126.167 164.841 126.354 164.921 126.503 165.081C126.663 165.241 126.743 165.433 126.743 165.657V166.761L126.487 166.617C126.519 166.414 126.621 166.206 126.791 165.993C126.962 165.769 127.175 165.561 127.431 165.369C127.698 165.177 127.997 165.022 128.327 164.905C128.669 164.787 129.021 164.729 129.383 164.729ZM129.207 166.201C128.695 166.201 128.247 166.329 127.863 166.585C127.49 166.83 127.197 167.166 126.983 167.593C126.77 168.019 126.663 168.51 126.663 169.065C126.663 169.609 126.77 170.105 126.983 170.553C127.197 170.99 127.49 171.337 127.863 171.593C128.247 171.838 128.695 171.961 129.207 171.961C129.709 171.961 130.146 171.838 130.519 171.593C130.893 171.337 131.186 170.99 131.399 170.553C131.623 170.105 131.735 169.609 131.735 169.065C131.735 168.521 131.623 168.035 131.399 167.609C131.186 167.171 130.893 166.83 130.519 166.585C130.146 166.329 129.709 166.201 129.207 166.201ZM139.321 164.729C140.068 164.729 140.729 164.915 141.305 165.289C141.892 165.662 142.356 166.174 142.697 166.825C143.038 167.465 143.209 168.211 143.209 169.065C143.209 169.918 143.038 170.675 142.697 171.337C142.356 171.987 141.897 172.499 141.321 172.873C140.745 173.246 140.094 173.433 139.369 173.433C138.964 173.433 138.58 173.369 138.217 173.241C137.854 173.113 137.534 172.947 137.257 172.745C136.98 172.531 136.75 172.307 136.569 172.073C136.398 171.838 136.292 171.619 136.249 171.417L136.681 171.209V175.673C136.681 175.907 136.601 176.099 136.441 176.249C136.292 176.409 136.105 176.489 135.881 176.489C135.646 176.489 135.454 176.409 135.305 176.249C135.156 176.099 135.081 175.907 135.081 175.673V165.657C135.081 165.433 135.156 165.241 135.305 165.081C135.454 164.921 135.646 164.841 135.881 164.841C136.105 164.841 136.292 164.921 136.441 165.081C136.601 165.241 136.681 165.433 136.681 165.657V166.761L136.425 166.617C136.457 166.414 136.558 166.206 136.729 165.993C136.9 165.769 137.113 165.561 137.369 165.369C137.636 165.177 137.934 165.022 138.265 164.905C138.606 164.787 138.958 164.729 139.321 164.729ZM139.145 166.201C138.633 166.201 138.185 166.329 137.801 166.585C137.428 166.83 137.134 167.166 136.921 167.593C136.708 168.019 136.601 168.51 136.601 169.065C136.601 169.609 136.708 170.105 136.921 170.553C137.134 170.99 137.428 171.337 137.801 171.593C138.185 171.838 138.633 171.961 139.145 171.961C139.646 171.961 140.084 171.838 140.457 171.593C140.83 171.337 141.124 170.99 141.337 170.553C141.561 170.105 141.673 169.609 141.673 169.065C141.673 168.521 141.561 168.035 141.337 167.609C141.124 167.171 140.83 166.83 140.457 166.585C140.084 166.329 139.646 166.201 139.145 166.201ZM153.082 169.081C153.082 169.934 152.896 170.691 152.522 171.353C152.149 172.003 151.642 172.515 151.002 172.889C150.362 173.262 149.642 173.449 148.842 173.449C148.042 173.449 147.322 173.262 146.682 172.889C146.042 172.515 145.53 172.003 145.146 171.353C144.773 170.691 144.586 169.934 144.586 169.081C144.586 168.217 144.773 167.459 145.146 166.809C145.53 166.147 146.042 165.63 146.682 165.257C147.322 164.873 148.042 164.681 148.842 164.681C149.642 164.681 150.362 164.873 151.002 165.257C151.642 165.63 152.149 166.147 152.522 166.809C152.896 167.459 153.082 168.217 153.082 169.081ZM151.482 169.081C151.482 168.494 151.365 167.987 151.13 167.561C150.896 167.123 150.576 166.782 150.17 166.537C149.776 166.281 149.333 166.153 148.842 166.153C148.352 166.153 147.904 166.281 147.498 166.537C147.093 166.782 146.773 167.123 146.538 167.561C146.304 167.987 146.186 168.494 146.186 169.081C146.186 169.646 146.304 170.147 146.538 170.585C146.773 171.022 147.093 171.363 147.498 171.609C147.904 171.854 148.352 171.977 148.842 171.977C149.333 171.977 149.776 171.854 150.17 171.609C150.576 171.363 150.896 171.022 151.13 170.585C151.365 170.147 151.482 169.646 151.482 169.081ZM155.693 173.289C155.459 173.289 155.267 173.214 155.117 173.065C154.968 172.905 154.893 172.707 154.893 172.473V165.689C154.893 165.454 154.968 165.262 155.117 165.113C155.267 164.953 155.459 164.873 155.693 164.873C155.917 164.873 156.104 164.953 156.253 165.113C156.413 165.262 156.493 165.454 156.493 165.689V167.481L156.333 166.793C156.419 166.494 156.547 166.217 156.717 165.961C156.899 165.705 157.112 165.481 157.357 165.289C157.603 165.097 157.875 164.947 158.173 164.841C158.483 164.734 158.803 164.681 159.133 164.681C159.411 164.681 159.651 164.755 159.853 164.905C160.056 165.054 160.157 165.241 160.157 165.465C160.157 165.753 160.083 165.966 159.933 166.105C159.784 166.233 159.619 166.297 159.437 166.297C159.277 166.297 159.123 166.265 158.973 166.201C158.824 166.126 158.648 166.089 158.445 166.089C158.221 166.089 157.992 166.147 157.757 166.265C157.523 166.382 157.309 166.558 157.117 166.793C156.925 167.017 156.771 167.283 156.653 167.593C156.547 167.902 156.493 168.249 156.493 168.633V172.473C156.493 172.707 156.413 172.905 156.253 173.065C156.104 173.214 155.917 173.289 155.693 173.289ZM161.469 164.969H165.229C165.442 164.969 165.618 165.043 165.757 165.193C165.906 165.331 165.981 165.507 165.981 165.721C165.981 165.923 165.906 166.094 165.757 166.233C165.618 166.371 165.442 166.441 165.229 166.441H161.469C161.256 166.441 161.074 166.371 160.925 166.233C160.786 166.083 160.717 165.907 160.717 165.705C160.717 165.491 160.786 165.315 160.925 165.177C161.074 165.038 161.256 164.969 161.469 164.969ZM163.149 162.889C163.384 162.889 163.576 162.969 163.725 163.129C163.874 163.278 163.949 163.47 163.949 163.705V171.129C163.949 171.321 163.981 171.475 164.045 171.593C164.109 171.71 164.194 171.79 164.301 171.833C164.418 171.875 164.536 171.897 164.653 171.897C164.77 171.897 164.872 171.875 164.957 171.833C165.053 171.79 165.165 171.769 165.293 171.769C165.421 171.769 165.538 171.827 165.645 171.945C165.752 172.062 165.805 172.222 165.805 172.425C165.805 172.681 165.666 172.889 165.389 173.049C165.112 173.209 164.813 173.289 164.493 173.289C164.312 173.289 164.098 173.273 163.853 173.241C163.608 173.209 163.368 173.129 163.133 173.001C162.909 172.873 162.722 172.67 162.573 172.393C162.424 172.105 162.349 171.705 162.349 171.193V163.705C162.349 163.47 162.424 163.278 162.573 163.129C162.733 162.969 162.925 162.889 163.149 162.889Z" fill="#0EDDC9"/>
</g>
<defs>
<filter id="filter0_f_99_1574" x="0" y="0" width="274" height="274" filterUnits="userSpaceOnUse" color-interpolation-filters="sRGB">
<feFlood flood-opacity="0" result="BackgroundImageFix"/>
<feBlend mode="normal" in="SourceGraphic" in2="BackgroundImageFix" result="shape"/>
<feGaussianBlur stdDeviation="36" result="effect1_foregroundBlur_99_1574"/>
</filter>
<filter id="filter1_b_99_1574" x="57" y="60" width="150" height="150" filterUnits="userSpaceOnUse" color-interpolation-filters="sRGB">
<feFlood flood-opacity="0" result="BackgroundImageFix"/>
<feGaussianBlur in="BackgroundImage" stdDeviation="5"/>
<feComposite in2="SourceAlpha" operator="in" result="effect1_backgroundBlur_99_1574"/>
<feBlend mode="normal" in="SourceGraphic" in2="effect1_backgroundBlur_99_1574" result="shape"/>
</filter>
</defs>
</svg>
