<svg width="336" height="25" viewBox="0 0 336 25" fill="none" xmlns="http://www.w3.org/2000/svg">
<rect y="0.00268555" width="24" height="24" rx="12" fill="#6606EF"/>
<path d="M8 12.0027L10.8284 14.8312L16.4853 9.17432" stroke="white" stroke-width="1.5" stroke-linecap="round" stroke-linejoin="round"/>
<path d="M41.291 17.1327C40.6237 17.1327 40.004 17.0157 39.432 16.7817C38.8687 16.539 38.3703 16.2054 37.937 15.7807C37.5123 15.356 37.1787 14.862 36.936 14.2987C36.702 13.7267 36.585 13.1114 36.585 12.4527C36.585 11.7854 36.702 11.17 36.936 10.6067C37.1787 10.0347 37.5123 9.53635 37.937 9.11168C38.3703 8.68702 38.8687 8.35769 39.432 8.12369C40.004 7.88969 40.6237 7.77269 41.291 7.77269C41.733 7.77269 42.1577 7.82469 42.565 7.92869C42.981 8.02402 43.358 8.17569 43.696 8.38368C43.7827 8.42702 43.8433 8.48768 43.878 8.56568C43.9213 8.64368 43.943 8.72602 43.943 8.81268C43.943 8.96002 43.891 9.08569 43.787 9.18969C43.6917 9.29369 43.579 9.34568 43.449 9.34568C43.397 9.34568 43.345 9.33702 43.293 9.31969C43.2497 9.30235 43.202 9.28502 43.15 9.26769C42.8813 9.12902 42.591 9.02069 42.279 8.94269C41.967 8.85602 41.6377 8.81268 41.291 8.81268C40.6063 8.81268 39.991 8.97302 39.445 9.29368C38.9077 9.61435 38.483 10.0477 38.171 10.5937C37.859 11.1397 37.703 11.7594 37.703 12.4527C37.703 13.1374 37.859 13.757 38.171 14.3117C38.483 14.8577 38.9077 15.291 39.445 15.6117C39.991 15.9324 40.6063 16.0927 41.291 16.0927C41.6377 16.0927 41.993 16.045 42.357 15.9497C42.7297 15.8544 43.046 15.733 43.306 15.5857L43.215 15.8977V13.1547L43.423 13.3367H41.434C41.2867 13.3367 41.161 13.289 41.057 13.1937C40.9617 13.0897 40.914 12.964 40.914 12.8167C40.914 12.6694 40.9617 12.548 41.057 12.4527C41.161 12.3487 41.2867 12.2967 41.434 12.2967H43.8C43.956 12.2967 44.0817 12.3487 44.177 12.4527C44.2723 12.5567 44.32 12.6824 44.32 12.8297V15.8327C44.32 15.9367 44.294 16.0277 44.242 16.1057C44.1987 16.1837 44.138 16.2487 44.06 16.3007C43.67 16.552 43.2367 16.7557 42.76 16.9117C42.292 17.059 41.8023 17.1327 41.291 17.1327ZM52.3841 13.6227C52.3841 14.2987 52.2324 14.901 51.9291 15.4297C51.6344 15.9584 51.2314 16.3744 50.7201 16.6777C50.2174 16.981 49.6497 17.1327 49.0171 17.1327C48.3844 17.1327 47.8124 16.981 47.3011 16.6777C46.7897 16.3744 46.3824 15.9584 46.0791 15.4297C45.7844 14.901 45.6371 14.2987 45.6371 13.6227C45.6371 12.9467 45.7844 12.3444 46.0791 11.8157C46.3824 11.287 46.7897 10.871 47.3011 10.5677C47.8124 10.2644 48.3844 10.1127 49.0171 10.1127C49.6497 10.1127 50.2174 10.2644 50.7201 10.5677C51.2314 10.871 51.6344 11.287 51.9291 11.8157C52.2324 12.3444 52.3841 12.9467 52.3841 13.6227ZM51.3441 13.6227C51.3441 13.12 51.2401 12.678 51.0321 12.2967C50.8327 11.9154 50.5554 11.6164 50.2001 11.3997C49.8534 11.183 49.4591 11.0747 49.0171 11.0747C48.5751 11.0747 48.1764 11.183 47.8211 11.3997C47.4744 11.6164 47.1971 11.9154 46.9891 12.2967C46.7811 12.678 46.6771 13.12 46.6771 13.6227C46.6771 14.1167 46.7811 14.5544 46.9891 14.9357C47.1971 15.317 47.4744 15.6204 47.8211 15.8457C48.1764 16.0624 48.5751 16.1707 49.0171 16.1707C49.4591 16.1707 49.8534 16.0624 50.2001 15.8457C50.5554 15.6204 50.8327 15.317 51.0321 14.9357C51.2401 14.5544 51.3441 14.1167 51.3441 13.6227ZM59.4863 10.2167C59.6337 10.2167 59.755 10.2687 59.8503 10.3727C59.9543 10.468 60.0063 10.5894 60.0063 10.7367V16.4697C60.0063 16.617 59.9543 16.7427 59.8503 16.8467C59.755 16.9507 59.6337 17.0027 59.4863 17.0027C59.3303 17.0027 59.2047 16.9507 59.1093 16.8467C59.014 16.7427 58.9663 16.617 58.9663 16.4697V15.2347L59.2133 15.2087C59.2133 15.3994 59.1483 15.6074 59.0183 15.8327C58.8883 16.058 58.7107 16.2704 58.4853 16.4697C58.26 16.6604 57.9913 16.8207 57.6793 16.9507C57.376 17.072 57.0467 17.1327 56.6913 17.1327C56.102 17.1327 55.5733 16.981 55.1053 16.6777C54.6373 16.3657 54.2647 15.9454 53.9873 15.4167C53.7187 14.888 53.5843 14.2857 53.5843 13.6097C53.5843 12.925 53.7187 12.3227 53.9873 11.8027C54.2647 11.274 54.6373 10.8624 55.1053 10.5677C55.5733 10.2644 56.0933 10.1127 56.6653 10.1127C57.038 10.1127 57.3847 10.1734 57.7053 10.2947C58.026 10.416 58.3033 10.5807 58.5373 10.7887C58.78 10.9967 58.9663 11.2264 59.0963 11.4777C59.235 11.729 59.3043 11.9804 59.3043 12.2317L58.9663 12.1537V10.7367C58.9663 10.5894 59.014 10.468 59.1093 10.3727C59.2047 10.2687 59.3303 10.2167 59.4863 10.2167ZM56.8083 16.1707C57.2417 16.1707 57.623 16.058 57.9523 15.8327C58.2903 15.6074 58.5503 15.304 58.7323 14.9227C58.923 14.5327 59.0183 14.095 59.0183 13.6097C59.0183 13.133 58.923 12.704 58.7323 12.3227C58.5503 11.9327 58.2903 11.6294 57.9523 11.4127C57.623 11.1874 57.2417 11.0747 56.8083 11.0747C56.3837 11.0747 56.0023 11.183 55.6643 11.3997C55.335 11.6164 55.075 11.9154 54.8843 12.2967C54.6937 12.678 54.5983 13.1157 54.5983 13.6097C54.5983 14.095 54.6893 14.5327 54.8713 14.9227C55.062 15.304 55.322 15.6074 55.6513 15.8327C55.9893 16.058 56.375 16.1707 56.8083 16.1707ZM63.0777 16.4697C63.0777 16.617 63.0257 16.7427 62.9217 16.8467C62.8177 16.9507 62.692 17.0027 62.5447 17.0027C62.3973 17.0027 62.276 16.9507 62.1807 16.8467C62.0853 16.7427 62.0377 16.617 62.0377 16.4697V7.90268C62.0377 7.75535 62.0853 7.63402 62.1807 7.53868C62.2847 7.43469 62.4103 7.38269 62.5577 7.38269C62.7137 7.38269 62.8393 7.43469 62.9347 7.53868C63.03 7.63402 63.0777 7.75535 63.0777 7.90268V16.4697ZM65.3678 13.4797C65.2205 13.4797 65.0948 13.432 64.9908 13.3367C64.8955 13.2327 64.8478 13.1027 64.8478 12.9467C64.8478 12.7994 64.8955 12.678 64.9908 12.5827C65.0948 12.4874 65.2205 12.4397 65.3678 12.4397H67.9938C68.1411 12.4397 68.2625 12.4917 68.3578 12.5957C68.4618 12.6997 68.5138 12.8254 68.5138 12.9727C68.5138 13.12 68.4618 13.2414 68.3578 13.3367C68.2625 13.432 68.1411 13.4797 67.9938 13.4797H65.3678ZM74.2806 7.90268C75.0433 7.90268 75.6283 8.10202 76.0356 8.50068C76.4516 8.89069 76.6596 9.44535 76.6596 10.1647C76.6596 10.546 76.573 10.897 76.3996 11.2177C76.2263 11.5384 75.9706 11.794 75.6326 11.9847C75.3033 12.1754 74.896 12.2794 74.4106 12.2967L74.3846 11.9327C74.688 11.9327 75 11.976 75.3206 12.0627C75.6413 12.1494 75.936 12.288 76.2046 12.4787C76.482 12.6694 76.703 12.9207 76.8676 13.2327C77.041 13.5447 77.1276 13.9304 77.1276 14.3897C77.1276 14.8837 77.0453 15.2997 76.8806 15.6377C76.716 15.967 76.495 16.2357 76.2176 16.4437C75.949 16.643 75.6456 16.786 75.3076 16.8727C74.9783 16.9594 74.6446 17.0027 74.3066 17.0027H70.8876C70.7403 17.0027 70.6146 16.9507 70.5106 16.8467C70.4153 16.7427 70.3676 16.617 70.3676 16.4697V8.42269C70.3676 8.27535 70.4153 8.15402 70.5106 8.05869C70.6146 7.95469 70.7403 7.90268 70.8876 7.90268H74.2806ZM74.1246 8.92968H71.3296L71.4856 8.69568V11.9327L71.3426 11.7637H74.1506C74.532 11.7637 74.857 11.6424 75.1256 11.3997C75.403 11.1484 75.5416 10.78 75.5416 10.2947C75.5416 9.86135 75.416 9.52768 75.1646 9.29368C74.9133 9.05102 74.5666 8.92968 74.1246 8.92968ZM74.2286 12.8037H71.3946L71.4856 12.7127V16.1057L71.3816 15.9887H74.2676C74.779 15.9887 75.195 15.8587 75.5156 15.5987C75.845 15.3387 76.0096 14.9357 76.0096 14.3897C76.0096 13.965 75.923 13.64 75.7496 13.4147C75.5763 13.1807 75.351 13.0204 75.0736 12.9337C74.805 12.847 74.5233 12.8037 74.2286 12.8037ZM84.2168 10.2167C84.3641 10.2167 84.4855 10.2687 84.5808 10.3727C84.6848 10.468 84.7368 10.5894 84.7368 10.7367V16.4697C84.7368 16.617 84.6848 16.7427 84.5808 16.8467C84.4855 16.9507 84.3641 17.0027 84.2168 17.0027C84.0608 17.0027 83.9351 16.9507 83.8398 16.8467C83.7445 16.7427 83.6968 16.617 83.6968 16.4697V15.2347L83.9438 15.2087C83.9438 15.3994 83.8788 15.6074 83.7488 15.8327C83.6188 16.058 83.4411 16.2704 83.2158 16.4697C82.9905 16.6604 82.7218 16.8207 82.4098 16.9507C82.1065 17.072 81.7771 17.1327 81.4218 17.1327C80.8325 17.1327 80.3038 16.981 79.8358 16.6777C79.3678 16.3657 78.9951 15.9454 78.7178 15.4167C78.4491 14.888 78.3148 14.2857 78.3148 13.6097C78.3148 12.925 78.4491 12.3227 78.7178 11.8027C78.9951 11.274 79.3678 10.8624 79.8358 10.5677C80.3038 10.2644 80.8238 10.1127 81.3958 10.1127C81.7685 10.1127 82.1151 10.1734 82.4358 10.2947C82.7565 10.416 83.0338 10.5807 83.2678 10.7887C83.5105 10.9967 83.6968 11.2264 83.8268 11.4777C83.9655 11.729 84.0348 11.9804 84.0348 12.2317L83.6968 12.1537V10.7367C83.6968 10.5894 83.7445 10.468 83.8398 10.3727C83.9351 10.2687 84.0608 10.2167 84.2168 10.2167ZM81.5388 16.1707C81.9721 16.1707 82.3535 16.058 82.6828 15.8327C83.0208 15.6074 83.2808 15.304 83.4628 14.9227C83.6535 14.5327 83.7488 14.095 83.7488 13.6097C83.7488 13.133 83.6535 12.704 83.4628 12.3227C83.2808 11.9327 83.0208 11.6294 82.6828 11.4127C82.3535 11.1874 81.9721 11.0747 81.5388 11.0747C81.1141 11.0747 80.7328 11.183 80.3948 11.3997C80.0655 11.6164 79.8055 11.9154 79.6148 12.2967C79.4241 12.678 79.3288 13.1157 79.3288 13.6097C79.3288 14.095 79.4198 14.5327 79.6018 14.9227C79.7925 15.304 80.0525 15.6074 80.3818 15.8327C80.7198 16.058 81.1055 16.1707 81.5388 16.1707ZM86.2871 15.9367C86.2091 15.824 86.1745 15.707 86.1831 15.5857C86.1918 15.4557 86.2655 15.343 86.4041 15.2477C86.4908 15.187 86.5905 15.161 86.7031 15.1697C86.8245 15.1784 86.9328 15.2347 87.0281 15.3387C87.2708 15.6247 87.5481 15.8544 87.8601 16.0277C88.1721 16.1924 88.5535 16.2747 89.0041 16.2747C89.2121 16.266 89.4201 16.2314 89.6281 16.1707C89.8361 16.11 90.0095 16.006 90.1481 15.8587C90.2955 15.7027 90.3691 15.499 90.3691 15.2477C90.3691 15.005 90.2955 14.8144 90.1481 14.6757C90.0008 14.5284 89.8101 14.4114 89.5761 14.3247C89.3421 14.2294 89.0865 14.147 88.8091 14.0777C88.5231 13.9997 88.2415 13.913 87.9641 13.8177C87.6868 13.7137 87.4355 13.588 87.2101 13.4407C86.9935 13.2847 86.8158 13.094 86.6771 12.8687C86.5471 12.6347 86.4821 12.353 86.4821 12.0237C86.4821 11.6337 86.5861 11.2957 86.7941 11.0097C87.0108 10.7237 87.2968 10.5027 87.6521 10.3467C88.0161 10.1907 88.4105 10.1127 88.8351 10.1127C89.0778 10.1127 89.3291 10.143 89.5891 10.2037C89.8578 10.2557 90.1178 10.351 90.3691 10.4897C90.6205 10.6197 90.8415 10.8017 91.0321 11.0357C91.1101 11.1224 91.1535 11.2307 91.1621 11.3607C91.1708 11.4907 91.1145 11.6077 90.9931 11.7117C90.8978 11.781 90.7895 11.8114 90.6681 11.8027C90.5555 11.794 90.4601 11.7507 90.3821 11.6727C90.2001 11.456 89.9705 11.2914 89.6931 11.1787C89.4245 11.0574 89.1255 10.9967 88.7961 10.9967C88.5881 10.9967 88.3845 11.027 88.1851 11.0877C87.9858 11.1484 87.8168 11.2524 87.6781 11.3997C87.5481 11.5384 87.4831 11.7334 87.4831 11.9847C87.4918 12.2187 87.5698 12.4094 87.7171 12.5567C87.8645 12.704 88.0638 12.8254 88.3151 12.9207C88.5665 13.0074 88.8438 13.094 89.1471 13.1807C89.4245 13.25 89.6888 13.3324 89.9401 13.4277C90.2001 13.5144 90.4341 13.6314 90.6421 13.7787C90.8501 13.926 91.0148 14.1167 91.1361 14.3507C91.2575 14.576 91.3181 14.862 91.3181 15.2087C91.3181 15.6074 91.2055 15.954 90.9801 16.2487C90.7548 16.5347 90.4558 16.7557 90.0831 16.9117C89.7191 17.059 89.3248 17.1327 88.9001 17.1327C88.4235 17.1327 87.9511 17.0417 87.4831 16.8597C87.0238 16.6777 86.6251 16.37 86.2871 15.9367ZM95.9284 17.1327C95.235 17.1327 94.6284 16.9854 94.1084 16.6907C93.5884 16.396 93.181 15.993 92.8864 15.4817C92.6004 14.9617 92.4574 14.3637 92.4574 13.6877C92.4574 12.9337 92.6047 12.2924 92.8994 11.7637C93.2027 11.2264 93.5927 10.819 94.0694 10.5417C94.5547 10.2557 95.066 10.1127 95.6034 10.1127C96.002 10.1127 96.3877 10.1864 96.7604 10.3337C97.133 10.481 97.4624 10.6977 97.7484 10.9837C98.0344 11.261 98.264 11.599 98.4374 11.9977C98.6107 12.3877 98.7017 12.8254 98.7104 13.3107C98.7104 13.4494 98.6584 13.5664 98.5544 13.6617C98.4504 13.757 98.329 13.8047 98.1904 13.8047H93.0554L92.8214 12.9077H97.8264L97.6184 13.0897V12.8037C97.5837 12.4484 97.4624 12.145 97.2544 11.8937C97.055 11.6337 96.808 11.4344 96.5134 11.2957C96.2274 11.157 95.924 11.0877 95.6034 11.0877C95.3434 11.0877 95.0834 11.1354 94.8234 11.2307C94.572 11.3174 94.3424 11.4647 94.1344 11.6727C93.935 11.872 93.7704 12.132 93.6404 12.4527C93.519 12.7734 93.4584 13.159 93.4584 13.6097C93.4584 14.1124 93.558 14.5544 93.7574 14.9357C93.9654 15.317 94.2514 15.6204 94.6154 15.8457C94.9794 16.0624 95.404 16.1707 95.8894 16.1707C96.1927 16.1707 96.457 16.1317 96.6824 16.0537C96.9077 15.9757 97.1027 15.8804 97.2674 15.7677C97.432 15.6464 97.5707 15.525 97.6834 15.4037C97.796 15.3257 97.9044 15.2867 98.0084 15.2867C98.1384 15.2867 98.2424 15.33 98.3204 15.4167C98.407 15.5034 98.4504 15.6074 98.4504 15.7287C98.4504 15.876 98.381 16.006 98.2424 16.1187C97.9997 16.3874 97.6704 16.6257 97.2544 16.8337C96.8384 17.033 96.3964 17.1327 95.9284 17.1327ZM105.812 7.38269C105.959 7.38269 106.08 7.43469 106.176 7.53868C106.28 7.63402 106.332 7.75535 106.332 7.90268V16.4697C106.332 16.617 106.28 16.7427 106.176 16.8467C106.08 16.9507 105.959 17.0027 105.812 17.0027C105.656 17.0027 105.53 16.9507 105.435 16.8467C105.339 16.7427 105.292 16.617 105.292 16.4697V15.2347L105.539 15.1437C105.539 15.3517 105.474 15.5727 105.344 15.8067C105.214 16.032 105.036 16.2444 104.811 16.4437C104.585 16.643 104.317 16.8077 104.005 16.9377C103.701 17.0677 103.372 17.1327 103.017 17.1327C102.436 17.1327 101.907 16.981 101.431 16.6777C100.963 16.3744 100.59 15.9584 100.313 15.4297C100.044 14.901 99.9095 14.2987 99.9095 13.6227C99.9095 12.938 100.044 12.3314 100.313 11.8027C100.59 11.274 100.963 10.8624 101.431 10.5677C101.899 10.2644 102.419 10.1127 102.991 10.1127C103.355 10.1127 103.697 10.1734 104.018 10.2947C104.338 10.416 104.616 10.5807 104.85 10.7887C105.092 10.9967 105.283 11.2264 105.422 11.4777C105.56 11.729 105.63 11.9804 105.63 12.2317L105.292 12.1537V7.90268C105.292 7.75535 105.339 7.63402 105.435 7.53868C105.53 7.43469 105.656 7.38269 105.812 7.38269ZM103.134 16.1707C103.567 16.1707 103.948 16.0624 104.278 15.8457C104.616 15.6204 104.876 15.317 105.058 14.9357C105.248 14.5457 105.344 14.108 105.344 13.6227C105.344 13.1287 105.248 12.691 105.058 12.3097C104.876 11.9284 104.616 11.6294 104.278 11.4127C103.948 11.1874 103.567 11.0747 103.134 11.0747C102.709 11.0747 102.328 11.1874 101.99 11.4127C101.66 11.6294 101.4 11.9284 101.21 12.3097C101.019 12.691 100.924 13.1287 100.924 13.6227C100.924 14.0994 101.019 14.5327 101.21 14.9227C101.4 15.304 101.66 15.6074 101.99 15.8327C102.328 16.058 102.709 16.1707 103.134 16.1707ZM115.583 7.90268C116.06 7.90268 116.489 8.01968 116.87 8.25369C117.251 8.48769 117.55 8.80835 117.767 9.21569C117.992 9.62302 118.105 10.0867 118.105 10.6067C118.105 11.118 117.992 11.5817 117.767 11.9977C117.55 12.4137 117.251 12.743 116.87 12.9857C116.489 13.2284 116.06 13.3497 115.583 13.3497H112.944L113.035 13.1937V16.4697C113.035 16.617 112.987 16.7427 112.892 16.8467C112.797 16.9507 112.675 17.0027 112.528 17.0027C112.372 17.0027 112.246 16.9507 112.151 16.8467C112.064 16.7427 112.021 16.617 112.021 16.4697V8.42269C112.021 8.27535 112.069 8.15402 112.164 8.05869C112.268 7.95469 112.394 7.90268 112.541 7.90268H115.583ZM115.583 12.3487C115.869 12.3487 116.12 12.2707 116.337 12.1147C116.554 11.9587 116.727 11.7464 116.857 11.4777C116.987 11.209 117.052 10.9187 117.052 10.6067C117.052 10.2774 116.987 9.98702 116.857 9.73569C116.727 9.48435 116.554 9.28502 116.337 9.13769C116.12 8.98169 115.869 8.90369 115.583 8.90369H112.944L113.035 8.76069V12.4787L112.944 12.3487H115.583ZM122.601 17.1327C121.908 17.1327 121.301 16.9854 120.781 16.6907C120.261 16.396 119.854 15.993 119.559 15.4817C119.273 14.9617 119.13 14.3637 119.13 13.6877C119.13 12.9337 119.278 12.2924 119.572 11.7637C119.876 11.2264 120.266 10.819 120.742 10.5417C121.228 10.2557 121.739 10.1127 122.276 10.1127C122.675 10.1127 123.061 10.1864 123.433 10.3337C123.806 10.481 124.135 10.6977 124.421 10.9837C124.707 11.261 124.937 11.599 125.11 11.9977C125.284 12.3877 125.375 12.8254 125.383 13.3107C125.383 13.4494 125.331 13.5664 125.227 13.6617C125.123 13.757 125.002 13.8047 124.863 13.8047H119.728L119.494 12.9077H124.499L124.291 13.0897V12.8037C124.257 12.4484 124.135 12.145 123.927 11.8937C123.728 11.6337 123.481 11.4344 123.186 11.2957C122.9 11.157 122.597 11.0877 122.276 11.0877C122.016 11.0877 121.756 11.1354 121.496 11.2307C121.245 11.3174 121.015 11.4647 120.807 11.6727C120.608 11.872 120.443 12.132 120.313 12.4527C120.192 12.7734 120.131 13.159 120.131 13.6097C120.131 14.1124 120.231 14.5544 120.43 14.9357C120.638 15.317 120.924 15.6204 121.288 15.8457C121.652 16.0624 122.077 16.1707 122.562 16.1707C122.866 16.1707 123.13 16.1317 123.355 16.0537C123.581 15.9757 123.776 15.8804 123.94 15.7677C124.105 15.6464 124.244 15.525 124.356 15.4037C124.469 15.3257 124.577 15.2867 124.681 15.2867C124.811 15.2867 124.915 15.33 124.993 15.4167C125.08 15.5034 125.123 15.6074 125.123 15.7287C125.123 15.876 125.054 16.006 124.915 16.1187C124.673 16.3874 124.343 16.6257 123.927 16.8337C123.511 17.033 123.069 17.1327 122.601 17.1327ZM127.466 17.0027C127.319 17.0027 127.193 16.9507 127.089 16.8467C126.994 16.7427 126.946 16.617 126.946 16.4697V10.8017C126.946 10.6544 126.994 10.533 127.089 10.4377C127.193 10.3337 127.319 10.2817 127.466 10.2817C127.622 10.2817 127.748 10.3337 127.843 10.4377C127.939 10.533 127.986 10.6544 127.986 10.8017V12.5177L127.83 12.2447C127.882 11.976 127.973 11.716 128.103 11.4647C128.242 11.2047 128.415 10.975 128.623 10.7757C128.831 10.5677 129.07 10.4074 129.338 10.2947C129.607 10.1734 129.902 10.1127 130.222 10.1127C130.413 10.1127 130.586 10.1604 130.742 10.2557C130.907 10.3424 130.989 10.468 130.989 10.6327C130.989 10.8147 130.942 10.949 130.846 11.0357C130.751 11.1224 130.643 11.1657 130.521 11.1657C130.409 11.1657 130.3 11.144 130.196 11.1007C130.092 11.0487 129.962 11.0227 129.806 11.0227C129.59 11.0227 129.373 11.0834 129.156 11.2047C128.948 11.3174 128.753 11.482 128.571 11.6987C128.398 11.9154 128.255 12.1624 128.142 12.4397C128.038 12.7084 127.986 12.9987 127.986 13.3107V16.4697C127.986 16.617 127.934 16.7427 127.83 16.8467C127.735 16.9507 127.614 17.0027 127.466 17.0027ZM131.787 15.9367C131.709 15.824 131.674 15.707 131.683 15.5857C131.692 15.4557 131.765 15.343 131.904 15.2477C131.991 15.187 132.09 15.161 132.203 15.1697C132.324 15.1784 132.433 15.2347 132.528 15.3387C132.771 15.6247 133.048 15.8544 133.36 16.0277C133.672 16.1924 134.053 16.2747 134.504 16.2747C134.712 16.266 134.92 16.2314 135.128 16.1707C135.336 16.11 135.509 16.006 135.648 15.8587C135.795 15.7027 135.869 15.499 135.869 15.2477C135.869 15.005 135.795 14.8144 135.648 14.6757C135.501 14.5284 135.31 14.4114 135.076 14.3247C134.842 14.2294 134.586 14.147 134.309 14.0777C134.023 13.9997 133.741 13.913 133.464 13.8177C133.187 13.7137 132.935 13.588 132.71 13.4407C132.493 13.2847 132.316 13.094 132.177 12.8687C132.047 12.6347 131.982 12.353 131.982 12.0237C131.982 11.6337 132.086 11.2957 132.294 11.0097C132.511 10.7237 132.797 10.5027 133.152 10.3467C133.516 10.1907 133.91 10.1127 134.335 10.1127C134.578 10.1127 134.829 10.143 135.089 10.2037C135.358 10.2557 135.618 10.351 135.869 10.4897C136.12 10.6197 136.341 10.8017 136.532 11.0357C136.61 11.1224 136.653 11.2307 136.662 11.3607C136.671 11.4907 136.614 11.6077 136.493 11.7117C136.398 11.781 136.289 11.8114 136.168 11.8027C136.055 11.794 135.96 11.7507 135.882 11.6727C135.7 11.456 135.47 11.2914 135.193 11.1787C134.924 11.0574 134.625 10.9967 134.296 10.9967C134.088 10.9967 133.884 11.027 133.685 11.0877C133.486 11.1484 133.317 11.2524 133.178 11.3997C133.048 11.5384 132.983 11.7334 132.983 11.9847C132.992 12.2187 133.07 12.4094 133.217 12.5567C133.364 12.704 133.564 12.8254 133.815 12.9207C134.066 13.0074 134.344 13.094 134.647 13.1807C134.924 13.25 135.189 13.3324 135.44 13.4277C135.7 13.5144 135.934 13.6314 136.142 13.7787C136.35 13.926 136.515 14.1167 136.636 14.3507C136.757 14.576 136.818 14.862 136.818 15.2087C136.818 15.6074 136.705 15.954 136.48 16.2487C136.255 16.5347 135.956 16.7557 135.583 16.9117C135.219 17.059 134.825 17.1327 134.4 17.1327C133.923 17.1327 133.451 17.0417 132.983 16.8597C132.524 16.6777 132.125 16.37 131.787 15.9367ZM144.704 13.6227C144.704 14.2987 144.553 14.901 144.249 15.4297C143.955 15.9584 143.552 16.3744 143.04 16.6777C142.538 16.981 141.97 17.1327 141.337 17.1327C140.705 17.1327 140.133 16.981 139.621 16.6777C139.11 16.3744 138.703 15.9584 138.399 15.4297C138.105 14.901 137.957 14.2987 137.957 13.6227C137.957 12.9467 138.105 12.3444 138.399 11.8157C138.703 11.287 139.11 10.871 139.621 10.5677C140.133 10.2644 140.705 10.1127 141.337 10.1127C141.97 10.1127 142.538 10.2644 143.04 10.5677C143.552 10.871 143.955 11.287 144.249 11.8157C144.553 12.3444 144.704 12.9467 144.704 13.6227ZM143.664 13.6227C143.664 13.12 143.56 12.678 143.352 12.2967C143.153 11.9154 142.876 11.6164 142.52 11.3997C142.174 11.183 141.779 11.0747 141.337 11.0747C140.895 11.0747 140.497 11.183 140.141 11.3997C139.795 11.6164 139.517 11.9154 139.309 12.2967C139.101 12.678 138.997 13.12 138.997 13.6227C138.997 14.1167 139.101 14.5544 139.309 14.9357C139.517 15.317 139.795 15.6204 140.141 15.8457C140.497 16.0624 140.895 16.1707 141.337 16.1707C141.779 16.1707 142.174 16.0624 142.52 15.8457C142.876 15.6204 143.153 15.317 143.352 14.9357C143.56 14.5544 143.664 14.1167 143.664 13.6227ZM149.61 10.1127C150.199 10.1127 150.663 10.234 151.001 10.4767C151.339 10.7194 151.577 11.0444 151.716 11.4517C151.863 11.859 151.937 12.314 151.937 12.8167V16.4697C151.937 16.617 151.885 16.7427 151.781 16.8467C151.685 16.9507 151.564 17.0027 151.417 17.0027C151.269 17.0027 151.144 16.9507 151.04 16.8467C150.944 16.7427 150.897 16.617 150.897 16.4697V12.8427C150.897 12.5134 150.845 12.2187 150.741 11.9587C150.645 11.69 150.481 11.4777 150.247 11.3217C150.021 11.157 149.709 11.0747 149.311 11.0747C148.947 11.0747 148.613 11.157 148.31 11.3217C148.006 11.4777 147.764 11.69 147.582 11.9587C147.4 12.2187 147.309 12.5134 147.309 12.8427V16.4697C147.309 16.617 147.257 16.7427 147.153 16.8467C147.057 16.9507 146.936 17.0027 146.789 17.0027C146.641 17.0027 146.516 16.9507 146.412 16.8467C146.316 16.7427 146.269 16.617 146.269 16.4697V10.8017C146.269 10.6544 146.316 10.533 146.412 10.4377C146.516 10.3337 146.641 10.2817 146.789 10.2817C146.945 10.2817 147.07 10.3337 147.166 10.4377C147.261 10.533 147.309 10.6544 147.309 10.8017V11.7247L147.049 12.0107C147.092 11.7854 147.192 11.56 147.348 11.3347C147.504 11.1007 147.699 10.8927 147.933 10.7107C148.167 10.5287 148.427 10.3857 148.713 10.2817C148.999 10.169 149.298 10.1127 149.61 10.1127ZM159.398 10.2167C159.546 10.2167 159.667 10.2687 159.762 10.3727C159.866 10.468 159.918 10.5894 159.918 10.7367V16.4697C159.918 16.617 159.866 16.7427 159.762 16.8467C159.667 16.9507 159.546 17.0027 159.398 17.0027C159.242 17.0027 159.117 16.9507 159.021 16.8467C158.926 16.7427 158.878 16.617 158.878 16.4697V15.2347L159.125 15.2087C159.125 15.3994 159.06 15.6074 158.93 15.8327C158.8 16.058 158.623 16.2704 158.397 16.4697C158.172 16.6604 157.903 16.8207 157.591 16.9507C157.288 17.072 156.959 17.1327 156.603 17.1327C156.014 17.1327 155.485 16.981 155.017 16.6777C154.549 16.3657 154.177 15.9454 153.899 15.4167C153.631 14.888 153.496 14.2857 153.496 13.6097C153.496 12.925 153.631 12.3227 153.899 11.8027C154.177 11.274 154.549 10.8624 155.017 10.5677C155.485 10.2644 156.005 10.1127 156.577 10.1127C156.95 10.1127 157.297 10.1734 157.617 10.2947C157.938 10.416 158.215 10.5807 158.449 10.7887C158.692 10.9967 158.878 11.2264 159.008 11.4777C159.147 11.729 159.216 11.9804 159.216 12.2317L158.878 12.1537V10.7367C158.878 10.5894 158.926 10.468 159.021 10.3727C159.117 10.2687 159.242 10.2167 159.398 10.2167ZM156.72 16.1707C157.154 16.1707 157.535 16.058 157.864 15.8327C158.202 15.6074 158.462 15.304 158.644 14.9227C158.835 14.5327 158.93 14.095 158.93 13.6097C158.93 13.133 158.835 12.704 158.644 12.3227C158.462 11.9327 158.202 11.6294 157.864 11.4127C157.535 11.1874 157.154 11.0747 156.72 11.0747C156.296 11.0747 155.914 11.183 155.576 11.3997C155.247 11.6164 154.987 11.9154 154.796 12.2967C154.606 12.678 154.51 13.1157 154.51 13.6097C154.51 14.095 154.601 14.5327 154.783 14.9227C154.974 15.304 155.234 15.6074 155.563 15.8327C155.901 16.058 156.287 16.1707 156.72 16.1707ZM162.99 16.4697C162.99 16.617 162.938 16.7427 162.834 16.8467C162.73 16.9507 162.604 17.0027 162.457 17.0027C162.309 17.0027 162.188 16.9507 162.093 16.8467C161.997 16.7427 161.95 16.617 161.95 16.4697V7.90268C161.95 7.75535 161.997 7.63402 162.093 7.53868C162.197 7.43469 162.322 7.38269 162.47 7.38269C162.626 7.38269 162.751 7.43469 162.847 7.53868C162.942 7.63402 162.99 7.75535 162.99 7.90268V16.4697ZM166.008 16.4697C166.008 16.617 165.956 16.7427 165.852 16.8467C165.757 16.9507 165.635 17.0027 165.488 17.0027C165.332 17.0027 165.206 16.9507 165.111 16.8467C165.016 16.7427 164.968 16.617 164.968 16.4697V10.6977C164.968 10.5504 165.016 10.429 165.111 10.3337C165.215 10.2297 165.341 10.1777 165.488 10.1777C165.635 10.1777 165.757 10.2297 165.852 10.3337C165.956 10.429 166.008 10.5504 166.008 10.6977V16.4697ZM165.488 9.30669C165.271 9.30669 165.111 9.26335 165.007 9.17668C164.903 9.09002 164.851 8.95569 164.851 8.77369V8.59169C164.851 8.40969 164.907 8.27535 165.02 8.18869C165.133 8.10202 165.293 8.05869 165.501 8.05869C165.709 8.05869 165.865 8.10202 165.969 8.18869C166.073 8.27535 166.125 8.40969 166.125 8.59169V8.77369C166.125 8.95569 166.069 9.09002 165.956 9.17668C165.852 9.26335 165.696 9.30669 165.488 9.30669ZM172.14 16.0407C172.279 16.0407 172.396 16.0884 172.491 16.1837C172.586 16.2704 172.634 16.383 172.634 16.5217C172.634 16.6517 172.586 16.7644 172.491 16.8597C172.396 16.955 172.279 17.0027 172.14 17.0027H167.928C167.772 17.0027 167.651 16.9464 167.564 16.8337C167.477 16.721 167.434 16.617 167.434 16.5217C167.443 16.435 167.456 16.3614 167.473 16.3007C167.49 16.24 167.529 16.1707 167.59 16.0927L171.308 11.0617L171.321 11.2047H168.175C168.036 11.2047 167.919 11.157 167.824 11.0617C167.729 10.9664 167.681 10.8494 167.681 10.7107C167.681 10.5807 167.729 10.4724 167.824 10.3857C167.919 10.2904 168.036 10.2427 168.175 10.2427H172.166C172.305 10.2427 172.417 10.2947 172.504 10.3987C172.599 10.494 172.647 10.6154 172.647 10.7627C172.638 10.8234 172.625 10.884 172.608 10.9447C172.591 10.9967 172.556 11.0617 172.504 11.1397L168.825 16.1057L168.734 16.0407H172.14ZM177.115 17.1327C176.422 17.1327 175.815 16.9854 175.295 16.6907C174.775 16.396 174.368 15.993 174.073 15.4817C173.787 14.9617 173.644 14.3637 173.644 13.6877C173.644 12.9337 173.791 12.2924 174.086 11.7637C174.389 11.2264 174.779 10.819 175.256 10.5417C175.741 10.2557 176.253 10.1127 176.79 10.1127C177.189 10.1127 177.574 10.1864 177.947 10.3337C178.32 10.481 178.649 10.6977 178.935 10.9837C179.221 11.261 179.451 11.599 179.624 11.9977C179.797 12.3877 179.888 12.8254 179.897 13.3107C179.897 13.4494 179.845 13.5664 179.741 13.6617C179.637 13.757 179.516 13.8047 179.377 13.8047H174.242L174.008 12.9077H179.013L178.805 13.0897V12.8037C178.77 12.4484 178.649 12.145 178.441 11.8937C178.242 11.6337 177.995 11.4344 177.7 11.2957C177.414 11.157 177.111 11.0877 176.79 11.0877C176.53 11.0877 176.27 11.1354 176.01 11.2307C175.759 11.3174 175.529 11.4647 175.321 11.6727C175.122 11.872 174.957 12.132 174.827 12.4527C174.706 12.7734 174.645 13.159 174.645 13.6097C174.645 14.1124 174.745 14.5544 174.944 14.9357C175.152 15.317 175.438 15.6204 175.802 15.8457C176.166 16.0624 176.591 16.1707 177.076 16.1707C177.379 16.1707 177.644 16.1317 177.869 16.0537C178.094 15.9757 178.289 15.8804 178.454 15.7677C178.619 15.6464 178.757 15.525 178.87 15.4037C178.983 15.3257 179.091 15.2867 179.195 15.2867C179.325 15.2867 179.429 15.33 179.507 15.4167C179.594 15.5034 179.637 15.6074 179.637 15.7287C179.637 15.876 179.568 16.006 179.429 16.1187C179.186 16.3874 178.857 16.6257 178.441 16.8337C178.025 17.033 177.583 17.1327 177.115 17.1327ZM186.998 7.38269C187.145 7.38269 187.267 7.43469 187.362 7.53868C187.466 7.63402 187.518 7.75535 187.518 7.90268V16.4697C187.518 16.617 187.466 16.7427 187.362 16.8467C187.267 16.9507 187.145 17.0027 186.998 17.0027C186.842 17.0027 186.716 16.9507 186.621 16.8467C186.526 16.7427 186.478 16.617 186.478 16.4697V15.2347L186.725 15.1437C186.725 15.3517 186.66 15.5727 186.53 15.8067C186.4 16.032 186.222 16.2444 185.997 16.4437C185.772 16.643 185.503 16.8077 185.191 16.9377C184.888 17.0677 184.558 17.1327 184.203 17.1327C183.622 17.1327 183.094 16.981 182.617 16.6777C182.149 16.3744 181.776 15.9584 181.499 15.4297C181.23 14.901 181.096 14.2987 181.096 13.6227C181.096 12.938 181.23 12.3314 181.499 11.8027C181.776 11.274 182.149 10.8624 182.617 10.5677C183.085 10.2644 183.605 10.1127 184.177 10.1127C184.541 10.1127 184.883 10.1734 185.204 10.2947C185.525 10.416 185.802 10.5807 186.036 10.7887C186.279 10.9967 186.469 11.2264 186.608 11.4777C186.747 11.729 186.816 11.9804 186.816 12.2317L186.478 12.1537V7.90268C186.478 7.75535 186.526 7.63402 186.621 7.53868C186.716 7.43469 186.842 7.38269 186.998 7.38269ZM184.32 16.1707C184.753 16.1707 185.135 16.0624 185.464 15.8457C185.802 15.6204 186.062 15.317 186.244 14.9357C186.435 14.5457 186.53 14.108 186.53 13.6227C186.53 13.1287 186.435 12.691 186.244 12.3097C186.062 11.9284 185.802 11.6294 185.464 11.4127C185.135 11.1874 184.753 11.0747 184.32 11.0747C183.895 11.0747 183.514 11.1874 183.176 11.4127C182.847 11.6294 182.587 11.9284 182.396 12.3097C182.205 12.691 182.11 13.1287 182.11 13.6227C182.11 14.0994 182.205 14.5327 182.396 14.9227C182.587 15.304 182.847 15.6074 183.176 15.8327C183.514 16.058 183.895 16.1707 184.32 16.1707ZM196.028 17.0027C195.872 17.0027 195.742 16.9507 195.638 16.8467C195.534 16.7427 195.482 16.617 195.482 16.4697V8.43569H196.587V16.4697C196.587 16.617 196.535 16.7427 196.431 16.8467C196.327 16.9507 196.193 17.0027 196.028 17.0027ZM193.012 8.89069C192.865 8.89069 192.739 8.84735 192.635 8.76069C192.54 8.66535 192.492 8.54402 192.492 8.39668C192.492 8.24935 192.54 8.13235 192.635 8.04569C192.739 7.95035 192.865 7.90268 193.012 7.90268H199.057C199.205 7.90268 199.33 7.95035 199.434 8.04569C199.538 8.13235 199.59 8.24935 199.59 8.39668C199.59 8.55268 199.538 8.67402 199.434 8.76069C199.33 8.84735 199.205 8.89069 199.057 8.89069H193.012ZM202.518 17.1327C201.825 17.1327 201.218 16.9854 200.698 16.6907C200.178 16.396 199.771 15.993 199.476 15.4817C199.19 14.9617 199.047 14.3637 199.047 13.6877C199.047 12.9337 199.195 12.2924 199.489 11.7637C199.793 11.2264 200.183 10.819 200.659 10.5417C201.145 10.2557 201.656 10.1127 202.193 10.1127C202.592 10.1127 202.978 10.1864 203.35 10.3337C203.723 10.481 204.052 10.6977 204.338 10.9837C204.624 11.261 204.854 11.599 205.027 11.9977C205.201 12.3877 205.292 12.8254 205.3 13.3107C205.3 13.4494 205.248 13.5664 205.144 13.6617C205.04 13.757 204.919 13.8047 204.78 13.8047H199.645L199.411 12.9077H204.416L204.208 13.0897V12.8037C204.174 12.4484 204.052 12.145 203.844 11.8937C203.645 11.6337 203.398 11.4344 203.103 11.2957C202.817 11.157 202.514 11.0877 202.193 11.0877C201.933 11.0877 201.673 11.1354 201.413 11.2307C201.162 11.3174 200.932 11.4647 200.724 11.6727C200.525 11.872 200.36 12.132 200.23 12.4527C200.109 12.7734 200.048 13.159 200.048 13.6097C200.048 14.1124 200.148 14.5544 200.347 14.9357C200.555 15.317 200.841 15.6204 201.205 15.8457C201.569 16.0624 201.994 16.1707 202.479 16.1707C202.783 16.1707 203.047 16.1317 203.272 16.0537C203.498 15.9757 203.693 15.8804 203.857 15.7677C204.022 15.6464 204.161 15.525 204.273 15.4037C204.386 15.3257 204.494 15.2867 204.598 15.2867C204.728 15.2867 204.832 15.33 204.91 15.4167C204.997 15.5034 205.04 15.6074 205.04 15.7287C205.04 15.876 204.971 16.006 204.832 16.1187C204.59 16.3874 204.26 16.6257 203.844 16.8337C203.428 17.033 202.986 17.1327 202.518 17.1327ZM212.452 10.2167C212.599 10.2167 212.721 10.2687 212.816 10.3727C212.92 10.468 212.972 10.5894 212.972 10.7367V16.4697C212.972 16.617 212.92 16.7427 212.816 16.8467C212.721 16.9507 212.599 17.0027 212.452 17.0027C212.296 17.0027 212.17 16.9507 212.075 16.8467C211.98 16.7427 211.932 16.617 211.932 16.4697V15.2347L212.179 15.2087C212.179 15.3994 212.114 15.6074 211.984 15.8327C211.854 16.058 211.676 16.2704 211.451 16.4697C211.226 16.6604 210.957 16.8207 210.645 16.9507C210.342 17.072 210.012 17.1327 209.657 17.1327C209.068 17.1327 208.539 16.981 208.071 16.6777C207.603 16.3657 207.23 15.9454 206.953 15.4167C206.684 14.888 206.55 14.2857 206.55 13.6097C206.55 12.925 206.684 12.3227 206.953 11.8027C207.23 11.274 207.603 10.8624 208.071 10.5677C208.539 10.2644 209.059 10.1127 209.631 10.1127C210.004 10.1127 210.35 10.1734 210.671 10.2947C210.992 10.416 211.269 10.5807 211.503 10.7887C211.746 10.9967 211.932 11.2264 212.062 11.4777C212.201 11.729 212.27 11.9804 212.27 12.2317L211.932 12.1537V10.7367C211.932 10.5894 211.98 10.468 212.075 10.3727C212.17 10.2687 212.296 10.2167 212.452 10.2167ZM209.774 16.1707C210.207 16.1707 210.589 16.058 210.918 15.8327C211.256 15.6074 211.516 15.304 211.698 14.9227C211.889 14.5327 211.984 14.095 211.984 13.6097C211.984 13.133 211.889 12.704 211.698 12.3227C211.516 11.9327 211.256 11.6294 210.918 11.4127C210.589 11.1874 210.207 11.0747 209.774 11.0747C209.349 11.0747 208.968 11.183 208.63 11.3997C208.301 11.6164 208.041 11.9154 207.85 12.2967C207.659 12.678 207.564 13.1157 207.564 13.6097C207.564 14.095 207.655 14.5327 207.837 14.9227C208.028 15.304 208.288 15.6074 208.617 15.8327C208.955 16.058 209.341 16.1707 209.774 16.1707ZM217.89 10.1127C218.332 10.1127 218.73 10.1604 219.086 10.2557C219.441 10.351 219.723 10.481 219.931 10.6457C220.139 10.8104 220.243 10.9967 220.243 11.2047C220.243 11.3174 220.204 11.4257 220.126 11.5297C220.048 11.6337 219.944 11.6857 219.814 11.6857C219.692 11.6857 219.593 11.664 219.515 11.6207C219.445 11.5774 219.376 11.521 219.307 11.4517C219.246 11.3824 219.159 11.3217 219.047 11.2697C218.943 11.209 218.791 11.1614 218.592 11.1267C218.392 11.092 218.193 11.0747 217.994 11.0747C217.517 11.0747 217.097 11.1874 216.733 11.4127C216.377 11.638 216.096 11.9414 215.888 12.3227C215.68 12.704 215.576 13.1374 215.576 13.6227C215.576 14.108 215.675 14.5414 215.875 14.9227C216.074 15.304 216.351 15.6074 216.707 15.8327C217.062 16.058 217.474 16.1707 217.942 16.1707C218.245 16.1707 218.488 16.1447 218.67 16.0927C218.852 16.0407 219.003 15.98 219.125 15.9107C219.281 15.824 219.398 15.7374 219.476 15.6507C219.562 15.564 219.675 15.5207 219.814 15.5207C219.961 15.5207 220.074 15.5684 220.152 15.6637C220.238 15.759 220.282 15.876 220.282 16.0147C220.282 16.1707 220.173 16.3354 219.957 16.5087C219.74 16.682 219.445 16.8294 219.073 16.9507C218.709 17.072 218.293 17.1327 217.825 17.1327C217.166 17.1327 216.59 16.981 216.096 16.6777C215.602 16.3657 215.216 15.9454 214.939 15.4167C214.67 14.8794 214.536 14.2814 214.536 13.6227C214.536 12.964 214.674 12.3704 214.952 11.8417C215.238 11.313 215.632 10.8927 216.135 10.5807C216.637 10.2687 217.222 10.1127 217.89 10.1127ZM224.891 10.1777C225.463 10.1777 225.913 10.3034 226.243 10.5547C226.581 10.7974 226.819 11.1267 226.958 11.5427C227.105 11.95 227.179 12.405 227.179 12.9077V16.4697C227.179 16.617 227.127 16.7427 227.023 16.8467C226.927 16.9507 226.806 17.0027 226.659 17.0027C226.511 17.0027 226.386 16.9507 226.282 16.8467C226.186 16.7427 226.139 16.617 226.139 16.4697V12.9077C226.139 12.5784 226.091 12.2837 225.996 12.0237C225.9 11.755 225.74 11.5427 225.515 11.3867C225.298 11.222 224.999 11.1397 224.618 11.1397C224.262 11.1397 223.937 11.222 223.643 11.3867C223.348 11.5427 223.114 11.755 222.941 12.0237C222.767 12.2837 222.681 12.5784 222.681 12.9077V16.4697C222.681 16.617 222.629 16.7427 222.525 16.8467C222.429 16.9507 222.308 17.0027 222.161 17.0027C222.013 17.0027 221.888 16.9507 221.784 16.8467C221.688 16.7427 221.641 16.617 221.641 16.4697V7.90268C221.641 7.75535 221.688 7.63402 221.784 7.53868C221.888 7.43469 222.013 7.38269 222.161 7.38269C222.317 7.38269 222.442 7.43469 222.538 7.53868C222.633 7.63402 222.681 7.75535 222.681 7.90268V11.7897L222.421 12.0757C222.464 11.8504 222.559 11.625 222.707 11.3997C222.854 11.1657 223.04 10.9577 223.266 10.7757C223.491 10.5937 223.742 10.4507 224.02 10.3467C224.297 10.234 224.587 10.1777 224.891 10.1777ZM230.107 16.4697C230.107 16.617 230.055 16.7427 229.951 16.8467C229.855 16.9507 229.734 17.0027 229.587 17.0027C229.431 17.0027 229.305 16.9507 229.21 16.8467C229.114 16.7427 229.067 16.617 229.067 16.4697V10.6977C229.067 10.5504 229.114 10.429 229.21 10.3337C229.314 10.2297 229.439 10.1777 229.587 10.1777C229.734 10.1777 229.855 10.2297 229.951 10.3337C230.055 10.429 230.107 10.5504 230.107 10.6977V16.4697ZM229.587 9.30669C229.37 9.30669 229.21 9.26335 229.106 9.17668C229.002 9.09002 228.95 8.95569 228.95 8.77369V8.59169C228.95 8.40969 229.006 8.27535 229.119 8.18869C229.231 8.10202 229.392 8.05869 229.6 8.05869C229.808 8.05869 229.964 8.10202 230.068 8.18869C230.172 8.27535 230.224 8.40969 230.224 8.59169V8.77369C230.224 8.95569 230.167 9.09002 230.055 9.17668C229.951 9.26335 229.795 9.30669 229.587 9.30669ZM235.316 10.1127C235.905 10.1127 236.369 10.234 236.707 10.4767C237.045 10.7194 237.283 11.0444 237.422 11.4517C237.569 11.859 237.643 12.314 237.643 12.8167V16.4697C237.643 16.617 237.591 16.7427 237.487 16.8467C237.391 16.9507 237.27 17.0027 237.123 17.0027C236.975 17.0027 236.85 16.9507 236.746 16.8467C236.65 16.7427 236.603 16.617 236.603 16.4697V12.8427C236.603 12.5134 236.551 12.2187 236.447 11.9587C236.351 11.69 236.187 11.4777 235.953 11.3217C235.727 11.157 235.415 11.0747 235.017 11.0747C234.653 11.0747 234.319 11.157 234.016 11.3217C233.712 11.4777 233.47 11.69 233.288 11.9587C233.106 12.2187 233.015 12.5134 233.015 12.8427V16.4697C233.015 16.617 232.963 16.7427 232.859 16.8467C232.763 16.9507 232.642 17.0027 232.495 17.0027C232.347 17.0027 232.222 16.9507 232.118 16.8467C232.022 16.7427 231.975 16.617 231.975 16.4697V10.8017C231.975 10.6544 232.022 10.533 232.118 10.4377C232.222 10.3337 232.347 10.2817 232.495 10.2817C232.651 10.2817 232.776 10.3337 232.872 10.4377C232.967 10.533 233.015 10.6544 233.015 10.8017V11.7247L232.755 12.0107C232.798 11.7854 232.898 11.56 233.054 11.3347C233.21 11.1007 233.405 10.8927 233.639 10.7107C233.873 10.5287 234.133 10.3857 234.419 10.2817C234.705 10.169 235.004 10.1127 235.316 10.1127ZM242.387 10.1127C242.76 10.1127 243.107 10.1777 243.427 10.3077C243.748 10.429 244.025 10.5894 244.259 10.7887C244.502 10.988 244.688 11.196 244.818 11.4127C244.957 11.6294 245.026 11.833 245.026 12.0237L244.779 11.8677V10.7367C244.779 10.5894 244.827 10.468 244.922 10.3727C245.018 10.2687 245.143 10.2167 245.299 10.2167C245.447 10.2167 245.568 10.2687 245.663 10.3727C245.767 10.468 245.819 10.5894 245.819 10.7367V16.4307C245.819 17.1414 245.668 17.7307 245.364 18.1987C245.07 18.6667 244.671 19.0177 244.168 19.2517C243.666 19.4857 243.102 19.6027 242.478 19.6027C242.218 19.6027 241.932 19.568 241.62 19.4987C241.308 19.4294 241.031 19.3427 240.788 19.2387C240.546 19.1434 240.39 19.0437 240.32 18.9397C240.19 18.853 240.108 18.7534 240.073 18.6407C240.047 18.5367 240.069 18.437 240.138 18.3417C240.216 18.2204 240.316 18.1597 240.437 18.1597C240.567 18.1597 240.728 18.1987 240.918 18.2767C240.996 18.3027 241.118 18.346 241.282 18.4067C241.456 18.4674 241.646 18.5194 241.854 18.5627C242.071 18.6147 242.283 18.6407 242.491 18.6407C243.228 18.6407 243.791 18.4457 244.181 18.0557C244.58 17.6744 244.779 17.1674 244.779 16.5347V15.3257L244.922 15.3907C244.87 15.6334 244.762 15.8587 244.597 16.0667C244.441 16.2747 244.246 16.461 244.012 16.6257C243.787 16.7817 243.536 16.9074 243.258 17.0027C242.981 17.0894 242.699 17.1327 242.413 17.1327C241.807 17.1327 241.261 16.981 240.775 16.6777C240.29 16.3744 239.904 15.9584 239.618 15.4297C239.341 14.901 239.202 14.2987 239.202 13.6227C239.202 12.938 239.341 12.3314 239.618 11.8027C239.904 11.274 240.286 10.8624 240.762 10.5677C241.248 10.2644 241.789 10.1127 242.387 10.1127ZM242.517 11.0747C242.075 11.0747 241.677 11.1874 241.321 11.4127C240.975 11.6294 240.702 11.9284 240.502 12.3097C240.312 12.691 240.216 13.1287 240.216 13.6227C240.216 14.0994 240.312 14.5327 240.502 14.9227C240.702 15.304 240.975 15.6074 241.321 15.8327C241.677 16.058 242.075 16.1707 242.517 16.1707C242.968 16.1707 243.367 16.0624 243.713 15.8457C244.06 15.6204 244.333 15.317 244.532 14.9357C244.732 14.5544 244.831 14.1167 244.831 13.6227C244.831 13.12 244.732 12.678 244.532 12.2967C244.333 11.9154 244.06 11.6164 243.713 11.3997C243.367 11.183 242.968 11.0747 242.517 11.0747Z" fill="#17171A"/>
</svg>
