<svg width="276" height="276" viewBox="0 0 276 276" fill="none" xmlns="http://www.w3.org/2000/svg">
<g opacity="0.2" filter="url(#filter0_f_99_1575)">
<circle cx="138" cy="138" r="66" fill="#F97356"/>
</g>
<g filter="url(#filter1_b_99_1575)">
<rect width="130" height="130" rx="65" transform="matrix(2.18557e-08 1 1 -2.18557e-08 73 74)" fill="white" fill-opacity="0.8"/>
<path d="M106.136 164.216C106.264 164.216 106.397 164.248 106.536 164.312C106.674 164.376 106.781 164.467 106.856 164.584L110.92 170.776L110.232 170.744L114.376 164.584C114.546 164.339 114.765 164.216 115.032 164.216C115.245 164.216 115.432 164.296 115.592 164.456C115.762 164.606 115.848 164.798 115.848 165.032V174.616C115.848 174.851 115.773 175.048 115.624 175.208C115.474 175.358 115.277 175.432 115.032 175.432C114.776 175.432 114.568 175.358 114.408 175.208C114.258 175.048 114.184 174.851 114.184 174.616V166.504L114.696 166.616L111.176 171.976C111.101 172.072 111.005 172.158 110.888 172.232C110.77 172.296 110.648 172.323 110.52 172.312C110.402 172.323 110.28 172.296 110.152 172.232C110.034 172.158 109.938 172.072 109.864 171.976L106.472 166.696L106.856 166.056V174.616C106.856 174.851 106.781 175.048 106.632 175.208C106.493 175.358 106.306 175.432 106.072 175.432C105.848 175.432 105.661 175.358 105.512 175.208C105.373 175.048 105.304 174.851 105.304 174.616V165.032C105.304 164.808 105.384 164.616 105.544 164.456C105.714 164.296 105.912 164.216 106.136 164.216ZM126.348 171.224C126.348 172.078 126.161 172.835 125.788 173.496C125.415 174.147 124.908 174.659 124.268 175.032C123.628 175.406 122.908 175.592 122.108 175.592C121.308 175.592 120.588 175.406 119.948 175.032C119.308 174.659 118.796 174.147 118.412 173.496C118.039 172.835 117.852 172.078 117.852 171.224C117.852 170.36 118.039 169.603 118.412 168.952C118.796 168.291 119.308 167.774 119.948 167.4C120.588 167.016 121.308 166.824 122.108 166.824C122.908 166.824 123.628 167.016 124.268 167.4C124.908 167.774 125.415 168.291 125.788 168.952C126.161 169.603 126.348 170.36 126.348 171.224ZM124.748 171.224C124.748 170.638 124.631 170.131 124.396 169.704C124.161 169.267 123.841 168.926 123.436 168.68C123.041 168.424 122.599 168.296 122.108 168.296C121.617 168.296 121.169 168.424 120.764 168.68C120.359 168.926 120.039 169.267 119.804 169.704C119.569 170.131 119.452 170.638 119.452 171.224C119.452 171.79 119.569 172.291 119.804 172.728C120.039 173.166 120.359 173.507 120.764 173.752C121.169 173.998 121.617 174.12 122.108 174.12C122.599 174.12 123.041 173.998 123.436 173.752C123.841 173.507 124.161 173.166 124.396 172.728C124.631 172.291 124.748 171.79 124.748 171.224ZM128.047 167.112H131.807C132.02 167.112 132.196 167.187 132.335 167.336C132.484 167.475 132.559 167.651 132.559 167.864C132.559 168.067 132.484 168.238 132.335 168.376C132.196 168.515 132.02 168.584 131.807 168.584H128.047C127.834 168.584 127.652 168.515 127.503 168.376C127.364 168.227 127.295 168.051 127.295 167.848C127.295 167.635 127.364 167.459 127.503 167.32C127.652 167.182 127.834 167.112 128.047 167.112ZM129.727 165.032C129.962 165.032 130.154 165.112 130.303 165.272C130.452 165.422 130.527 165.614 130.527 165.848V173.272C130.527 173.464 130.559 173.619 130.623 173.736C130.687 173.854 130.772 173.934 130.879 173.976C130.996 174.019 131.114 174.04 131.231 174.04C131.348 174.04 131.45 174.019 131.535 173.976C131.631 173.934 131.743 173.912 131.871 173.912C131.999 173.912 132.116 173.971 132.223 174.088C132.33 174.206 132.383 174.366 132.383 174.568C132.383 174.824 132.244 175.032 131.967 175.192C131.69 175.352 131.391 175.432 131.071 175.432C130.89 175.432 130.676 175.416 130.431 175.384C130.186 175.352 129.946 175.272 129.711 175.144C129.487 175.016 129.3 174.814 129.151 174.536C129.002 174.248 128.927 173.848 128.927 173.336V165.848C128.927 165.614 129.002 165.422 129.151 165.272C129.311 165.112 129.503 165.032 129.727 165.032ZM135.835 174.616C135.835 174.851 135.76 175.048 135.611 175.208C135.462 175.358 135.27 175.432 135.035 175.432C134.811 175.432 134.619 175.358 134.459 175.208C134.31 175.048 134.235 174.851 134.235 174.616V167.768C134.235 167.534 134.31 167.342 134.459 167.192C134.619 167.032 134.811 166.952 135.035 166.952C135.27 166.952 135.462 167.032 135.611 167.192C135.76 167.342 135.835 167.534 135.835 167.768V174.616ZM135.019 165.896C134.71 165.896 134.486 165.843 134.347 165.736C134.208 165.619 134.139 165.427 134.139 165.16V164.904C134.139 164.638 134.214 164.451 134.363 164.344C134.512 164.238 134.736 164.184 135.035 164.184C135.355 164.184 135.584 164.243 135.723 164.36C135.862 164.467 135.931 164.648 135.931 164.904V165.16C135.931 165.438 135.856 165.63 135.707 165.736C135.568 165.843 135.339 165.896 135.019 165.896ZM138.179 166.936C138.339 166.936 138.489 166.979 138.627 167.064C138.777 167.15 138.883 167.278 138.947 167.448L141.459 173.256L141.155 173.4L143.699 167.464C143.849 167.112 144.089 166.942 144.419 166.952C144.633 166.952 144.809 167.022 144.947 167.16C145.097 167.288 145.171 167.459 145.171 167.672C145.171 167.736 145.161 167.806 145.139 167.88C145.118 167.944 145.091 168.008 145.059 168.072L142.019 174.92C141.881 175.24 141.651 175.411 141.331 175.432C141.171 175.454 141.011 175.422 140.851 175.336C140.702 175.24 140.585 175.102 140.499 174.92L137.475 168.072C137.454 168.03 137.433 167.976 137.411 167.912C137.39 167.838 137.379 167.752 137.379 167.656C137.379 167.496 137.449 167.336 137.587 167.176C137.737 167.016 137.934 166.936 138.179 166.936ZM153.664 166.888C153.899 166.888 154.091 166.968 154.24 167.128C154.39 167.278 154.464 167.47 154.464 167.704V174.616C154.464 174.851 154.39 175.048 154.24 175.208C154.091 175.358 153.899 175.432 153.664 175.432C153.44 175.432 153.248 175.358 153.088 175.208C152.939 175.048 152.864 174.851 152.864 174.616V173.464L153.2 173.512C153.2 173.704 153.12 173.918 152.96 174.152C152.811 174.387 152.603 174.616 152.336 174.84C152.07 175.054 151.755 175.235 151.392 175.384C151.03 175.523 150.64 175.592 150.224 175.592C149.488 175.592 148.827 175.406 148.24 175.032C147.654 174.648 147.19 174.126 146.848 173.464C146.507 172.803 146.336 172.051 146.336 171.208C146.336 170.344 146.507 169.587 146.848 168.936C147.19 168.275 147.648 167.758 148.224 167.384C148.811 167.011 149.462 166.824 150.176 166.824C150.635 166.824 151.056 166.899 151.44 167.048C151.835 167.198 152.176 167.39 152.464 167.624C152.752 167.859 152.971 168.11 153.12 168.376C153.28 168.632 153.36 168.878 153.36 169.112L152.864 169.16V167.704C152.864 167.48 152.939 167.288 153.088 167.128C153.248 166.968 153.44 166.888 153.664 166.888ZM150.4 174.12C150.902 174.12 151.344 173.992 151.728 173.736C152.112 173.48 152.411 173.134 152.624 172.696C152.838 172.248 152.944 171.752 152.944 171.208C152.944 170.654 152.838 170.158 152.624 169.72C152.411 169.283 152.112 168.936 151.728 168.68C151.344 168.424 150.902 168.296 150.4 168.296C149.91 168.296 149.472 168.424 149.088 168.68C148.715 168.936 148.416 169.283 148.192 169.72C147.979 170.158 147.872 170.654 147.872 171.208C147.872 171.752 147.979 172.248 148.192 172.696C148.416 173.134 148.715 173.48 149.088 173.736C149.472 173.992 149.91 174.12 150.4 174.12ZM156.594 167.112H160.354C160.567 167.112 160.743 167.187 160.882 167.336C161.031 167.475 161.106 167.651 161.106 167.864C161.106 168.067 161.031 168.238 160.882 168.376C160.743 168.515 160.567 168.584 160.354 168.584H156.594C156.381 168.584 156.199 168.515 156.05 168.376C155.911 168.227 155.842 168.051 155.842 167.848C155.842 167.635 155.911 167.459 156.05 167.32C156.199 167.182 156.381 167.112 156.594 167.112ZM158.274 165.032C158.509 165.032 158.701 165.112 158.85 165.272C158.999 165.422 159.074 165.614 159.074 165.848V173.272C159.074 173.464 159.106 173.619 159.17 173.736C159.234 173.854 159.319 173.934 159.426 173.976C159.543 174.019 159.661 174.04 159.778 174.04C159.895 174.04 159.997 174.019 160.082 173.976C160.178 173.934 160.29 173.912 160.418 173.912C160.546 173.912 160.663 173.971 160.77 174.088C160.877 174.206 160.93 174.366 160.93 174.568C160.93 174.824 160.791 175.032 160.514 175.192C160.237 175.352 159.938 175.432 159.618 175.432C159.437 175.432 159.223 175.416 158.978 175.384C158.733 175.352 158.493 175.272 158.258 175.144C158.034 175.016 157.847 174.814 157.698 174.536C157.549 174.248 157.474 173.848 157.474 173.336V165.848C157.474 165.614 157.549 165.422 157.698 165.272C157.858 165.112 158.05 165.032 158.274 165.032ZM166.72 175.592C165.834 175.592 165.066 175.411 164.416 175.048C163.765 174.675 163.258 174.168 162.896 173.528C162.544 172.878 162.368 172.136 162.368 171.304C162.368 170.366 162.554 169.566 162.928 168.904C163.312 168.232 163.808 167.72 164.416 167.368C165.024 167.006 165.669 166.824 166.352 166.824C166.874 166.824 167.37 166.931 167.84 167.144C168.309 167.347 168.725 167.635 169.088 168.008C169.461 168.371 169.754 168.803 169.968 169.304C170.181 169.795 170.293 170.334 170.304 170.92C170.293 171.134 170.208 171.31 170.048 171.448C169.888 171.587 169.701 171.656 169.488 171.656H163.264L162.88 170.296H168.896L168.592 170.584V170.184C168.57 169.811 168.448 169.486 168.224 169.208C168 168.92 167.722 168.702 167.392 168.552C167.061 168.392 166.714 168.312 166.352 168.312C166.032 168.312 165.722 168.366 165.424 168.472C165.136 168.568 164.874 168.728 164.64 168.952C164.416 169.176 164.234 169.475 164.096 169.848C163.968 170.211 163.904 170.664 163.904 171.208C163.904 171.795 164.026 172.307 164.272 172.744C164.517 173.182 164.848 173.523 165.264 173.768C165.68 174.003 166.138 174.12 166.64 174.12C167.034 174.12 167.36 174.083 167.616 174.008C167.872 173.923 168.085 173.822 168.256 173.704C168.426 173.587 168.576 173.475 168.704 173.368C168.864 173.272 169.024 173.224 169.184 173.224C169.376 173.224 169.536 173.294 169.664 173.432C169.792 173.56 169.856 173.715 169.856 173.896C169.856 174.131 169.738 174.344 169.504 174.536C169.216 174.814 168.816 175.059 168.304 175.272C167.802 175.486 167.274 175.592 166.72 175.592Z" fill="#FF9408"/>
<path d="M123.444 124.703L129.658 114.769C129.899 114.377 130.238 114.053 130.641 113.83C131.044 113.607 131.498 113.493 131.958 113.497C132.321 113.484 132.683 113.544 133.022 113.673C133.361 113.802 133.671 113.998 133.933 114.249C134.196 114.499 134.405 114.8 134.549 115.134C134.693 115.467 134.769 115.825 134.772 116.188V123.308H145.512C145.909 123.321 146.299 123.418 146.656 123.592C147.013 123.766 147.329 124.014 147.583 124.319C147.837 124.624 148.024 124.979 148.131 125.362C148.238 125.744 148.263 126.145 148.204 126.538L146.246 139.162C146.163 139.837 145.836 140.458 145.327 140.908C144.818 141.359 144.162 141.608 143.482 141.609H127.432C126.668 141.612 125.914 141.436 125.23 141.095L123.469 140.214" fill="#FF9408"/>
<path d="M123.444 124.703V140.141" stroke="#FF9408" stroke-width="1.89089" stroke-linecap="round" stroke-linejoin="round"/>
<path opacity="0.3" d="M117.646 124.703H123.444V140.141H117.646C117.322 140.141 117.01 140.012 116.781 139.783C116.552 139.554 116.423 139.242 116.423 138.918V125.926C116.423 125.602 116.552 125.291 116.781 125.061C117.01 124.832 117.322 124.703 117.646 124.703Z" fill="#FF9408"/>
<path opacity="0.3" d="M153.146 103.271L150.613 97.7785C150.434 97.3909 149.883 97.3909 149.704 97.7785L147.171 103.271C147.098 103.429 146.948 103.538 146.775 103.558L140.769 104.27C140.345 104.321 140.175 104.845 140.488 105.134L144.929 109.241C145.057 109.359 145.114 109.535 145.08 109.706L143.901 115.638C143.818 116.057 144.264 116.381 144.636 116.172L149.914 113.218C150.066 113.133 150.251 113.133 150.403 113.218L155.681 116.172C156.053 116.381 156.499 116.057 156.416 115.638L155.237 109.706C155.203 109.535 155.26 109.359 155.388 109.241L159.829 105.134C160.142 104.845 159.972 104.321 159.548 104.27L153.541 103.558C153.369 103.538 153.219 103.429 153.146 103.271Z" fill="#FF9408"/>
</g>
<defs>
<filter id="filter0_f_99_1575" x="0" y="0" width="276" height="276" filterUnits="userSpaceOnUse" color-interpolation-filters="sRGB">
<feFlood flood-opacity="0" result="BackgroundImageFix"/>
<feBlend mode="normal" in="SourceGraphic" in2="BackgroundImageFix" result="shape"/>
<feGaussianBlur stdDeviation="36" result="effect1_foregroundBlur_99_1575"/>
</filter>
<filter id="filter1_b_99_1575" x="63" y="64" width="150" height="150" filterUnits="userSpaceOnUse" color-interpolation-filters="sRGB">
<feFlood flood-opacity="0" result="BackgroundImageFix"/>
<feGaussianBlur in="BackgroundImage" stdDeviation="5"/>
<feComposite in2="SourceAlpha" operator="in" result="effect1_backgroundBlur_99_1575"/>
<feBlend mode="normal" in="SourceGraphic" in2="effect1_backgroundBlur_99_1575" result="shape"/>
</filter>
</defs>
</svg>
