<svg width="73" height="98" viewBox="0 0 73 98" fill="none" xmlns="http://www.w3.org/2000/svg">
<rect width="72" height="72" rx="36" fill="white"/>
<path d="M37.8386 51.7248C37.07 52.4427 35.8767 52.4427 35.1081 51.7248L19.1267 36.7967C9.67273 27.2061 23.4633 8.63795 36.4733 23.6589C49.4833 8.68174 63.404 27.2499 53.82 36.7967L37.8386 51.7248Z" fill="#7856FF" fill-opacity="0.15"/>
<path opacity="0.3" d="M17.4287 35.9994H24.5716L28.8573 30.2852L34.5716 40.2852L38.8573 34.5709H43.143" stroke="#6606EF" stroke-width="1.5" stroke-linecap="round" stroke-linejoin="round"/>
<path d="M17.4287 35.9994H24.5716L28.8573 30.2852L34.5716 40.2852L38.8573 34.5709H43.143" stroke="#6606EF" stroke-width="1.5" stroke-linecap="round" stroke-linejoin="round"/>
<path d="M2.1032 87.2C2.26187 87.2 2.3972 87.256 2.5092 87.368C2.6212 87.4707 2.6772 87.606 2.6772 87.774V96.426C2.6772 96.5847 2.61654 96.72 2.4952 96.832C2.3832 96.944 2.24787 97 2.0892 97C1.91187 97 1.77187 96.944 1.6692 96.832C1.56654 96.72 1.5152 96.5847 1.5152 96.426V87.774C1.5152 87.606 1.5712 87.4707 1.6832 87.368C1.7952 87.256 1.9352 87.2 2.1032 87.2ZM8.5572 87.2C8.7252 87.2 8.86054 87.256 8.9632 87.368C9.0752 87.4707 9.1312 87.606 9.1312 87.774V96.426C9.1312 96.5847 9.0752 96.72 8.9632 96.832C8.8512 96.944 8.7112 97 8.5432 97C8.38454 97 8.2492 96.944 8.1372 96.832C8.0252 96.72 7.9692 96.5847 7.9692 96.426V87.774C7.9692 87.606 8.0252 87.4707 8.1372 87.368C8.25854 87.256 8.39854 87.2 8.5572 87.2ZM2.0472 91.47H8.5712L8.5572 92.562H2.0052L2.0472 91.47ZM14.7414 97.14C13.9947 97.14 13.3414 96.9813 12.7814 96.664C12.2214 96.3467 11.7827 95.9127 11.4654 95.362C11.1574 94.802 11.0034 94.158 11.0034 93.43C11.0034 92.618 11.162 91.9273 11.4794 91.358C11.806 90.7793 12.226 90.3407 12.7394 90.042C13.262 89.734 13.8127 89.58 14.3914 89.58C14.8207 89.58 15.236 89.6593 15.6374 89.818C16.0387 89.9767 16.3934 90.21 16.7014 90.518C17.0094 90.8167 17.2567 91.1807 17.4434 91.61C17.63 92.03 17.728 92.5013 17.7374 93.024C17.7374 93.1733 17.6814 93.2993 17.5694 93.402C17.4574 93.5047 17.3267 93.556 17.1774 93.556H11.6474L11.3954 92.59H16.7854L16.5614 92.786V92.478C16.524 92.0953 16.3934 91.7687 16.1694 91.498C15.9547 91.218 15.6887 91.0033 15.3714 90.854C15.0634 90.7047 14.7367 90.63 14.3914 90.63C14.1114 90.63 13.8314 90.6813 13.5514 90.784C13.2807 90.8773 13.0334 91.036 12.8094 91.26C12.5947 91.4747 12.4174 91.7547 12.2774 92.1C12.1467 92.4453 12.0814 92.8607 12.0814 93.346C12.0814 93.8873 12.1887 94.3633 12.4034 94.774C12.6274 95.1847 12.9354 95.5113 13.3274 95.754C13.7194 95.9873 14.1767 96.104 14.6994 96.104C15.026 96.104 15.3107 96.062 15.5534 95.978C15.796 95.894 16.006 95.7913 16.1834 95.67C16.3607 95.5393 16.51 95.4087 16.6314 95.278C16.7527 95.194 16.8694 95.152 16.9814 95.152C17.1214 95.152 17.2334 95.1987 17.3174 95.292C17.4107 95.3853 17.4574 95.4973 17.4574 95.628C17.4574 95.7867 17.3827 95.9267 17.2334 96.048C16.972 96.3373 16.6174 96.594 16.1694 96.818C15.7214 97.0327 15.2454 97.14 14.7414 97.14ZM25.4395 89.692C25.5981 89.692 25.7288 89.748 25.8315 89.86C25.9435 89.9627 25.9995 90.0933 25.9995 90.252V96.426C25.9995 96.5847 25.9435 96.72 25.8315 96.832C25.7288 96.944 25.5981 97 25.4395 97C25.2715 97 25.1361 96.944 25.0335 96.832C24.9308 96.72 24.8795 96.5847 24.8795 96.426V95.096L25.1455 95.068C25.1455 95.2733 25.0755 95.4973 24.9355 95.74C24.7955 95.9827 24.6041 96.2113 24.3615 96.426C24.1188 96.6313 23.8295 96.804 23.4935 96.944C23.1668 97.0747 22.8121 97.14 22.4295 97.14C21.7948 97.14 21.2255 96.9767 20.7215 96.65C20.2175 96.314 19.8161 95.8613 19.5175 95.292C19.2281 94.7227 19.0835 94.074 19.0835 93.346C19.0835 92.6087 19.2281 91.96 19.5175 91.4C19.8161 90.8307 20.2175 90.3873 20.7215 90.07C21.2255 89.7433 21.7855 89.58 22.4015 89.58C22.8028 89.58 23.1761 89.6453 23.5215 89.776C23.8668 89.9067 24.1655 90.084 24.4175 90.308C24.6788 90.532 24.8795 90.7793 25.0195 91.05C25.1688 91.3207 25.2435 91.5913 25.2435 91.862L24.8795 91.778V90.252C24.8795 90.0933 24.9308 89.9627 25.0335 89.86C25.1361 89.748 25.2715 89.692 25.4395 89.692ZM22.5555 96.104C23.0221 96.104 23.4328 95.9827 23.7875 95.74C24.1515 95.4973 24.4315 95.1707 24.6275 94.76C24.8328 94.34 24.9355 93.8687 24.9355 93.346C24.9355 92.8327 24.8328 92.3707 24.6275 91.96C24.4315 91.54 24.1515 91.2133 23.7875 90.98C23.4328 90.7373 23.0221 90.616 22.5555 90.616C22.0981 90.616 21.6875 90.7327 21.3235 90.966C20.9688 91.1993 20.6888 91.5213 20.4835 91.932C20.2781 92.3427 20.1755 92.814 20.1755 93.346C20.1755 93.8687 20.2735 94.34 20.4695 94.76C20.6748 95.1707 20.9548 95.4973 21.3095 95.74C21.6735 95.9827 22.0888 96.104 22.5555 96.104ZM29.3071 96.426C29.3071 96.5847 29.2511 96.72 29.1391 96.832C29.0271 96.944 28.8917 97 28.7331 97C28.5744 97 28.4437 96.944 28.3411 96.832C28.2384 96.72 28.1871 96.5847 28.1871 96.426V87.2C28.1871 87.0413 28.2384 86.9107 28.3411 86.808C28.4531 86.696 28.5884 86.64 28.7471 86.64C28.9151 86.64 29.0504 86.696 29.1531 86.808C29.2557 86.9107 29.3071 87.0413 29.3071 87.2V96.426ZM31.1583 89.804H34.4483C34.5977 89.804 34.719 89.8553 34.8123 89.958C34.915 90.0607 34.9663 90.182 34.9663 90.322C34.9663 90.4713 34.915 90.5973 34.8123 90.7C34.719 90.7933 34.5977 90.84 34.4483 90.84H31.1583C31.0183 90.84 30.897 90.7887 30.7943 90.686C30.6917 90.5833 30.6403 90.4573 30.6403 90.308C30.6403 90.168 30.6917 90.0513 30.7943 89.958C30.897 89.8553 31.0183 89.804 31.1583 89.804ZM32.6283 87.9C32.787 87.9 32.9177 87.956 33.0203 88.068C33.123 88.1707 33.1743 88.3013 33.1743 88.46V95.222C33.1743 95.446 33.207 95.614 33.2723 95.726C33.3377 95.838 33.4217 95.9173 33.5243 95.964C33.6363 96.0013 33.7437 96.02 33.8463 96.02C33.9397 96.02 34.019 96.006 34.0843 95.978C34.159 95.9407 34.243 95.922 34.3363 95.922C34.4297 95.922 34.5137 95.9687 34.5883 96.062C34.6723 96.146 34.7143 96.258 34.7143 96.398C34.7143 96.566 34.6163 96.7107 34.4203 96.832C34.2243 96.944 34.005 97 33.7623 97C33.6317 97 33.4683 96.9907 33.2723 96.972C33.0857 96.9533 32.899 96.8927 32.7123 96.79C32.5257 96.6873 32.367 96.5193 32.2363 96.286C32.115 96.0433 32.0543 95.7073 32.0543 95.278V88.46C32.0543 88.3013 32.1103 88.1707 32.2223 88.068C32.3343 87.956 32.4697 87.9 32.6283 87.9ZM40.0243 89.65C40.6403 89.65 41.1256 89.7853 41.4803 90.056C41.8443 90.3173 42.1009 90.672 42.2503 91.12C42.4089 91.5587 42.4883 92.0487 42.4883 92.59V96.426C42.4883 96.5847 42.4323 96.72 42.3203 96.832C42.2176 96.944 42.0869 97 41.9283 97C41.7696 97 41.6343 96.944 41.5223 96.832C41.4196 96.72 41.3683 96.5847 41.3683 96.426V92.59C41.3683 92.2353 41.3169 91.918 41.2143 91.638C41.1116 91.3487 40.9389 91.12 40.6963 90.952C40.4629 90.7747 40.1409 90.686 39.7303 90.686C39.3476 90.686 38.9976 90.7747 38.6803 90.952C38.3629 91.12 38.1109 91.3487 37.9243 91.638C37.7376 91.918 37.6443 92.2353 37.6443 92.59V96.426C37.6443 96.5847 37.5883 96.72 37.4763 96.832C37.3736 96.944 37.2429 97 37.0843 97C36.9256 97 36.7903 96.944 36.6783 96.832C36.5756 96.72 36.5243 96.5847 36.5243 96.426V87.2C36.5243 87.0413 36.5756 86.9107 36.6783 86.808C36.7903 86.696 36.9256 86.64 37.0843 86.64C37.2523 86.64 37.3876 86.696 37.4903 86.808C37.5929 86.9107 37.6443 87.0413 37.6443 87.2V91.386L37.3643 91.694C37.4109 91.4513 37.5136 91.2087 37.6723 90.966C37.8309 90.714 38.0316 90.49 38.2743 90.294C38.5169 90.098 38.7876 89.944 39.0863 89.832C39.3849 89.7107 39.6976 89.65 40.0243 89.65ZM47.7833 89.58C48.2593 89.58 48.6887 89.6313 49.0713 89.734C49.454 89.8367 49.7573 89.9767 49.9813 90.154C50.2053 90.3313 50.3173 90.532 50.3173 90.756C50.3173 90.8773 50.2753 90.994 50.1913 91.106C50.1073 91.218 49.9953 91.274 49.8553 91.274C49.7247 91.274 49.6173 91.2507 49.5333 91.204C49.4587 91.1573 49.384 91.0967 49.3093 91.022C49.244 90.9473 49.1507 90.882 49.0293 90.826C48.9173 90.7607 48.754 90.7093 48.5393 90.672C48.3247 90.6347 48.11 90.616 47.8953 90.616C47.382 90.616 46.9293 90.7373 46.5373 90.98C46.1547 91.2227 45.8513 91.5493 45.6273 91.96C45.4033 92.3707 45.2913 92.8373 45.2913 93.36C45.2913 93.8827 45.3987 94.3493 45.6133 94.76C45.828 95.1707 46.1267 95.4973 46.5093 95.74C46.892 95.9827 47.3353 96.104 47.8393 96.104C48.166 96.104 48.4273 96.076 48.6233 96.02C48.8193 95.964 48.9827 95.8987 49.1133 95.824C49.2813 95.7307 49.4073 95.6373 49.4913 95.544C49.5847 95.4507 49.706 95.404 49.8553 95.404C50.014 95.404 50.1353 95.4553 50.2193 95.558C50.3127 95.6607 50.3593 95.7867 50.3593 95.936C50.3593 96.104 50.2427 96.2813 50.0093 96.468C49.776 96.6547 49.4587 96.8133 49.0573 96.944C48.6653 97.0747 48.2173 97.14 47.7133 97.14C47.004 97.14 46.3833 96.9767 45.8513 96.65C45.3193 96.314 44.904 95.8613 44.6053 95.292C44.316 94.7133 44.1713 94.0693 44.1713 93.36C44.1713 92.6507 44.3207 92.0113 44.6193 91.442C44.9273 90.8727 45.352 90.42 45.8933 90.084C46.4347 89.748 47.0647 89.58 47.7833 89.58ZM57.7871 89.692C57.9458 89.692 58.0764 89.748 58.1791 89.86C58.2911 89.9627 58.3471 90.0933 58.3471 90.252V96.426C58.3471 96.5847 58.2911 96.72 58.1791 96.832C58.0764 96.944 57.9458 97 57.7871 97C57.6191 97 57.4838 96.944 57.3811 96.832C57.2784 96.72 57.2271 96.5847 57.2271 96.426V95.096L57.4931 95.068C57.4931 95.2733 57.4231 95.4973 57.2831 95.74C57.1431 95.9827 56.9518 96.2113 56.7091 96.426C56.4664 96.6313 56.1771 96.804 55.8411 96.944C55.5144 97.0747 55.1598 97.14 54.7771 97.14C54.1424 97.14 53.5731 96.9767 53.0691 96.65C52.5651 96.314 52.1638 95.8613 51.8651 95.292C51.5758 94.7227 51.4311 94.074 51.4311 93.346C51.4311 92.6087 51.5758 91.96 51.8651 91.4C52.1638 90.8307 52.5651 90.3873 53.0691 90.07C53.5731 89.7433 54.1331 89.58 54.7491 89.58C55.1504 89.58 55.5238 89.6453 55.8691 89.776C56.2144 89.9067 56.5131 90.084 56.7651 90.308C57.0264 90.532 57.2271 90.7793 57.3671 91.05C57.5164 91.3207 57.5911 91.5913 57.5911 91.862L57.2271 91.778V90.252C57.2271 90.0933 57.2784 89.9627 57.3811 89.86C57.4838 89.748 57.6191 89.692 57.7871 89.692ZM54.9031 96.104C55.3698 96.104 55.7804 95.9827 56.1351 95.74C56.4991 95.4973 56.7791 95.1707 56.9751 94.76C57.1804 94.34 57.2831 93.8687 57.2831 93.346C57.2831 92.8327 57.1804 92.3707 56.9751 91.96C56.7791 91.54 56.4991 91.2133 56.1351 90.98C55.7804 90.7373 55.3698 90.616 54.9031 90.616C54.4458 90.616 54.0351 90.7327 53.6711 90.966C53.3164 91.1993 53.0364 91.5213 52.8311 91.932C52.6258 92.3427 52.5231 92.814 52.5231 93.346C52.5231 93.8687 52.6211 94.34 52.8171 94.76C53.0224 95.1707 53.3024 95.4973 53.6571 95.74C54.0211 95.9827 54.4364 96.104 54.9031 96.104ZM60.9827 97C60.8241 97 60.6887 96.944 60.5767 96.832C60.4741 96.72 60.4227 96.5847 60.4227 96.426V90.322C60.4227 90.1633 60.4741 90.0327 60.5767 89.93C60.6887 89.818 60.8241 89.762 60.9827 89.762C61.1507 89.762 61.2861 89.818 61.3887 89.93C61.4914 90.0327 61.5427 90.1633 61.5427 90.322V92.17L61.3747 91.876C61.4307 91.5867 61.5287 91.3067 61.6687 91.036C61.8181 90.756 62.0047 90.5087 62.2287 90.294C62.4527 90.07 62.7094 89.8973 62.9987 89.776C63.2881 89.6453 63.6054 89.58 63.9507 89.58C64.1561 89.58 64.3427 89.6313 64.5107 89.734C64.6881 89.8273 64.7767 89.9627 64.7767 90.14C64.7767 90.336 64.7254 90.4807 64.6227 90.574C64.5201 90.6673 64.4034 90.714 64.2727 90.714C64.1514 90.714 64.0347 90.6907 63.9227 90.644C63.8107 90.588 63.6707 90.56 63.5027 90.56C63.2694 90.56 63.0361 90.6253 62.8027 90.756C62.5787 90.8773 62.3687 91.0547 62.1727 91.288C61.9861 91.5213 61.8321 91.7873 61.7107 92.086C61.5987 92.3753 61.5427 92.688 61.5427 93.024V96.426C61.5427 96.5847 61.4867 96.72 61.3747 96.832C61.2721 96.944 61.1414 97 60.9827 97ZM69.0734 97.14C68.3267 97.14 67.6734 96.9813 67.1134 96.664C66.5534 96.3467 66.1147 95.9127 65.7974 95.362C65.4894 94.802 65.3354 94.158 65.3354 93.43C65.3354 92.618 65.4941 91.9273 65.8114 91.358C66.1381 90.7793 66.5581 90.3407 67.0714 90.042C67.5941 89.734 68.1447 89.58 68.7234 89.58C69.1527 89.58 69.5681 89.6593 69.9694 89.818C70.3707 89.9767 70.7254 90.21 71.0334 90.518C71.3414 90.8167 71.5887 91.1807 71.7754 91.61C71.9621 92.03 72.0601 92.5013 72.0694 93.024C72.0694 93.1733 72.0134 93.2993 71.9014 93.402C71.7894 93.5047 71.6587 93.556 71.5094 93.556H65.9794L65.7274 92.59H71.1174L70.8934 92.786V92.478C70.8561 92.0953 70.7254 91.7687 70.5014 91.498C70.2867 91.218 70.0207 91.0033 69.7034 90.854C69.3954 90.7047 69.0687 90.63 68.7234 90.63C68.4434 90.63 68.1634 90.6813 67.8834 90.784C67.6127 90.8773 67.3654 91.036 67.1414 91.26C66.9267 91.4747 66.7494 91.7547 66.6094 92.1C66.4787 92.4453 66.4134 92.8607 66.4134 93.346C66.4134 93.8873 66.5207 94.3633 66.7354 94.774C66.9594 95.1847 67.2674 95.5113 67.6594 95.754C68.0514 95.9873 68.5087 96.104 69.0314 96.104C69.3581 96.104 69.6427 96.062 69.8854 95.978C70.1281 95.894 70.3381 95.7913 70.5154 95.67C70.6927 95.5393 70.8421 95.4087 70.9634 95.278C71.0847 95.194 71.2014 95.152 71.3134 95.152C71.4534 95.152 71.5654 95.1987 71.6494 95.292C71.7427 95.3853 71.7894 95.4973 71.7894 95.628C71.7894 95.7867 71.7147 95.9267 71.5654 96.048C71.3041 96.3373 70.9494 96.594 70.5014 96.818C70.0534 97.0327 69.5774 97.14 69.0734 97.14Z" fill="#17171A"/>
</svg>
