<svg width="72" height="98" viewBox="0 0 72 98" fill="none" xmlns="http://www.w3.org/2000/svg">
<rect width="72" height="72" rx="36" fill="white"/>
<mask id="path-2-outside-1_24_1125" maskUnits="userSpaceOnUse" x="19" y="19" width="33" height="38" fill="black">
<rect fill="white" x="19" y="19" width="33" height="38"/>
<path fill-rule="evenodd" clip-rule="evenodd" d="M35 21C27.268 21 21 27.268 21 35C21 40.5848 24.2701 45.4058 29 47.6527V53C29 54.1046 29.8954 55 31 55H41C42.1046 55 43 54.1046 43 53V49H48C49.1046 49 50 48.1046 50 47V35.5C50 27.4919 43.5081 21 35.5 21H35Z"/>
</mask>
<path fill-rule="evenodd" clip-rule="evenodd" d="M35 21C27.268 21 21 27.268 21 35C21 40.5848 24.2701 45.4058 29 47.6527V53C29 54.1046 29.8954 55 31 55H41C42.1046 55 43 54.1046 43 53V49H48C49.1046 49 50 48.1046 50 47V35.5C50 27.4919 43.5081 21 35.5 21H35Z" fill="#7856FF" fill-opacity="0.15"/>
<path d="M29 47.6527H31V46.3886L29.8582 45.8462L29 47.6527ZM43 49V47H41V49H43ZM23 35C23 28.3726 28.3726 23 35 23V19C26.1634 19 19 26.1634 19 35H23ZM29.8582 45.8462C25.7993 43.9181 23 39.784 23 35H19C19 41.3856 22.7409 46.8935 28.1418 49.4593L29.8582 45.8462ZM31 53V47.6527H27V53H31ZM31 53H27C27 55.2091 28.7909 57 31 57V53ZM41 53H31V57H41V53ZM41 53V57C43.2091 57 45 55.2091 45 53H41ZM41 49V53H45V49H41ZM48 47H43V51H48V47ZM48 47V51C50.2091 51 52 49.2091 52 47H48ZM48 35.5V47H52V35.5H48ZM35.5 23C42.4036 23 48 28.5964 48 35.5H52C52 26.3873 44.6127 19 35.5 19V23ZM35 23H35.5V19H35V23Z" fill="#7856FF" fill-opacity="0.15" mask="url(#path-2-outside-1_24_1125)"/>
<path d="M36.0003 43.1451C39.9452 43.1451 43.1431 39.9471 43.1431 36.0022C43.1431 32.0573 39.9452 28.8594 36.0003 28.8594C32.0554 28.8594 28.8574 32.0573 28.8574 36.0022C28.8574 39.9471 32.0554 43.1451 36.0003 43.1451Z" fill="#6606EF"/>
<path d="M36 28.8583V17.4297" stroke="#6606EF" stroke-width="2" stroke-linecap="round" stroke-linejoin="round"/>
<path d="M27.8366 87.2C28.658 87.2 29.288 87.4147 29.7266 87.844C30.1746 88.264 30.3986 88.8613 30.3986 89.636C30.3986 90.0467 30.3053 90.4247 30.1186 90.77C29.932 91.1153 29.6566 91.3907 29.2926 91.596C28.938 91.8013 28.4993 91.9133 27.9766 91.932L27.9486 91.54C28.2753 91.54 28.6113 91.5867 28.9566 91.68C29.302 91.7733 29.6193 91.9227 29.9086 92.128C30.2073 92.3333 30.4453 92.604 30.6226 92.94C30.8093 93.276 30.9026 93.6913 30.9026 94.186C30.9026 94.718 30.814 95.166 30.6366 95.53C30.4593 95.8847 30.2213 96.174 29.9226 96.398C29.6333 96.6127 29.3066 96.7667 28.9426 96.86C28.588 96.9533 28.2286 97 27.8646 97H24.1826C24.024 97 23.8886 96.944 23.7766 96.832C23.674 96.72 23.6226 96.5847 23.6226 96.426V87.76C23.6226 87.6013 23.674 87.4707 23.7766 87.368C23.8886 87.256 24.024 87.2 24.1826 87.2H27.8366ZM27.6686 88.306H24.6586L24.8266 88.054V91.54L24.6726 91.358H27.6966C28.1073 91.358 28.4573 91.2273 28.7466 90.966C29.0453 90.6953 29.1946 90.2987 29.1946 89.776C29.1946 89.3093 29.0593 88.95 28.7886 88.698C28.518 88.4367 28.1446 88.306 27.6686 88.306ZM27.7806 92.478H24.7286L24.8266 92.38V96.034L24.7146 95.908H27.8226C28.3733 95.908 28.8213 95.768 29.1666 95.488C29.5213 95.208 29.6986 94.774 29.6986 94.186C29.6986 93.7287 29.6053 93.3787 29.4186 93.136C29.232 92.884 28.9893 92.7113 28.6906 92.618C28.4013 92.5247 28.098 92.478 27.7806 92.478ZM36.6051 87.2C37.1184 87.2 37.5804 87.326 37.9911 87.578C38.4018 87.83 38.7238 88.1753 38.9571 88.614C39.1998 89.0527 39.3211 89.552 39.3211 90.112C39.3211 90.6627 39.1998 91.162 38.9571 91.61C38.7238 92.058 38.4018 92.4127 37.9911 92.674C37.5804 92.9353 37.1184 93.066 36.6051 93.066H33.7631L33.8611 92.898V96.426C33.8611 96.5847 33.8098 96.72 33.7071 96.832C33.6044 96.944 33.4738 97 33.3151 97C33.1471 97 33.0118 96.944 32.9091 96.832C32.8158 96.72 32.7691 96.5847 32.7691 96.426V87.76C32.7691 87.6013 32.8204 87.4707 32.9231 87.368C33.0351 87.256 33.1704 87.2 33.3291 87.2H36.6051ZM36.6051 91.988C36.9131 91.988 37.1838 91.904 37.4171 91.736C37.6504 91.568 37.8371 91.3393 37.9771 91.05C38.1171 90.7607 38.1871 90.448 38.1871 90.112C38.1871 89.7573 38.1171 89.4447 37.9771 89.174C37.8371 88.9033 37.6504 88.6887 37.4171 88.53C37.1838 88.362 36.9131 88.278 36.6051 88.278H33.7631L33.8611 88.124V92.128L33.7631 91.988H36.6051ZM49.984 92.1C49.984 92.8187 49.8673 93.486 49.634 94.102C49.4006 94.7087 49.074 95.2407 48.654 95.698C48.234 96.1553 47.7346 96.51 47.156 96.762C46.5773 97.014 45.9473 97.14 45.266 97.14C44.5753 97.14 43.9406 97.014 43.362 96.762C42.7926 96.51 42.298 96.1553 41.878 95.698C41.458 95.2407 41.1313 94.7087 40.898 94.102C40.6646 93.486 40.548 92.8187 40.548 92.1C40.548 91.372 40.6646 90.7047 40.898 90.098C41.1313 89.482 41.458 88.95 41.878 88.502C42.298 88.0447 42.7926 87.69 43.362 87.438C43.9406 87.186 44.5753 87.06 45.266 87.06C45.9473 87.06 46.5773 87.186 47.156 87.438C47.7346 87.69 48.234 88.0447 48.654 88.502C49.074 88.95 49.4006 89.482 49.634 90.098C49.8673 90.7047 49.984 91.372 49.984 92.1ZM48.78 92.1C48.78 91.3347 48.626 90.658 48.318 90.07C48.0193 89.482 47.6086 89.02 47.086 88.684C46.5633 88.348 45.9566 88.18 45.266 88.18C44.5753 88.18 43.964 88.348 43.432 88.684C42.9093 89.02 42.4986 89.482 42.2 90.07C41.9013 90.658 41.752 91.3347 41.752 92.1C41.752 92.856 41.9013 93.5327 42.2 94.13C42.4986 94.718 42.9093 95.18 43.432 95.516C43.964 95.852 44.5753 96.02 45.266 96.02C45.9566 96.02 46.5633 95.852 47.086 95.516C47.6086 95.18 48.0193 94.718 48.318 94.13C48.626 93.5327 48.78 92.856 48.78 92.1Z" fill="#17171A"/>
</svg>
