<svg width="72" height="98" viewBox="0 0 72 98" fill="none" xmlns="http://www.w3.org/2000/svg">
<rect width="72" height="72" rx="36" fill="white"/>
<path d="M20 33V52.8C20 53.3835 20.1532 53.9431 20.426 54.3556C20.6988 54.7682 21.0688 55 21.4545 55H50.5455C50.9312 55 51.3012 54.7682 51.574 54.3556C51.8468 53.9431 52 53.3835 52 52.8V33" fill="#7856FF" fill-opacity="0.15"/>
<path d="M17.4287 27.4297L21.7144 17.4297H50.2859L54.5716 27.4297H17.4287Z" fill="#6606EF"/>
<path d="M29.5713 27.4297V30.2868C29.5713 31.8024 28.9693 33.2558 27.8977 34.3274C26.826 35.3991 25.3726 36.0011 23.8571 36.0011H23.0571C21.5415 36.0011 20.0881 35.3991 19.0164 34.3274C17.9448 33.2558 17.3428 31.8024 17.3428 30.2868V27.4297" fill="#6606EF"/>
<path d="M42.4284 27.4297V30.2868C42.4284 31.8024 41.8264 33.2558 40.7548 34.3274C39.6831 35.3991 38.2297 36.0011 36.7141 36.0011H35.2856C33.7701 36.0011 32.3166 35.3991 31.245 34.3274C30.1733 33.2558 29.5713 31.8024 29.5713 30.2868V27.4297" fill="#6606EF"/>
<path d="M54.5716 27.4297V30.2868C54.5716 31.8024 53.9695 33.2558 52.8979 34.3274C51.8263 35.3991 50.3728 36.0011 48.8573 36.0011H48.143C46.6275 36.0011 45.174 35.3991 44.1024 34.3274C43.0308 33.2558 42.4287 31.8024 42.4287 30.2868V27.4297" fill="#6606EF"/>
<path d="M19.0772 97C18.8998 97 18.7458 96.944 18.6152 96.832C18.4938 96.72 18.4332 96.5847 18.4332 96.426V87.76C18.4332 87.6013 18.4845 87.4707 18.5872 87.368C18.6992 87.256 18.8345 87.2 18.9932 87.2H22.8572C23.3798 87.2 23.8512 87.3213 24.2712 87.564C24.6912 87.7973 25.0225 88.124 25.2652 88.544C25.5172 88.9547 25.6432 89.4307 25.6432 89.972C25.6432 90.364 25.5685 90.7327 25.4192 91.078C25.2698 91.414 25.0645 91.708 24.8032 91.96C24.5418 92.2027 24.2432 92.3893 23.9072 92.52L23.5992 92.296C23.9165 92.3707 24.2012 92.506 24.4532 92.702C24.7052 92.8887 24.9105 93.1313 25.0692 93.43C25.2278 93.7193 25.3118 94.06 25.3212 94.452C25.3398 94.7973 25.3632 95.0727 25.3912 95.278C25.4192 95.4833 25.4612 95.6467 25.5172 95.768C25.5732 95.88 25.6525 95.9687 25.7552 96.034C25.8858 96.118 25.9698 96.23 26.0072 96.37C26.0538 96.51 26.0305 96.6453 25.9372 96.776C25.8812 96.86 25.8018 96.9207 25.6992 96.958C25.5965 96.986 25.4938 96.9953 25.3912 96.986C25.2885 96.9767 25.1998 96.9487 25.1252 96.902C24.9758 96.818 24.8312 96.6967 24.6912 96.538C24.5512 96.37 24.4345 96.132 24.3412 95.824C24.2478 95.516 24.2012 95.096 24.2012 94.564C24.2012 94.2653 24.1545 94.018 24.0612 93.822C23.9678 93.626 23.8418 93.4673 23.6832 93.346C23.5245 93.2247 23.3472 93.1407 23.1512 93.094C22.9552 93.0473 22.7545 93.024 22.5492 93.024H19.4272L19.5952 92.772V96.426C19.5952 96.5847 19.5485 96.72 19.4552 96.832C19.3618 96.944 19.2358 97 19.0772 97ZM19.4272 92.016H22.8572C23.1278 91.9973 23.3798 91.904 23.6132 91.736C23.8558 91.568 24.0518 91.3347 24.2012 91.036C24.3598 90.728 24.4392 90.3827 24.4392 90C24.4392 89.5053 24.2805 89.0947 23.9632 88.768C23.6552 88.4413 23.2632 88.278 22.7872 88.278H19.4832L19.5952 88.012V92.268L19.4272 92.016ZM30.9758 97.14C30.2291 97.14 29.5758 96.9813 29.0158 96.664C28.4558 96.3467 28.0171 95.9127 27.6998 95.362C27.3918 94.802 27.2378 94.158 27.2378 93.43C27.2378 92.618 27.3964 91.9273 27.7138 91.358C28.0404 90.7793 28.4604 90.3407 28.9738 90.042C29.4964 89.734 30.0471 89.58 30.6258 89.58C31.0551 89.58 31.4704 89.6593 31.8718 89.818C32.2731 89.9767 32.6278 90.21 32.9358 90.518C33.2438 90.8167 33.4911 91.1807 33.6778 91.61C33.8644 92.03 33.9624 92.5013 33.9718 93.024C33.9718 93.1733 33.9158 93.2993 33.8038 93.402C33.6918 93.5047 33.5611 93.556 33.4118 93.556H27.8818L27.6298 92.59H33.0198L32.7958 92.786V92.478C32.7584 92.0953 32.6278 91.7687 32.4038 91.498C32.1891 91.218 31.9231 91.0033 31.6058 90.854C31.2978 90.7047 30.9711 90.63 30.6258 90.63C30.3458 90.63 30.0658 90.6813 29.7858 90.784C29.5151 90.8773 29.2678 91.036 29.0438 91.26C28.8291 91.4747 28.6518 91.7547 28.5118 92.1C28.3811 92.4453 28.3158 92.8607 28.3158 93.346C28.3158 93.8873 28.4231 94.3633 28.6378 94.774C28.8618 95.1847 29.1698 95.5113 29.5618 95.754C29.9538 95.9873 30.4111 96.104 30.9338 96.104C31.2604 96.104 31.5451 96.062 31.7878 95.978C32.0304 95.894 32.2404 95.7913 32.4178 95.67C32.5951 95.5393 32.7444 95.4087 32.8658 95.278C32.9871 95.194 33.1038 95.152 33.2158 95.152C33.3558 95.152 33.4678 95.1987 33.5518 95.292C33.6451 95.3853 33.6918 95.4973 33.6918 95.628C33.6918 95.7867 33.6171 95.9267 33.4678 96.048C33.2064 96.3373 32.8518 96.594 32.4038 96.818C31.9558 97.0327 31.4798 97.14 30.9758 97.14ZM35.3751 89.804H38.6651C38.8145 89.804 38.9358 89.8553 39.0291 89.958C39.1318 90.0607 39.1831 90.182 39.1831 90.322C39.1831 90.4713 39.1318 90.5973 39.0291 90.7C38.9358 90.7933 38.8145 90.84 38.6651 90.84H35.3751C35.2351 90.84 35.1138 90.7887 35.0111 90.686C34.9085 90.5833 34.8571 90.4573 34.8571 90.308C34.8571 90.168 34.9085 90.0513 35.0111 89.958C35.1138 89.8553 35.2351 89.804 35.3751 89.804ZM36.8451 87.9C37.0038 87.9 37.1345 87.956 37.2371 88.068C37.3398 88.1707 37.3911 88.3013 37.3911 88.46V95.222C37.3911 95.446 37.4238 95.614 37.4891 95.726C37.5545 95.838 37.6385 95.9173 37.7411 95.964C37.8531 96.0013 37.9605 96.02 38.0631 96.02C38.1565 96.02 38.2358 96.006 38.3011 95.978C38.3758 95.9407 38.4598 95.922 38.5531 95.922C38.6465 95.922 38.7305 95.9687 38.8051 96.062C38.8891 96.146 38.9311 96.258 38.9311 96.398C38.9311 96.566 38.8331 96.7107 38.6371 96.832C38.4411 96.944 38.2218 97 37.9791 97C37.8485 97 37.6851 96.9907 37.4891 96.972C37.3025 96.9533 37.1158 96.8927 36.9291 96.79C36.7425 96.6873 36.5838 96.5193 36.4531 96.286C36.3318 96.0433 36.2711 95.7073 36.2711 95.278V88.46C36.2711 88.3013 36.3271 88.1707 36.4391 88.068C36.5511 87.956 36.6865 87.9 36.8451 87.9ZM46.7051 89.692C46.8637 89.692 46.9944 89.748 47.0971 89.86C47.2091 89.9627 47.2651 90.0933 47.2651 90.252V96.426C47.2651 96.5847 47.2091 96.72 47.0971 96.832C46.9944 96.944 46.8637 97 46.7051 97C46.5371 97 46.4017 96.944 46.2991 96.832C46.1964 96.72 46.1451 96.5847 46.1451 96.426V95.096L46.4111 95.068C46.4111 95.2733 46.3411 95.4973 46.2011 95.74C46.0611 95.9827 45.8697 96.2113 45.6271 96.426C45.3844 96.6313 45.0951 96.804 44.7591 96.944C44.4324 97.0747 44.0777 97.14 43.6951 97.14C43.0604 97.14 42.4911 96.9767 41.9871 96.65C41.4831 96.314 41.0817 95.8613 40.7831 95.292C40.4937 94.7227 40.3491 94.074 40.3491 93.346C40.3491 92.6087 40.4937 91.96 40.7831 91.4C41.0817 90.8307 41.4831 90.3873 41.9871 90.07C42.4911 89.7433 43.0511 89.58 43.6671 89.58C44.0684 89.58 44.4417 89.6453 44.7871 89.776C45.1324 89.9067 45.4311 90.084 45.6831 90.308C45.9444 90.532 46.1451 90.7793 46.2851 91.05C46.4344 91.3207 46.5091 91.5913 46.5091 91.862L46.1451 91.778V90.252C46.1451 90.0933 46.1964 89.9627 46.2991 89.86C46.4017 89.748 46.5371 89.692 46.7051 89.692ZM43.8211 96.104C44.2877 96.104 44.6984 95.9827 45.0531 95.74C45.4171 95.4973 45.6971 95.1707 45.8931 94.76C46.0984 94.34 46.2011 93.8687 46.2011 93.346C46.2011 92.8327 46.0984 92.3707 45.8931 91.96C45.6971 91.54 45.4171 91.2133 45.0531 90.98C44.6984 90.7373 44.2877 90.616 43.8211 90.616C43.3637 90.616 42.9531 90.7327 42.5891 90.966C42.2344 91.1993 41.9544 91.5213 41.7491 91.932C41.5437 92.3427 41.4411 92.814 41.4411 93.346C41.4411 93.8687 41.5391 94.34 41.7351 94.76C41.9404 95.1707 42.2204 95.4973 42.5751 95.74C42.9391 95.9827 43.3544 96.104 43.8211 96.104ZM50.4187 96.426C50.4187 96.5847 50.3627 96.72 50.2507 96.832C50.148 96.944 50.0174 97 49.8587 97C49.6907 97 49.5554 96.944 49.4527 96.832C49.35 96.72 49.2987 96.5847 49.2987 96.426V90.21C49.2987 90.0513 49.35 89.9207 49.4527 89.818C49.5647 89.706 49.7 89.65 49.8587 89.65C50.0174 89.65 50.148 89.706 50.2507 89.818C50.3627 89.9207 50.4187 90.0513 50.4187 90.21V96.426ZM49.8587 88.712C49.6254 88.712 49.4527 88.6653 49.3407 88.572C49.2287 88.4787 49.1727 88.334 49.1727 88.138V87.942C49.1727 87.746 49.2334 87.6013 49.3547 87.508C49.476 87.4147 49.6487 87.368 49.8727 87.368C50.0967 87.368 50.2647 87.4147 50.3767 87.508C50.4887 87.6013 50.5447 87.746 50.5447 87.942V88.138C50.5447 88.334 50.484 88.4787 50.3627 88.572C50.2507 88.6653 50.0827 88.712 49.8587 88.712ZM53.6625 96.426C53.6625 96.5847 53.6065 96.72 53.4945 96.832C53.3825 96.944 53.2472 97 53.0885 97C52.9299 97 52.7992 96.944 52.6965 96.832C52.5939 96.72 52.5425 96.5847 52.5425 96.426V87.2C52.5425 87.0413 52.5939 86.9107 52.6965 86.808C52.8085 86.696 52.9439 86.64 53.1025 86.64C53.2705 86.64 53.4059 86.696 53.5085 86.808C53.6112 86.9107 53.6625 87.0413 53.6625 87.2V96.426Z" fill="#17171A"/>
</svg>
