<svg width="72" height="97" viewBox="0 0 72 97" fill="none" xmlns="http://www.w3.org/2000/svg">
<rect width="72" height="72" rx="36" fill="white"/>
<rect opacity="0.3" x="44" y="26" width="14" height="26" rx="2" fill="#6606EF" stroke="white" stroke-width="2"/>
<path d="M30.7861 43.6797V51.5726" stroke="#6606EF" stroke-width="2" stroke-linecap="round" stroke-linejoin="round"/>
<path d="M22.8926 51.5703H38.6783" stroke="#6606EF" stroke-width="2" stroke-linecap="round" stroke-linejoin="round"/>
<path d="M42.6251 20H18.9464C16.7669 20 15 21.7669 15 23.9464V39.7322C15 41.9117 16.7669 43.6786 18.9464 43.6786H42.6251C44.8046 43.6786 46.5715 41.9117 46.5715 39.7322V23.9464C46.5715 21.7669 44.8046 20 42.6251 20Z" fill="#6606EF"/>
<path d="M32.8032 96.426C32.8032 96.5847 32.7425 96.72 32.6212 96.832C32.5092 96.944 32.3738 97 32.2152 97C32.0378 97 31.8978 96.944 31.7952 96.832C31.6925 96.72 31.6412 96.5847 31.6412 96.426V87.774C31.6412 87.606 31.6972 87.4707 31.8092 87.368C31.9212 87.256 32.0612 87.2 32.2292 87.2C32.3878 87.2 32.5232 87.256 32.6352 87.368C32.7472 87.4707 32.8032 87.606 32.8032 87.774V96.426ZM38.3022 97C38.1342 97 37.9942 96.944 37.8822 96.832C37.7702 96.72 37.7142 96.5847 37.7142 96.426V87.774H38.9042V96.426C38.9042 96.5847 38.8482 96.72 38.7362 96.832C38.6242 96.944 38.4796 97 38.3022 97ZM35.0542 88.264C34.8956 88.264 34.7602 88.2173 34.6482 88.124C34.5456 88.0213 34.4942 87.8907 34.4942 87.732C34.4942 87.5733 34.5456 87.4473 34.6482 87.354C34.7602 87.2513 34.8956 87.2 35.0542 87.2H41.5642C41.7229 87.2 41.8582 87.2513 41.9702 87.354C42.0822 87.4473 42.1382 87.5733 42.1382 87.732C42.1382 87.9 42.0822 88.0307 41.9702 88.124C41.8582 88.2173 41.7229 88.264 41.5642 88.264H35.0542Z" fill="#17171A"/>
</svg>
