<svg width="72" height="100" viewBox="0 0 72 100" fill="none" xmlns="http://www.w3.org/2000/svg">
<rect width="72" height="72" rx="36" fill="white"/>
<g clip-path="url(#clip0_24_1153)">
<path d="M36 26.7143V21" stroke="#6606EF" stroke-width="2" stroke-linecap="round" stroke-linejoin="round"/>
<path d="M51.7137 43.8577V42.4291C51.7137 38.2614 50.0581 34.2645 47.1111 31.3175C44.1641 28.3705 40.1671 26.7148 35.9994 26.7148C31.8318 26.7148 27.8348 28.3705 24.8878 31.3175C21.9408 34.2645 20.2852 38.2614 20.2852 42.4291V43.8577" fill="#7856FF" fill-opacity="0.15"/>
<path d="M56.1858 45.1439C56.3777 44.5025 55.8973 43.8574 55.2278 43.8574H16.7706C16.1011 43.8574 15.6207 44.5025 15.8125 45.1439L16.342 46.9146C16.6934 48.0962 17.4174 49.1325 18.406 49.8689C19.3947 50.6052 20.595 51.0021 21.8277 51.0003H50.1706C51.4033 51.0021 52.6036 50.6052 53.5923 49.8689C54.5809 49.1325 55.305 48.0962 55.6563 46.9146L56.1858 45.1439Z" fill="#6606EF"/>
</g>
<path d="M3.18328 87.2C3.34195 87.2 3.47728 87.256 3.58928 87.368C3.70128 87.4707 3.75728 87.606 3.75728 87.774V96.426C3.75728 96.5847 3.69661 96.72 3.57528 96.832C3.46328 96.944 3.32795 97 3.16928 97C2.99195 97 2.85195 96.944 2.74928 96.832C2.64661 96.72 2.59528 96.5847 2.59528 96.426V87.774C2.59528 87.606 2.65128 87.4707 2.76328 87.368C2.87528 87.256 3.01528 87.2 3.18328 87.2ZM9.63728 87.2C9.80528 87.2 9.94061 87.256 10.0433 87.368C10.1553 87.4707 10.2113 87.606 10.2113 87.774V96.426C10.2113 96.5847 10.1553 96.72 10.0433 96.832C9.93128 96.944 9.79128 97 9.62328 97C9.46461 97 9.32928 96.944 9.21728 96.832C9.10528 96.72 9.04928 96.5847 9.04928 96.426V87.774C9.04928 87.606 9.10528 87.4707 9.21728 87.368C9.33861 87.256 9.47861 87.2 9.63728 87.2ZM3.12728 91.47H9.65128L9.63728 92.562H3.08528L3.12728 91.47ZM19.3495 93.36C19.3495 94.088 19.1861 94.7367 18.8595 95.306C18.5421 95.8753 18.1081 96.3233 17.5575 96.65C17.0161 96.9767 16.4048 97.14 15.7235 97.14C15.0421 97.14 14.4261 96.9767 13.8755 96.65C13.3248 96.3233 12.8861 95.8753 12.5595 95.306C12.2421 94.7367 12.0835 94.088 12.0835 93.36C12.0835 92.632 12.2421 91.9833 12.5595 91.414C12.8861 90.8447 13.3248 90.3967 13.8755 90.07C14.4261 89.7433 15.0421 89.58 15.7235 89.58C16.4048 89.58 17.0161 89.7433 17.5575 90.07C18.1081 90.3967 18.5421 90.8447 18.8595 91.414C19.1861 91.9833 19.3495 92.632 19.3495 93.36ZM18.2295 93.36C18.2295 92.8187 18.1175 92.3427 17.8935 91.932C17.6788 91.5213 17.3801 91.1993 16.9975 90.966C16.6241 90.7327 16.1995 90.616 15.7235 90.616C15.2475 90.616 14.8181 90.7327 14.4355 90.966C14.0621 91.1993 13.7635 91.5213 13.5395 91.932C13.3155 92.3427 13.2035 92.8187 13.2035 93.36C13.2035 93.892 13.3155 94.3633 13.5395 94.774C13.7635 95.1847 14.0621 95.5113 14.4355 95.754C14.8181 95.9873 15.2475 96.104 15.7235 96.104C16.1995 96.104 16.6241 95.9873 16.9975 95.754C17.3801 95.5113 17.6788 95.1847 17.8935 94.774C18.1175 94.3633 18.2295 93.892 18.2295 93.36ZM20.628 95.852C20.544 95.7307 20.5067 95.6047 20.516 95.474C20.5254 95.334 20.6047 95.2127 20.754 95.11C20.8474 95.0447 20.9547 95.0167 21.076 95.026C21.2067 95.0353 21.3234 95.096 21.426 95.208C21.6874 95.516 21.986 95.7633 22.322 95.95C22.658 96.1273 23.0687 96.216 23.554 96.216C23.778 96.2067 24.002 96.1693 24.226 96.104C24.45 96.0387 24.6367 95.9267 24.786 95.768C24.9447 95.6 25.024 95.3807 25.024 95.11C25.024 94.8487 24.9447 94.6433 24.786 94.494C24.6274 94.3353 24.422 94.2093 24.17 94.116C23.918 94.0133 23.6427 93.9247 23.344 93.85C23.036 93.766 22.7327 93.6727 22.434 93.57C22.1354 93.458 21.8647 93.3227 21.622 93.164C21.3887 92.996 21.1974 92.7907 21.048 92.548C20.908 92.296 20.838 91.9927 20.838 91.638C20.838 91.218 20.95 90.854 21.174 90.546C21.4074 90.238 21.7154 90 22.098 89.832C22.49 89.664 22.9147 89.58 23.372 89.58C23.6334 89.58 23.904 89.6127 24.184 89.678C24.4734 89.734 24.7534 89.8367 25.024 89.986C25.2947 90.126 25.5327 90.322 25.738 90.574C25.822 90.6673 25.8687 90.784 25.878 90.924C25.8874 91.064 25.8267 91.19 25.696 91.302C25.5934 91.3767 25.4767 91.4093 25.346 91.4C25.2247 91.3907 25.122 91.344 25.038 91.26C24.842 91.0267 24.5947 90.8493 24.296 90.728C24.0067 90.5973 23.6847 90.532 23.33 90.532C23.106 90.532 22.8867 90.5647 22.672 90.63C22.4574 90.6953 22.2754 90.8073 22.126 90.966C21.986 91.1153 21.916 91.3253 21.916 91.596C21.9254 91.848 22.0094 92.0533 22.168 92.212C22.3267 92.3707 22.5414 92.5013 22.812 92.604C23.0827 92.6973 23.3814 92.7907 23.708 92.884C24.0067 92.9587 24.2914 93.0473 24.562 93.15C24.842 93.2433 25.094 93.3693 25.318 93.528C25.542 93.6867 25.7194 93.892 25.85 94.144C25.9807 94.3867 26.046 94.6947 26.046 95.068C26.046 95.4973 25.9247 95.8707 25.682 96.188C25.4394 96.496 25.1174 96.734 24.716 96.902C24.324 97.0607 23.8994 97.14 23.442 97.14C22.9287 97.14 22.42 97.042 21.916 96.846C21.4214 96.65 20.992 96.3187 20.628 95.852ZM31.2349 89.65C31.8696 89.65 32.4389 89.8087 32.9429 90.126C33.4469 90.4433 33.8436 90.882 34.1329 91.442C34.4316 92.002 34.5809 92.646 34.5809 93.374C34.5809 94.0927 34.4316 94.7367 34.1329 95.306C33.8436 95.866 33.4469 96.3093 32.9429 96.636C32.4482 96.9533 31.8882 97.112 31.2629 97.112C30.9176 97.112 30.5909 97.0607 30.2829 96.958C29.9842 96.846 29.7089 96.706 29.4569 96.538C29.2142 96.3607 29.0089 96.1647 28.8409 95.95C28.6729 95.726 28.5516 95.5067 28.4769 95.292L28.7849 95.096V99.226C28.7849 99.3847 28.7336 99.52 28.6309 99.632C28.5282 99.744 28.3929 99.8 28.2249 99.8C28.0662 99.8 27.9309 99.744 27.8189 99.632C27.7162 99.5293 27.6649 99.394 27.6649 99.226V90.28C27.6649 90.1213 27.7162 89.9907 27.8189 89.888C27.9309 89.776 28.0662 89.72 28.2249 89.72C28.3929 89.72 28.5282 89.776 28.6309 89.888C28.7336 89.9907 28.7849 90.1213 28.7849 90.28V91.526L28.5749 91.414C28.6402 91.1807 28.7522 90.9567 28.9109 90.742C29.0789 90.5273 29.2796 90.3407 29.5129 90.182C29.7556 90.014 30.0216 89.8833 30.3109 89.79C30.6096 89.6967 30.9176 89.65 31.2349 89.65ZM31.1089 90.686C30.6422 90.686 30.2269 90.8027 29.8629 91.036C29.5082 91.2693 29.2282 91.5867 29.0229 91.988C28.8269 92.3893 28.7289 92.8513 28.7289 93.374C28.7289 93.8873 28.8269 94.3493 29.0229 94.76C29.2282 95.1707 29.5082 95.4927 29.8629 95.726C30.2269 95.9593 30.6422 96.076 31.1089 96.076C31.5756 96.076 31.9862 95.9593 32.3409 95.726C32.6956 95.4927 32.9756 95.1707 33.1809 94.76C33.3862 94.3493 33.4889 93.8873 33.4889 93.374C33.4889 92.8513 33.3862 92.3893 33.1809 91.988C32.9756 91.5867 32.6956 91.2693 32.3409 91.036C31.9862 90.8027 31.5756 90.686 31.1089 90.686ZM37.3425 96.426C37.3425 96.5847 37.2865 96.72 37.1745 96.832C37.0718 96.944 36.9412 97 36.7825 97C36.6145 97 36.4792 96.944 36.3765 96.832C36.2738 96.72 36.2225 96.5847 36.2225 96.426V90.21C36.2225 90.0513 36.2738 89.9207 36.3765 89.818C36.4885 89.706 36.6238 89.65 36.7825 89.65C36.9412 89.65 37.0718 89.706 37.1745 89.818C37.2865 89.9207 37.3425 90.0513 37.3425 90.21V96.426ZM36.7825 88.712C36.5492 88.712 36.3765 88.6653 36.2645 88.572C36.1525 88.4787 36.0965 88.334 36.0965 88.138V87.942C36.0965 87.746 36.1572 87.6013 36.2785 87.508C36.3998 87.4147 36.5725 87.368 36.7965 87.368C37.0205 87.368 37.1885 87.4147 37.3005 87.508C37.4125 87.6013 37.4685 87.746 37.4685 87.942V88.138C37.4685 88.334 37.4078 88.4787 37.2865 88.572C37.1745 88.6653 37.0065 88.712 36.7825 88.712ZM39.0744 89.804H42.3644C42.5137 89.804 42.635 89.8553 42.7284 89.958C42.831 90.0607 42.8824 90.182 42.8824 90.322C42.8824 90.4713 42.831 90.5973 42.7284 90.7C42.635 90.7933 42.5137 90.84 42.3644 90.84H39.0744C38.9344 90.84 38.813 90.7887 38.7104 90.686C38.6077 90.5833 38.5564 90.4573 38.5564 90.308C38.5564 90.168 38.6077 90.0513 38.7104 89.958C38.813 89.8553 38.9344 89.804 39.0744 89.804ZM40.5444 87.9C40.703 87.9 40.8337 87.956 40.9364 88.068C41.039 88.1707 41.0904 88.3013 41.0904 88.46V95.222C41.0904 95.446 41.123 95.614 41.1884 95.726C41.2537 95.838 41.3377 95.9173 41.4404 95.964C41.5524 96.0013 41.6597 96.02 41.7624 96.02C41.8557 96.02 41.935 96.006 42.0004 95.978C42.075 95.9407 42.159 95.922 42.2524 95.922C42.3457 95.922 42.4297 95.9687 42.5044 96.062C42.5884 96.146 42.6304 96.258 42.6304 96.398C42.6304 96.566 42.5324 96.7107 42.3364 96.832C42.1404 96.944 41.921 97 41.6784 97C41.5477 97 41.3844 96.9907 41.1884 96.972C41.0017 96.9533 40.815 96.8927 40.6284 96.79C40.4417 96.6873 40.283 96.5193 40.1524 96.286C40.031 96.0433 39.9704 95.7073 39.9704 95.278V88.46C39.9704 88.3013 40.0264 88.1707 40.1384 88.068C40.2504 87.956 40.3857 87.9 40.5444 87.9ZM50.4043 89.692C50.563 89.692 50.6936 89.748 50.7963 89.86C50.9083 89.9627 50.9643 90.0933 50.9643 90.252V96.426C50.9643 96.5847 50.9083 96.72 50.7963 96.832C50.6936 96.944 50.563 97 50.4043 97C50.2363 97 50.101 96.944 49.9983 96.832C49.8956 96.72 49.8443 96.5847 49.8443 96.426V95.096L50.1103 95.068C50.1103 95.2733 50.0403 95.4973 49.9003 95.74C49.7603 95.9827 49.569 96.2113 49.3263 96.426C49.0836 96.6313 48.7943 96.804 48.4583 96.944C48.1316 97.0747 47.777 97.14 47.3943 97.14C46.7596 97.14 46.1903 96.9767 45.6863 96.65C45.1823 96.314 44.781 95.8613 44.4823 95.292C44.193 94.7227 44.0483 94.074 44.0483 93.346C44.0483 92.6087 44.193 91.96 44.4823 91.4C44.781 90.8307 45.1823 90.3873 45.6863 90.07C46.1903 89.7433 46.7503 89.58 47.3663 89.58C47.7676 89.58 48.141 89.6453 48.4863 89.776C48.8316 89.9067 49.1303 90.084 49.3823 90.308C49.6436 90.532 49.8443 90.7793 49.9843 91.05C50.1336 91.3207 50.2083 91.5913 50.2083 91.862L49.8443 91.778V90.252C49.8443 90.0933 49.8956 89.9627 49.9983 89.86C50.101 89.748 50.2363 89.692 50.4043 89.692ZM47.5203 96.104C47.987 96.104 48.3976 95.9827 48.7523 95.74C49.1163 95.4973 49.3963 95.1707 49.5923 94.76C49.7976 94.34 49.9003 93.8687 49.9003 93.346C49.9003 92.8327 49.7976 92.3707 49.5923 91.96C49.3963 91.54 49.1163 91.2133 48.7523 90.98C48.3976 90.7373 47.987 90.616 47.5203 90.616C47.063 90.616 46.6523 90.7327 46.2883 90.966C45.9336 91.1993 45.6536 91.5213 45.4483 91.932C45.243 92.3427 45.1403 92.814 45.1403 93.346C45.1403 93.8687 45.2383 94.34 45.4343 94.76C45.6396 95.1707 45.9196 95.4973 46.2743 95.74C46.6383 95.9827 47.0536 96.104 47.5203 96.104ZM54.2719 96.426C54.2719 96.5847 54.2159 96.72 54.1039 96.832C53.9919 96.944 53.8566 97 53.6979 97C53.5392 97 53.4086 96.944 53.3059 96.832C53.2032 96.72 53.1519 96.5847 53.1519 96.426V87.2C53.1519 87.0413 53.2032 86.9107 53.3059 86.808C53.4179 86.696 53.5532 86.64 53.7119 86.64C53.8799 86.64 54.0152 86.696 54.1179 86.808C54.2206 86.9107 54.2719 87.0413 54.2719 87.2V96.426ZM57.5222 96.426C57.5222 96.5847 57.4662 96.72 57.3542 96.832C57.2515 96.944 57.1209 97 56.9622 97C56.7942 97 56.6589 96.944 56.5562 96.832C56.4535 96.72 56.4022 96.5847 56.4022 96.426V90.21C56.4022 90.0513 56.4535 89.9207 56.5562 89.818C56.6682 89.706 56.8035 89.65 56.9622 89.65C57.1209 89.65 57.2515 89.706 57.3542 89.818C57.4662 89.9207 57.5222 90.0513 57.5222 90.21V96.426ZM56.9622 88.712C56.7289 88.712 56.5562 88.6653 56.4442 88.572C56.3322 88.4787 56.2762 88.334 56.2762 88.138V87.942C56.2762 87.746 56.3369 87.6013 56.4582 87.508C56.5795 87.4147 56.7522 87.368 56.9762 87.368C57.2002 87.368 57.3682 87.4147 57.4802 87.508C57.5922 87.6013 57.6482 87.746 57.6482 87.942V88.138C57.6482 88.334 57.5875 88.4787 57.4662 88.572C57.3542 88.6653 57.1862 88.712 56.9622 88.712ZM59.254 89.804H62.544C62.6934 89.804 62.8147 89.8553 62.908 89.958C63.0107 90.0607 63.062 90.182 63.062 90.322C63.062 90.4713 63.0107 90.5973 62.908 90.7C62.8147 90.7933 62.6934 90.84 62.544 90.84H59.254C59.114 90.84 58.9927 90.7887 58.89 90.686C58.7874 90.5833 58.736 90.4573 58.736 90.308C58.736 90.168 58.7874 90.0513 58.89 89.958C58.9927 89.8553 59.114 89.804 59.254 89.804ZM60.724 87.9C60.8827 87.9 61.0134 87.956 61.116 88.068C61.2187 88.1707 61.27 88.3013 61.27 88.46V95.222C61.27 95.446 61.3027 95.614 61.368 95.726C61.4334 95.838 61.5174 95.9173 61.62 95.964C61.732 96.0013 61.8394 96.02 61.942 96.02C62.0354 96.02 62.1147 96.006 62.18 95.978C62.2547 95.9407 62.3387 95.922 62.432 95.922C62.5254 95.922 62.6094 95.9687 62.684 96.062C62.768 96.146 62.81 96.258 62.81 96.398C62.81 96.566 62.712 96.7107 62.516 96.832C62.32 96.944 62.1007 97 61.858 97C61.7274 97 61.564 96.9907 61.368 96.972C61.1814 96.9533 60.9947 96.8927 60.808 96.79C60.6214 96.6873 60.4627 96.5193 60.332 96.286C60.2107 96.0433 60.15 95.7073 60.15 95.278V88.46C60.15 88.3013 60.206 88.1707 60.318 88.068C60.43 87.956 60.5654 87.9 60.724 87.9ZM70.038 89.65C70.1967 89.65 70.3273 89.706 70.43 89.818C70.542 89.9207 70.598 90.0513 70.598 90.21V96.314C70.598 97.098 70.444 97.7467 70.136 98.26C69.828 98.7827 69.4127 99.17 68.89 99.422C68.3767 99.674 67.7933 99.8 67.14 99.8C66.776 99.8 66.426 99.7627 66.09 99.688C65.754 99.6133 65.4787 99.5153 65.264 99.394C65.0867 99.31 64.9607 99.2027 64.886 99.072C64.8207 98.9507 64.8113 98.82 64.858 98.68C64.9233 98.512 65.0167 98.3953 65.138 98.33C65.2687 98.2647 65.404 98.2647 65.544 98.33C65.6933 98.3953 65.908 98.484 66.188 98.596C66.4773 98.7173 66.7993 98.778 67.154 98.778C67.6393 98.778 68.0547 98.6847 68.4 98.498C68.7453 98.3113 69.0113 98.036 69.198 97.672C69.3847 97.3173 69.478 96.874 69.478 96.342V95.348L69.646 95.698C69.4967 95.9873 69.296 96.2393 69.044 96.454C68.792 96.6687 68.5027 96.8367 68.176 96.958C67.8493 97.0793 67.49 97.14 67.098 97.14C66.566 97.14 66.1133 97.028 65.74 96.804C65.376 96.5707 65.096 96.2533 64.9 95.852C64.7133 95.4413 64.62 94.97 64.62 94.438V90.21C64.62 90.0513 64.6713 89.9207 64.774 89.818C64.886 89.706 65.0213 89.65 65.18 89.65C65.348 89.65 65.4833 89.706 65.586 89.818C65.6887 89.9207 65.74 90.0513 65.74 90.21V94.186C65.74 94.8207 65.88 95.3013 66.16 95.628C66.44 95.9453 66.874 96.104 67.462 96.104C67.8353 96.104 68.1713 96.02 68.47 95.852C68.778 95.684 69.0207 95.4553 69.198 95.166C69.3847 94.8673 69.478 94.5407 69.478 94.186V90.21C69.478 90.0513 69.5293 89.9207 69.632 89.818C69.7347 89.706 69.87 89.65 70.038 89.65Z" fill="#17171A"/>
<defs>
<clipPath id="clip0_24_1153">
<rect width="40" height="40" fill="white" transform="translate(16 16)"/>
</clipPath>
</defs>
</svg>
