<svg width="58" height="56" viewBox="0 0 58 56" fill="none" xmlns="http://www.w3.org/2000/svg">
<g clip-path="url(#clip0_67_4388)">
<path d="M57.3184 12.6699C55.9418 14.0473 54.5715 15.43 53.1852 16.7968C53.0111 16.9756 52.7748 17.0807 52.5254 17.0902C52.2759 17.0998 52.0324 17.0131 51.845 16.8481C51.1454 17.602 50.6039 18.4885 50.2527 19.4552C50.193 19.6842 50.1948 19.925 50.258 20.1531C50.4587 20.881 50.4664 21.6486 50.2802 22.3803C50.0941 23.112 49.7206 23.7826 49.1964 24.326C47.5324 26.1281 45.871 27.931 44.1946 29.7224C43.5053 30.4925 42.5805 31.0129 41.5645 31.2024C41.1364 31.2776 41.0833 31.4678 41.085 31.8296C41.0957 35.2187 41.0727 38.6078 41.0983 41.9969C41.1433 42.945 40.9621 43.8903 40.5698 44.7546C40.1774 45.6189 39.585 46.3775 38.8416 46.9677C38.4806 47.2605 38.1746 47.6224 37.8012 47.8939C37.5687 48.0474 37.3958 48.2759 37.3115 48.5414C37.2271 48.8069 37.2363 49.0933 37.3377 49.3527C37.5942 49.3527 37.8685 49.3404 38.1418 49.3527C38.2781 49.3419 38.4152 49.3604 38.5438 49.4069C38.6724 49.4534 38.7895 49.5269 38.8874 49.6224C38.9852 49.718 39.0615 49.8333 39.1112 49.9607C39.1608 50.0882 39.1826 50.2247 39.1751 50.3612C39.1969 51.8976 39.1969 53.4345 39.1751 54.972C39.1826 55.1038 39.163 55.2357 39.1173 55.3595C39.0716 55.4833 39.0009 55.5964 38.9096 55.6917C38.8183 55.7869 38.7084 55.8624 38.5866 55.9133C38.4649 55.9642 38.3339 55.9895 38.202 55.9876C38.0345 56.0001 37.8665 56.0034 37.6986 55.9973C31.9909 55.9973 26.2834 55.9973 20.5762 55.9973C19.3908 55.9973 19.1263 55.7319 19.1254 54.566C19.1254 53.2514 19.1254 51.9368 19.1254 50.6213C19.1254 49.6615 19.435 49.3572 20.3913 49.3492C20.5922 49.3492 20.793 49.3492 21.0106 49.3492C21.0346 48.8373 20.9085 48.3295 20.6477 47.8884C20.387 47.4472 20.003 47.0918 19.543 46.866C18.8096 46.4546 18.2043 45.8484 17.794 45.1144C17.3789 44.3452 17.177 43.479 17.2093 42.6055C17.2172 40.4204 17.227 38.2345 17.1951 36.0494C17.1783 35.7118 17.0451 35.3905 16.8182 35.14C14.3524 32.5869 11.8713 30.0488 9.37483 27.5258C8.53947 26.7665 7.93856 25.7843 7.64295 24.6948C7.34735 23.6053 7.36936 22.454 7.70638 21.3766C7.96192 20.8263 8.08058 20.2223 8.05227 19.6162C7.90631 19.0987 7.25609 18.7227 6.83854 18.2804C6.54395 17.9716 6.2591 17.654 5.95389 17.3188C5.74423 17.5072 5.60003 17.6461 5.44964 17.7699C5.27498 17.9443 5.03827 18.0423 4.79147 18.0423C4.54466 18.0423 4.30794 17.9443 4.13329 17.7699C2.8358 16.5172 1.55689 15.2472 0.296563 13.9597C0.202599 13.8737 0.128052 13.7686 0.0778711 13.6515C0.0276907 13.5344 0.00303437 13.4079 0.00554531 13.2805C0.00805625 13.1531 0.0376661 13.0277 0.0924227 12.9127C0.147179 12.7976 0.22582 12.6956 0.323101 12.6133C0.431913 12.4868 0.556657 12.3745 0.676969 12.2595C4.56942 8.3959 8.46187 4.53293 12.3543 0.670559C12.6291 0.428879 12.919 0.20491 13.2222 0H13.5583C13.7797 0.129195 13.9895 0.277181 14.1855 0.442324C15.3816 1.61183 16.5697 2.78898 17.7498 3.97382C17.8797 4.06206 17.986 4.18076 18.0595 4.31954C18.133 4.45832 18.1715 4.61298 18.1715 4.77002C18.1715 4.92706 18.133 5.08172 18.0595 5.2205C17.986 5.35928 17.8797 5.47796 17.7498 5.5662C17.3853 5.92625 16.9722 6.23854 16.4971 6.64283L17.0943 7.11255L17.2588 7.23817C18.1003 6.7448 19.0795 6.53842 20.0485 6.65011C21.0176 6.76181 21.9241 7.18555 22.6313 7.85743C23.7645 8.8447 24.7969 9.94697 25.87 11.0024C26.4768 11.5995 27.0766 12.2037 27.7003 12.8256C28.9636 11.3633 30.1924 9.94787 31.4159 8.52624C32.0041 7.78582 32.7707 7.20689 33.6439 6.84374C34.517 6.48059 35.4681 6.34508 36.4079 6.44996C37.327 6.53842 38.2259 6.82858 39.1388 7.00551C39.3238 7.05218 39.5196 7.02855 39.6882 6.93917C40.1394 6.58532 40.5534 6.19076 40.9621 5.82894C40.2207 4.79567 40.234 4.59042 41.0134 3.75001C41.9759 2.71762 42.9331 1.67906 43.9142 0.663486C44.1877 0.42112 44.4806 0.201578 44.7899 0.0070733H45.0138C45.3286 0.19379 45.6275 0.406229 45.9073 0.642239C49.5113 4.20501 53.1089 7.77488 56.7 11.3518C56.923 11.5969 57.1326 11.8538 57.3281 12.1214L57.3184 12.6699ZM35.3596 33.2132V32.5055C35.3596 28.4868 35.3596 24.4679 35.3596 20.4486C35.3596 19.3366 34.7403 18.5679 33.8831 18.5705C33.0259 18.5732 32.4809 19.2995 32.4809 20.4283C32.4809 24.4658 32.4809 28.5034 32.4809 32.5409V33.184H30.5728V32.4763C30.5728 27.5683 30.5728 22.6599 30.5728 17.7513C30.5842 17.4741 30.5652 17.1964 30.5161 16.9233C30.4708 16.6754 30.3601 16.444 30.1955 16.2532C30.0308 16.0624 29.8182 15.919 29.5796 15.8378C29.341 15.7566 29.085 15.7406 28.8381 15.7915C28.5913 15.8424 28.3625 15.9582 28.1754 16.1271C27.9991 16.3179 27.8664 16.5447 27.7865 16.7919C27.7066 17.0391 27.6814 17.3006 27.7127 17.5585C27.7186 22.5408 27.7186 27.5229 27.7127 32.5046V33.1973H25.7957V32.5055C25.7957 28.1902 25.7957 23.8749 25.7957 19.5596C25.8024 19.3188 25.7926 19.078 25.7665 18.8386C25.7409 18.6304 25.6674 18.431 25.5518 18.256C25.4361 18.081 25.2815 17.9352 25.1001 17.83C24.9186 17.7249 24.7152 17.6632 24.5059 17.6498C24.2966 17.6365 24.087 17.6718 23.8937 17.7531C23.5666 17.8911 23.2951 18.1344 23.1221 18.4444C22.9492 18.7544 22.8848 19.1132 22.9391 19.464C22.9462 25.0762 22.9462 30.6881 22.9391 36.2998V36.9765H21.0097V31.1378C20.4386 31.3176 19.9436 31.6821 19.6024 32.1741C19.2613 32.6661 19.0935 33.2576 19.1254 33.8555C19.113 36.6704 19.159 39.4863 19.1051 42.3003C19.0491 42.9396 19.1845 43.5812 19.494 44.1434C19.8035 44.7056 20.2732 45.163 20.8434 45.4576C21.3949 45.7719 21.8654 46.2106 22.2174 46.7387C22.5694 47.2669 22.7932 47.87 22.871 48.4999C22.9135 48.7653 22.9391 49.0405 22.971 49.2961H35.3561C35.3699 49.0412 35.3699 48.7858 35.3561 48.5309C35.312 48.2182 35.3555 47.8993 35.4817 47.6098C35.6079 47.3203 35.8118 47.0714 36.0709 46.8908C36.6494 46.4254 37.1616 45.8796 37.7269 45.3975C38.2032 44.9956 38.5814 44.4904 38.8328 43.9203C39.0842 43.3501 39.2022 42.7301 39.1777 42.1075C39.1777 37.5144 39.1763 32.921 39.1733 28.3273C39.1812 27.9758 39.1395 27.625 39.0495 27.2852C38.9289 26.8447 38.7001 26.4414 38.3838 26.1119C38.0675 25.7825 37.6738 25.5375 37.2386 25.3991V33.2132H35.3596ZM21.0283 29.0899V28.36C21.0283 25.3611 21.0371 22.3612 21.0283 19.3623C20.9881 18.7093 21.1368 18.0585 21.4567 17.4877C21.7766 16.917 22.2541 16.4505 22.8321 16.1439C23.3022 15.8829 23.8295 15.7419 24.3672 15.7336C24.9048 15.7252 25.4362 15.8498 25.9142 16.0962L26.7989 14.7294C24.9915 12.9035 23.2222 11.0484 21.3715 9.27641C20.9102 8.83916 20.3029 8.58874 19.6675 8.5737C19.032 8.55866 18.4135 8.78007 17.932 9.19502C17.8294 9.2984 17.7058 9.37866 17.5696 9.43041C17.4334 9.48216 17.2877 9.50422 17.1423 9.49509C16.9969 9.48596 16.8551 9.44584 16.7264 9.37746C16.5978 9.30908 16.4852 9.214 16.3963 9.09858C16.0309 8.74472 15.6939 8.35461 15.4081 8.04852L7.31271 16.0855C8.09031 16.8543 8.90065 17.67 9.72779 18.467C9.90689 18.6146 10.0374 18.8127 10.1024 19.0354C10.1674 19.2582 10.1639 19.4954 10.0923 19.7161C9.88173 20.4637 9.72072 21.2201 9.51902 21.9747C9.2976 22.6965 9.2852 23.4664 9.48325 24.195C9.68131 24.9237 10.0817 25.5813 10.6381 26.0918C12.7046 28.1769 14.7473 30.2859 16.8006 32.3834C16.9386 32.5241 17.0863 32.655 17.2792 32.8381C17.4804 31.9198 17.9409 31.0786 18.6061 30.4143C19.2713 29.75 20.1132 29.2907 21.0318 29.0908L21.0283 29.0899ZM50.4243 15.3973L42.2377 7.0409C41.6547 7.63715 41.124 8.18209 40.5905 8.72173C40.4479 8.88243 40.2612 8.99771 40.0536 9.05323C39.846 9.10874 39.6266 9.10205 39.4228 9.03401C38.5806 8.80134 37.7296 8.59168 36.8759 8.40856C36.1603 8.21598 35.4043 8.23501 34.6993 8.46331C33.9943 8.6916 33.3707 9.11937 32.9038 9.69485C31.8593 10.9015 30.8146 12.1088 29.7695 13.3166C29.6412 13.4643 29.5192 13.6183 29.3564 13.8164C30.1425 13.8987 30.8778 14.2439 31.4434 14.796C32.009 15.3481 32.3717 16.0748 32.473 16.8587C33.084 16.7494 33.7052 16.7075 34.3254 16.734C35.1645 16.8453 35.9316 17.2667 36.4755 17.9152C37.0194 18.5638 37.3008 19.3924 37.2643 20.2381C37.2828 21.2899 37.2643 22.3436 37.2643 23.3857C40.2783 24.2924 41.2965 26.4297 41.139 29.4083C41.6819 29.2202 42.1855 28.9335 42.6243 28.5626C44.4087 26.6978 46.1488 24.7923 47.8871 22.885C48.1502 22.6064 48.3359 22.264 48.4259 21.8916C48.5159 21.5192 48.507 21.1297 48.4002 20.7618C48.2767 20.3142 48.2433 19.8466 48.3019 19.386C48.3605 18.9254 48.51 18.481 48.7417 18.0786C49.2557 17.1834 49.8404 16.3288 50.4278 15.3982L50.4243 15.3973ZM15.7027 4.78152L13.3389 2.43011L2.4445 13.252L4.81446 15.6016L15.7027 4.78152ZM54.8926 12.3408L44.8713 2.39032L42.6597 4.74967L52.4846 14.7825L54.8926 12.3408ZM37.2563 51.2795H21.0752V54.052H37.2563V51.2795Z" fill="black"/>
<path d="M35.3596 33.2136H37.2386V25.4048C37.6738 25.5432 38.0676 25.7882 38.3838 26.1177C38.7001 26.4471 38.929 26.8504 39.0495 27.2909C39.1395 27.6307 39.1812 27.9815 39.1734 28.333C39.1816 32.9261 39.1831 37.5195 39.1778 42.1132C39.2023 42.7358 39.0843 43.3558 38.8329 43.926C38.5814 44.4961 38.2032 45.0014 37.7269 45.4032C37.1617 45.8853 36.6495 46.4311 36.0709 46.8965C35.8119 47.0771 35.6079 47.326 35.4817 47.6155C35.3556 47.9051 35.3121 48.2239 35.3561 48.5366C35.37 48.7915 35.37 49.0469 35.3561 49.3018H22.971C22.9392 49.0417 22.9135 48.771 22.8711 48.5056C22.7933 47.8757 22.5695 47.2726 22.2174 46.7444C21.8654 46.2162 21.3949 45.7776 20.8434 45.4633C20.2733 45.1688 19.8036 44.7113 19.494 44.1491C19.1845 43.5869 19.0491 42.9454 19.1051 42.306C19.1591 39.492 19.1131 36.6761 19.1255 33.8612C19.0935 33.2633 19.2613 32.6718 19.6025 32.1798C19.9436 31.6878 20.4387 31.3233 21.0098 31.1435V36.9822H22.9392V36.3055C22.9392 30.6933 22.9392 25.0813 22.9392 19.4697C22.8848 19.1189 22.9492 18.7601 23.1222 18.4501C23.2951 18.1401 23.5667 17.8968 23.8937 17.7588C24.0871 17.6775 24.2966 17.6422 24.5059 17.6555C24.7153 17.6689 24.9186 17.7305 25.1001 17.8357C25.2816 17.9409 25.4362 18.0867 25.5518 18.2617C25.6674 18.4367 25.7409 18.6361 25.7665 18.8443C25.7926 19.0837 25.8024 19.3246 25.7957 19.5653C25.7957 23.8806 25.7957 28.1959 25.7957 32.5112V33.1986H27.7127V32.5059C27.7127 27.5236 27.7127 22.5415 27.7127 17.5598C27.6815 17.3019 27.7067 17.0403 27.7866 16.7932C27.8665 16.546 27.9991 16.3192 28.1754 16.1284C28.3625 15.9595 28.5913 15.8437 28.8382 15.7928C29.085 15.7419 29.341 15.7579 29.5796 15.8391C29.8182 15.9202 30.0309 16.0636 30.1955 16.2545C30.3602 16.4453 30.4709 16.6766 30.5162 16.9246C30.5652 17.1977 30.5842 17.4754 30.5728 17.7526C30.5764 22.6606 30.5764 27.569 30.5728 32.4776V33.1853H32.481V32.5422C32.481 28.5046 32.481 24.4671 32.481 20.4296C32.481 19.3034 33.0303 18.578 33.8831 18.5718C34.7359 18.5656 35.3587 19.3379 35.3596 20.4499C35.3649 24.4686 35.3649 28.4875 35.3596 32.5068V33.2136Z" fill="#EFD5BB"/>
<path d="M21.0317 29.0902C20.1132 29.2903 19.2714 29.7499 18.6063 30.4143C17.9413 31.0787 17.4809 31.9201 17.2799 32.8384C17.0871 32.6553 16.9393 32.5244 16.8013 32.3837C14.7481 30.2862 12.7054 28.1772 10.6389 26.0921C10.0825 25.5816 9.68206 24.924 9.48401 24.1953C9.28595 23.4667 9.29835 22.6968 9.51978 21.9749C9.72148 21.2248 9.88249 20.464 10.093 19.7164C10.1647 19.4957 10.1682 19.2585 10.1032 19.0357C10.0382 18.813 9.90765 18.6149 9.72856 18.4673C8.90142 17.6711 8.09108 16.8546 7.31348 16.0858L15.4089 8.04883C15.6946 8.35492 16.0281 8.74061 16.397 9.09889C16.486 9.21431 16.5985 9.30939 16.7272 9.37777C16.8558 9.44615 16.9976 9.48624 17.1431 9.49537C17.2885 9.5045 17.4342 9.48246 17.5704 9.43071C17.7066 9.37896 17.8301 9.29871 17.9328 9.19532C18.4143 8.78038 19.0327 8.55897 19.6682 8.57401C20.3037 8.58904 20.9109 8.83946 21.3723 9.27672C23.223 11.046 24.9923 12.9038 26.7996 14.7297L25.915 16.0965C25.437 15.8501 24.9056 15.7256 24.3679 15.7339C23.8303 15.7422 23.303 15.8832 22.8329 16.1442C22.2548 16.4508 21.7773 16.9173 21.4575 17.488C21.1376 18.0587 20.9888 18.7096 21.0291 19.3626C21.0414 22.3616 21.0291 25.3614 21.0291 28.3603L21.0317 29.0902Z" fill="#DBBE9E"/>
<path d="M50.428 15.3976C49.8406 16.3282 49.2558 17.1828 48.7471 18.0807C48.5154 18.4831 48.366 18.9275 48.3073 19.3881C48.2487 19.8486 48.2821 20.3163 48.4056 20.7639C48.5125 21.1318 48.5213 21.5213 48.4313 21.8937C48.3413 22.2661 48.1556 22.6085 47.8926 22.887C46.1542 24.7943 44.4141 26.6999 42.6298 28.5647C42.1909 28.9356 41.6874 29.2223 41.1444 29.4104C41.3019 26.4318 40.2837 24.2945 37.2697 23.3877C37.2697 22.3456 37.2856 21.292 37.2697 20.2401C37.3062 19.3945 37.0248 18.5658 36.4809 17.9173C35.937 17.2688 35.17 16.8473 34.3309 16.7361C33.7107 16.7096 33.0895 16.7515 32.4784 16.8608C32.3772 16.0769 32.0144 15.3501 31.4488 14.798C30.8833 14.2459 30.1479 13.9008 29.3618 13.8185C29.5246 13.6204 29.6467 13.4647 29.775 13.3187C30.8188 12.1103 31.8636 10.903 32.9093 9.69691C33.3761 9.12144 33.9998 8.69367 34.7047 8.46538C35.4097 8.23708 36.1658 8.21808 36.8813 8.41065C37.735 8.59731 38.586 8.80344 39.4282 9.0361C39.6321 9.10415 39.8514 9.11081 40.059 9.05529C40.2666 8.99978 40.4533 8.88453 40.596 8.72382C41.1268 8.18242 41.6575 7.63745 42.2432 7.04297L50.428 15.3976Z" fill="#C6A283"/>
<path d="M15.7065 4.78498L4.81822 15.6078L2.44824 13.2581L13.3445 2.43359L15.7065 4.78498Z" fill="#31C988"/>
<path d="M54.8997 12.345L52.4944 14.7867L42.6694 4.75388L44.8811 2.39453L54.8997 12.345Z" fill="#4EA3CE"/>
<path d="M37.2563 51.2793V54.0518H21.0752V51.2793H37.2563Z" fill="#FEB756"/>
</g>
<defs>
<clipPath id="clip0_67_4388">
<rect width="57.3181" height="56" fill="white"/>
</clipPath>
</defs>
</svg>
