<svg width="46" height="56" viewBox="0 0 46 56" fill="none" xmlns="http://www.w3.org/2000/svg">
<g clip-path="url(#clip0_67_4397)">
<path d="M45.0246 24.5971C43.593 23.4719 41.6403 22.2987 39.2037 23.1734C39.2417 23.1018 39.2818 23.0303 39.3211 22.9544C39.4575 22.7163 39.5755 22.4682 39.674 22.2121C39.7388 22.0285 39.842 21.8609 39.9768 21.7204C40.1116 21.5799 40.2749 21.4698 40.4557 21.3975C41.2252 21.0791 41.8679 20.5152 42.2837 19.7936C42.6995 19.072 42.8651 18.2332 42.7548 17.4077C42.567 16.0216 42.0033 14.7134 41.1249 13.6248C41.0873 13.5668 41.0382 13.5172 40.9806 13.4792C40.9229 13.4411 40.858 13.4154 40.7899 13.4036C40.7063 13.3997 40.6228 13.4126 40.5442 13.4415C40.4657 13.4704 40.3937 13.5147 40.3325 13.5718C39.5336 14.1988 38.8662 14.9771 38.3684 15.8623C37.9475 16.5933 37.7168 17.4183 37.6977 18.2617C37.697 19.3821 38.0813 20.4688 38.7864 21.3396C38.8351 21.3895 38.8655 21.4544 38.8727 21.5238C38.8798 21.5932 38.8633 21.663 38.8258 21.7218C38.6037 22.1984 38.3512 22.6604 38.0699 23.1047C37.8347 23.4744 37.5732 23.8268 37.2876 24.1591C37.2876 24.1083 37.2876 24.066 37.2876 24.0238C37.2668 23.3672 37.0748 22.7274 36.7307 22.1678C36.2799 21.5065 35.695 20.9476 35.014 20.5273C34.333 20.1071 33.5712 19.8348 32.7781 19.7283C32.7165 19.7134 32.6525 19.7112 32.5901 19.7221C32.5276 19.7329 32.4681 19.7565 32.4152 19.7913C32.3552 19.8382 32.3056 19.897 32.2695 19.9641C32.2334 20.0311 32.2116 20.1048 32.2054 20.1807C31.9876 21.4116 32.0992 22.6782 32.529 23.852C32.7046 24.356 33.0089 24.8053 33.4117 25.1555C33.8144 25.5056 34.3017 25.7445 34.8252 25.8483C35.0045 25.8843 35.1857 25.9106 35.3678 25.9271C35.3972 25.9271 35.4272 25.9328 35.458 25.9364C34.4786 26.6989 33.4155 27.3473 32.2892 27.869C32.2513 27.8883 32.2283 27.8941 32.2226 27.8984C32.2173 27.8722 32.2156 27.8455 32.2176 27.8189C32.2505 27.2602 32.201 26.6997 32.0709 26.1554C31.8539 25.2921 31.4166 24.4997 30.8019 23.8559C30.1871 23.212 29.4159 22.7386 28.5635 22.482C27.044 22.0046 25.4606 21.7616 23.8679 21.7612C23.6739 21.7548 23.6431 21.7247 23.6302 21.5314C23.5444 20.3145 23.4985 19.0376 23.4942 17.7377C23.4891 17.6702 23.5028 17.6027 23.5337 17.5425C23.5647 17.4824 23.6117 17.432 23.6696 17.397C24.3339 16.9311 25.0212 16.4989 25.729 16.1021C25.9917 15.9511 26.0983 15.9232 26.3782 16.1651C27.2028 16.945 28.2363 17.4684 29.3529 17.6718C30.4696 17.8751 31.6213 17.7496 32.6678 17.3104C35.3972 16.2367 36.5653 13.8345 37.2775 11.8589C37.3021 11.7969 37.3133 11.7304 37.3103 11.6637C37.3073 11.5971 37.2902 11.5318 37.2602 11.4722C37.2302 11.4127 37.1879 11.3601 37.1361 11.3181C37.0843 11.276 37.0242 11.2454 36.9597 11.2283C35.4816 10.6087 33.9014 10.2689 32.2992 10.2262C32.1868 10.2262 32.0752 10.2262 31.9621 10.2319C30.8042 10.2153 29.665 10.525 28.6749 11.1257C27.6849 11.7264 26.8839 12.5937 26.3639 13.6284L26.3467 13.6606C26.1402 13.9865 26.0134 14.3566 25.9766 14.7407C25.9766 14.848 25.9494 14.8717 25.8528 14.9204C25.1235 15.2904 24.4146 15.6992 23.729 16.1451C23.7004 16.1644 23.6725 16.1858 23.6446 16.208C23.6065 16.242 23.5639 16.2705 23.5179 16.2925V16.2632C23.5386 14.808 23.6374 13.3377 23.7326 12.0922C23.7491 11.8775 23.8092 11.7995 24.0003 11.7565C24.1677 11.7141 24.3309 11.6564 24.4878 11.584L24.5672 11.5504C25.831 11.0942 26.8833 10.1901 27.5247 9.00949C28.1661 7.82889 28.3518 6.45396 28.0467 5.1455C27.5328 3.23192 26.4948 1.49982 25.0497 0.144261C25.0048 0.0951325 24.9501 0.0560275 24.889 0.029491C24.828 0.0029545 24.7621 -0.0104168 24.6955 -0.00974125C24.629 -0.00906574 24.5634 0.00560938 24.5029 0.0333793C24.4424 0.0611492 24.3885 0.101396 24.3446 0.151426C23.1255 1.16474 22.1007 2.39123 21.3204 3.77115C20.608 4.96817 20.3213 6.37095 20.5068 7.75152C20.6924 9.13209 21.3393 10.4093 22.3425 11.3757L22.3855 11.4201C22.4647 11.5111 22.5623 11.5843 22.6718 11.6349C22.7713 11.6728 22.7785 11.7064 22.7677 11.8396C22.7076 12.6434 22.6539 13.4465 22.6009 14.2504C22.5859 14.4823 22.5745 14.7149 22.5637 14.9447L22.5515 15.1873L22.5387 15.1766C21.8681 14.5944 21.1551 14.063 20.4056 13.5868C20.3219 13.5353 20.3061 13.4673 20.2868 13.3528C20.1889 12.804 20.0245 12.2691 19.7972 11.7601C19.31 10.5496 18.4151 9.54741 17.2672 8.92683C16.1194 8.30624 14.7908 8.10628 13.5111 8.36154C11.8933 8.67791 10.366 9.34975 9.03954 10.3285C8.97647 10.362 8.92162 10.409 8.87893 10.4662C8.83624 10.5235 8.80678 10.5894 8.79268 10.6594C8.77857 10.7294 8.78017 10.8016 8.79736 10.8709C8.81455 10.9402 8.84691 11.0048 8.89209 11.0601C9.64674 12.3744 10.6215 13.5494 11.7739 14.5338C12.8945 15.5485 14.3505 16.1137 15.8622 16.1208C17.374 16.1279 18.8352 15.5766 19.9654 14.5725C20.037 14.5181 20.0456 14.5245 20.1157 14.5761C20.1286 14.5861 20.1429 14.5954 20.1572 14.6054C20.9246 15.1285 21.6573 15.7009 22.3504 16.319C22.4087 16.3638 22.4548 16.4224 22.4847 16.4895C22.5145 16.5566 22.5272 16.6301 22.5215 16.7034C22.4858 18.3558 22.5335 20.009 22.6646 21.6566C22.6718 21.7325 22.6589 21.7476 22.6582 21.7483C22.6575 21.749 22.641 21.7626 22.5644 21.7676L22.4614 21.774C22.1078 21.7955 21.742 21.817 21.3841 21.8643L21.0104 21.9122C19.941 21.9932 18.8903 22.2373 17.8946 22.6359C17.0393 22.973 16.291 23.5348 15.7286 24.2621C15.1662 24.9893 14.8106 25.8549 14.6993 26.7674C14.6615 27.1309 14.65 27.4967 14.665 27.8619C14.665 28.0107 14.6707 28.1604 14.67 28.31C14.67 28.3959 14.6628 28.423 14.67 28.423C14.6635 28.423 14.6413 28.4231 14.5712 28.3901C13.1029 27.7216 11.7344 26.8527 10.5048 25.8083C10.4904 25.7962 10.4753 25.785 10.4597 25.7746L10.4511 25.7689H10.5685C11.3297 25.8132 12.084 25.6031 12.7127 25.1715C13.3413 24.74 13.8085 24.1116 14.0408 23.3853C14.4446 22.1748 14.5586 20.8864 14.3736 19.6238C14.3875 19.5235 14.3738 19.4213 14.3338 19.3283C14.2938 19.2352 14.2292 19.1549 14.1469 19.0959C14.0645 19.037 13.9677 19.0016 13.8667 18.9937C13.7658 18.9859 13.6646 19.0057 13.5741 19.0512C12.845 19.2071 12.142 19.4662 11.4861 19.8207C10.789 20.1467 10.1844 20.6418 9.72738 21.261C9.27034 21.8801 8.97534 22.6037 8.86919 23.366C8.8457 23.5723 8.83256 23.7797 8.82981 23.9873C8.82981 24.0159 8.82981 24.0438 8.82981 24.0724C8.22839 23.3123 7.71544 22.4863 7.30088 21.6102C7.24367 21.5143 7.21968 21.4022 7.23262 21.2913C7.24556 21.1804 7.29471 21.0768 7.37246 20.9967C8.19756 19.9615 8.60078 18.6526 8.50126 17.3326C8.34021 15.4543 7.42758 13.7858 5.62951 12.0808C5.57817 12.0221 5.51384 11.9762 5.44164 11.9467C5.36944 11.9173 5.29137 11.9051 5.21363 11.9111C5.13228 11.9257 5.05504 11.9577 4.9872 12.0049C4.91937 12.0521 4.86255 12.1134 4.82066 12.1846C3.95089 13.3835 3.35915 14.7611 3.08845 16.2173C2.957 16.8269 2.95734 17.4576 3.08943 18.0671C3.22152 18.6765 3.48231 19.2507 3.85435 19.7512C4.40999 20.4504 5.13617 20.995 5.96307 21.3324L5.98311 21.3417C6.08619 21.3861 6.16062 21.419 6.19784 21.5178C6.29877 21.7683 6.41259 22.0188 6.51853 22.2586L6.59941 22.439C6.04574 22.2181 5.45542 22.1035 4.85932 22.1012C3.12501 22.1789 1.47423 22.8682 0.199512 24.0467C0.141529 24.0907 0.0938156 24.1467 0.0596984 24.211C0.0255811 24.2753 0.00587778 24.3462 0.00195312 24.4189C0.00393952 24.4959 0.0224798 24.5715 0.0563234 24.6407C0.0901671 24.7099 0.138521 24.7709 0.198082 24.8197C1.17008 25.7496 2.34919 26.4351 3.63818 26.8197C4.30504 27.0423 5.02079 27.0744 5.70491 26.9124C6.38903 26.7504 7.01437 26.4007 7.51061 25.9027C7.79492 25.6131 8.04936 25.2956 8.27007 24.955C8.81967 25.6107 9.42904 26.2138 10.0903 26.7567C11.4127 27.8384 12.8779 28.7327 14.4445 29.4144C14.4693 29.4251 14.4946 29.4344 14.5204 29.4423C14.6241 29.4767 14.6413 29.4917 14.6406 29.5404C14.6327 29.8711 14.6191 30.2011 14.6048 30.531L14.5962 30.7458C14.5962 30.7759 14.5726 30.7973 14.5146 30.846C14.1817 31.1449 13.9669 31.5533 13.9091 31.997C13.7614 32.6992 13.7698 33.4252 13.9335 34.1237C14.0973 34.8223 14.4125 35.4764 14.8568 36.0398C14.9337 36.1234 14.991 36.2232 15.0243 36.3318C15.4111 37.9863 16.1774 39.5281 17.2626 40.8356C17.3477 40.9285 17.3954 41.0496 17.3964 41.1756C17.405 42.0217 17.4215 42.7732 17.4451 43.4747C17.4508 43.6386 17.4165 43.6895 17.2604 43.7331C16.2583 44.028 15.2562 44.3315 14.2541 44.635L13.0007 45.0137C11.8927 45.3378 10.9497 46.0719 10.3638 47.0666C9.91576 47.7865 9.69943 48.6265 9.74397 49.4732C9.78852 50.3199 10.0918 51.1326 10.6128 51.8015C11.5457 52.8057 12.6766 53.6056 13.9341 54.1508C15.9934 55.0614 18.1885 55.6272 20.4314 55.8257C21.4538 55.9342 22.4812 55.9889 23.5093 55.9896C25.9621 56.0004 28.4035 55.6568 30.7581 54.9696C32.5251 54.5085 34.1682 53.6622 35.5697 52.4915C36.1851 52.0176 36.658 51.383 36.9361 50.6577C37.1143 50.1057 37.18 49.5236 37.1294 48.9457C37.0787 48.3679 36.9127 47.8061 36.6412 47.2935C36.3643 46.7538 35.982 46.2751 35.5169 45.8857C35.0518 45.4963 34.5133 45.2042 33.9334 45.0266C32.4574 44.5706 30.99 44.129 29.625 43.7196C29.4976 43.6802 29.4561 43.6479 29.4432 43.5255C29.3671 42.7772 29.3408 42.0247 29.3645 41.273C29.3723 41.1462 29.426 41.0266 29.5155 40.9366C30.6368 39.633 31.4324 38.0817 31.8368 36.4106C31.8579 36.2985 31.9033 36.1925 31.9699 36.0999C32.3815 35.6007 32.6883 35.0238 32.8722 34.4035C33.056 33.7832 33.1131 33.1323 33.0401 32.4895C33.0477 32.1773 32.989 31.867 32.8677 31.5792C32.7464 31.2914 32.5653 31.0327 32.3364 30.8202C32.2849 30.7787 32.2813 30.7293 32.2777 30.6227C32.2727 30.4838 32.2684 30.3457 32.2641 30.2068C32.2534 29.8697 32.2434 29.5204 32.2205 29.1775C32.209 29.015 32.252 28.9499 32.4173 28.8754C34.2205 28.1049 35.8656 27.0075 37.2697 25.6386C37.4064 25.5026 37.5245 25.3852 37.5696 25.3852C37.6118 25.3888 37.7027 25.5205 37.8144 25.6816C38.1535 26.2533 38.6509 26.7147 39.2465 27.01C39.842 27.3053 40.5103 27.422 41.1707 27.3458C42.6603 27.131 44.0376 26.4314 45.0897 25.3552C45.1436 25.3114 45.1869 25.256 45.2165 25.1932C45.2461 25.1304 45.2612 25.0617 45.2608 24.9923C45.2522 24.9133 45.2266 24.8371 45.1858 24.7689C45.1451 24.7007 45.0901 24.6421 45.0246 24.5971ZM38.6934 25.1998L38.6898 25.1841L38.6783 25.1948L38.6003 25.1669C38.4572 25.1175 38.372 25.0517 38.3591 24.983C38.3462 24.9142 38.397 24.8298 38.5066 24.7317L38.5645 24.6723L38.5781 24.6523C38.5817 24.6473 38.5853 24.6401 38.6232 24.6365L38.6869 24.6308L38.702 24.5692C38.7585 24.3452 38.9167 24.2958 39.1773 24.2342L39.266 24.2135L39.2853 24.177C39.3504 24.0819 39.4366 24.0031 39.5372 23.9469C39.6378 23.8906 39.75 23.8584 39.8651 23.8527L39.9367 23.837C40.5377 23.7115 41.1581 23.7115 41.7591 23.837L41.9066 23.862C42.0681 23.8772 42.2252 23.9229 42.3697 23.9966L42.4083 24.0188C42.4685 24.0503 42.4799 24.0596 42.4799 24.0853L42.4864 24.1569L42.5579 24.1634C42.5909 24.1669 42.6252 24.167 42.6589 24.1677C42.802 24.1677 42.8586 24.1777 42.8915 24.2808L42.9101 24.3373L42.9702 24.3423H43.0361C43.1728 24.3466 43.2193 24.3566 43.2437 24.4497L43.2609 24.5155H43.3324C43.3599 24.5139 43.3874 24.5166 43.414 24.5234C43.4179 24.5317 43.4198 24.5408 43.4198 24.5499L43.4255 24.6272L43.5028 24.6329C43.5422 24.6329 43.5457 24.6415 43.5486 24.6473L43.6452 24.746L43.6753 24.7496C43.8814 24.7754 43.9824 24.8169 44.0024 24.9715V25.0803L43.8922 24.9335L43.8779 25.1769C43.87 25.3058 43.812 25.3201 43.6352 25.3344L43.5844 25.3387L43.4713 25.416L43.4677 25.4575C43.4513 25.6258 43.3417 25.6787 43.1642 25.7524C43.1038 25.7758 43.0452 25.8035 42.9888 25.8355C42.5185 26.1194 42.002 26.3188 41.4628 26.4245C41.2223 26.4645 40.9781 26.4773 40.7348 26.4625C40.5539 26.4555 40.3728 26.4588 40.1922 26.4725C40.1043 26.4695 40.0187 26.4433 39.9441 26.3967C39.8694 26.3501 39.8084 26.2847 39.7671 26.207L39.7556 26.174L39.5573 26.0674L39.5094 26.1125L39.4893 26.1339C39.145 25.9726 38.8719 25.6904 38.722 25.3409V25.3351H39.0906L38.6934 25.1998ZM39.2252 20.2051C38.8326 19.5594 38.6446 18.8099 38.686 18.0554C38.7274 17.3008 38.9962 16.5764 39.4571 15.9776C39.7686 15.5021 40.1387 15.0678 40.5587 14.6848C40.5788 14.6655 40.6131 14.6333 40.6196 14.629C40.626 14.6247 40.6339 14.6362 40.6582 14.6741C41.2921 15.553 41.6827 16.5836 41.7906 17.6618C41.8291 18.2436 41.6893 18.8233 41.3899 19.3236C41.0906 19.8238 40.6458 20.221 40.1149 20.462C39.9976 20.5236 39.9002 20.578 39.8286 20.6216C39.7499 20.6793 39.6603 20.7205 39.5652 20.7426C39.5259 20.7319 39.4578 20.6095 39.3712 20.4563C39.3276 20.384 39.2818 20.3017 39.2252 20.2051ZM36.2661 24.7568C36.2504 24.8928 36.2103 24.9286 36.0722 24.9321H35.9841C35.6308 24.9577 35.2757 24.9319 34.9297 24.8556C34.0207 24.6115 33.4982 23.9816 33.2369 22.8134C33.135 22.392 33.0955 21.9579 33.1195 21.525V20.8722C33.1195 20.8407 33.1195 20.8249 33.1195 20.8206C33.1326 20.8213 33.1456 20.8237 33.1582 20.8278C33.741 20.9591 34.2913 21.2068 34.7759 21.5562C35.2606 21.9055 35.6696 22.3492 35.9784 22.8606C36.271 23.4468 36.3717 24.1102 36.2661 24.7568ZM24.006 9.79313L24.0461 9.54262C24.1207 9.03238 24.2288 8.5276 24.3697 8.03156C24.4099 7.9439 24.4316 7.84887 24.4335 7.75244C24.4353 7.656 24.4172 7.56022 24.3804 7.47108C24.3088 7.34797 24.1657 7.27137 23.898 7.20838L23.8715 7.20266L23.8457 7.21197C23.7421 7.25357 23.6504 7.32001 23.5785 7.40538C23.5066 7.49074 23.4568 7.59245 23.4334 7.70158C23.193 8.59558 23.0193 9.5062 22.9137 10.4259C22.9107 10.4497 22.9091 10.4735 22.9087 10.4975C22.9087 10.5175 22.9087 10.5354 22.9087 10.5497L22.9044 10.5433C22.8935 10.5273 22.8815 10.512 22.8686 10.4975C22.0939 9.67643 21.6071 8.62568 21.4819 7.50376C21.3567 6.38185 21.5997 5.24962 22.1743 4.27793C22.8165 3.14042 23.64 2.1153 24.6123 1.24298C24.6503 1.20719 24.6696 1.19648 24.6717 1.19147C24.685 1.2086 24.6961 1.22732 24.7047 1.24726L24.7197 1.26946C25.8284 2.46841 27.1119 4.13263 27.1892 6.36017C27.217 7.13071 27.034 7.89425 26.6597 8.56836C26.2854 9.24248 25.7342 9.80158 25.0654 10.1854C24.7007 10.4275 24.3055 10.6201 23.8901 10.758C23.9109 10.4345 23.9496 10.1124 24.006 9.79313ZM28.391 41.0539C28.3405 42.0401 28.3798 43.0289 28.5084 44.008C28.5174 44.1426 28.5697 44.2706 28.6576 44.373C28.7455 44.4753 28.8642 44.5464 28.9958 44.5756L29.7546 44.8032C31.0666 45.1955 32.4245 45.6014 33.7501 46.0273C34.3623 46.1851 34.9157 46.5169 35.3432 46.9827C35.7707 47.4484 36.054 48.0281 36.1589 48.6516C36.2638 49.275 36.1858 49.9155 35.9342 50.4955C35.6826 51.0755 35.2683 51.5702 34.7415 51.9197C33.4206 52.9606 31.8919 53.7062 30.2585 54.1064C27.0501 54.9804 23.7036 55.229 20.4013 54.8387C18.3647 54.6504 16.3701 54.1449 14.4896 53.3405C13.4619 52.9186 12.5217 52.3093 11.7166 51.5438C11.1449 51.0111 10.7931 50.2839 10.7302 49.505C10.6673 48.7261 10.8979 47.9519 11.3766 47.3343C11.8177 46.6996 12.4589 46.2311 13.1976 46.0036C14.2994 45.6662 15.401 45.3322 16.5024 45.0015L17.9268 44.572C18.3484 44.4446 18.4386 44.3201 18.4336 43.8749C18.4307 43.6 18.4272 43.3254 18.4229 43.051C18.4186 42.7766 18.4152 42.5013 18.4128 42.225C18.4128 42.2028 18.4128 42.1798 18.4085 42.1534C18.4049 42.1254 18.4037 42.0971 18.405 42.0689L18.498 42.1405C18.6491 42.2629 18.7986 42.3831 18.9525 42.4984C20.1954 43.4616 21.716 43.9979 23.2881 44.0273H23.311C23.8042 44.0273 23.918 43.7711 23.9266 43.5549C23.933 43.3724 23.8636 43.0632 23.321 43.0381C23.2638 43.0381 23.2058 43.0295 23.1485 43.0223L23.0583 43.0138C21.802 42.9675 20.5931 42.5216 19.6075 41.7411C17.7654 40.3342 16.4775 38.3236 15.9698 36.062C15.925 35.8676 15.8353 35.6865 15.7079 35.533C15.3146 35.0637 15.0366 34.5089 14.8961 33.9129C14.7556 33.3169 14.7566 32.6963 14.899 32.1008C14.9156 31.9814 14.9587 31.8673 15.0251 31.7668C15.0915 31.6662 15.1795 31.5818 15.2827 31.5196C15.3713 31.4665 15.4443 31.3911 15.4946 31.3009C15.5448 31.2107 15.5705 31.1089 15.569 31.0056C15.6557 29.9261 15.6822 28.8427 15.6484 27.7602C15.5795 26.7349 15.8822 25.7191 16.5011 24.8987C17.1199 24.0783 18.0136 23.5083 19.0184 23.293C20.5499 22.8893 22.1317 22.7096 23.7147 22.7597C25.2289 22.7498 26.7363 22.9643 28.1877 23.3961C29.0504 23.6643 29.811 24.1885 30.3687 24.8992C30.9299 25.593 31.2334 26.4599 31.2277 27.3522V27.431C31.2327 28.5762 31.2384 29.7558 31.2992 30.919C31.294 31.0514 31.3256 31.1827 31.3906 31.2982C31.4555 31.4137 31.5513 31.5089 31.6672 31.5732C31.7599 31.6335 31.8373 31.7145 31.8933 31.81C31.9492 31.9054 31.9821 32.0126 31.9893 32.123C32.1262 32.7107 32.1251 33.3221 31.986 33.9093C31.8469 34.4965 31.5736 35.0435 31.1876 35.5073C31.041 35.684 30.9392 35.8934 30.8905 36.1178C30.5169 37.7267 29.7445 39.2156 28.6444 40.4476C28.49 40.6129 28.4001 40.828 28.391 41.0539ZM27.3381 13.745C27.3381 13.6362 27.3645 13.6018 27.4497 13.5854L27.6072 13.6119L27.5356 13.4573L27.5299 13.4458C27.5378 13.4429 27.5459 13.4408 27.5542 13.4394L27.5986 13.4315L27.6179 13.3914C27.6483 13.3285 27.675 13.264 27.6981 13.1982C27.7697 13.0006 27.8305 12.8667 27.9887 12.8181V12.8753L28.4182 12.589L28.1712 12.6112C28.1762 12.5842 28.1892 12.5592 28.2085 12.5396C28.2279 12.5258 28.2501 12.5162 28.2736 12.5116C28.297 12.5069 28.3211 12.5072 28.3445 12.5124L28.4325 12.5711L28.4654 12.453C28.487 12.3459 28.5422 12.2484 28.6231 12.1748C28.704 12.1013 28.8062 12.0556 28.9149 12.0443L28.8355 12.5246L29.0252 12.1459L29.0595 12.4552L29.1755 11.9226C29.1927 11.8431 29.222 11.798 29.3187 11.7959L29.2435 12.0393L29.5405 11.7422H29.552C29.5704 11.7487 29.5901 11.7502 29.6093 11.7465L29.6601 11.7286L29.6808 11.6943L29.693 11.6528C29.693 11.6091 29.7052 11.5991 29.7875 11.5612L29.829 11.5418C29.9391 11.4922 30.0544 11.4548 30.1726 11.4301C30.3901 11.3967 30.5937 11.3022 30.7595 11.1574C31.0673 11.1667 31.3766 11.1474 31.6772 11.1266C32.184 11.0649 32.6974 11.0821 33.199 11.1775C33.3886 11.224 33.5855 11.2533 33.7752 11.2812C34.0353 11.3135 34.2925 11.3656 34.5446 11.4373C35.0693 11.5178 35.5836 11.6551 36.0786 11.8467C36.1244 11.8625 36.143 11.8711 36.1502 11.8811L36.0471 12.0243L36.1981 11.9985L36.2762 12.1366C36.2532 12.1445 36.2288 12.1477 36.2046 12.1459H36.1752L36.1516 12.1624C36.131 12.176 36.1155 12.1963 36.1079 12.2198C36.1002 12.2433 36.1007 12.2688 36.1094 12.292C36.1186 12.3881 36.0984 12.4846 36.0514 12.569C36.0399 12.5969 36.0285 12.6248 36.0177 12.6535C35.7647 13.3009 35.4118 13.9047 34.972 14.4429L34.8882 14.5503C34.7313 14.7663 34.556 14.9685 34.3643 15.1544C34.3507 15.1666 34.3371 15.1809 34.3235 15.1945C34.2648 15.2561 34.2519 15.2661 34.2132 15.2475L34.1502 15.2296L34.1209 15.1523L34.0944 15.2138H34.0894L34.0601 15.2961L34.0164 15.2918L34.0271 15.3727C34.0157 15.4006 34.0064 15.4307 33.9971 15.46C33.9763 15.5259 33.9541 15.5946 33.9183 15.6125C33.8778 15.6227 33.8351 15.6194 33.7966 15.6032L33.7616 15.5939L33.6492 15.639L33.6814 15.7213C33.6879 15.7354 33.6897 15.7513 33.6864 15.7664C33.5568 15.8374 33.4337 15.9195 33.3185 16.0119C33.1662 16.1413 32.9928 16.2437 32.806 16.3147C32.3422 16.4686 31.9392 16.6103 31.5755 16.7485C31.4951 16.7872 31.4073 16.808 31.318 16.8094C31.2288 16.8107 31.1403 16.7926 31.0587 16.7564L31.0351 16.7449L30.8333 16.7678L30.8161 16.8237C30.8025 16.8659 30.7953 16.8701 30.7073 16.8623C30.683 16.8623 30.6593 16.858 30.6357 16.858H30.625C29.8321 16.876 29.0444 16.726 28.3137 16.4178C28.0131 16.3068 27.7295 16.1543 27.4712 15.9647C27.4548 15.9527 27.4392 15.9395 27.4247 15.9253L27.5535 15.9375L27.2536 15.6383L27.2378 15.7256C27.0632 15.7042 27.0052 15.6719 27.0138 15.5173L26.9737 15.3541L26.9651 15.3477C27.0435 15.3231 27.1203 15.2934 27.1949 15.2589C27.3192 15.1949 27.4555 15.1576 27.595 15.1494H27.6301L27.7439 15.0485L27.7482 15.0141C27.7515 14.9852 27.7577 14.9566 27.7668 14.9289C27.7916 14.9357 27.8156 14.9451 27.8384 14.9568C27.8729 14.9738 27.9091 14.987 27.9465 14.9962L28.0088 15.0893L28.0803 14.954C28.1433 14.8323 28.2478 14.8166 28.4132 14.8008L28.5234 14.7886L28.547 14.7622C28.6661 14.6445 28.8205 14.5691 28.9865 14.5474C29.0466 14.5331 29.1061 14.5174 29.1648 14.4995L29.1948 14.4894C29.3537 14.4386 29.62 14.3534 29.5563 14.06C29.4847 13.7343 29.1526 13.7507 28.9951 13.7586C28.858 13.7718 28.7241 13.8084 28.5993 13.8667C28.4667 13.9344 28.3183 13.9648 28.1698 13.9548H28.1562H28.1419C27.926 13.9951 27.7165 14.0645 27.5191 14.1609C27.4161 14.2053 27.3123 14.2511 27.2071 14.2876C27.177 14.2984 27.148 14.312 27.1205 14.3284C27.0963 14.3451 27.0686 14.3561 27.0396 14.3606C27.0146 14.2802 27.0216 14.1933 27.0589 14.1179C27.109 14.0228 27.1923 13.9495 27.293 13.9118L27.7124 13.7393L27.3381 13.745ZM19.1064 12.8524C19.0931 12.8444 19.0792 12.8373 19.0649 12.831C18.3642 12.4888 17.6349 12.2086 16.8853 11.9935C16.4702 11.8761 16.3206 11.9398 16.1187 12.3149L16.1058 12.3378L16.1259 12.5525L16.1488 12.6284C16.206 12.716 16.2809 12.7907 16.3686 12.8476C16.4564 12.9046 16.5551 12.9425 16.6584 12.9591C17.5181 13.2009 18.3453 13.5459 19.1222 13.9863C18.6784 14.333 18.1824 14.607 17.6527 14.7979C16.7771 15.1368 15.8241 15.2233 14.9018 15.0477C13.9795 14.8721 13.125 14.4414 12.4353 13.8044C11.4828 13.0229 10.6738 12.0814 10.0445 11.0221C10.0309 11.0057 10.0145 10.9885 9.99871 10.9713C9.98296 10.9541 9.96506 10.9362 9.95361 10.9212C9.97791 10.9077 10.0033 10.8962 10.0295 10.8869L10.1469 10.8153C11.2786 10.0218 12.5807 9.50503 13.9484 9.30639C14.5919 9.20259 15.2504 9.24227 15.8768 9.42256C16.5031 9.60285 17.0819 9.91928 17.5718 10.3493C18.3313 11.0193 18.8786 11.8965 19.1465 12.8732C19.1327 12.8672 19.1193 12.8602 19.1064 12.8524ZM10.4403 21.8757C10.4633 21.6817 10.5449 21.5958 10.7166 21.5815H10.751L10.7739 21.5565C10.7882 21.5422 10.8033 21.5271 10.8197 21.5121L10.9536 21.3875L10.9614 21.3632C11.0395 21.1227 11.1454 21.011 11.3193 20.996L11.315 21.6559L11.5212 20.8314C11.5505 20.8099 11.6314 20.8192 11.6794 20.8221L11.7817 20.8113L11.7867 20.6996C11.7854 20.6781 11.7881 20.6565 11.7946 20.636C11.9298 20.5875 12.0624 20.5321 12.1919 20.4699C12.4153 20.3509 12.6574 20.271 12.9077 20.2337L13.043 20.2272L13.0666 20.1814C13.0882 20.1368 13.1207 20.0984 13.1611 20.0697C13.2015 20.041 13.2485 20.0231 13.2978 20.0175C13.3218 20.0141 13.3463 20.0168 13.3689 20.0254C13.3916 20.0341 13.4117 20.0484 13.4273 20.0669C13.4312 20.0875 13.439 20.1072 13.4503 20.1249L13.4646 20.1471L13.4875 20.1585C13.5469 20.1864 13.5519 20.2301 13.5498 20.3539C13.5498 20.525 13.5498 20.6961 13.554 20.8672C13.5909 21.3876 13.5467 21.9107 13.4231 22.4176C13.3959 22.5092 13.3737 22.6037 13.3515 22.6981C13.3132 22.9911 13.1872 23.2656 12.99 23.4855L12.9657 23.5091V23.5428C12.9485 23.7496 12.8855 23.8434 12.7416 23.8792L12.6829 23.9057L12.6729 23.963C12.6579 24.0489 12.6421 24.1369 12.6013 24.1648C12.5628 24.1797 12.5204 24.1809 12.4811 24.1684L12.4539 24.1619L12.3071 24.2185L12.2928 24.2521C12.2828 24.275 12.2721 24.2972 12.2613 24.3187L12.2499 24.3431V24.3688C12.2563 24.4239 12.2499 24.4339 12.1583 24.4676C12.1156 24.4827 12.0752 24.5034 12.038 24.5291C11.5728 24.8324 11.0125 24.9546 10.4632 24.8727C10.3587 24.8727 10.2535 24.867 10.1476 24.867C10.0896 24.867 10.0309 24.867 9.9715 24.867C9.96494 24.8564 9.96124 24.8444 9.96077 24.8319L9.95647 24.7975L9.8398 24.6981L9.81475 24.6945C9.78683 24.6895 9.7353 24.6816 9.73029 24.5621C9.63412 23.6853 9.81938 22.8006 10.2593 22.036C10.2656 22.021 10.2773 22.0088 10.2921 22.0018C10.3069 21.9948 10.3237 21.9935 10.3394 21.9981L10.5921 22.0389L10.4403 21.8757ZM5.85928 20.1499L5.90581 20.2845C5.72923 20.2523 5.56232 20.1803 5.41781 20.0739C5.27329 19.9675 5.15498 19.8294 5.0719 19.6703L4.90155 19.3003V19.4878L4.8629 19.4463L4.83712 19.4406C4.83254 19.4184 4.82275 19.3976 4.80856 19.3799C4.79437 19.3622 4.7762 19.3482 4.75552 19.3389H4.7906L4.58016 19.1285L4.66963 19.0383L4.47136 19.0254C4.42148 19.0282 4.37245 19.0116 4.33464 18.9789C4.29527 18.9345 4.30243 18.8357 4.30887 18.7441V18.7162C4.31569 18.6955 4.31649 18.6732 4.31117 18.6521C4.30585 18.6309 4.29462 18.6117 4.2788 18.5967L4.23729 18.5379L4.17215 18.5838L4.16357 18.5H4.11347C4.10768 18.4992 4.10225 18.4967 4.09781 18.4929C4.09338 18.4891 4.09012 18.4842 4.08841 18.4786C3.9966 18.1413 3.93998 17.7954 3.91948 17.4464L3.90946 17.3426H3.91448C3.92879 17.3333 3.94382 17.3225 3.95527 17.3132L3.98605 17.2861V16.9632L3.94596 16.9375C3.86436 16.8845 3.86794 16.8458 3.91805 16.717C3.94387 16.6588 3.95938 16.5965 3.96387 16.533C3.94534 16.2409 4.02193 15.9506 4.18218 15.7056L4.20794 15.6469L4.19434 15.6125C4.19945 15.4324 4.23353 15.2543 4.29528 15.085C4.32462 14.9862 4.35469 14.8867 4.37544 14.7851C4.37992 14.7611 4.39257 14.7394 4.41124 14.7238C4.4299 14.7081 4.45343 14.6994 4.4778 14.6992L4.67106 14.6827L4.55439 14.5667L4.54866 14.5159C4.54007 14.4587 4.53076 14.3935 4.54866 14.3728C4.57623 14.352 4.6101 14.3414 4.64458 14.3427V14.3091L4.71616 14.2425H4.72905V14.2325L5.03182 13.9297L4.94664 13.9576L4.92087 13.8345C4.90298 13.7457 4.92588 13.7028 5.00676 13.6756L5.04113 13.6641L5.17928 13.4014L5.19073 13.3184C5.19502 13.181 5.20647 13.1631 5.28664 13.1559H5.31599L5.33746 13.1373C5.39759 13.0851 5.41477 13.0801 5.42122 13.0865C5.42766 13.0929 5.47132 13.1137 5.5565 13.2848L5.62307 13.3564L5.70396 13.4995L5.74833 13.5045C5.77482 13.5081 5.78198 13.5131 5.78556 13.5446L5.79271 13.6162L5.86429 13.6255C5.8965 13.6298 5.90366 13.6312 5.90223 13.7357C5.90413 13.7497 5.90533 13.7638 5.90581 13.778V13.8495L5.97738 13.8603H6.00101L6.04824 13.8932L6.11983 13.9712H6.15347C6.21216 13.9776 6.25082 13.9913 6.25082 14.1194V14.143L6.34816 14.3134L6.39111 14.3198C6.44479 14.3291 6.48632 14.3448 6.48918 14.4722V14.5474L6.56075 14.5589C6.6173 14.5668 6.66024 14.5825 6.65595 14.7078V14.7314L6.74685 14.9031L6.78623 14.9132C6.89646 14.9383 6.91077 15.0041 6.92939 15.1365C6.9344 15.1793 6.94253 15.2216 6.95372 15.2632L6.96088 15.2918L6.98522 15.3105C7.16065 15.4722 7.27831 15.6869 7.32021 15.9217C7.34025 15.9862 7.35886 16.0499 7.38034 16.1107C7.6324 16.7747 7.71912 17.4901 7.63301 18.1951C7.52375 18.967 7.23495 19.7025 6.78981 20.3425C6.76349 20.3823 6.73958 20.4236 6.71823 20.4663C6.69825 20.5044 6.67628 20.5414 6.65238 20.5772L6.64307 20.5171L6.40829 20.5057C6.37035 20.5114 6.34244 20.5057 6.30665 20.5143L5.85928 20.1499ZM4.85716 13.9411L4.93233 13.9533L4.86934 13.9741L4.85716 13.9411ZM7.47195 24.381C7.25485 24.7217 6.99639 25.0343 6.70248 25.3115C6.34762 25.6338 5.91515 25.8585 5.44738 25.9635C4.97962 26.0686 4.4926 26.0503 4.03401 25.9106C3.04258 25.6311 2.12 25.1488 1.32473 24.4941C1.29109 24.4676 1.28035 24.4519 1.27677 24.4511C1.294 24.4296 1.31482 24.4111 1.33833 24.3967C2.22914 23.665 3.31545 23.2115 4.46206 23.0926H4.50929C5.58601 23.0442 6.63799 23.4246 7.43474 24.1505C7.52994 24.2414 7.53566 24.2815 7.46766 24.381H7.47195Z" fill="black"/>
<path d="M33.7353 4.5257C33.7786 4.5159 33.8241 4.52334 33.862 4.54645C33.8999 4.56956 33.9274 4.60656 33.9386 4.64955C34.0102 4.83065 34.0903 5.00742 34.1533 5.19496C34.2034 5.35375 34.2904 5.49846 34.4071 5.61725C34.5238 5.73605 34.6669 5.82558 34.8247 5.87855C34.9716 5.9299 35.1151 5.9906 35.2542 6.06034C35.3601 6.11331 35.5355 6.11191 35.5319 6.27511C35.5319 6.41827 35.3723 6.429 35.2714 6.48054C35.2009 6.51481 35.1273 6.54236 35.0516 6.56285C34.8125 6.62247 34.5938 6.7456 34.4188 6.91921C34.2438 7.09283 34.1189 7.31049 34.0574 7.5492C34.0073 7.71383 34.0059 7.97153 33.779 7.98299C33.5327 7.99515 33.532 7.72316 33.4926 7.56497C33.4139 7.29048 33.2595 7.04369 33.0471 6.85281C32.8347 6.66193 32.5729 6.53466 32.2916 6.48556C32.1663 6.44906 32.026 6.40895 32.0289 6.25362C32.0317 6.09829 32.1756 6.07827 32.2865 6.05322C32.6011 5.99216 32.8901 5.83793 33.1161 5.61061C33.342 5.3833 33.4944 5.09337 33.5535 4.77839C33.5843 4.66386 33.6208 4.54359 33.7353 4.5257Z" fill="#D4D5E1"/>
<path d="M18.8202 18.8352C18.7997 18.8703 18.7741 18.9021 18.7443 18.9297C18.6986 18.9674 18.6454 18.995 18.5883 19.0106C18.3156 19.0551 18.064 19.1849 17.8698 19.3815C17.6755 19.578 17.5487 19.8311 17.5074 20.1044C17.4867 20.1953 17.4452 20.3076 17.3206 20.3005C17.1961 20.2933 17.1488 20.168 17.1288 20.0685C17.0815 19.8119 16.9592 19.575 16.7774 19.3877C16.5956 19.2005 16.3625 19.0712 16.1073 19.0163C16.061 19.0019 16.0163 18.9825 15.9742 18.9584C15.7938 18.8553 15.7673 18.7558 15.9835 18.6642C16.0176 18.6448 16.0533 18.6283 16.0902 18.6147C16.3458 18.5632 16.5807 18.4378 16.7658 18.2541C16.9509 18.0704 17.0781 17.8364 17.1316 17.5812C17.1567 17.481 17.186 17.3235 17.3299 17.3185C17.4888 17.3135 17.4938 17.4817 17.5175 17.5805C17.5794 17.8438 17.7157 18.0836 17.9103 18.2715C18.1049 18.4593 18.3495 18.5872 18.6148 18.6398C18.7028 18.6663 18.8116 18.6792 18.8202 18.8352Z" fill="#D4D5E1"/>
<path d="M23.7133 22.6701C25.2364 22.6629 26.7523 22.88 28.2121 23.3143C29.0913 23.5874 29.8668 24.1211 30.4361 24.8447C31.0097 25.5529 31.3195 26.4385 31.3122 27.35C31.3179 28.5382 31.3222 29.7257 31.3874 30.9125C31.3812 31.0299 31.4082 31.1466 31.4653 31.2494C31.5224 31.3522 31.6072 31.4369 31.7102 31.4937C31.814 31.5607 31.901 31.6507 31.9645 31.7567C32.028 31.8627 32.0664 31.9818 32.0767 32.105C32.2144 32.7057 32.2119 33.3301 32.0695 33.9298C31.9272 34.5294 31.6487 35.0882 31.2556 35.563C31.1185 35.7288 31.0233 35.9252 30.9779 36.1356C30.602 37.7589 29.822 39.2608 28.7103 40.5019C28.5693 40.6525 28.4876 40.8491 28.4805 41.0552C28.4297 42.035 28.4688 43.0174 28.5972 43.99C28.604 44.1075 28.6493 44.2194 28.726 44.3087C28.8027 44.3979 28.9066 44.4595 29.0217 44.4839C30.6093 44.9599 32.1998 45.428 33.7774 45.9355C34.4049 46.0981 34.9719 46.4388 35.4101 46.9165C35.8483 47.3943 36.139 47.9886 36.2469 48.6277C36.3549 49.2669 36.2757 49.9237 36.0187 50.5188C35.7617 51.114 35.3381 51.6221 34.7988 51.9818C33.4671 53.0283 31.9279 53.7796 30.2836 54.1857C27.0648 55.0668 23.7058 55.3167 20.3921 54.9215C18.3457 54.7319 16.3413 54.2248 14.451 53.4184C13.4143 52.9903 12.4653 52.3749 11.6515 51.6031C11.0631 51.0564 10.7008 50.309 10.636 49.5084C10.5712 48.7077 10.8086 47.9119 11.3015 47.2776C11.7537 46.6275 12.4115 46.1485 13.169 45.9176C14.7437 45.4342 16.3202 44.9548 17.8982 44.4796C18.2805 44.3636 18.3463 44.277 18.342 43.869C18.3363 43.3193 18.3263 42.7696 18.3206 42.2227C18.2967 42.1208 18.3123 42.0136 18.3642 41.9228C18.579 42.0939 18.788 42.2671 19.0041 42.4288C20.2307 43.3829 21.7338 43.9131 23.2874 43.9399C23.6453 43.9449 23.825 43.8139 23.835 43.5533C23.845 43.2928 23.6647 43.1453 23.3154 43.1296C23.228 43.126 23.1407 43.1131 23.0534 43.1046C23.0534 42.9793 23.0999 42.8461 23.004 42.7381C22.7852 42.441 22.6044 42.1179 22.4657 41.776C21.9811 40.8455 21.5058 39.915 21.0771 38.9522C20.5007 37.6422 20.0175 36.2932 19.6312 34.9151C19.5267 34.5494 19.4594 34.1765 19.3721 33.8078C19.2467 33.3101 19.1579 32.8039 19.1065 32.2932C19.075 31.9353 19.0993 31.5667 19.0349 31.2131C18.9586 30.5623 18.977 29.9038 19.0893 29.2583C19.1743 28.4269 19.4009 27.6161 19.7593 26.8611C20.0877 26.1532 20.5142 25.4951 21.0263 24.9062C21.785 24.0907 22.6737 23.4064 23.6561 22.8812C23.7319 22.8412 23.8501 22.7782 23.7133 22.6701ZM29.6465 26.7143C29.5621 26.5247 29.3538 26.4939 29.1892 26.4538C28.9876 26.4063 28.8034 26.3035 28.6572 26.157C28.511 26.0104 28.4086 25.8258 28.3617 25.6242C28.33 25.5314 28.2892 25.442 28.24 25.3572C28.1949 25.277 28.1813 25.1424 28.0532 25.1646C27.948 25.1825 27.91 25.2849 27.8843 25.3858C27.8239 25.6698 27.6826 25.9302 27.4775 26.1356C27.2724 26.3409 27.0121 26.4826 26.7283 26.5433C26.7089 26.5474 26.6898 26.5527 26.671 26.559C26.5865 26.5926 26.4978 26.6377 26.5035 26.7387C26.5092 26.8396 26.5966 26.8768 26.6832 26.9098C26.8478 26.972 27.0096 27.0422 27.1728 27.1073C27.3526 27.1977 27.5082 27.3299 27.6265 27.4928C27.7449 27.6557 27.8224 27.8445 27.8528 28.0436C27.8871 28.1531 27.9322 28.2927 28.0675 28.2991C28.2107 28.3055 28.2472 28.1624 28.2715 28.0493C28.3297 27.7748 28.4662 27.5232 28.6646 27.3248C28.8629 27.1263 29.1145 26.9896 29.3889 26.9312C29.4456 26.9165 29.5002 26.8947 29.5513 26.8661C29.5793 26.8518 29.6029 26.8302 29.6197 26.8036C29.6364 26.7771 29.6457 26.7464 29.6465 26.715V26.7143ZM18.2261 46.2383C18.0113 46.2447 17.9999 46.3686 17.9727 46.4673C17.9294 46.7039 17.8213 46.9237 17.6604 47.1024C17.4995 47.2812 17.2922 47.4117 17.0615 47.4795C16.9183 47.5217 16.6614 47.5274 16.6692 47.7221C16.6785 47.9369 16.9434 47.9368 17.108 47.9898C17.2975 48.0433 17.4697 48.1452 17.6078 48.2856C17.7458 48.4259 17.845 48.5998 17.8954 48.7901C17.9143 48.8757 17.9496 48.9568 17.9992 49.0292C18.0543 49.0972 18.0271 49.2525 18.1738 49.2267C18.2883 49.2074 18.317 49.0972 18.3428 49.0063C18.3985 48.7418 18.5286 48.4988 18.7178 48.3058C18.907 48.1128 19.1474 47.9778 19.4107 47.9168C19.5088 47.8903 19.634 47.876 19.6462 47.7329C19.6591 47.5732 19.5102 47.5897 19.4272 47.5403C19.1921 47.4454 18.9652 47.3314 18.7486 47.1996C18.5045 46.9942 18.4737 46.6907 18.3499 46.4301C18.3077 46.3421 18.2905 46.2376 18.2261 46.2383ZM27.5228 49.77C27.44 49.7624 27.3566 49.7728 27.2782 49.8005C27.1998 49.8281 27.1284 49.8724 27.0687 49.9303C27.009 49.9881 26.9625 50.0582 26.9324 50.1356C26.9023 50.2131 26.8893 50.2962 26.8943 50.3791C26.896 50.5466 26.9636 50.7067 27.0824 50.8247C27.2012 50.9427 27.3618 51.0092 27.5292 51.0098C27.6974 51.0098 27.8589 50.9441 27.9793 50.8267C28.0996 50.7092 28.1693 50.5494 28.1734 50.3813C28.1714 50.2982 28.1529 50.2165 28.119 50.1406C28.0851 50.0648 28.0365 49.9964 27.9759 49.9396C27.9154 49.8827 27.8442 49.8385 27.7664 49.8093C27.6886 49.7802 27.6058 49.7668 27.5228 49.77ZM29.2486 49.77C29.1664 49.762 29.0835 49.7715 29.0052 49.7977C28.927 49.8239 28.8551 49.8664 28.7944 49.9222C28.7336 49.9781 28.6852 50.0461 28.6525 50.1218C28.6198 50.1976 28.6034 50.2794 28.6044 50.362C28.6016 50.4448 28.6152 50.5273 28.6445 50.6048C28.6738 50.6823 28.7181 50.7532 28.7749 50.8135C28.8318 50.8738 28.9 50.9222 28.9756 50.956C29.0512 50.9898 29.1328 51.0083 29.2156 51.0105C29.3013 51.0175 29.3875 51.0055 29.4681 50.9753C29.5486 50.9452 29.6215 50.8977 29.6816 50.8362C29.7417 50.7747 29.7875 50.7007 29.8157 50.6195C29.8439 50.5382 29.8538 50.4518 29.8448 50.3662C29.8518 50.2861 29.8412 50.2055 29.8137 50.13C29.7862 50.0544 29.7425 49.9858 29.6857 49.9289C29.6289 49.872 29.5603 49.8283 29.4848 49.8007C29.4093 49.7731 29.3287 49.7624 29.2486 49.7693V49.77ZM30.9529 49.77C30.8705 49.7643 30.7878 49.7756 30.71 49.8032C30.6321 49.8308 30.5608 49.8741 30.5004 49.9304C30.44 49.9867 30.3918 50.0549 30.3588 50.1306C30.3258 50.2063 30.3088 50.288 30.3087 50.3706C30.3076 50.5328 30.3685 50.6892 30.4789 50.808C30.5893 50.9268 30.7409 50.999 30.9028 51.0098C30.9883 51.0133 31.0737 50.999 31.1534 50.9679C31.2332 50.9368 31.3056 50.8895 31.3662 50.8289C31.4267 50.7684 31.474 50.6959 31.5051 50.6162C31.5363 50.5364 31.5505 50.4511 31.547 50.3655C31.5539 50.2857 31.5434 50.2053 31.516 50.13C31.4886 50.0546 31.4451 49.9863 31.3885 49.9295C31.3319 49.8728 31.2636 49.8291 31.1883 49.8016C31.1131 49.774 31.0327 49.7632 30.9529 49.77Z" fill="#D2D4E1"/>
<path d="M23.713 22.6703C23.8498 22.7777 23.7317 22.8414 23.6615 22.88C22.6791 23.4052 21.7905 24.0894 21.0317 24.905C20.5196 25.4938 20.0931 26.1519 19.7647 26.8598C19.4063 27.6149 19.1798 28.4256 19.0948 29.257C18.9824 29.9026 18.964 30.561 19.0403 31.2118C19.1012 31.5654 19.0769 31.9312 19.1119 32.292C19.1633 32.8027 19.2521 33.3089 19.3775 33.8066C19.4648 34.1752 19.5321 34.5482 19.6366 34.914C20.0229 36.292 20.5061 37.641 21.0825 38.951C21.512 39.9109 21.9865 40.845 22.4711 41.7748C22.6098 42.1166 22.7906 42.4398 23.0094 42.7368C23.1053 42.8449 23.0624 42.9781 23.0588 43.1033C21.7836 43.0585 20.5561 42.6071 19.5557 41.8149C17.6957 40.3969 16.3962 38.3676 15.8866 36.085C15.8448 35.9042 15.7612 35.7358 15.6425 35.5932C15.2391 35.1145 14.9541 34.5475 14.8105 33.9382C14.6669 33.3289 14.6687 32.6943 14.8157 32.0858C14.834 31.9535 14.8817 31.827 14.9553 31.7155C15.0289 31.604 15.1265 31.5105 15.2409 31.4416C15.3169 31.3965 15.3792 31.3317 15.4214 31.2541C15.4636 31.1765 15.4841 31.089 15.4807 31.0007C15.5669 29.9243 15.5934 28.8439 15.5602 27.7646C15.4904 26.7189 15.7991 25.6829 16.4299 24.8459C17.0607 24.0089 17.9715 23.4267 18.996 23.2057C20.5342 22.8005 22.1231 22.6202 23.713 22.6703Z" fill="#DBDBE7"/>
<path d="M24.7827 1.21289C26.137 2.67597 27.2042 4.29866 27.2765 6.36014C27.3037 7.14599 27.1167 7.92446 26.7354 8.61215C26.3541 9.29984 25.7929 9.87084 25.112 10.2641C24.7046 10.5336 24.2605 10.7431 23.7935 10.8861C23.8171 10.4295 23.8721 9.97509 23.9581 9.52607C24.0333 9.01201 24.1421 8.50346 24.2838 8.00361C24.4191 7.54264 24.3375 7.40091 23.8779 7.29354C23.8615 7.19977 23.6983 7.23697 23.7233 7.08379C23.8736 6.15326 24.0039 5.22276 24.1528 4.29223C24.2959 3.41896 24.4541 2.54927 24.5894 1.67529C24.618 1.49706 24.618 1.32599 24.7827 1.21289Z" fill="#CAD83A"/>
<path d="M31.0192 16.8363L30.9004 16.8499C30.3833 16.8643 29.8661 16.8247 29.3572 16.7318C28.6248 16.5583 27.9312 16.2495 27.3121 15.8213L27.1303 15.6424C27.0545 15.4198 27.2957 15.3747 27.3608 15.2308C27.4324 15.2308 27.504 15.2537 27.5333 15.1592H27.5297C27.6004 15.1779 27.6753 15.1715 27.7419 15.1413C27.8084 15.111 27.8624 15.0587 27.8948 14.9932L27.9893 14.9481L28.0122 14.9409C28.0423 14.9867 28.0573 14.9731 28.0637 14.9273V14.9316C28.1897 14.9474 28.3121 14.956 28.3722 14.8085H28.3894C28.4578 14.8241 28.5292 14.8202 28.5954 14.7973C28.6617 14.7744 28.7203 14.7334 28.7645 14.679L28.7681 14.6832C29.0436 14.6439 29.37 14.7348 29.5297 14.3919V14.3969C29.5941 14.3862 29.6012 14.3396 29.6012 14.2852C29.7215 14.2888 29.7372 14.1851 29.7809 14.1106C30.2197 14.0075 30.6291 13.8157 31.0565 13.6811C32.2919 13.2889 33.5259 12.8938 34.77 12.5259C35.1737 12.3569 35.5961 12.2368 36.0283 12.168C36.0749 12.3827 35.8494 12.5481 35.9245 12.7664L35.9203 12.7628C35.8537 12.785 35.8487 12.8386 35.8558 12.8959C35.8578 12.9021 35.8577 12.9087 35.8555 12.9148C35.8533 12.9209 35.8491 12.9261 35.8437 12.9295C35.717 12.9503 35.7306 13.0426 35.7392 13.1328C35.6969 13.2209 35.659 13.3103 35.6132 13.3962C35.2161 14.0945 34.7353 14.7419 34.1816 15.3239V15.3289L34.1222 15.3833V15.399L34.1165 15.3847C33.9752 15.4492 33.8546 15.5515 33.7679 15.6803C32.9637 16.2911 32.0182 16.6888 31.0192 16.8363Z" fill="#CAD83A"/>
<path d="M16.2246 12.5877C16.2765 12.6649 16.344 12.7303 16.4228 12.7797C16.5016 12.829 16.5899 12.8611 16.682 12.874C17.5903 13.1306 18.4627 13.5003 19.2789 13.9742C18.8031 14.3666 18.2631 14.6739 17.6827 14.8826C16.7921 15.2233 15.8243 15.3095 14.8875 15.1316C13.9506 14.9538 13.0818 14.5188 12.378 13.8754C11.4217 13.0886 10.6084 12.1428 9.97363 11.0795L9.98151 10.8118L10.0953 10.7402C10.0953 10.9306 10.2556 10.955 10.3816 10.9779C10.9786 11.0688 11.5634 11.2198 12.1539 11.3358C13.2336 11.5457 14.301 11.8143 15.3514 12.1404C15.6277 12.2284 15.914 12.2835 16.196 12.3551L16.2118 12.5305C16.206 12.5376 16.1953 12.5476 16.1967 12.5505C16.2052 12.5635 16.2145 12.576 16.2246 12.5877Z" fill="#CAD83A"/>
<path d="M16.1959 12.3564C15.9139 12.2848 15.6276 12.2318 15.3513 12.1416C14.3009 11.8155 13.2335 11.547 12.1538 11.3371C11.5633 11.2182 10.9785 11.0672 10.3815 10.9792C10.2555 10.9598 10.0952 10.9319 10.0952 10.7415C11.2394 9.94154 12.5547 9.41995 13.9362 9.21831C14.592 9.11174 15.2634 9.152 15.9018 9.33618C16.5402 9.52036 17.1299 9.84385 17.6282 10.2834C18.4267 10.9902 18.9954 11.9198 19.2609 12.9526C19.1507 13.0027 19.0891 12.9419 19.0247 12.9111C18.3282 12.572 17.6038 12.2938 16.8594 12.0793C16.4829 11.9727 16.3784 12.0156 16.1959 12.3564Z" fill="#B0CE40"/>
<path d="M5.98519 13.7649L6.0267 13.7699L6.0353 13.8286C6.07825 14.0948 6.12691 14.3568 6.46477 14.4012C6.46906 14.4678 6.44831 14.5522 6.48124 14.5987C6.77043 14.9882 6.98652 15.427 7.119 15.8936C7.14191 15.9824 7.22136 16.0032 7.30726 15.9939L7.3452 16.1148C7.19775 16.2637 7.31012 16.414 7.35522 16.5521C7.60667 17.3288 7.58623 18.168 7.29724 18.9315C7.12436 19.2744 7.00142 19.6403 6.93218 20.018C6.8878 20.0316 6.81838 20.0316 6.80191 20.061C6.65875 20.3215 6.4891 20.4904 6.16843 20.3115C6.11904 20.2843 6.03601 20.3172 5.96801 20.3222V20.3187C5.96801 20.1383 5.8313 20.2013 5.7361 20.1927C5.72393 19.9106 5.49774 19.9393 5.31665 19.9064C5.33311 19.7632 5.24006 19.7725 5.147 19.7782C5.15377 19.7404 5.15 19.7014 5.13611 19.6656C5.12223 19.6297 5.09876 19.5984 5.06827 19.575C4.93799 19.4483 4.71537 19.3738 4.77121 19.1183C4.7755 19.0975 4.70893 19.0467 4.66741 19.0324C4.5035 18.9894 4.44409 18.8491 4.38825 18.7217C4.02512 18.0757 3.91565 17.3175 4.08118 16.5951C4.11258 16.5173 4.12482 16.4332 4.11685 16.3497C4.10888 16.2663 4.08093 16.1859 4.03537 16.1155L4.08476 15.8793C4.13487 15.8743 4.19428 15.8643 4.19929 15.8077C4.30247 15.4148 4.45445 15.0363 4.65167 14.6811C4.76405 14.3539 5.02102 14.0705 4.96161 13.6897H4.9659C5.08902 13.7055 5.12051 13.6246 5.16489 13.5294C5.23647 13.3741 5.32094 13.2667 5.50132 13.4578C5.60039 13.563 5.73633 13.6259 5.88069 13.6331L5.92363 13.6868L5.98519 13.7649Z" fill="#CBDA38"/>
<path d="M24.7826 1.21153C24.618 1.32463 24.6166 1.49783 24.5887 1.67463C24.4534 2.54861 24.2923 3.41831 24.152 4.29157C24.0039 5.2221 23.8736 6.15265 23.7225 7.08318C23.6975 7.23636 23.8607 7.19911 23.8772 7.29288C23.7862 7.32867 23.7058 7.38677 23.6433 7.46183C23.5807 7.53688 23.5381 7.62651 23.5193 7.72238C23.2801 8.61219 23.1071 9.51845 23.0018 10.4338C22.9917 10.5097 23.0118 10.592 22.9531 10.6614C22.865 10.6829 22.8414 10.602 22.7999 10.5569C22.0097 9.72388 21.5131 8.65575 21.3853 7.51473C21.2575 6.37372 21.5056 5.22219 22.092 4.23504C22.7398 3.08941 23.5692 2.05646 24.5479 1.17645C24.6652 1.06908 24.7204 1.07983 24.7826 1.21153Z" fill="#DFE688"/>
<path d="M41.8801 17.66C41.9195 18.2586 41.7757 18.855 41.4678 19.3698C41.1599 19.8846 40.7025 20.2934 40.1564 20.5418C39.412 20.9326 39.5967 21.0164 39.1479 20.2512C38.7504 19.5901 38.5602 18.8251 38.6018 18.0548C38.6434 17.2845 38.9149 16.5444 39.3812 15.93C39.6938 15.4541 40.0638 15.0184 40.4828 14.6329C40.5644 14.5571 40.6375 14.4741 40.7334 14.6265C41.3703 15.5221 41.7653 16.567 41.8801 17.66Z" fill="#C9D73B"/>
<path d="M4.45696 23.0076C5.00873 22.9788 5.56074 23.0595 6.08123 23.2448C6.60173 23.4302 7.08043 23.7167 7.48977 24.0878C7.61862 24.2016 7.63794 24.2889 7.5413 24.4321C7.32073 24.7802 7.05769 25.0995 6.75823 25.3826C6.39178 25.7134 5.94628 25.9441 5.4647 26.0526C4.98313 26.161 4.48172 26.1435 4.00887 26.0018C3.00435 25.7221 2.06984 25.2344 1.26595 24.5702C1.13282 24.4679 1.17505 24.4063 1.2817 24.329C2.18889 23.5888 3.29247 23.1295 4.45696 23.0076Z" fill="#C9D73B"/>
<path d="M33.0295 21.5231V20.8788C33.0295 20.7708 33.061 20.7085 33.187 20.7486C33.7815 20.8817 34.3426 21.1344 34.8363 21.4912C35.33 21.8481 35.7459 22.3017 36.0588 22.8244C36.3566 23.4263 36.4601 24.1059 36.3551 24.7692C36.3569 24.8054 36.3506 24.8415 36.3367 24.875C36.3229 24.9085 36.3018 24.9384 36.2749 24.9628C36.2481 24.9872 36.2162 25.0053 36.1816 25.0158C36.1469 25.0264 36.1104 25.0292 36.0745 25.024C35.6837 25.0546 35.2905 25.0285 34.9071 24.9467C34.438 24.8089 34.0205 24.5348 33.7076 24.1592C33.3947 23.7836 33.2005 23.3235 33.1498 22.8373C33.0463 22.4073 33.0058 21.9647 33.0295 21.5231Z" fill="#C9D73B"/>
<path d="M35.9276 12.7741C35.856 12.5593 36.0779 12.389 36.0314 12.1757C36.1745 11.918 35.9333 11.923 35.8116 11.8894C34.9999 11.6387 34.1719 11.4443 33.3335 11.3074C32.5222 11.1934 31.6974 11.2176 30.8941 11.379C30.5197 11.5208 30.1285 11.6134 29.7302 11.6546L29.7202 11.6431C30.6273 11.2394 31.6205 11.0672 32.6106 11.1421C33.2652 11.1833 33.9157 11.2735 34.5568 11.4119L36.249 11.9065L36.2604 11.8872L36.2475 11.9051C36.3191 12.0282 36.1946 12.1256 36.2053 12.2408C36.2028 12.2421 36.2007 12.244 36.199 12.2462C36.1973 12.2484 36.1961 12.2509 36.1955 12.2536C36.1949 12.2564 36.1949 12.2592 36.1954 12.2619C36.196 12.2646 36.1972 12.2672 36.1989 12.2695L35.9276 12.7741Z" fill="#BCC254"/>
<path d="M43.6179 25.4324L43.5599 25.4724C43.1628 25.7218 42.7499 25.9452 42.3238 26.141C41.9175 26.3479 41.4713 26.4641 41.0157 26.4817C40.5602 26.4992 40.1063 26.4176 39.6854 26.2426L39.5744 26.1833C39.2357 25.9415 38.9216 25.6669 38.6367 25.3637V25.3672C38.6413 25.3433 38.6371 25.3186 38.6248 25.2975C38.6126 25.2765 38.5932 25.2605 38.5701 25.2527L38.5522 25.1439C38.5955 25.1359 38.6402 25.1401 38.6812 25.1562C38.7222 25.1723 38.7579 25.1995 38.7842 25.2348C39.043 25.6085 39.3896 25.913 39.7934 26.1217C40.249 26.3651 40.775 26.443 41.2816 26.3422C41.9722 26.1947 42.6301 25.9223 43.2228 25.5383C43.4798 25.3766 43.7883 25.2083 43.8233 24.834L44.0946 24.9771V25.0766C44.0668 25.0858 44.0413 25.1009 44.0199 25.1209C43.9985 25.1409 43.9818 25.1654 43.9708 25.1926C43.8354 25.2427 43.7143 25.325 43.6179 25.4324Z" fill="#89AA5A"/>
<path d="M7.34095 16.1214L7.30302 16.0004C7.22193 15.7486 7.12633 15.5017 7.01671 15.261L7.04175 15.2402C7.26727 15.4708 7.4171 15.7647 7.47123 16.0827C7.72682 16.7606 7.81473 17.4902 7.72749 18.2093C7.6152 18.9952 7.32109 19.7439 6.86854 20.3961C6.8127 20.4755 6.77691 20.57 6.71822 20.6466C6.64664 20.7368 6.58795 20.7275 6.56934 20.6044C6.71237 20.4255 6.83438 20.2307 6.93296 20.0239C7.30609 19.4526 7.53772 18.8006 7.60867 18.122C7.67963 17.4433 7.58785 16.7575 7.34095 16.1214Z" fill="#383212"/>
<path d="M12.9048 20.1419L12.9871 20.1383C13.171 20.1441 13.3242 19.9952 13.5132 20.031C13.5125 20.0466 13.5168 20.0622 13.5253 20.0753C13.5253 20.5836 13.5425 21.0939 13.5096 21.6007C13.4888 22.2378 13.3277 22.8625 13.0379 23.4303C13.0049 23.3873 12.987 23.3345 12.987 23.2803C12.987 23.2261 13.0049 23.1734 13.0379 23.1303C13.2176 22.7317 13.3211 22.303 13.3428 21.8663C13.4036 21.4256 13.4318 20.9811 13.4273 20.5363C13.4323 20.2593 13.3514 20.2436 13.1453 20.25C13.0307 20.2664 12.9188 20.2976 12.8124 20.343C12.4674 20.4382 12.1976 20.7253 11.8189 20.7281L11.8003 20.7074C11.8912 20.653 11.9814 20.5964 12.0737 20.5442C12.3581 20.4259 12.6356 20.2917 12.9048 20.1419Z" fill="#89AA5A"/>
<path d="M9.86844 24.8476L9.79686 24.7867C9.78898 24.7194 9.7804 24.6528 9.77324 24.5856C9.64165 23.8034 9.77359 22.9998 10.1483 22.3008L10.1662 22.3173C10.1778 22.4633 10.1563 22.6101 10.1032 22.7467C9.89155 23.2522 9.81199 23.8032 9.87202 24.3479C9.87918 24.5627 9.95792 24.7402 10.2421 24.7345C10.7557 24.7836 11.2737 24.7191 11.7596 24.5455C11.8494 24.5049 11.9473 24.485 12.0459 24.4875L12.0623 24.5061C11.9075 24.6078 11.7387 24.6864 11.5613 24.7395C11.01 24.8889 10.4343 24.9257 9.86844 24.8476Z" fill="#89AA5A"/>
<path d="M29.7808 14.1219C29.7372 14.1935 29.7214 14.3002 29.6012 14.2966C29.677 13.9165 29.5131 13.6581 29.1932 13.7089C28.8274 13.7516 28.4739 13.8674 28.1539 14.0496C27.8376 14.1292 27.5298 14.2393 27.2348 14.3782C27.1489 14.4075 27.0744 14.4984 26.9678 14.4347C27.0651 14.235 27.1618 14.0346 27.2584 13.8349H27.2548C27.3524 13.7439 27.4204 13.6257 27.4502 13.4956H27.4545L27.534 13.4648C27.5457 13.522 27.542 13.5813 27.5231 13.6366C27.5042 13.6918 27.4709 13.741 27.4266 13.7791C27.3364 13.8871 27.3844 14.0332 27.408 14.1369C27.4287 14.23 27.5862 14.1556 27.6342 14.1126C27.8733 13.8979 28.1989 13.9129 28.4602 13.7733C28.6898 13.6667 28.9381 13.6062 29.191 13.5951C29.2657 13.5838 29.342 13.5891 29.4144 13.6106C29.4868 13.6322 29.5535 13.6694 29.6099 13.7198C29.6662 13.7701 29.7107 13.8322 29.7403 13.9017C29.7699 13.9712 29.7837 14.0464 29.7808 14.1219Z" fill="#BCC254"/>
<path d="M34.5542 11.4108C33.9131 11.2724 33.2625 11.1821 32.608 11.141C31.6179 11.0661 30.6247 11.2383 29.7176 11.642L29.6045 11.6513C29.6095 11.5311 29.6947 11.5082 29.7899 11.4638C30.0876 11.3156 30.4563 11.3414 30.709 11.0873C30.7242 11.0748 30.7436 11.0684 30.7634 11.0694C31.5809 10.9932 32.4041 11.0011 33.22 11.093C33.6566 11.1982 34.1197 11.2125 34.5556 11.3507L34.5542 11.4108Z" fill="#2B331A"/>
<path d="M35.9277 12.7743L36.199 12.2676C36.2106 12.414 36.1776 12.5604 36.1045 12.6877C35.8473 13.3427 35.4901 13.9538 35.0458 14.4994C34.8601 14.7571 34.6532 14.9989 34.4274 15.2224C34.3558 15.2853 34.3028 15.3841 34.1812 15.3318C34.7349 14.7498 35.2156 14.1025 35.6127 13.4042C35.6585 13.3183 35.6965 13.2289 35.7387 13.1408C35.7704 13.1171 35.7963 13.0864 35.8144 13.0512C35.8325 13.016 35.8423 12.9771 35.8432 12.9375C35.8487 12.9341 35.8528 12.9289 35.855 12.9228C35.8572 12.9167 35.8573 12.9101 35.8554 12.9039C35.8772 12.8897 35.8948 12.8697 35.9061 12.8463C35.9175 12.8228 35.9222 12.7967 35.9198 12.7707L35.9277 12.7743Z" fill="#383212"/>
<path d="M27.3123 15.8223C27.9313 16.2504 28.6249 16.5592 29.3573 16.7328C29.8662 16.8257 30.3834 16.8652 30.9005 16.8509C30.854 17.0033 30.7252 16.9446 30.6292 16.9475C29.8245 16.9636 29.0251 16.812 28.2822 16.5023C27.9748 16.3871 27.6844 16.2309 27.4189 16.0377C27.3805 16.0179 27.3494 15.9863 27.3302 15.9476C27.311 15.9088 27.3047 15.8649 27.3123 15.8223Z" fill="#383212"/>
<path d="M4.03391 16.1211C4.07947 16.1915 4.10742 16.2718 4.11539 16.3553C4.12336 16.4388 4.11112 16.5229 4.07972 16.6007C3.91419 17.3231 4.02366 18.0812 4.38679 18.7273C4.44263 18.8547 4.50204 18.995 4.66595 19.038C4.70747 19.0487 4.77404 19.1031 4.76975 19.1238C4.71391 19.3794 4.93652 19.4538 5.06679 19.5805C5.09729 19.6039 5.12077 19.6353 5.13465 19.6711C5.14854 19.707 5.1523 19.746 5.14553 19.7838L4.98735 19.7051V19.7101L4.92436 19.6478V19.6528L4.86065 19.5776L4.81914 19.5354L4.74255 19.4553C4.74114 19.4459 4.73689 19.4371 4.73036 19.4302C4.72383 19.4233 4.71534 19.4185 4.70604 19.4166C4.67865 19.3445 4.62836 19.2834 4.56288 19.2427C4.55843 19.2135 4.54617 19.186 4.52739 19.1632C4.50862 19.1404 4.48403 19.1231 4.45623 19.1131C4.37463 18.9699 4.29351 18.828 4.21286 18.6872C4.2151 18.6817 4.21517 18.6755 4.21305 18.6699C4.21092 18.6643 4.20676 18.6598 4.2014 18.6572L4.15273 18.5856H4.15918C4.00926 18.1505 3.91732 17.6975 3.88574 17.2384V17.0058C3.90532 16.7067 3.95496 16.4103 4.03391 16.1211Z" fill="#BCC254"/>
<path d="M39.6855 26.2428C40.1065 26.4179 40.5604 26.4994 41.0159 26.4819C41.4714 26.4643 41.9177 26.3481 42.324 26.1412C42.75 25.9454 43.163 25.722 43.5601 25.4727C43.5293 25.7833 43.2251 25.8041 43.039 25.9186C42.5597 26.2081 42.0332 26.4112 41.4836 26.5184C41.0582 26.5585 40.631 26.575 40.2038 26.5678C40.0955 26.5682 39.9894 26.5379 39.8976 26.4803C39.8059 26.4228 39.7324 26.3405 39.6855 26.2428Z" fill="#2B331A"/>
<path d="M13.0378 23.4291C13.3276 22.8614 13.4887 22.2367 13.5095 21.5996C13.5424 21.0928 13.5224 20.5824 13.5253 20.0742C13.6469 20.1322 13.6391 20.2431 13.6384 20.3512C13.6927 21.0501 13.6489 21.7532 13.5081 22.4399C13.4594 22.8451 13.3013 23.2294 13.0507 23.5515L13.0156 23.5179L13.0378 23.4291Z" fill="#2B331A"/>
<path d="M39.2061 24.1374C39.3549 23.8511 39.6656 23.8081 39.9176 23.7509C40.5312 23.6221 41.1649 23.6221 41.7786 23.7509C42.0004 23.7696 42.217 23.8276 42.4185 23.922C42.4858 23.962 42.5617 23.985 42.5724 24.0802L42.5638 24.0909C42.5154 24.0844 42.4675 24.0741 42.4207 24.0601C41.9134 23.8419 41.3643 23.7381 40.8124 23.7562C40.2606 23.7743 39.7194 23.9137 39.2275 24.1646L39.2061 24.1374Z" fill="#2B331A"/>
<path d="M31.0195 16.8367C32.0163 16.6917 32.9604 16.2978 33.7646 15.6914C33.7794 15.7174 33.7838 15.748 33.7769 15.7771C33.77 15.8062 33.7523 15.8316 33.7274 15.8482C33.4461 16.0583 33.1473 16.2436 32.8341 16.4022C32.4261 16.5375 32.0123 16.6806 31.6072 16.8316C31.5153 16.8745 31.4153 16.8971 31.3139 16.898C31.2125 16.8989 31.1121 16.878 31.0195 16.8367Z" fill="#383212"/>
<path d="M28.1543 14.0463C28.4743 13.8641 28.8278 13.7482 29.1936 13.7056C29.5136 13.6548 29.6775 13.9132 29.6016 14.2932L29.53 14.4049V14.3999C29.2931 14.543 28.9975 14.5287 28.7684 14.6912L28.7649 14.6876L28.5 14.7299L28.4785 14.7041C28.651 14.5008 28.908 14.4894 29.1378 14.4178C29.3096 14.362 29.5193 14.3104 29.4699 14.0864C29.4205 13.8623 29.2144 13.8451 28.9996 13.8559C28.7047 13.8702 28.4628 14.1028 28.1543 14.0463Z" fill="#383212"/>
<path d="M29.6044 11.6499L29.7175 11.6406L29.7275 11.6521C29.7276 11.6868 29.7169 11.7206 29.6969 11.7489C29.6769 11.7773 29.6486 11.7987 29.6159 11.8103C29.2371 11.9833 28.8814 12.2031 28.5572 12.4645C28.4647 12.5347 28.38 12.6147 28.3045 12.7029C28.1091 12.8804 27.9917 13.1495 27.709 13.2261C27.7849 13.0207 27.9953 12.9097 28.0783 12.71L28.3811 12.4237H28.3847L29.0289 11.947C29.037 11.9482 29.0453 11.9477 29.0532 11.9455C29.0611 11.9433 29.0685 11.9394 29.0748 11.9341C29.0811 11.9288 29.0862 11.9223 29.0897 11.9149C29.0933 11.9075 29.0953 11.8994 29.0955 11.8912V11.8969C29.2298 11.8778 29.3532 11.8122 29.4441 11.7115L29.4405 11.7151C29.468 11.717 29.4956 11.7119 29.5206 11.7003C29.5457 11.6886 29.5674 11.6708 29.5836 11.6485C29.5864 11.6511 29.59 11.6526 29.5938 11.6529C29.5976 11.6532 29.6013 11.6521 29.6044 11.6499Z" fill="#BCC254"/>
<path d="M10.1484 22.3001C9.77371 22.9991 9.64178 23.8028 9.77337 24.5849C9.78053 24.6522 9.78911 24.7187 9.79698 24.786C9.67387 24.766 9.64166 24.6651 9.63737 24.5713C9.5384 23.6764 9.72854 22.7734 10.1799 21.9945C10.1959 21.9641 10.2215 21.9399 10.2528 21.9258C10.284 21.9117 10.3191 21.9084 10.3524 21.9164L10.1484 22.3001Z" fill="#2B331A"/>
<path d="M4.96035 13.6973C5.01976 14.0781 4.76279 14.3615 4.65041 14.6886C4.45319 15.0438 4.30121 15.4223 4.19803 15.8153C4.19302 15.8718 4.1336 15.8818 4.0835 15.8868L4.10855 15.6463L4.10211 15.6285C4.25004 15.298 4.37209 14.9564 4.46716 14.607C4.55752 14.5067 4.61715 14.3824 4.63895 14.2491H4.63466C4.65476 14.2358 4.67097 14.2174 4.68166 14.1958C4.69234 14.1741 4.69712 14.1501 4.6955 14.126L4.69192 14.1296C4.71821 14.1107 4.73906 14.0852 4.75238 14.0556C4.7657 14.0261 4.771 13.9936 4.76779 13.9614C4.78884 13.9515 4.80611 13.9351 4.81696 13.9146C4.82781 13.894 4.83166 13.8705 4.82792 13.8476H4.80716H4.82792L4.96035 13.6973Z" fill="#BCC254"/>
<path d="M9.86865 24.8476C10.4327 24.9257 11.0067 24.8897 11.5565 24.7416C11.7339 24.6885 11.9027 24.6099 12.0575 24.5083L12.3338 24.3594C12.356 24.5455 12.1807 24.5297 12.089 24.6013C11.4448 25.1024 10.6961 24.937 9.97531 24.9592C9.90731 24.9628 9.87724 24.912 9.86865 24.8476Z" fill="#2B331A"/>
<path d="M34.5542 11.4105V11.3496C35.0802 11.4301 35.5959 11.5671 36.0924 11.7583C36.169 11.7848 36.2435 11.8041 36.2449 11.9051L34.5542 11.4105Z" fill="#383212"/>
<path d="M10.1484 22.301L10.3524 21.9144L10.346 21.9073C10.4834 21.7847 10.6051 21.6455 10.7082 21.4928L10.7547 21.4463L10.8263 21.3747L10.8742 21.3332L11.0933 21.1836L11.1083 21.1994C11.1219 21.3153 11.0367 21.3625 10.9651 21.4298C10.8241 21.5334 10.7065 21.6656 10.6201 21.8178C10.5131 22.0196 10.3576 22.1918 10.1678 22.3188L10.1484 22.301Z" fill="#89AA5A"/>
<path d="M6.93097 20.0215C6.83239 20.2283 6.71039 20.423 6.56735 20.602L6.42419 20.5949C6.31582 20.5014 6.18384 20.4395 6.04267 20.4159H6.04697L5.9668 20.3235C6.03838 20.3185 6.11783 20.2856 6.16722 20.3128C6.48789 20.4917 6.65683 20.3228 6.8007 20.0623C6.81716 20.0351 6.88659 20.0351 6.93097 20.0215Z" fill="#BCC254"/>
<path d="M3.89224 17.2422C3.92382 17.7013 4.01576 18.1542 4.16568 18.5893C4.0941 18.5986 4.02252 18.58 3.9989 18.5063C3.89592 18.116 3.83331 17.7161 3.81207 17.3131C3.80993 17.2923 3.86433 17.2665 3.89224 17.2422Z" fill="#383212"/>
<path d="M38.6367 25.3633C38.9217 25.6666 39.2357 25.9411 39.5744 26.1829C39.5537 26.2022 39.53 26.2408 39.5136 26.238C39.3157 26.1593 39.1359 26.0412 38.9852 25.8908C38.8344 25.7404 38.7159 25.5609 38.6367 25.3633Z" fill="#2B331A"/>
<path d="M5.96674 20.3247L6.04691 20.4171C5.82685 20.3904 5.61619 20.3121 5.43201 20.1887C5.24783 20.0654 5.09531 19.9004 4.98682 19.707L5.14572 19.7858C5.16118 19.8195 5.18477 19.8488 5.21438 19.8712C5.24399 19.8936 5.27869 19.9083 5.31536 19.9139V19.9103C5.4248 20.0448 5.57031 20.1454 5.73483 20.2002C5.79264 20.271 5.87591 20.3162 5.96674 20.3262V20.3247Z" fill="#383212"/>
<path d="M12.9048 20.1406C12.6344 20.2898 12.3557 20.4233 12.0702 20.5407C11.9778 20.593 11.8876 20.6495 11.7967 20.7039L11.6922 20.7268C11.6922 20.6596 11.6829 20.5744 11.7638 20.5479C12.1259 20.3657 12.5092 20.229 12.9048 20.1406Z" fill="#2B331A"/>
<path d="M4.10857 15.6465L4.08352 15.887L4.03413 16.1232C3.95678 16.413 3.90882 16.7099 3.89097 17.0094C3.67623 16.8662 3.86163 16.6909 3.86807 16.542C3.84814 16.2252 3.93262 15.9106 4.10857 15.6465Z" fill="#383212"/>
<path d="M4.4671 14.6074C4.37203 14.9568 4.24999 15.2983 4.10205 15.6289C4.12639 15.3347 4.18722 15.0447 4.28315 14.7656C4.2915 14.7224 4.31421 14.6832 4.3476 14.6545C4.38099 14.6258 4.4231 14.6092 4.4671 14.6074Z" fill="#383212"/>
<path d="M11.6924 20.728L11.7969 20.7051L11.8155 20.7258C11.735 20.8474 11.6312 20.9517 11.51 21.0328C11.3889 21.1139 11.2528 21.1701 11.1098 21.1982L11.0947 21.1825L11.4061 20.9041C11.5099 20.8748 11.6016 20.8128 11.6674 20.7273L11.6924 20.728Z" fill="#89AA5A"/>
<path d="M29.0246 11.9514L28.3804 12.4281C28.4114 12.2839 28.4939 12.1559 28.6125 12.0681C28.7311 11.9804 28.8776 11.9389 29.0246 11.9514Z" fill="#2B331A"/>
<path d="M28.0783 12.7109C27.9931 12.9106 27.7848 13.0216 27.7089 13.227L27.7132 13.2306L27.5579 13.3695L27.5386 13.3523C27.6674 13.0953 27.6867 12.7467 28.0783 12.7109Z" fill="#2B331A"/>
<path d="M26.9042 15.4177C26.814 15.3583 26.852 15.2867 26.9193 15.2689C27.134 15.1659 27.363 15.0957 27.5985 15.0605L27.6164 15.0806L27.5298 15.1657H27.5334C27.5009 15.1613 27.4678 15.1656 27.4374 15.1782C27.4071 15.1907 27.3807 15.2112 27.3609 15.2374C27.2006 15.2745 27.0466 15.3353 26.9042 15.4177Z" fill="#383212"/>
<path d="M38.5517 25.1399L38.5696 25.2487C38.2175 25.1241 38.1709 24.9094 38.4422 24.666L38.4737 24.6939C38.4021 24.7856 38.3091 24.8765 38.4558 24.9803L38.5517 25.1399Z" fill="#2B331A"/>
<path d="M27.2585 13.8301C27.1619 14.0298 27.0652 14.2302 26.9679 14.4299C26.9455 14.3716 26.9353 14.3093 26.9379 14.2469C26.9405 14.1844 26.956 14.1233 26.9832 14.067C27.0104 14.0108 27.0489 13.9607 27.0963 13.92C27.1436 13.8792 27.1988 13.8486 27.2585 13.8301Z" fill="#2B331A"/>
<path d="M38.6152 24.5483C38.6925 24.2398 38.9552 24.1976 39.2058 24.1367L39.2265 24.1618L38.6296 24.5633L38.6152 24.5483Z" fill="#2B331A"/>
<path d="M26.9043 15.4183C27.0472 15.3344 27.2018 15.2724 27.3631 15.2344C27.298 15.3775 27.0568 15.4234 27.1326 15.646L26.9265 15.5135L26.9215 15.5042C26.9225 15.5017 26.9229 15.4989 26.9228 15.4961C26.9227 15.4933 26.922 15.4906 26.9208 15.4882C26.9196 15.4857 26.9179 15.4834 26.9158 15.4817C26.9137 15.4799 26.9112 15.4785 26.9086 15.4777L26.9043 15.4183Z" fill="#BCC254"/>
<path d="M11.4061 20.9042L11.0947 21.1826L10.875 21.3322C10.9587 21.0745 11.0947 20.8813 11.4061 20.9042Z" fill="#2B331A"/>
<path d="M13.5134 20.0296C13.3244 19.9974 13.1713 20.1427 12.9873 20.137C13.1076 19.9079 13.3903 19.8499 13.5134 20.0296Z" fill="#2B331A"/>
<path d="M33.7671 15.6921C33.8538 15.5633 33.9744 15.461 34.1157 15.3965C34.0491 15.5489 34.047 15.7823 33.7671 15.6921Z" fill="#383212"/>
<path d="M26.9264 15.5137L27.1325 15.6461L27.3143 15.825C27.1182 15.8043 26.9085 15.7978 26.9264 15.5137Z" fill="#383212"/>
<path d="M13.0506 23.5512C13.0334 23.7459 12.979 23.9091 12.7586 23.9657L12.7393 23.9471L12.9733 23.5441C12.9885 23.537 13.0027 23.5282 13.0156 23.5176L13.0506 23.5512Z" fill="#2B331A"/>
<path d="M10.7079 21.4902C10.6048 21.6429 10.4832 21.7821 10.3457 21.9047C10.3629 21.6785 10.4531 21.5139 10.7079 21.4902Z" fill="#2B331A"/>
<path d="M44.0938 24.976L43.8225 24.8328L43.8132 24.8385L43.7488 24.7798H43.7524L43.6758 24.6796L43.6887 24.666C43.8834 24.6918 44.0637 24.7348 44.0938 24.976Z" fill="#2B331A"/>
<path d="M4.21784 18.6895C4.29849 18.8326 4.37961 18.9746 4.46121 19.1153C4.16559 19.0967 4.20782 18.8841 4.21784 18.6895Z" fill="#383212"/>
<path d="M12.7586 23.9673C12.7285 24.1384 12.7035 24.3145 12.4551 24.2536C12.4593 24.2357 12.4624 24.2175 12.4644 24.1992C12.5118 24.1807 12.554 24.1508 12.5871 24.1121C12.6202 24.0733 12.6432 24.0271 12.6541 23.9773L12.7385 23.9473L12.7586 23.9673Z" fill="#2B331A"/>
<path d="M6.80786 14.8242C7.03477 14.8772 6.99826 15.0805 7.04264 15.2372L7.01759 15.258L6.78711 14.8414L6.80786 14.8242Z" fill="#383212"/>
<path d="M28.3917 14.8185H28.3745C28.2607 14.8236 28.152 14.867 28.066 14.9416V14.9373C28.057 14.9339 28.0473 14.9334 28.038 14.9359C28.0288 14.9383 28.0205 14.9436 28.0144 14.9509L28.0059 14.918C28.1082 14.7197 28.3029 14.7305 28.4833 14.709L28.504 14.7348L28.3917 14.8185Z" fill="#383212"/>
<path d="M5.27002 13.0586C5.4189 12.929 5.49406 12.9656 5.62792 13.2347L5.59069 13.2769C5.4776 13.2275 5.44324 13.0579 5.28648 13.0744L5.27002 13.0586Z" fill="#383212"/>
<path d="M12.3366 24.3584L12.0603 24.5073L12.0438 24.4887C12.0352 24.2739 12.1727 24.2446 12.3409 24.256C12.3502 24.2675 12.3602 24.2782 12.3702 24.289L12.3366 24.3584Z" fill="#89AA5A"/>
<path d="M36.2023 12.2397C36.1916 12.1245 36.3176 12.025 36.2445 11.904C36.4027 11.8783 36.3727 11.9949 36.3791 12.083C36.3884 12.2111 36.309 12.2419 36.2023 12.2397Z" fill="#383212"/>
<path d="M27.9894 14.9543L27.8949 14.9994L27.6959 15.0473L27.6602 15.0044C27.6988 14.6937 27.8821 14.9199 28.0023 14.9113C27.993 14.9237 27.9884 14.9389 27.9894 14.9543Z" fill="#383212"/>
<path d="M28.3786 12.4259L28.0758 12.7122C28.0722 12.506 28.1595 12.3994 28.3786 12.4259Z" fill="#2B331A"/>
<path d="M4.63621 14.248C4.61441 14.3813 4.55478 14.5056 4.46441 14.6059C4.45439 14.4535 4.37494 14.2688 4.63621 14.248Z" fill="#383212"/>
<path d="M43.6182 25.4316C43.7139 25.3227 43.8348 25.2389 43.9703 25.1875C43.956 25.418 43.7828 25.4187 43.6182 25.4316Z" fill="#2B331A"/>
<path d="M42.5701 24.0762C42.7269 24.0898 42.9115 24.0389 42.9817 24.2537L42.9645 24.2752L42.5615 24.0869L42.5701 24.0762Z" fill="#2B331A"/>
<path d="M6.04248 20.416C6.18365 20.4396 6.31563 20.5015 6.424 20.595C6.25722 20.6179 6.10905 20.6043 6.04248 20.416Z" fill="#383212"/>
<path d="M29.4389 11.718C29.348 11.8187 29.2247 11.8843 29.0903 11.9034C29.134 11.7058 29.275 11.6894 29.4389 11.718Z" fill="#2B331A"/>
<path d="M5.09033 13.3513C5.09749 13.2218 5.07817 13.0758 5.27 13.0586L5.28575 13.0744L5.10823 13.3664L5.09033 13.3513Z" fill="#383212"/>
<path d="M42.9815 24.2539C43.1247 24.2654 43.2836 24.2389 43.3351 24.4314L43.3137 24.4536L42.9644 24.2754L42.9815 24.2539Z" fill="#2B331A"/>
<path d="M27.4507 13.4961C27.4209 13.6262 27.3528 13.7443 27.2552 13.8354C27.2409 13.6765 27.2417 13.5262 27.4507 13.4961Z" fill="#2B331A"/>
<path d="M11.6656 20.729C11.5998 20.8145 11.5081 20.8765 11.4043 20.9058C11.4064 20.7204 11.5296 20.7161 11.6656 20.729Z" fill="#2B331A"/>
<path d="M6.15917 13.8809C6.30233 13.8959 6.33597 13.9947 6.33669 14.1178L6.31736 14.1336L6.1377 13.9009L6.15917 13.8809Z" fill="#383212"/>
<path d="M4.96031 13.6985L4.8243 13.846C4.81525 13.8194 4.81181 13.7912 4.81422 13.7633C4.81663 13.7353 4.82482 13.7081 4.83828 13.6835C4.85174 13.6589 4.87018 13.6373 4.89241 13.6202C4.91465 13.6031 4.94021 13.5907 4.96746 13.584L4.9782 13.5933L4.96317 13.6992L4.96031 13.6985Z" fill="#383212"/>
<path d="M6.57512 14.4688C6.71828 14.4895 6.7512 14.5854 6.7469 14.71L6.71828 14.7329L6.56152 14.4809L6.57512 14.4688Z" fill="#383212"/>
<path d="M6.40134 14.2305C6.53805 14.2527 6.57241 14.3493 6.57527 14.4688L6.56168 14.481L6.46074 14.4094L6.38916 14.2441L6.40134 14.2305Z" fill="#383212"/>
<path d="M9.98129 10.8145L9.97341 11.0822C9.89897 10.9906 9.74722 10.8961 9.98129 10.8145Z" fill="#B0CE40"/>
<path d="M43.3354 24.4316C43.4199 24.4316 43.5036 24.4316 43.5122 24.549L43.4972 24.5669L43.329 24.4997H43.3247C43.3237 24.4848 43.32 24.4703 43.314 24.4567L43.3354 24.4316Z" fill="#2B331A"/>
<path d="M5.92226 13.697L5.87931 13.6433L5.84137 13.5488L5.86572 13.5273C5.97881 13.5417 5.98238 13.6247 5.98023 13.7113L5.92226 13.697Z" fill="#383212"/>
<path d="M4.56602 19.2461C4.6315 19.2868 4.68179 19.3479 4.70918 19.42C4.57604 19.4308 4.55815 19.3492 4.56602 19.2461Z" fill="#383212"/>
<path d="M27.5342 13.464L27.4547 13.4947C27.4132 13.406 27.4548 13.3666 27.5385 13.3516L27.5578 13.3688L27.5349 13.469L27.5342 13.464Z" fill="#2B331A"/>
<path d="M5.7496 13.4062C5.78057 13.4079 5.80976 13.4212 5.83129 13.4435C5.85281 13.4658 5.86506 13.4955 5.86556 13.5265L5.84122 13.548L5.73242 13.4227L5.7496 13.4062Z" fill="#383212"/>
<path d="M4.76488 13.9609C4.7681 13.9932 4.76278 14.0256 4.74946 14.0552C4.73614 14.0847 4.7153 14.1102 4.68901 14.1291C4.68829 14.0619 4.65823 13.9803 4.76488 13.9609Z" fill="#383212"/>
<path d="M43.9717 25.1902C43.9826 25.163 43.9994 25.1385 44.0208 25.1185C44.0422 25.0985 44.0677 25.0834 44.0955 25.0742C44.0969 25.158 44.059 25.2009 43.9717 25.1902Z" fill="#2B331A"/>
<path d="M4.46078 19.1172C4.48858 19.1272 4.51317 19.1445 4.53194 19.1673C4.55071 19.1901 4.56297 19.2176 4.56743 19.2468C4.48225 19.2446 4.44289 19.2045 4.46078 19.1172Z" fill="#383212"/>
<path d="M5.6853 13.2949L5.74972 13.408L5.73254 13.4245L5.64307 13.3321L5.6853 13.2949Z" fill="#383212"/>
<path d="M38.5 24.6085C38.512 24.589 38.529 24.573 38.5493 24.5622C38.5695 24.5514 38.5923 24.5461 38.6152 24.547L38.6296 24.562L38.5293 24.6415L38.5 24.6085Z" fill="#2B331A"/>
<path d="M43.515 24.549C43.5381 24.5477 43.5611 24.5526 43.5816 24.5632C43.6021 24.5737 43.6194 24.5896 43.6317 24.6092L43.6102 24.6349L43.5 24.567L43.515 24.549Z" fill="#2B331A"/>
<path d="M4.96875 13.5827L5.0296 13.4668L5.04247 13.4782L4.97949 13.5921L4.96875 13.5827Z" fill="#383212"/>
<path d="M12.4647 24.2016C12.4627 24.22 12.4596 24.2381 12.4554 24.256L12.3702 24.289C12.3601 24.2782 12.3501 24.2675 12.3408 24.256C12.3533 24.2352 12.3719 24.2188 12.3941 24.2091C12.4162 24.1993 12.4409 24.1967 12.4647 24.2016Z" fill="#89AA5A"/>
<path d="M4.82423 13.8438C4.82797 13.8667 4.82411 13.8902 4.81326 13.9108C4.80241 13.9313 4.78515 13.9477 4.7641 13.9576C4.74334 13.8981 4.74764 13.8516 4.82423 13.8438Z" fill="#383212"/>
<path d="M4.69235 14.125C4.69397 14.1491 4.6892 14.1731 4.67851 14.1948C4.66783 14.2164 4.65161 14.2348 4.63152 14.2481C4.62364 14.193 4.63079 14.1458 4.69235 14.125Z" fill="#383212"/>
<path d="M6.33674 14.1172L6.40117 14.2289L6.39043 14.2389L6.31885 14.1329L6.33674 14.1172Z" fill="#383212"/>
<path d="M38.5666 25.252C38.5896 25.2598 38.609 25.2757 38.6213 25.2968C38.6335 25.3178 38.6377 25.3426 38.6331 25.3665C38.5673 25.3551 38.5623 25.3049 38.5666 25.252Z" fill="#2B331A"/>
<path d="M5.02979 13.4668L5.09062 13.3516L5.10852 13.3666L5.04266 13.4783L5.02979 13.4668Z" fill="#383212"/>
<path d="M29.5772 11.6545C29.561 11.6768 29.5393 11.6945 29.5143 11.7062C29.4892 11.7178 29.4616 11.723 29.4341 11.721C29.4584 11.6473 29.5164 11.6494 29.5772 11.6545Z" fill="#2B331A"/>
<path d="M6.74682 14.709L6.80767 14.8242L6.78692 14.8414L6.71533 14.7319L6.74682 14.709Z" fill="#383212"/>
<path d="M29.0905 11.8991C29.0903 11.9073 29.0883 11.9154 29.0848 11.9228C29.0812 11.9302 29.0761 11.9367 29.0698 11.942C29.0635 11.9473 29.0562 11.9512 29.0482 11.9534C29.0403 11.9556 29.032 11.9561 29.0239 11.9549C29.0241 11.9467 29.0261 11.9386 29.0297 11.9312C29.0332 11.9238 29.0383 11.9173 29.0446 11.912C29.0509 11.9067 29.0583 11.9028 29.0662 11.9006C29.0741 11.8984 29.0824 11.8979 29.0905 11.8991Z" fill="#2B331A"/>
<path d="M34.1196 15.3923L34.179 15.3379C34.1833 15.3823 34.1647 15.4016 34.1196 15.3923Z" fill="#383212"/>
<path d="M26.9086 15.4766C26.9137 15.4782 26.9178 15.4818 26.9202 15.4865C26.9226 15.4912 26.9231 15.4966 26.9215 15.5016L26.875 15.5074L26.9086 15.4766Z" fill="#383212"/>
<path d="M27.5986 15.061L27.6602 15.0059L27.696 15.0488L27.6165 15.081L27.5986 15.061Z" fill="#383212"/>
<path d="M27.9894 14.9544C27.9885 14.9392 27.9931 14.9242 28.0022 14.9121L28.0108 14.9451L27.9894 14.9544Z" fill="#BCC254"/>
<path d="M39.1205 23.3C39.0962 23.3093 39.0575 23.3344 39.0489 23.3265C39.0103 23.2907 39.0368 23.2607 39.0697 23.2363L39.1205 23.3Z" fill="#FEFDFE"/>
<path d="M4.15918 18.5898L4.20785 18.6614L4.15918 18.5898Z" fill="#383212"/>
<path d="M4.74561 19.457L4.82219 19.5372C4.80217 19.5346 4.78363 19.5253 4.76969 19.5107C4.75575 19.4961 4.74725 19.4771 4.74561 19.457Z" fill="#383212"/>
<path d="M4.8623 19.5801L4.92601 19.6553L4.8623 19.5801Z" fill="#383212"/>
<path d="M16.2247 12.589C16.2146 12.5777 16.2053 12.5657 16.1968 12.5532C16.1968 12.5532 16.2061 12.5404 16.2118 12.5332L16.2247 12.589Z" fill="#B0CE40"/>
<path d="M6.10116 13.8203L6.15914 13.8804L6.13767 13.9005L6.08398 13.8396L6.10116 13.8203Z" fill="#383212"/>
<path d="M4.92432 19.6504L4.9873 19.7127L4.92432 19.6504Z" fill="#383212"/>
<path d="M6.03545 13.8302L6.02686 13.7715L6.09844 13.8223L6.08126 13.8416L6.03545 13.8302Z" fill="#383212"/>
<path d="M5.92236 13.6973L5.98034 13.7116C5.98034 13.7295 5.98464 13.7474 5.98535 13.7653L5.92236 13.6973Z" fill="#BCC254"/>
<path d="M43.6288 24.6094L43.6889 24.6667L43.676 24.6802L43.6044 24.6352L43.6288 24.6094Z" fill="#2B331A"/>
<path d="M38.4424 24.6688L38.5004 24.6094L38.5297 24.6423L38.4739 24.6967L38.4424 24.6688Z" fill="#2B331A"/>
<path d="M10.827 21.373L10.7554 21.4447L10.827 21.373Z" fill="#2B331A"/>
<path d="M6.72311 22.5176L6.73026 22.5892L6.65869 22.5691L6.72311 22.5176Z" fill="#FEFDFE"/>
<path d="M5.62755 13.2363L5.68554 13.295L5.6433 13.3322L5.59033 13.2785L5.62755 13.2363Z" fill="#383212"/>
<path d="M29.6464 26.716C29.6455 26.7478 29.636 26.7787 29.6188 26.8055C29.6017 26.8322 29.5776 26.8538 29.5491 26.8678C29.4979 26.8964 29.4433 26.9183 29.3866 26.933C29.1122 26.9913 28.8606 27.128 28.6623 27.3265C28.464 27.5249 28.3275 27.7765 28.2692 28.051C28.2449 28.1641 28.2105 28.3072 28.0652 28.3008C27.9321 28.2944 27.887 28.1576 27.8505 28.0453C27.8202 27.8462 27.7426 27.6574 27.6243 27.4945C27.506 27.3316 27.3504 27.1994 27.1705 27.109C27.0073 27.0439 26.8455 26.9737 26.6809 26.9115C26.5943 26.8785 26.507 26.8399 26.5012 26.7404C26.4955 26.6409 26.5843 26.5972 26.6687 26.5607C26.6875 26.5544 26.7066 26.5491 26.726 26.545C27.0099 26.4843 27.2701 26.3427 27.4752 26.1373C27.6804 25.9319 27.8217 25.6715 27.882 25.3875C27.9071 25.2866 27.9457 25.1843 28.0509 25.1664C28.1791 25.1449 28.1941 25.2787 28.2377 25.3589C28.287 25.4437 28.3277 25.5331 28.3594 25.6259C28.4063 25.8275 28.5087 26.0121 28.6549 26.1587C28.8011 26.3052 28.9854 26.408 29.1869 26.4555C29.3537 26.4948 29.562 26.5256 29.6464 26.716Z" fill="#FEFDFE"/>
<path d="M18.2262 46.2383C18.2906 46.2383 18.3078 46.3421 18.3493 46.4301C18.4732 46.6907 18.5039 46.9942 18.748 47.1996C18.9646 47.3314 19.1915 47.4453 19.4266 47.5403C19.5096 47.5911 19.6585 47.5732 19.6456 47.7329C19.6334 47.876 19.5082 47.8903 19.4101 47.9168C19.1468 47.9778 18.9064 48.1127 18.7172 48.3057C18.528 48.4987 18.3979 48.7418 18.3422 49.0062C18.3185 49.0972 18.2878 49.2074 18.1732 49.2267C18.0265 49.2525 18.0537 49.0971 17.9986 49.0291C17.949 48.9568 17.9137 48.8757 17.8948 48.7901C17.8444 48.5998 17.7452 48.4259 17.6072 48.2856C17.4691 48.1452 17.2969 48.0433 17.1074 47.9898C16.9428 47.9354 16.6779 47.9404 16.6686 47.7221C16.6608 47.5274 16.9163 47.5217 17.0609 47.4795C17.2916 47.4117 17.4989 47.2811 17.6598 47.1024C17.8207 46.9237 17.9288 46.7039 17.9721 46.4673C18 46.3686 18.0129 46.2447 18.2262 46.2383Z" fill="#FEFDFE"/>
<path d="M27.5227 49.7706C27.6052 49.7683 27.6873 49.7823 27.7643 49.8118C27.8414 49.8414 27.9118 49.8858 27.9717 49.9426C28.0315 49.9994 28.0796 50.0674 28.1131 50.1428C28.1466 50.2182 28.1649 50.2994 28.1669 50.3819C28.1628 50.55 28.0931 50.7099 27.9728 50.8273C27.8524 50.9447 27.6909 51.0105 27.5227 51.0104C27.3552 51.0098 27.1947 50.9434 27.0759 50.8253C26.9571 50.7073 26.8895 50.5472 26.8878 50.3798C26.8827 50.2962 26.8958 50.2126 26.9263 50.1346C26.9568 50.0566 27.0038 49.9862 27.0642 49.9282C27.1247 49.8703 27.197 49.8261 27.2761 49.7989C27.3553 49.7717 27.4394 49.762 27.5227 49.7706Z" fill="#FEFDFE"/>
<path d="M29.2485 49.7685C29.3285 49.7618 29.409 49.7727 29.4843 49.8004C29.5597 49.8281 29.628 49.8719 29.6847 49.9287C29.7413 49.9856 29.7849 50.0541 29.8123 50.1296C29.8397 50.205 29.8503 50.2855 29.8434 50.3655C29.8524 50.451 29.8424 50.5374 29.8142 50.6187C29.786 50.6999 29.7402 50.7739 29.6802 50.8354C29.6201 50.8969 29.5472 50.9444 29.4666 50.9746C29.3861 51.0047 29.2999 51.0167 29.2142 51.0097C29.1314 51.0076 29.0498 50.9891 28.9741 50.9553C28.8985 50.9214 28.8303 50.873 28.7735 50.8127C28.7167 50.7525 28.6723 50.6815 28.6431 50.604C28.6138 50.5265 28.6001 50.444 28.6029 50.3612C28.6018 50.2785 28.6181 50.1964 28.6509 50.1205C28.6837 50.0445 28.7322 49.9763 28.7931 49.9204C28.854 49.8644 28.9261 49.822 29.0046 49.7958C29.0831 49.7696 29.1662 49.7603 29.2485 49.7685Z" fill="#FEFDFE"/>
<path d="M30.9529 49.7699C31.0331 49.7625 31.114 49.7728 31.1898 49.8C31.2655 49.8273 31.3344 49.8709 31.3915 49.9277C31.4486 49.9845 31.4925 50.0531 31.5201 50.1288C31.5477 50.2044 31.5584 50.2853 31.5513 50.3655C31.5549 50.451 31.5406 50.5364 31.5095 50.6161C31.4784 50.6959 31.431 50.7684 31.3705 50.8289C31.31 50.8894 31.2375 50.9367 31.1578 50.9679C31.078 50.999 30.9927 51.0133 30.9071 51.0097C30.7453 50.999 30.5936 50.9268 30.4832 50.808C30.3728 50.6892 30.3119 50.5327 30.313 50.3705C30.3131 50.2883 30.3301 50.207 30.3628 50.1316C30.3955 50.0562 30.4433 49.9883 30.5033 49.932C30.5632 49.8758 30.634 49.8324 30.7113 49.8045C30.7887 49.7766 30.8709 49.7649 30.9529 49.7699Z" fill="#FEFDFE"/>
<path d="M27.7087 13.2262C27.995 13.1496 28.1088 12.8805 28.3042 12.703C28.3797 12.6147 28.4645 12.5348 28.5569 12.4646C28.8811 12.2032 29.2368 11.9834 29.6156 11.8104C29.6483 11.7988 29.6766 11.7774 29.6966 11.749C29.7166 11.7207 29.7273 11.6868 29.7272 11.6522C30.1255 11.611 30.5167 11.5183 30.8911 11.3766C31.6944 11.2152 32.5192 11.191 33.3305 11.305C34.1689 11.4419 34.9969 11.6363 35.8086 11.8869C35.9303 11.922 36.1665 11.917 36.0284 12.1733C35.5961 12.2421 35.1737 12.3622 34.77 12.5312C33.5259 12.8962 32.2919 13.2942 31.0565 13.6865C30.627 13.8218 30.2197 14.0136 29.7809 14.1159C29.7836 14.0406 29.7696 13.9656 29.7399 13.8962C29.7103 13.8269 29.6657 13.7649 29.6094 13.7147C29.5531 13.6646 29.4864 13.6275 29.4141 13.606C29.3418 13.5845 29.2657 13.5792 29.1911 13.5905C28.9382 13.6016 28.6899 13.6622 28.4603 13.7688C28.199 13.9119 27.8733 13.8955 27.6343 14.1081C27.5863 14.151 27.4288 14.2255 27.4081 14.1324C27.3844 14.0272 27.3365 13.8812 27.4267 13.7745C27.471 13.7365 27.5043 13.6873 27.5232 13.632C27.5421 13.5768 27.5458 13.5174 27.534 13.4603V13.4646C27.6858 13.4538 27.7037 13.3429 27.7123 13.2255L27.7087 13.2262Z" fill="#B1D03E"/>
<path d="M28.7695 14.6898C28.9986 14.5273 29.2942 14.5402 29.5311 14.3984C29.3722 14.7442 29.0458 14.6532 28.7695 14.6898Z" fill="#BCC254"/>
<path d="M27.6164 15.0816L27.6959 15.0487L27.8948 15C27.8625 15.0655 27.8084 15.1178 27.7419 15.1481C27.6754 15.1783 27.6005 15.1847 27.5298 15.1661L27.6164 15.0816Z" fill="#BCC254"/>
<path d="M28.3916 14.8183L28.5018 14.7317L28.7667 14.6895C28.7223 14.7437 28.6637 14.7845 28.5975 14.8072C28.5312 14.83 28.4599 14.8338 28.3916 14.8183Z" fill="#BCC254"/>
<path d="M28.0659 14.9376C28.1519 14.8629 28.2607 14.8196 28.3744 14.8145C28.3143 14.9619 28.1919 14.9533 28.0659 14.9376Z" fill="#BCC254"/>
<path d="M35.8436 12.9375C35.8427 12.9771 35.8329 13.016 35.8147 13.0512C35.7966 13.0864 35.7708 13.117 35.7391 13.1408C35.7305 13.0506 35.7169 12.9583 35.8436 12.9375Z" fill="#BCC254"/>
<path d="M27.3608 15.2354C27.3806 15.2092 27.407 15.1888 27.4374 15.1762C27.4677 15.1636 27.5008 15.1594 27.5333 15.1638C27.5054 15.2583 27.4296 15.2383 27.3608 15.2354Z" fill="#BCC254"/>
<path d="M35.9206 12.7715C35.923 12.7974 35.9183 12.8236 35.9069 12.847C35.8956 12.8705 35.878 12.8904 35.8562 12.9046C35.8505 12.8474 35.8562 12.7937 35.9206 12.7715Z" fill="#BCC254"/>
<path d="M29.5298 14.4027L29.6014 14.291C29.6042 14.3483 29.5942 14.3948 29.5298 14.4027Z" fill="#BCC254"/>
<path d="M28.0137 14.9482C28.0198 14.9409 28.028 14.9356 28.0373 14.9332C28.0465 14.9307 28.0563 14.9312 28.0652 14.9346C28.0588 14.9804 28.0437 14.994 28.0137 14.9482Z" fill="#BCC254"/>
<path d="M7.34074 16.1211C7.58703 16.7577 7.67804 17.4438 7.60622 18.1226C7.53439 18.8014 7.3018 19.4533 6.92773 20.0243C6.99698 19.6466 7.1199 19.2807 7.29278 18.9377C7.58177 18.1742 7.60223 17.3351 7.35077 16.5585C7.30567 16.4174 7.19329 16.2643 7.34074 16.1211Z" fill="#BCC254"/>
<path d="M6.71809 14.7314L6.78968 14.8409L7.02016 15.2575C7.12978 15.4983 7.22539 15.7452 7.30648 15.997C7.22058 16.0063 7.14113 15.9855 7.11823 15.8967C6.98574 15.4301 6.76964 14.9913 6.48045 14.6019C6.44752 14.5553 6.46828 14.4709 6.46399 14.4043L6.56491 14.4759L6.71809 14.7314Z" fill="#BCC254"/>
<path d="M5.58995 13.2767L5.64293 13.3304L5.7324 13.4227L5.84119 13.548L5.87914 13.6425C5.73478 13.6352 5.59884 13.5724 5.49977 13.4671C5.31939 13.2746 5.23564 13.3819 5.16335 13.5387C5.11897 13.6339 5.08747 13.7148 4.96436 13.699L4.97938 13.5931L5.04237 13.4793L5.10823 13.3676L5.28575 13.0755C5.44251 13.0576 5.47686 13.2273 5.58995 13.2767Z" fill="#BCC254"/>
<path d="M6.03516 13.8301L6.08383 13.8415L6.13751 13.9024L6.31718 14.135L6.38875 14.241L6.46033 14.4063C6.12677 14.3562 6.07882 14.0942 6.03516 13.8301Z" fill="#BCC254"/>
<path d="M5.7383 20.202C5.57378 20.1472 5.42828 20.0466 5.31885 19.9121C5.49994 19.945 5.72613 19.9157 5.7383 20.202Z" fill="#BCC254"/>
<path d="M5.96874 20.3226C5.87791 20.3126 5.79462 20.2674 5.73682 20.1966C5.83202 20.2023 5.96659 20.1422 5.96874 20.3226Z" fill="#BCC254"/>
<path d="M5.31759 19.9116C5.28092 19.906 5.24622 19.8913 5.21661 19.869C5.187 19.8466 5.1634 19.8173 5.14795 19.7835C5.241 19.7778 5.33406 19.772 5.31759 19.9116Z" fill="#BCC254"/>
<path d="M38.5515 25.1395C38.5193 25.0865 38.4871 25.0343 38.4556 24.9813C38.6231 24.8382 38.7204 24.6363 38.9087 24.5146C39.4296 24.1521 40.0366 23.9328 40.669 23.8785C41.3013 23.8242 41.9368 23.937 42.512 24.2054C42.7551 24.3663 43.0341 24.4646 43.3244 24.4917H43.3287C43.3931 24.7014 43.4783 24.8797 43.7524 24.7723H43.7488L43.8133 24.831L43.8226 24.8253C43.7875 25.1996 43.479 25.3679 43.222 25.5296C42.6293 25.9136 41.9714 26.186 41.2808 26.3335C40.7742 26.4343 40.2483 26.3564 39.7927 26.113C39.3888 25.9044 39.0422 25.5998 38.7834 25.2261C38.7566 25.1916 38.7207 25.1652 38.6797 25.1499C38.6388 25.1346 38.5944 25.131 38.5515 25.1395Z" fill="#88C045"/>
<path d="M12.4648 24.2019C12.441 24.197 12.4164 24.1996 12.3942 24.2093C12.372 24.2191 12.3534 24.2355 12.3409 24.2563C12.1727 24.2448 12.0353 24.2735 12.0439 24.4889C11.9453 24.4865 11.8474 24.5063 11.7576 24.5469C11.2717 24.7205 10.7537 24.785 10.2401 24.7359C9.95377 24.7416 9.87718 24.5634 9.87002 24.3493C9.80999 23.8046 9.88955 23.2536 10.1012 22.7481C10.1543 22.6115 10.1758 22.4647 10.1642 22.3187C10.3541 22.1916 10.5095 22.0194 10.6166 21.8176C10.703 21.6654 10.8206 21.5332 10.9616 21.4296C11.0332 21.3624 11.1205 21.3151 11.1048 21.1991C11.248 21.1711 11.3842 21.115 11.5054 21.0339C11.6267 20.9528 11.7307 20.8484 11.8113 20.7267C12.1899 20.7267 12.4598 20.4368 12.8048 20.3416C12.9112 20.2962 13.0231 20.265 13.1376 20.2486C13.3438 20.2443 13.4239 20.26 13.4196 20.5349C13.4242 20.9797 13.396 21.4242 13.3352 21.8648C13.3134 22.3015 13.21 22.7303 13.0302 23.1289C12.9972 23.1719 12.9793 23.2247 12.9793 23.2789C12.9793 23.3331 12.9972 23.3858 13.0302 23.4288L13.0081 23.5176C12.9952 23.5282 12.981 23.5371 12.9658 23.5441C12.7146 23.582 12.6423 23.7509 12.6473 23.9771C12.4712 23.9549 12.4046 24.0258 12.4576 24.199L12.4648 24.2019Z" fill="#88C045"/>
<path d="M43.3244 24.4965C43.0342 24.4694 42.7551 24.371 42.512 24.2101C41.9369 23.9417 41.3014 23.829 40.669 23.8833C40.0367 23.9375 39.4297 24.1569 38.9087 24.5194C38.7204 24.6411 38.6224 24.8465 38.4556 24.9861C38.3089 24.8808 38.4005 24.79 38.4735 24.6998L38.5293 24.6454L38.6295 24.5659L39.2265 24.1644C39.7184 23.9135 40.2595 23.774 40.8114 23.7559C41.3633 23.7379 41.9124 23.8417 42.4197 24.0599C42.4665 24.0739 42.5144 24.0841 42.5628 24.0906L42.9658 24.2789L43.3151 24.4571C43.3203 24.4697 43.3235 24.4829 43.3244 24.4965Z" fill="#89AA5A"/>
<path d="M27.7129 13.2305C27.7043 13.3479 27.6864 13.4588 27.5347 13.4695L27.5576 13.3693L27.7129 13.2305Z" fill="#BCC254"/>
<path d="M12.655 23.978C12.65 23.7518 12.7223 23.5829 12.9735 23.5449L12.7395 23.9479L12.655 23.978Z" fill="#89AA5A"/>
<path d="M43.7524 24.7825C43.4782 24.8899 43.3945 24.711 43.3286 24.502L43.4968 24.5692L43.6071 24.6372L43.6786 24.6823L43.7524 24.7825Z" fill="#89AA5A"/>
<path d="M43.8135 24.838L43.749 24.7793L43.8135 24.838Z" fill="#89AA5A"/>
<path d="M12.4625 24.2024C12.4096 24.0292 12.4761 23.9583 12.6522 23.9805C12.6413 24.0303 12.6183 24.0765 12.5852 24.1152C12.5521 24.154 12.51 24.1839 12.4625 24.2024Z" fill="#89AA5A"/>
</g>
<defs>
<clipPath id="clip0_67_4397">
<rect width="45.2646" height="56" fill="white"/>
</clipPath>
</defs>
</svg>
