<svg width="60" height="48" viewBox="0 0 60 48" fill="none" xmlns="http://www.w3.org/2000/svg">
<g clip-path="url(#clip0_67_4698)">
<path d="M23.2279 43.5625C22.312 43.5625 21.4674 43.0184 20.9107 42.0698C20.336 41.0919 20.3482 39.9971 20.9444 39.0665C21.4744 38.2347 21.9984 37.492 22.5458 36.7967C23.0635 36.1411 23.8907 35.75 24.759 35.75C25.3183 35.75 25.8534 35.9091 26.3063 36.2102C26.879 36.5918 27.3134 37.2093 27.4986 37.9044C27.6868 38.611 27.6035 39.3429 27.27 39.9127C26.698 40.8906 26.0585 41.7933 25.3695 42.5957C24.9584 43.0779 24.2893 43.4301 23.5806 43.5363C23.4655 43.5536 23.3466 43.5625 23.2279 43.5625Z" fill="#E2C0A1"/>
<path d="M24.7588 36.2285C24.0603 36.2284 23.366 36.5294 22.921 37.093C22.3879 37.7701 21.8729 38.4988 21.3465 39.325C20.8429 40.111 20.8353 41.0001 21.3226 41.8291C21.7984 42.6399 22.4825 43.0859 23.2277 43.0859C23.3204 43.0859 23.415 43.0792 23.5096 43.065C24.0962 42.977 24.6714 42.6791 25.0068 42.2856C25.6785 41.5034 26.3005 40.6247 26.8575 39.6726C27.4231 38.7061 27.0419 37.2754 26.0415 36.6088C25.6551 36.3519 25.206 36.2285 24.7588 36.2285ZM24.7587 35.2734C25.4126 35.2734 26.0391 35.4602 26.5706 35.8136C27.9953 36.7629 28.5039 38.7507 27.6822 40.1549C27.0957 41.1574 26.4395 42.0836 25.7317 42.9077C25.2492 43.4738 24.4706 43.8867 23.6512 44.0095C23.5131 44.0303 23.3702 44.041 23.2277 44.041C22.1379 44.041 21.1431 43.4109 20.4985 42.3123C19.8295 41.1742 19.8452 39.8974 20.5418 38.8099C21.0799 37.9656 21.6129 37.2102 22.1702 36.5023C22.7781 35.7324 23.7455 35.2734 24.7587 35.2734Z" fill="black"/>
<path d="M17.9043 39.9031C17.3885 39.9031 16.889 39.7638 16.4598 39.5001C15.7616 39.0678 15.2863 38.4326 15.1199 37.7106C14.9594 37.0196 15.0879 36.3156 15.4918 35.6754C16.519 34.0435 17.6317 32.4501 18.6812 30.9712C19.154 30.3077 19.9697 29.9121 20.8639 29.9121C21.2218 29.9121 21.5731 29.9753 21.908 30.0999C22.9957 30.5034 23.7048 31.511 23.8046 32.7949L23.8113 32.8795L23.8203 32.995L23.7755 33.1018L23.743 33.1791C23.7021 33.2772 23.6657 33.3829 23.6325 33.4824L23.631 33.4869L23.6294 33.4914L23.6201 33.5174C23.5215 33.795 23.4096 34.1096 23.2083 34.4076C22.3566 35.6841 21.418 37.0469 20.2562 38.6941C19.7248 39.4509 18.8454 39.9031 17.9043 39.9031Z" fill="#E2C0A1"/>
<path d="M20.8637 30.3906C20.1456 30.3906 19.4624 30.6987 19.0707 31.2484C18.0283 32.7173 16.9219 34.3008 15.8957 35.9311C15.5613 36.4611 15.4543 37.0408 15.5852 37.6043C15.7228 38.2012 16.1222 38.7304 16.7098 39.0942C17.7444 39.7299 19.1579 39.4277 19.8656 38.42C21.0121 36.7944 21.9494 35.4344 22.8122 34.1413C22.9851 33.8854 23.0826 33.6036 23.1791 33.3324C23.2173 33.2178 23.2565 33.1051 23.3023 32.9953L23.3348 32.9179L23.3281 32.8329C23.2431 31.7384 22.6498 30.8855 21.7411 30.5484C21.4544 30.4417 21.1561 30.3906 20.8637 30.3906ZM20.8636 29.4355C20.8636 29.4355 20.8637 29.4355 20.8637 29.4355C21.2787 29.4355 21.6861 29.5088 22.0744 29.6533C23.341 30.1233 24.1661 31.2843 24.2807 32.7589L24.2873 32.8431C24.2993 32.9948 24.2747 33.1472 24.2158 33.2876L24.1833 33.3649C24.1487 33.4478 24.1158 33.5435 24.0855 33.6343C24.0835 33.6404 24.0814 33.6464 24.0793 33.6524L24.0701 33.6783C23.9675 33.9667 23.84 34.3256 23.6059 34.673C22.7506 35.9548 21.8102 37.3204 20.6465 38.9703C20.0263 39.8534 19.0007 40.3816 17.9041 40.3816C17.3 40.3816 16.714 40.2178 16.2095 39.9078C15.4007 39.4071 14.8494 38.6658 14.6542 37.8188C14.4643 37.0016 14.6141 36.1721 15.0876 35.4216C16.1206 33.7804 17.2379 32.1803 18.2914 30.6959C18.8542 29.9061 19.8153 29.4355 20.8636 29.4355Z" fill="black"/>
<path d="M12.4685 36.4139C11.4977 36.4139 10.6645 35.8686 10.1223 34.8783C9.57551 33.8798 9.60579 32.8047 10.2054 31.9287C11.9283 29.4172 13.3901 27.3407 14.8061 25.3936C15.2267 24.8149 15.8521 24.4358 16.5675 24.3261C16.7154 24.3015 16.8667 24.2891 17.0174 24.2891C17.626 24.2891 18.2376 24.4938 18.7397 24.8657C19.9777 25.7783 20.2575 27.4473 19.3897 28.7473C18.8392 29.5737 18.256 30.3952 17.6919 31.1896L17.621 31.2895C17.326 31.7039 17.0605 32.0776 16.7938 32.4593C16.6261 32.6975 16.4605 32.9445 16.3004 33.1835L16.2524 33.255C15.8298 33.8867 15.3925 34.5405 14.8764 35.1519C14.3597 35.7663 13.6631 36.1789 13.2348 36.3018C12.9793 36.3761 12.721 36.4139 12.4685 36.4139Z" fill="#E2C0A1"/>
<path d="M12.4687 35.9374C12.6731 35.9374 12.8862 35.9068 13.1031 35.8438C13.4757 35.7368 14.0786 35.3596 14.5114 34.8448C15.0073 34.2575 15.4392 33.6128 15.8557 32.9901C16.0363 32.7208 16.2159 32.4515 16.4022 32.1869C16.6764 31.7944 16.9535 31.4047 17.2316 31.0141C17.8268 30.1756 18.423 29.338 18.9924 28.4832C19.7167 27.3983 19.4855 26.0096 18.4555 25.2504C17.9357 24.8654 17.2813 24.6918 16.643 24.7986C16.0525 24.8884 15.5376 25.2007 15.1926 25.6754C13.7786 27.6198 12.3196 29.6923 10.5998 32.1993C10.1049 32.9223 10.0839 33.8143 10.5415 34.65C11.0011 35.4895 11.6833 35.9374 12.4687 35.9374ZM12.4687 36.8924C11.332 36.8924 10.3241 36.2422 9.70339 35.1085C9.07647 33.9637 9.11679 32.6745 9.81131 31.66C11.537 29.1444 13.0012 27.0645 14.4198 25.1138C14.9152 24.432 15.651 23.9853 16.4922 23.8555C16.665 23.827 16.8417 23.8125 17.0175 23.8125C17.7277 23.8125 18.4404 24.0506 19.0242 24.4829C20.4705 25.5491 20.7992 27.4972 19.7872 29.0133C19.233 29.8452 18.6477 30.6697 18.0816 31.4669L18.0108 31.5668C17.7161 31.9808 17.4511 32.3536 17.1856 32.7337C17.02 32.9688 16.8633 33.2026 16.6974 33.4502L16.6494 33.5218C16.2398 34.1341 15.7749 34.8291 15.2416 35.4608C14.7364 36.0616 13.9825 36.585 13.3668 36.7617C13.0694 36.8482 12.7662 36.8924 12.4687 36.8924Z" fill="black"/>
<path d="M20.2172 6.05521C20.333 5.92187 20.4206 5.7665 20.4748 5.59844C20.529 5.43037 20.5486 5.25309 20.5325 5.07725C20.492 4.90499 20.418 4.74242 20.3145 4.59885C20.211 4.45528 20.0802 4.33352 19.9296 4.24062C19.3086 3.78983 18.6942 3.32665 18.0798 2.8644C17.6977 2.57311 17.3078 2.28277 16.919 1.99434C16.7922 1.90365 16.6591 1.82225 16.5206 1.7508L16.0514 1.48242L15.8603 1.6591C15.7896 1.72405 15.7161 1.78518 15.6425 1.85013C15.4531 1.99638 15.2818 2.1647 15.1323 2.35152C10.7767 8.29832 6.42597 14.2515 2.07997 20.211C1.95312 20.3452 1.85479 20.5036 1.79091 20.6767C1.72703 20.8499 1.69893 21.0343 1.70831 21.2186C1.76029 21.3982 1.84813 21.5655 1.96652 21.7102C2.08491 21.855 2.23141 21.9743 2.39718 22.0609C2.97045 22.4589 3.54371 22.8537 4.11698 23.2452L5.3132 24.0666C5.59758 24.311 5.94668 24.4679 6.31833 24.5183C6.66038 24.5183 6.93841 24.27 7.31963 23.7485L11.3115 18.2732C14.2753 14.1964 17.2438 10.1237 20.2172 6.05521Z" fill="#E76E61"/>
<path d="M28.7798 46.9256C27.8899 46.9256 27.1334 46.5549 26.592 45.8535C25.8722 44.9217 25.7766 43.7972 26.3297 42.7686C26.5974 42.2691 26.9672 41.7703 27.3987 41.3266C27.9601 40.7558 28.6285 40.4551 29.3334 40.4551C29.7089 40.4551 30.0878 40.5404 30.4597 40.7086C31.5074 41.1796 32.1364 42.0764 32.1411 43.1071L32.1411 43.1081V43.1121C32.1355 44.8514 30.8603 46.6051 29.4121 46.8664C29.2032 46.9055 28.9895 46.9256 28.7798 46.9256Z" fill="#E2C0A1"/>
<path d="M29.3335 40.9336C28.7607 40.9335 28.214 41.1798 27.7413 41.6604C27.3429 42.0701 26.9999 42.5305 26.7505 42.9956C26.2843 43.8627 26.3617 44.7748 26.9703 45.5628C27.4222 46.1482 28.0404 46.449 28.7799 46.449C28.9547 46.449 29.1382 46.4328 29.3274 46.3974C30.5446 46.1778 31.6586 44.6115 31.6634 43.113V43.1102C31.6596 42.2717 31.136 41.5372 30.2627 41.1446C29.9505 41.0033 29.6382 40.9336 29.3335 40.9336ZM29.3333 39.9785V40.9336L29.3333 39.9785C29.3333 39.9785 29.3335 39.9785 29.3335 39.9785C29.7775 39.9786 30.2227 40.0781 30.6567 40.2746C31.879 40.824 32.6133 41.8827 32.6189 43.1059C32.6189 43.1073 32.6189 43.1116 32.6189 43.113C32.6159 44.0363 32.2998 44.9853 31.7288 45.7882C31.1265 46.635 30.3355 47.1847 29.5011 47.3366C29.2609 47.3813 29.0183 47.4041 28.7799 47.4041C27.7364 47.4041 26.8491 46.9691 26.2138 46.1462C25.3738 45.0587 25.2626 43.7454 25.9089 42.5434C26.1972 42.0058 26.5941 41.4699 27.0562 40.9947C27.0575 40.9934 27.0587 40.9922 27.06 40.9909C27.7114 40.3286 28.4975 39.9785 29.3333 39.9785Z" fill="black"/>
<path d="M53.7655 25.4548C53.3178 25.4548 52.6674 25.2797 52.1115 24.4455C48.744 19.3745 45.3348 14.2265 41.978 9.14391C41.2219 8.0015 41.4337 6.9032 42.5592 6.13104C43.4922 5.49245 44.317 4.94217 45.0811 4.4485C45.3262 4.28971 45.7373 4.02344 46.3454 4.02344C46.441 4.02344 46.5391 4.03017 46.6375 4.04349H46.642L46.6809 4.04964C47.4376 4.1722 47.8789 4.68616 48.2107 5.17275C50.5138 8.58165 52.8443 12.0656 55.0341 15.342L56.9333 18.1792L56.9764 18.2432C57.3877 18.8544 57.813 19.4865 58.2269 20.114C58.9724 21.2441 58.7419 22.5191 57.6534 23.2865C56.8247 23.8736 55.9525 24.4544 54.9879 25.0615C54.5694 25.3228 54.1586 25.4548 53.7655 25.4548Z" fill="#31C988"/>
<path d="M53.7657 24.9783C54.0686 24.9783 54.3925 24.8713 54.7336 24.6583C55.6957 24.0528 56.5613 23.476 57.3782 22.8972C58.2534 22.2802 58.4311 21.2918 57.8282 20.3778C57.4012 19.7303 56.9683 19.0875 56.5365 18.4457L54.6371 15.6082C52.3698 12.2159 50.1016 8.82546 47.8161 5.44267C47.5276 5.01956 47.1827 4.6156 46.6046 4.52198H46.6037C46.0008 4.43026 45.6148 4.6729 45.3406 4.85051C44.495 5.39682 43.66 5.95744 42.8297 6.5257C41.9249 7.14648 41.7682 7.9621 42.3768 8.8818C45.7476 13.9856 49.1251 19.0856 52.5093 24.1818C52.8618 24.7108 53.2861 24.9783 53.7657 24.9783ZM53.7657 25.9333C53.2013 25.9333 52.3872 25.7213 51.7141 24.7112C48.346 19.6393 44.9365 14.4909 41.5794 9.40797C40.6861 8.05805 40.9578 6.65161 42.289 5.7383C43.226 5.09697 44.0542 4.54442 44.8219 4.04842C45.0919 3.87354 45.5962 3.54688 46.3456 3.54688C46.4715 3.54688 46.6006 3.55638 46.7294 3.57512C46.7388 3.57634 46.7481 3.57771 46.7574 3.57923C47.8189 3.75113 48.3702 4.55952 48.6056 4.90472C50.9105 8.31628 53.2414 11.8008 55.4315 15.0777L57.373 17.9777C57.7849 18.5898 58.2108 19.2227 58.6259 19.8521C59.5098 21.1921 59.2232 22.7652 57.9289 23.6777C57.0939 24.2692 56.2147 24.8548 55.2426 25.4665C54.7456 25.7769 54.2496 25.9333 53.7657 25.9333Z" fill="black"/>
<path d="M36.1681 44.0878C35.6459 44.0878 35.0901 43.9037 34.561 43.5554C33.765 43.0337 32.7736 42.3839 32.1705 41.194C31.7803 40.4284 30.9728 39.9505 29.7709 39.7745C29.6818 39.7622 29.5883 39.7504 29.4918 39.7381C29.4245 39.7296 29.3557 39.7208 29.2847 39.7115L28.7919 39.6509L28.391 39.6015L28.3731 39.1981L28.3597 38.8973C28.2606 36.662 27.1792 35.4154 24.9565 34.9741L24.6036 34.9045L24.1275 34.8106L24.2288 34.3363L24.3043 33.9829C24.6023 32.5717 24.4725 31.5796 23.8832 30.7672C23.2048 29.8305 22.2835 29.3123 21.0663 29.1825L20.7026 29.1432L20.2165 29.0908L20.2802 28.6062L20.328 28.2433C20.6679 25.6864 19.8855 24.2282 17.8657 23.6534C17.4486 23.5362 17.0533 23.4765 16.6923 23.4765C15.1883 23.4765 14.0184 24.5431 13.0106 26.8332L12.7798 27.3605L12.4688 28.071L11.9741 27.4735L9.05903 23.9522L8.82324 23.6674L9.04002 23.3678L9.20245 23.1434L20.3796 7.84745L20.6135 7.52734L20.9713 7.69826L26.5903 10.382L27.3112 10.7263L26.6665 11.1981L26.185 11.5505C25.9722 11.7053 25.7784 11.8411 25.591 11.9724L25.5483 12.0023C25.1973 12.245 24.8681 12.4726 24.6018 12.7173L24.3728 12.9281C23.7998 13.4481 23.2098 13.9834 22.7782 14.5782C21.988 15.6675 21.7707 16.8234 22.1822 17.7494C22.5929 18.6755 23.5964 19.2893 24.9356 19.434C25.3258 19.4759 25.7066 19.4971 26.0672 19.4971C28.0325 19.4971 29.5809 18.8768 30.8009 17.6009L30.803 17.5986L30.8052 17.5964C30.8671 17.5333 30.9285 17.481 30.9827 17.4347L30.9935 17.4255C31.8021 16.7292 32.3628 16.3512 33.0051 16.3512C33.6244 16.3512 34.183 16.714 34.9387 17.3408L47.9765 28.1461C48.158 28.297 48.3559 28.4473 48.5824 28.6062C49.5631 29.298 49.8527 30.2935 49.358 31.2699C48.9698 32.0349 48.1421 32.5488 47.2983 32.5488C47.2982 32.5488 47.2983 32.5488 47.2982 32.5488C47.0652 32.5488 46.8388 32.5102 46.6255 32.4342C46.243 32.2975 45.9186 32.0784 45.6445 31.8837C44.1125 30.8074 42.5553 29.7076 41.0493 28.644L40.8464 28.5007L39.3757 27.4605C39.0771 27.2494 38.9329 27.233 38.8957 27.233C38.8858 27.233 38.8817 27.2341 38.8816 27.2341C38.882 27.2343 38.8744 27.2408 38.8638 27.2551C38.7717 27.3771 38.7334 27.4835 38.7477 27.5742C38.766 27.6984 38.876 27.8394 39.0503 27.9659C39.6756 28.4176 40.3177 28.8732 40.9387 29.3138L40.9476 29.3201C42.0747 30.1223 43.2396 30.9513 44.3725 31.7966C44.8763 32.1731 45.2941 32.7646 45.4633 33.3407C45.7309 34.2565 45.3635 35.1844 44.5048 35.7632C44.0991 36.0326 43.6716 36.1683 43.2316 36.1683C42.7474 36.1683 42.2669 36.0041 41.8037 35.6802C40.7989 34.9828 39.7811 34.2655 38.7968 33.5719L38.4276 33.3116L37.1278 32.3935L37.1248 32.3914L37.1219 32.3893L37.103 32.3755C36.9986 32.2993 36.8999 32.2274 36.8023 32.1691C36.6893 32.1012 36.5665 32.0643 36.4552 32.0643C36.3543 32.0643 36.2739 32.0949 36.2402 32.146C36.0629 32.4124 36.3071 32.6246 36.4203 32.7035C37.8769 33.7221 39.4488 34.8067 41.3676 36.1171C42.3136 36.761 42.6842 37.6421 42.4388 38.6647C42.2543 39.4336 41.7521 40.0326 41.0611 40.3081C40.795 40.4142 40.5132 40.468 40.2234 40.468C39.7341 40.468 39.2391 40.3132 38.7918 40.0206C37.8298 39.3893 36.8649 38.7316 36.0136 38.1513L36.009 38.1482C35.5085 37.8068 34.9909 37.4539 34.4814 37.1109L34.4047 37.0591L34.3817 37.0435C34.1651 36.8972 33.9606 36.759 33.7634 36.6679C33.6535 36.6166 33.5885 36.6059 33.5531 36.6059C33.5292 36.6059 33.466 36.6059 33.348 36.7755C33.2522 36.9115 33.2699 37.0762 33.3876 37.1609C34.2675 37.7923 35.1845 38.4235 35.9749 38.9656L37.1441 39.7701C37.7842 40.2133 38.1903 40.7243 38.352 41.2897C38.5208 41.8801 38.4062 42.4929 38.0206 43.0616C37.5697 43.7237 36.912 44.0878 36.1681 44.0878Z" fill="#EFD5BB"/>
<path d="M36.1681 43.6101C36.7452 43.6101 37.2564 43.335 37.6252 42.7935C38.2443 41.8805 37.9701 40.9226 36.8732 40.1633L35.7047 39.3592C34.8343 38.7623 33.9658 38.1634 33.1088 37.5484C32.7792 37.3115 32.7104 36.8512 32.9559 36.5026C33.2244 36.1167 33.532 36.0326 33.9639 36.2342C34.2037 36.345 34.4302 36.4997 34.6719 36.6631L34.7483 36.7146C35.2604 37.0594 35.7716 37.408 36.2828 37.7565C37.2019 38.3831 38.122 39.0096 39.0536 39.6208C39.6402 40.0047 40.3042 40.0955 40.8842 39.8644C41.4278 39.6476 41.8263 39.1701 41.9743 38.5531C42.1721 37.7289 41.8769 37.0413 41.0982 36.5112C39.4424 35.3804 37.7914 34.2448 36.1471 33.095C35.6923 32.7779 35.57 32.2908 35.8414 31.883C36.0668 31.5411 36.5971 31.4886 37.0471 31.7589C37.1704 31.8324 37.2869 31.9183 37.4035 32.0033L38.7029 32.9211C39.8265 33.7129 40.9492 34.5056 42.0775 35.2887C42.8085 35.7996 43.5546 35.8207 44.2378 35.3671C44.9181 34.9086 45.2123 34.1847 45.005 33.4751C44.8636 32.9937 44.5111 32.4961 44.0868 32.1791C42.9604 31.3386 41.8157 30.5239 40.6711 29.7093C40.0357 29.2585 39.4004 28.8077 38.7698 28.3522C38.4841 28.1449 38.3131 27.9014 38.2758 27.6483C38.2405 27.4239 38.3102 27.1956 38.4803 26.9702C38.7172 26.6512 39.1128 26.6894 39.6517 27.0705L41.1221 28.1105C42.7206 29.2394 44.32 30.3692 45.9213 31.4943C46.1688 31.67 46.4602 31.8677 46.786 31.9842C47.5713 32.2641 48.5306 31.8447 48.9319 31.054C49.1574 30.6089 49.3762 29.7503 48.308 28.9968C48.0901 28.844 47.8761 28.6836 47.6716 28.5136L34.6337 17.7081C33.1967 16.5162 32.7667 16.5287 31.3039 17.7883C31.2514 17.8332 31.1969 17.879 31.1463 17.9306C29.5985 19.5495 27.5528 20.195 24.8843 19.9085C23.3719 19.7452 22.2272 19.0289 21.7457 17.9431C21.2632 16.8572 21.4992 15.5277 22.3915 14.2976C22.8483 13.6682 23.4588 13.1124 24.0493 12.5766L24.2786 12.3655C24.5623 12.1048 24.8929 11.8746 25.2741 11.611C25.469 11.4745 25.6783 11.3284 25.9028 11.165L26.3844 10.8126L20.7654 8.12893L9.42712 23.6476L12.3422 27.1689L12.5734 26.6407C13.9225 23.575 15.5974 22.5195 17.9965 23.1939C20.2552 23.8367 21.1734 25.5099 20.8017 28.3054L20.7539 28.6683L21.117 28.7074C22.4785 28.8526 23.5085 29.4352 24.27 30.4867C24.9455 31.4179 25.1002 32.5257 24.7716 34.0825L24.6961 34.4358L25.0496 34.5056C27.4889 34.9898 28.7281 36.4195 28.837 38.8759L28.8504 39.1767L29.3472 39.2379C29.5211 39.2608 29.6816 39.2799 29.8402 39.3019C31.2036 39.5015 32.1313 40.0649 32.5967 40.978C33.1422 42.0543 34.0356 42.6398 34.8238 43.1564C35.2853 43.4602 35.7439 43.6101 36.1681 43.6101ZM36.1681 44.5651C35.5522 44.5651 34.9057 44.3538 34.2983 43.9541C33.4556 43.4017 32.4051 42.7132 31.7444 41.4096C31.425 40.7829 30.7579 40.4022 29.7058 40.2474C29.6159 40.235 29.5253 40.2235 29.4317 40.2116C29.3649 40.2032 29.2967 40.1945 29.2264 40.1853L28.7336 40.1246C28.2707 40.0676 27.9166 39.6849 27.8959 39.2191L27.8825 38.9182C27.7935 36.9111 26.8624 35.8392 24.8635 35.4423L24.5111 35.3728C24.26 35.3233 24.0393 35.1751 23.8984 34.9615C23.7575 34.7478 23.7083 34.4867 23.7617 34.2364L23.8372 33.8831C24.1082 32.5992 24.0065 31.7504 23.4965 31.0473C22.8936 30.2149 22.1054 29.7733 21.0157 29.6571L20.6514 29.6178C20.3956 29.5902 20.1618 29.4607 20.0028 29.2585C19.8438 29.0564 19.7731 28.7986 19.8066 28.5437L19.8544 28.1808C20.0121 26.9944 19.9089 26.0598 19.5478 25.4017C19.2094 24.785 18.6164 24.3633 17.7349 24.1125C17.3614 24.0075 17.0096 23.9539 16.6923 23.9539C15.8111 23.9539 14.646 24.303 13.448 27.0253L13.2175 27.5517C13.0845 27.8555 12.8034 28.0686 12.475 28.1147C12.1465 28.1609 11.8176 28.0332 11.6061 27.7777L8.69102 24.2565C8.41339 23.9211 8.39775 23.4405 8.65302 23.0878L8.81545 22.8633L19.9939 7.5656C20.2651 7.19445 20.7624 7.06907 21.1773 7.2672L26.7963 9.9509C27.0996 10.0958 27.3044 10.3893 27.3357 10.7238C27.3669 11.0584 27.22 11.3847 26.9488 11.5832L26.4672 11.9356C26.2499 12.0937 26.0455 12.2369 25.8652 12.3632L25.8226 12.3931C25.8209 12.3942 25.8193 12.3954 25.8177 12.3965C25.4831 12.6278 25.1672 12.8463 24.9251 13.0687L24.6964 13.2792C24.6948 13.2807 24.6931 13.2822 24.6914 13.2837C24.1389 13.7851 23.5675 14.3036 23.165 14.8584C22.4775 15.806 22.2784 16.7891 22.6189 17.5554C22.9588 18.3218 23.8218 18.8332 24.9869 18.959C25.36 18.9991 25.7236 19.0194 26.0672 19.0194C27.8951 19.0194 29.3306 18.4474 30.4556 17.2708C30.4585 17.2677 30.4614 17.2647 30.4643 17.2618C30.541 17.1837 30.614 17.1214 30.6726 17.0713L30.6832 17.0623C31.4093 16.437 32.1357 15.8735 33.0051 15.8735C33.8482 15.8735 34.5451 16.3936 35.2438 16.9731L48.2815 27.7783C48.4534 27.9213 48.6412 28.0638 48.8568 28.2151C50.2611 29.2057 50.2563 30.5537 49.7843 31.4855C49.3092 32.4216 48.3335 33.0261 47.2983 33.0261C47.0104 33.0261 46.7301 32.9782 46.4651 32.8838C46.1271 32.763 45.8304 32.5886 45.5593 32.4057C45.7174 32.6614 45.8415 32.9328 45.9218 33.206C46.2449 34.3119 45.7934 35.4705 44.7719 36.1589C44.7701 36.1602 44.7683 36.1614 44.7665 36.1626C44.2838 36.4831 43.7674 36.6456 43.2317 36.6456C42.984 36.6456 42.7384 36.6109 42.496 36.5418C42.957 37.1844 43.1016 37.95 42.9034 38.7758C42.6822 39.6976 42.0752 40.4177 41.2382 40.7515C40.9154 40.8801 40.5741 40.9453 40.2234 40.9453C39.6409 40.9453 39.0554 40.7636 38.5302 40.4199C38.4944 40.3964 38.4586 40.3728 38.4227 40.3493C38.6005 40.6049 38.7303 40.8749 38.8113 41.1582C39.0203 41.889 38.8836 42.6398 38.416 43.3294C37.8729 44.1269 37.0749 44.5651 36.1681 44.5651Z" fill="black"/>
<path d="M48.9077 27.7947L48.4049 27.3764L41.2897 21.457L40.561 20.8503C38.6785 19.2831 36.732 17.6627 34.8252 16.0593C34.3553 15.6621 33.8675 15.4612 33.3745 15.4612C33.0182 15.4612 32.6429 15.5649 32.2589 15.7695C31.4143 16.2174 30.6551 16.8314 30.088 17.3165C28.9064 18.3193 27.5521 18.8272 26.0613 18.8272C25.6139 18.8272 25.1491 18.7805 24.6799 18.6886C23.3905 18.4439 22.8883 17.7986 22.6947 17.3004C22.4996 16.8014 22.4321 15.9825 23.2194 14.9197C24.3509 13.3946 25.9595 12.2342 28.282 11.2676C29.3579 10.8202 30.7978 10.3066 32.3964 10.3066C32.8546 10.3066 33.308 10.3497 33.7441 10.4346C34.3575 10.5534 34.9372 10.7535 35.4978 10.9471L35.5437 10.9629C35.8141 11.0572 36.0772 11.1482 36.3375 11.23C38.0829 11.7734 39.5105 12.0267 40.8289 12.0267C41.2171 12.0267 41.6068 12.004 41.9871 11.9592C42.0357 11.9532 42.0862 11.9501 42.1373 11.9501C42.6425 11.9501 43.2287 12.2557 43.5007 12.661L44.2393 13.7532C46.0064 16.359 48.0098 19.313 49.8308 22.2133C50.287 22.9403 50.1557 23.9057 50.0501 24.6814L50.0182 24.9216C49.9566 25.4024 49.7581 25.8228 49.5661 26.2294L49.5629 26.2362C49.4903 26.3892 49.4085 26.5617 49.3357 26.7383L49.1533 27.1886L48.9077 27.7947Z" fill="#E2C0A1"/>
<path d="M32.3962 10.7851C30.9112 10.7851 29.5486 11.259 28.4654 11.7094C26.2259 12.6415 24.6809 13.7523 23.6032 15.2049C22.9458 16.0922 22.9879 16.7397 23.1398 17.1284C23.2898 17.5142 23.6949 18.0166 24.7717 18.2209C26.6768 18.5945 28.3594 18.1579 29.7772 16.9546C30.3658 16.4512 31.155 15.8152 32.034 15.3491C33.1289 14.7656 34.1732 14.884 35.1325 15.6948C37.2803 17.5008 39.4387 19.2954 41.5951 21.0909L48.7103 27.0103L48.8938 26.5576C48.9693 26.3743 49.0514 26.2004 49.1307 26.0333C49.3161 25.6408 49.4919 25.2702 49.5444 24.8595L49.576 24.6227C49.6763 23.8854 49.7909 23.0497 49.426 22.4681C47.6307 19.6086 45.7055 16.7674 43.8433 14.0216L43.1038 12.9281C42.8993 12.6234 42.4006 12.3884 42.0442 12.4343C40.3168 12.6377 38.51 12.4076 36.194 11.6865C35.9236 11.6015 35.6561 11.5089 35.3876 11.4153C34.8287 11.2223 34.2497 11.0199 33.6525 10.9043C33.2267 10.8214 32.8067 10.7851 32.3962 10.7851ZM32.3962 9.83008C32.885 9.83008 33.3692 9.8761 33.8353 9.96689C34.4813 10.0919 35.0773 10.2977 35.6536 10.4967L35.6995 10.5125C35.9676 10.606 36.2269 10.6956 36.4807 10.7755C38.1774 11.3037 39.5598 11.5501 40.8287 11.5501C41.1973 11.5501 41.5672 11.5286 41.9281 11.4863C41.9961 11.4778 42.0663 11.4735 42.1369 11.4735C42.809 11.4736 43.5327 11.8529 43.8972 12.396L44.6349 13.4868C46.4039 16.0952 48.4098 19.0529 50.2352 21.9604C50.7836 22.8342 50.6393 23.8946 50.5233 24.7467L50.4919 24.9827C50.4202 25.54 50.2056 25.9945 49.998 26.4342L49.9948 26.441C49.9247 26.5887 49.8461 26.7542 49.7784 26.9185L49.5959 27.3689C49.4814 27.6515 49.2388 27.8624 48.9429 27.9366C48.6471 28.0109 48.3336 27.9394 48.0991 27.7444L40.255 21.2181C38.3722 19.6507 36.4252 18.0298 34.5175 16.4257C34.1299 16.0981 33.7566 15.9397 33.3743 15.9397C33.0972 15.9397 32.7975 16.0245 32.4835 16.1919C31.6793 16.6183 30.9468 17.2112 30.3984 17.6803C29.1267 18.7596 27.6683 19.3057 26.0611 19.3057C25.5839 19.3057 25.0892 19.2562 24.5908 19.1587C23.006 18.8571 22.4435 17.9741 22.2492 17.4743C22.0107 16.8639 21.9181 15.8746 22.8353 14.6365C24.0206 13.039 25.6928 11.8289 28.0981 10.8277C29.2152 10.3632 30.713 9.83008 32.3962 9.83008Z" fill="black"/>
<path d="M48.9147 4.43297C48.689 4.05602 48.3874 3.73005 48.029 3.47573C47.6706 3.22141 47.2633 3.04428 46.8329 2.95557C46.4024 2.86686 45.9582 2.86852 45.5285 2.96041C45.0987 3.05229 44.6927 3.23241 44.3362 3.48937C43.547 3.99173 42.7693 4.51893 41.9935 5.04708L41.7154 5.23807C41.347 5.46539 41.0289 5.7655 40.7806 6.12003C40.5322 6.47455 40.3589 6.87603 40.2713 7.29985C40.1836 7.72367 40.1834 8.16092 40.2707 8.58481C40.3581 9.0087 40.5311 9.41032 40.7791 9.76504C40.8574 9.89015 40.9329 10.0181 41.038 10.1967L41.6419 11.2129L40.8851 11.0887C40.3912 11.0066 39.9163 10.9521 39.452 10.8977C38.572 10.8254 37.7014 10.6655 36.8532 10.4202C36.5589 10.3247 36.0888 10.1213 35.5929 9.90733C35.0598 9.67621 34.5095 9.43744 34.2142 9.35149C32.2788 8.90428 30.2512 9.08458 28.4252 9.86627C28.2746 9.91648 28.1155 9.93618 27.9572 9.92421C27.7989 9.91224 27.6445 9.86884 27.5032 9.79655C26.0538 9.00194 24.6139 8.19492 23.1445 7.37167L21.8632 6.65538L21.9033 6.40705C21.9196 6.3211 21.9387 6.22274 21.9626 6.11195C22.0283 5.82157 22.0715 5.52652 22.0916 5.22947C22.1178 4.80722 22.0364 4.38521 21.8549 4.00301C21.6734 3.62081 21.3978 3.29094 21.0539 3.04432L20.9383 2.95647C19.8873 2.14468 18.7943 1.30708 17.6898 0.525848C17.3968 0.311207 17.0637 0.157408 16.7103 0.073533C16.3568 -0.0103425 15.9901 -0.0226084 15.6319 0.0374795C15.2736 0.0975674 14.931 0.228804 14.6243 0.4234C14.3176 0.617997 14.053 0.872012 13.8461 1.1705C9.4472 7.1816 5.05216 13.1965 0.660932 19.2153C0.400836 19.5057 0.207863 19.8498 0.0957036 20.2232C-0.0164561 20.5965 -0.0450557 20.99 0.0119331 21.3756C0.0689219 21.7612 0.210105 22.1296 0.425464 22.4546C0.640824 22.7796 0.925084 23.0532 1.25809 23.2561C2.19952 23.9647 3.14318 24.6702 4.08907 25.3725C4.61162 25.8664 5.29937 26.1482 6.01838 26.163C6.7374 26.1779 7.4362 25.9247 7.97868 25.4527L8.2099 25.298L11.4584 28.2367L11.0848 28.7648C10.2333 29.8971 9.47381 31.0957 8.81374 32.3492C8.63202 32.7818 8.54564 33.2486 8.56048 33.7176C8.57531 34.1866 8.69102 34.6469 8.89973 35.0673C9.29138 35.9677 9.98942 36.7004 10.87 37.1353C11.7507 37.5703 12.7569 37.6795 13.7104 37.4434L14.02 37.3957L14.1079 37.6965C14.2115 38.2464 14.4253 38.7697 14.7366 39.2348C15.0478 39.7 15.45 40.0973 15.9189 40.403C16.3878 40.7087 16.9137 40.9164 17.465 41.0136C18.0163 41.1107 18.5816 41.0954 19.1268 40.9685L19.4259 40.9312L19.5119 41.2178C20.2762 43.7506 21.888 44.8174 24.4802 44.465L24.7668 44.4277L24.8623 44.6951C25.6945 46.9405 26.6882 47.8315 28.5246 47.9815C31.1138 48.1983 32.2804 46.4534 33.1566 44.5366L33.3285 44.1603L33.6763 44.3876C34.2277 44.781 34.8714 45.0253 35.5449 45.0969C36.2185 45.1685 36.8992 45.065 37.521 44.7963C38.0824 44.539 38.5689 44.1428 38.9344 43.6451C39.2998 43.1474 39.5322 42.5647 39.6096 41.9522L39.6459 41.6753L39.924 41.6447C42.5763 41.3524 43.5699 40.2541 43.7247 37.4491L43.74 37.1932L43.9884 37.1254C44.7328 36.9879 45.4101 36.6066 45.9136 36.0416C46.417 35.4766 46.7179 34.7602 46.7688 34.0052L46.7994 33.7187L47.086 33.6891C47.7298 33.6912 48.3653 33.5439 48.9425 33.2586C49.5196 32.9734 50.0227 32.5581 50.4119 32.0455C50.6917 31.4526 50.8303 30.803 50.8167 30.1476C50.8031 29.4922 50.6377 28.849 50.3335 28.2682C50.2403 28.0225 50.2482 27.7498 50.3555 27.5099C50.559 27.0715 50.7816 26.6399 51.0129 26.19L51.4581 25.32L51.8021 25.6199C53.2457 26.8738 54.7314 26.8519 56.4837 25.5358C56.8554 25.256 57.2481 25.0029 57.6408 24.7508C57.8223 24.6323 58.0058 24.5158 58.1863 24.3945C58.6396 24.1745 59.0352 23.8517 59.3416 23.452C59.6481 23.0522 59.8569 22.5864 59.9516 22.0917C60.0462 21.597 60.024 21.0871 59.8867 20.6024C59.7495 20.1178 59.5009 19.6719 59.1609 19.3003L48.9147 4.43297ZM7.31369 23.7422C6.93152 24.2637 6.65444 24.512 6.31239 24.512C5.94074 24.4616 5.59165 24.3047 5.30726 24.0603L4.11105 23.2389C3.53778 22.8461 2.96451 22.4513 2.39124 22.0546C2.22547 21.968 2.07898 21.8487 1.96058 21.7039C1.84219 21.5592 1.75435 21.3919 1.70237 21.2123C1.69299 21.028 1.72109 20.8436 1.78497 20.6704C1.84885 20.4973 1.94718 20.3389 2.07403 20.2047C6.42131 14.2509 10.7721 8.29775 15.1264 2.34522C15.2759 2.1584 15.4472 1.99008 15.6366 1.84383C15.7101 1.7827 15.7837 1.72157 15.8544 1.6528L16.0455 1.47612L16.5146 1.7445C16.6531 1.81595 16.7863 1.89735 16.913 1.98804C17.3019 2.27456 17.687 2.56678 18.0739 2.85807C18.6883 3.32032 19.3026 3.78353 19.9236 4.23431C20.0743 4.32722 20.2051 4.44895 20.3086 4.59252C20.412 4.73609 20.4861 4.89869 20.5265 5.07095C20.5427 5.24679 20.523 5.42407 20.4689 5.59213C20.4147 5.7602 20.327 5.91557 20.2112 6.04891C17.2353 10.1149 14.2649 14.185 11.2998 18.2593L7.31369 23.7422ZM14.5111 34.8447C14.1372 35.2952 13.6516 35.6397 13.1027 35.8437C12.8968 35.9054 12.6832 35.9375 12.4683 35.9392C12.059 35.9254 11.6616 35.7976 11.3211 35.5702C10.9806 35.3427 10.7105 35.0246 10.5412 34.6518C10.3159 34.2804 10.2017 33.8522 10.212 33.418C10.2224 32.9837 10.3568 32.5615 10.5995 32.2011C12.3193 29.6941 13.7782 27.6216 15.1923 25.6772C15.3634 25.4418 15.5798 25.2429 15.8289 25.0924C16.078 24.9418 16.3546 24.8425 16.6427 24.8004C16.9601 24.7497 17.2845 24.7636 17.5964 24.8413C17.9083 24.9189 18.2014 25.0586 18.458 25.2522C18.9528 25.6137 19.2861 26.1547 19.3865 26.7591C19.4868 27.3634 19.3463 27.983 18.995 28.485C18.4217 29.3398 17.8293 30.1774 17.2341 31.0159C16.956 31.4065 16.679 31.7962 16.4047 32.1887C16.2184 32.4533 16.0388 32.7226 15.8582 32.9919C15.4439 33.634 14.9941 34.2526 14.5111 34.8447ZM19.8615 38.4204C19.6387 38.7326 19.3444 38.9868 19.0031 39.1619C18.6619 39.337 18.2836 39.428 17.9 39.4271C17.4788 39.4291 17.0653 39.314 16.7057 39.0947C16.4288 38.9333 16.1868 38.7184 15.9937 38.4626C15.8007 38.2069 15.6604 37.9153 15.5812 37.6048C15.5174 37.3194 15.512 37.024 15.5654 36.7365C15.6187 36.4489 15.7297 36.1751 15.8917 35.9316C16.9178 34.3013 18.0242 32.7178 19.0666 31.2518C19.3774 30.8638 19.805 30.5862 20.286 30.4601C20.767 30.334 21.2758 30.3662 21.7371 30.5518C22.1959 30.7361 22.5906 31.0506 22.8727 31.4566C23.1547 31.8625 23.3116 32.3422 23.3241 32.8363L23.3308 32.9213L23.2983 32.9986C23.2524 33.1084 23.2132 33.2211 23.175 33.3357C23.0878 33.6199 22.9645 33.8918 22.8081 34.1447C21.9492 35.4378 21.0119 36.7949 19.8654 38.4204H19.8615ZM25.0028 42.2865C24.6081 42.7104 24.0794 42.9856 23.5056 43.0658C23.4123 43.0799 23.3181 43.0869 23.2238 43.0868C22.8229 43.0663 22.4348 42.939 22.0998 42.7179C21.7648 42.4969 21.4951 42.1904 21.3186 41.83C21.0792 41.4553 20.9539 41.019 20.9582 40.5743C20.9624 40.1297 21.0959 39.6959 21.3425 39.3258C21.8297 38.556 22.3552 37.811 22.9171 37.0938C23.2871 36.6444 23.8096 36.3467 24.385 36.2574C24.9604 36.1681 25.5486 36.2935 26.0375 36.6097C26.5221 36.9346 26.872 37.4245 27.0222 37.9881C27.1723 38.5517 27.1123 39.1507 26.8535 39.6735C26.3174 40.598 25.6993 41.4725 25.0066 42.2865H25.0028ZM31.6594 43.1136C31.6642 43.8369 31.4412 44.5434 31.0219 45.1329C30.6026 45.7224 30.0084 46.165 29.3233 46.398C29.1428 46.432 28.9595 46.4493 28.7758 46.4496C28.4258 46.456 28.0794 46.3788 27.7653 46.2243C27.4511 46.0698 27.1785 45.8425 26.9701 45.5614C26.6756 45.2071 26.4967 44.7712 26.4574 44.3122C26.4181 43.8533 26.5204 43.3933 26.7503 42.9942C27.0175 42.5051 27.3509 42.0551 27.7411 41.6571C28.0473 41.3075 28.4596 41.0679 28.9149 40.9747C29.3703 40.8816 29.8436 40.9401 30.2625 41.1414C30.6632 41.2954 31.0097 41.564 31.2587 41.9135C31.5078 42.263 31.6485 42.678 31.6632 43.1069L31.6594 43.1136ZM48.9281 31.055C48.7375 31.4381 48.4176 31.7415 48.025 31.9117C47.6323 32.0819 47.1922 32.1079 46.7822 31.9853C46.4747 31.8616 46.1854 31.6968 45.9222 31.4953C44.3209 30.3703 42.7212 29.2424 41.1231 28.1116L39.6526 27.0716C39.1138 26.6895 38.7182 26.6523 38.4813 26.9713C38.4023 27.0641 38.3434 27.1723 38.3082 27.289C38.273 27.4057 38.2623 27.5283 38.2768 27.6493C38.308 27.7937 38.3678 27.9303 38.4527 28.0512C38.5375 28.172 38.6456 28.2747 38.7707 28.3532C39.4013 28.8091 40.0351 29.2615 40.6721 29.7104C41.8186 30.525 42.9651 31.3397 44.0878 32.1801C44.5196 32.5078 44.8401 32.9602 45.006 33.4761C45.103 33.8317 45.0807 34.2092 44.9427 34.5509C44.8047 34.8926 44.5584 35.1796 44.2416 35.3681C43.9218 35.5911 43.5381 35.704 43.1484 35.6899C42.7587 35.6758 42.3842 35.5353 42.0814 35.2898C40.953 34.5066 39.8303 33.7139 38.7067 32.9222L37.4073 32.0044C37.2908 31.9194 37.1742 31.8334 37.0509 31.7599C36.8717 31.624 36.6474 31.5612 36.4236 31.5842C36.1997 31.6073 35.993 31.7144 35.8452 31.8841C35.7812 31.9824 35.7382 32.093 35.7189 32.2088C35.6997 32.3245 35.7046 32.443 35.7333 32.5568C35.762 32.6705 35.8139 32.7772 35.8858 32.87C35.9576 32.9628 36.0479 33.0397 36.1509 33.096C37.7956 34.2459 39.4459 35.3847 41.102 36.5123C41.4538 36.7075 41.7307 37.0139 41.8893 37.3835C42.0479 37.7531 42.0791 38.1649 41.9782 38.5542C41.9162 38.8446 41.7846 39.1157 41.5947 39.3441C41.4048 39.5725 41.1623 39.7514 40.888 39.8654C40.5861 39.9767 40.2615 40.0127 39.9425 39.9702C39.6235 39.9278 39.3197 39.8082 39.0574 39.6219C38.1258 39.0107 37.2057 38.3803 36.2866 37.7576C35.777 37.4093 35.2655 37.062 34.7522 36.7156L34.6757 36.6641C34.4515 36.5026 34.2147 36.3592 33.9677 36.2353C33.885 36.1827 33.7923 36.1478 33.6954 36.1329C33.5985 36.118 33.4996 36.1232 33.4049 36.1485C33.3101 36.1737 33.2217 36.2183 33.145 36.2794C33.0684 36.3406 33.0053 36.4169 32.9597 36.5036C32.9002 36.5824 32.8568 36.6722 32.8322 36.7679C32.8076 36.8635 32.8023 36.9631 32.8165 37.0608C32.8307 37.1586 32.8642 37.2525 32.9151 37.3372C32.9659 37.4219 33.033 37.4957 33.1126 37.5542C33.9725 38.1693 34.8381 38.7681 35.7085 39.3688L36.8771 40.1729C37.9739 40.9322 38.2481 41.8921 37.629 42.8032C37.4751 43.0515 37.2608 43.2566 37.0059 43.3994C36.7511 43.5423 36.4641 43.618 36.1719 43.6197C35.6891 43.6031 35.2217 43.4454 34.8276 43.1661C33.8995 42.6578 33.129 41.9042 32.6005 40.9876C32.3158 40.5019 31.9149 40.0945 31.4338 39.802C30.9527 39.5094 30.4064 39.3409 29.844 39.3115C29.6854 39.2895 29.5249 39.2704 29.351 39.2475L28.8542 39.1864L28.837 38.876C28.8801 37.8027 28.5124 36.7533 27.8088 35.9414C27.1052 35.1294 26.1185 34.6161 25.0496 34.5057L24.6961 34.436L24.7716 34.0826C24.9702 33.4861 25.0287 32.8519 24.9423 32.2292C24.8559 31.6064 24.6271 31.012 24.2735 30.492C23.92 29.972 23.4513 29.5406 22.9039 29.2311C22.3564 28.9216 21.745 28.7425 21.117 28.7075L20.7539 28.6684L20.8017 28.3055C21.1734 25.51 20.2552 23.8368 17.9965 23.194C15.5974 22.5197 13.9225 23.576 12.5734 26.6408L12.3422 27.169L9.42713 23.6477L9.58956 23.4232L20.7683 8.12902L26.3872 10.8127L25.9095 11.1651C25.685 11.3284 25.4757 11.4746 25.2808 11.6111C24.9322 11.8398 24.5996 12.0918 24.2853 12.3656L24.056 12.5767C23.4468 13.0924 22.8914 13.6684 22.3983 14.2958C21.9395 14.77 21.633 15.3704 21.5179 16.0199C21.4028 16.6694 21.4844 17.3385 21.7522 17.9413C22.02 18.5442 22.4619 19.0533 23.0211 19.4035C23.5804 19.7537 24.2315 19.9289 24.891 19.9067C26.017 20.1092 27.1753 20.035 28.2662 19.6904C29.3571 19.3458 30.3478 18.7412 31.153 17.9288C31.2036 17.8772 31.2581 17.8333 31.3106 17.7865C32.7734 16.5268 33.2034 16.5144 34.6404 17.7063L47.6784 28.5118C47.8828 28.6818 48.0968 28.8422 48.3147 28.995C48.4921 29.0881 48.6491 29.2157 48.7766 29.3703C48.904 29.5249 48.9993 29.7034 49.0567 29.8953C49.1142 30.0872 49.1328 30.2886 49.1114 30.4877C49.0899 30.6869 49.0289 30.8798 48.9319 31.055H48.9281ZM49.572 24.6228L49.5405 24.8596C49.4654 25.2703 49.3258 25.6664 49.1268 26.0334C49.0475 26.2005 48.9653 26.3743 48.8899 26.5577L48.7064 27.0104L41.5912 21.0891C39.4351 19.2936 37.2809 17.4949 35.1286 15.6931C34.7206 15.3054 34.1969 15.0618 33.6375 14.9994C33.0781 14.9369 32.5136 15.0591 32.0301 15.3473C31.2222 15.7997 30.4656 16.338 29.7733 16.9528C29.0976 17.5429 28.2921 17.9651 27.4223 18.1852C26.5525 18.4053 25.6429 18.4169 24.7678 18.2192C24.4152 18.2247 24.0695 18.1222 23.7771 17.9253C23.4847 17.7284 23.2596 17.4467 23.1323 17.1181C23.005 16.7894 22.9815 16.4297 23.065 16.0873C23.1485 15.7449 23.3349 15.4363 23.5992 15.2031C24.8653 13.6108 26.5485 12.4007 28.4615 11.7076C30.0725 10.9313 31.878 10.6511 33.6486 10.9025C34.2383 11.0318 34.8181 11.2026 35.3837 11.4134C35.6522 11.509 35.9197 11.5997 36.1901 11.6847C38.0635 12.3522 40.0591 12.6073 42.0403 12.4325C42.2436 12.4235 42.4461 12.4636 42.6306 12.5496C42.8151 12.6355 42.9761 12.7648 43.0999 12.9263L43.8394 14.0198C45.7015 16.7656 47.6268 19.6068 49.422 22.4663C49.7097 23.1485 49.7638 23.9066 49.5759 24.6228H49.572ZM57.3742 22.897C56.5573 23.4758 55.6917 24.0526 54.7295 24.6581C54.4434 24.8535 54.1079 24.9643 53.7617 24.9781C53.5015 24.9641 53.2493 24.8836 53.0292 24.7441C52.8092 24.6046 52.6288 24.4109 52.5053 24.1816C49.1211 19.0879 45.7436 13.9879 42.3728 8.8816C42.2228 8.7065 42.1141 8.49987 42.055 8.27703C41.9959 8.05419 41.9878 7.82089 42.0313 7.59449C42.0749 7.36809 42.1689 7.15441 42.3064 6.96934C42.4439 6.78426 42.6214 6.63256 42.8257 6.5255C43.6537 5.95693 44.4907 5.39851 45.3366 4.85031C45.5147 4.71441 45.7182 4.61538 45.935 4.55897C46.1519 4.50256 46.3778 4.4899 46.5997 4.52178C46.8555 4.58034 47.0958 4.69275 47.3047 4.85151C47.5137 5.01027 47.6863 5.21175 47.8112 5.44247C50.0966 8.82527 52.3702 12.2138 54.6321 15.608L56.5315 18.4455C56.9634 19.0873 57.3914 19.7301 57.8233 20.3776C57.9701 20.5686 58.0754 20.788 58.1326 21.022C58.1897 21.256 58.1974 21.4993 58.1552 21.7364C58.1129 21.9735 58.0216 22.1992 57.8871 22.399C57.7527 22.5989 57.578 22.7685 57.3742 22.897Z" fill="black"/>
</g>
<defs>
<clipPath id="clip0_67_4698">
<rect width="60" height="48" fill="white"/>
</clipPath>
</defs>
</svg>
