<svg width="59" height="58" viewBox="0 0 59 58" fill="none" xmlns="http://www.w3.org/2000/svg">
<g clip-path="url(#clip0_67_4349)">
<path d="M-0.00158691 36.7132C0.616633 36.5034 0.870385 35.8564 1.40294 35.5449C1.40294 35.9661 1.40698 36.3881 1.40294 36.8092C1.40294 37.0625 1.44497 37.2731 1.75529 37.2933C1.21223 37.8137 0.866345 38.5769 -0.000779227 38.6955L-0.00158691 36.7132Z" fill="white"/>
<path d="M33.5916 58.0001H23.0576C22.6592 57.9936 22.2583 57.9605 21.8624 57.9888C21.5577 58.0114 21.5132 57.8613 21.5149 57.629C21.4482 56.8412 21.5735 56.049 21.8801 55.3201C22.1868 54.5912 22.6656 53.9472 23.2758 53.4432C23.321 53.4073 23.3568 53.3609 23.3799 53.308C23.403 53.2551 23.4128 53.1974 23.4083 53.1399C23.4083 51.5513 23.4083 49.9635 23.4083 48.299C22.1209 49.2373 20.9031 50.128 19.682 51.0123C19.6062 51.0544 19.5489 51.1232 19.5213 51.2053C19.4936 51.2874 19.4976 51.3768 19.5325 51.456C19.6946 52.0897 19.6871 52.7548 19.5108 53.3847C19.3346 54.0146 18.9958 54.5873 18.5282 55.0454C18.0607 55.5035 17.4809 55.831 16.8467 55.9951C16.2126 56.1593 15.5464 56.1543 14.9149 55.9806C14.8764 55.9742 14.8374 55.9717 14.7985 55.9734C14.3297 55.79 13.8932 55.5332 13.5055 55.2126C13.3164 55.0262 13.1677 55.0899 13.006 55.2287C11.1214 56.2821 9.11833 57.1089 7.03881 57.6919C5.57988 58.1752 3.99172 58.0887 2.59409 57.4498C2.19829 57.1673 1.84199 56.8333 1.53463 56.4567C0.61983 54.7914 0.896212 53.0834 1.35927 51.3738C1.86917 49.6874 2.542 48.0546 3.36828 46.4982C4.38976 44.5893 5.55024 42.7667 6.71071 40.9385C8.57911 38.3123 10.4734 35.7047 12.5292 33.2229C13.61 31.9213 14.7053 30.6328 15.8151 29.3575C16.0575 29.0783 16.064 28.917 15.8151 28.6419C14.9819 27.7221 14.1778 26.7757 13.3624 25.839L12.2957 24.5481C11.5053 23.5234 10.715 22.4985 9.92464 21.4733C9.8896 21.4049 9.82929 21.3528 9.75645 21.3279C9.68362 21.3031 9.60396 21.3075 9.53432 21.3402C8.81072 21.5716 8.03553 21.5889 7.30227 21.3902C6.73871 21.1555 6.21459 20.8358 5.74823 20.4422C4.3938 18.6673 4.31218 17.3707 5.467 15.5441C5.52091 15.4796 5.55043 15.3982 5.55043 15.3142C5.55043 15.2301 5.52091 15.1488 5.467 15.0842C5.13082 14.5646 4.80433 14.0354 4.47381 13.5158C4.28285 13.0841 4.04922 12.6724 3.77639 12.287C2.85118 10.5414 2.05677 8.72969 1.39968 6.86686C1.35604 6.73293 1.38432 6.57075 1.28169 6.45457L0.930154 4.58438C0.973794 4.08255 0.912374 3.57828 1.00531 3.07403C1.11056 2.23601 1.5184 1.46511 2.15234 0.905872C2.78628 0.346638 3.60279 0.0374965 4.44876 0.0363988C4.79787 0.0170353 5.1486 0.0234815 5.49932 0.0178338L7.37257 0.365569C9.39183 1.01879 11.3481 1.85209 13.2178 2.85539C13.6611 3.1671 14.1324 3.43719 14.6255 3.6622L19.5075 6.8249C19.9382 7.14763 20.3786 7.4534 20.7948 7.79306C21.1035 8.04317 21.2247 7.89392 21.3249 7.6067C21.3589 7.49622 21.3667 7.37935 21.3476 7.26537C21.3285 7.15138 21.2831 7.04341 21.215 6.94996C21.0067 6.58125 20.8696 6.17674 20.811 5.7575C20.8855 4.81652 21.2937 3.93289 21.9621 3.26536C22.6306 2.59784 23.5156 2.19016 24.4581 2.11555C24.8762 2.18452 25.2809 2.31873 25.6573 2.51329C26.2368 2.81262 26.6336 2.66256 26.8113 2.04939C26.9265 1.58848 27.1601 1.16553 27.4891 0.822281C27.818 0.479031 28.2309 0.22735 28.687 0.0920689C29.5302 -0.041174 30.39 -0.0297203 31.2294 0.125949C31.6386 0.217838 32.017 0.414165 32.3275 0.695724C32.638 0.977283 32.87 1.33444 33.0008 1.73231C33.3952 2.76906 33.5665 2.84329 34.5548 2.35839C34.6591 2.30756 34.7666 2.264 34.8724 2.2164C35.533 2.05186 36.2295 2.11147 36.8524 2.38582C37.4318 2.81212 37.9605 3.30316 38.4282 3.84937C38.7792 4.23257 39.0047 4.71357 39.0746 5.2281C39.1445 5.74263 39.0554 6.2662 38.8194 6.72888C38.7249 6.89757 38.6459 7.07444 38.5834 7.25734C38.5451 7.36946 38.5451 7.49109 38.5834 7.6032C38.6217 7.71532 38.6962 7.8116 38.7951 7.87697C39.0012 8.01413 39.1054 7.78258 39.2315 7.69706C40.472 6.85637 41.6995 5.9979 42.9416 5.15963C43.0434 5.11041 43.1239 5.0262 43.1685 4.92244C43.213 4.81869 43.2185 4.70238 43.1841 4.59487C43.0343 3.98132 43.0439 3.33976 43.2118 2.73092C43.3797 2.12208 43.7005 1.5661 44.1438 1.11558C44.587 0.665056 45.1381 0.334897 45.7448 0.156357C46.3515 -0.0221832 46.9939 -0.043191 47.611 0.0952944C48.1108 0.242096 48.5882 0.456261 49.0301 0.731869C49.4463 1.37086 49.9344 1.39829 50.6189 1.07879C51.7508 0.568514 52.9543 0.234119 54.1876 0.0872184C55.3059 -0.090463 56.4519 0.0962595 57.4557 0.619716C57.863 0.949311 58.2204 1.33602 58.5167 1.76781C59.3038 3.50165 58.9636 5.2258 58.4618 6.9427C57.8744 8.70868 57.1357 10.4209 56.254 12.0603C55.1638 13.9757 53.9799 15.8338 52.7855 17.6854C52.7047 17.7895 52.6238 17.8984 52.5333 17.9984C52.2018 18.2744 51.9812 18.6606 51.912 19.086C51.8428 19.5114 51.9297 19.9474 52.1567 20.314C52.4534 20.9369 52.5405 21.6389 52.4049 22.3153C52.2693 22.9917 51.9183 23.6063 51.4044 24.0673C50.952 24.5832 50.359 24.9564 49.6978 25.1415C49.0365 25.3266 48.3356 25.3156 47.6805 25.1096C47.5432 25.051 47.3893 25.0431 47.2467 25.0875C47.1041 25.1318 46.9819 25.2255 46.9023 25.3517C45.9864 26.4586 45.0535 27.5524 44.1037 28.633C43.8661 28.9033 43.8387 29.067 44.0964 29.3502C44.9692 30.3128 45.8097 31.3043 46.6623 32.2846C46.9801 32.7488 47.3384 33.184 47.733 33.5852L51.3502 38.2865C51.5321 38.56 51.7317 38.8238 51.8917 39.1102C51.9149 39.1843 51.9555 39.2517 52.0103 39.3068C52.065 39.3618 52.1322 39.403 52.2062 39.4267C52.2802 39.4504 52.3588 39.456 52.4354 39.4431C52.512 39.4301 52.5844 39.399 52.6465 39.3523C54.8874 39.0295 56.3849 40.1026 57.1138 42.5577L57.1235 42.7901C57.162 43.7476 56.8407 44.6849 56.2224 45.4179C56.1823 45.4519 56.1508 45.4949 56.1305 45.5434C56.1102 45.5918 56.1017 45.6444 56.1057 45.6968C56.1096 45.7492 56.1259 45.7999 56.1532 45.8448C56.1805 45.8897 56.2181 45.9276 56.2629 45.9552C57.1241 47.5694 57.8501 49.252 58.4335 50.9857C58.5143 51.2624 58.604 51.5359 58.6905 51.8102L58.9935 53.5416C58.9466 54.0039 58.9992 54.4687 58.9127 54.9342C58.8093 55.7833 58.3938 56.5638 57.7466 57.1244C57.0995 57.6849 56.2668 57.9855 55.4103 57.9678C55.1194 57.9823 54.8276 57.9823 54.5367 57.9888L52.8097 57.6741C50.7763 57.0671 48.811 56.2522 46.9451 55.2424L45.5301 54.4614L40.6247 51.3148C40.206 50.9595 39.7565 50.642 39.2816 50.366L36.534 48.2748V52.8397C36.5235 53.064 36.4531 53.281 36.6754 53.4755C36.9897 53.7546 37.2686 54.0733 37.5643 54.3751C38.1684 55.3331 38.4608 56.4541 38.4015 57.5846C38.3878 57.9267 38.2844 57.988 37.97 57.988C36.5105 57.9783 35.051 57.9936 33.5916 58.0001ZM34.626 36.2468V34.0241C34.6332 32.5089 34.6429 30.9929 34.6462 29.4777C34.6502 28.0255 34.6462 28.0327 36.1073 28.0569C36.4402 28.0626 36.5323 28.1521 36.5283 28.4821C36.5138 29.5891 36.5283 30.6968 36.5388 31.8046V34.0273C36.5315 34.4154 36.5388 34.8051 36.5138 35.1924C36.4944 35.478 36.6035 35.5554 36.879 35.5498C37.6767 35.5336 38.4759 35.557 39.2743 35.5393C39.4069 35.5489 39.5399 35.5296 39.6643 35.4829C39.7887 35.4362 39.9015 35.3632 39.9949 35.2688C40.0883 35.1744 40.1601 35.0609 40.2053 34.9361C40.2506 34.8114 40.2682 34.6783 40.257 34.5461C40.2667 33.2439 40.2506 31.9409 40.2449 30.6387C40.2882 29.8931 40.2768 29.1454 40.211 28.4014C40.0909 26.2091 39.2476 24.1181 37.8124 22.4544C37.355 21.8494 36.82 21.3069 36.2212 20.8408C35.9885 20.6431 35.864 20.6028 35.7735 20.982C35.4228 22.452 35.0397 23.9139 34.6688 25.3799L34.2041 27.025L33.7338 26.6523L32.7196 25.5937C32.6905 25.6986 32.6679 25.7333 32.6735 25.7632C32.7543 26.1811 32.8351 26.5982 32.916 27.0153C33.1665 28.4902 33.4138 29.9658 33.6699 31.4391C33.7189 31.6049 33.7289 31.7797 33.6992 31.95C33.6695 32.1203 33.6008 32.2814 33.4986 32.421C32.4039 33.8377 31.3264 35.2687 30.2661 36.714C30.0301 37.0367 29.9121 37.0617 29.6616 36.7205C28.7727 35.5102 27.8563 34.3299 26.9503 33.1366C26.7394 32.6969 26.3087 32.3992 26.1624 31.9183L27.2736 25.672L27.0449 25.4953L25.7519 27.1089L25.0593 24.6716C24.9668 24.0728 24.8158 23.4845 24.6084 22.9151C24.4661 22.3108 24.3061 21.7098 24.1865 21.1006C24.0984 20.652 23.9611 20.6165 23.612 20.911C21.5759 22.5551 20.224 24.8956 19.8186 27.4784C19.6731 28.2493 19.6282 29.0358 19.6852 29.8182C19.6788 31.3947 19.6626 32.972 19.6707 34.5493C19.6597 34.6818 19.6777 34.8151 19.7235 34.9399C19.7693 35.0647 19.8418 35.178 19.936 35.272C20.0301 35.366 20.1436 35.4384 20.2687 35.4841C20.3937 35.5299 20.5272 35.5479 20.6599 35.5369C21.3064 35.5506 21.9464 35.528 22.5897 35.5215C23.5433 35.5522 23.4204 35.6756 23.3889 34.7228C23.3954 32.9543 23.4051 31.1857 23.4091 29.4172C23.4091 28.0456 23.4091 28.0577 24.812 28.0537C25.1967 28.0537 25.2969 28.1602 25.2921 28.5378C25.2751 29.8585 25.2921 31.1809 25.3018 32.5024V34.6082C25.2945 35.4247 25.3018 36.2412 25.2751 37.0569C25.267 37.3401 25.3632 37.4183 25.6395 37.4159C27.5088 37.399 29.3788 37.3966 31.248 37.3901H33.4744C34.6841 37.4547 34.6841 37.4546 34.626 36.2468ZM25.3001 43.0241V45.2468C25.2929 47.3881 25.305 49.5294 25.267 51.6698C25.2573 52.2346 25.3042 52.5574 25.9846 52.3887C26.2549 52.3523 26.5285 52.3466 26.8 52.3718C27.5926 52.528 28.3432 52.85 29.0022 53.3166V50.1466C29.0097 47.7934 29.017 45.4399 29.024 43.0862C29.0025 42.9724 29.0071 42.8552 29.0375 42.7434C29.0678 42.6316 29.1232 42.5281 29.1994 42.4407C29.7909 41.876 30.3671 41.2959 30.9368 40.7101C31.1179 40.5238 31.2286 40.5544 31.4128 40.7158C32.5782 41.7307 32.5822 41.7259 31.5106 42.7974C31.387 42.9208 31.2682 43.0523 31.1373 43.1669C31.0556 43.2339 30.9911 43.3193 30.949 43.4161C30.9068 43.5129 30.8883 43.6182 30.8948 43.7236C30.911 45.1242 30.9118 46.524 30.9183 47.9246V50.1474V53.2939C31.8921 52.571 33.1086 52.253 34.3124 52.4065C34.6542 52.4525 34.6478 52.2846 34.6462 52.0523C34.637 50.2875 34.6305 48.523 34.6268 46.7588V44.536C34.6332 42.9039 34.6348 41.2717 34.6526 39.6395C34.6526 39.3636 34.5718 39.2692 34.2906 39.2748C33.2796 39.295 32.2703 39.2934 31.2553 39.2998H29.0288C27.8975 39.2942 26.7726 39.295 25.6444 39.2764C25.3648 39.2716 25.2759 39.3571 25.2807 39.6395C25.2929 40.769 25.2929 41.8953 25.3001 43.0216V43.0241ZM40.2805 38.5866L40.2376 40.8053C40.096 41.3324 39.8179 41.8129 39.4314 42.1987C39.0448 42.5845 38.5634 42.8619 38.0355 43.0031C37.5506 43.0209 36.9041 42.8555 36.6269 43.104C36.3077 43.392 36.5307 44.0503 36.538 44.5481C36.5307 44.8192 36.5081 45.0911 36.5226 45.3614C36.534 45.5784 36.4224 45.8229 36.6616 46.0069C38.0048 47.025 39.3042 48.1045 40.7201 49.0235C41.1194 49.3704 41.5525 49.6764 42.0131 49.9368C43.6133 51.1086 45.2947 52.1657 47.0445 53.1003C47.4528 53.3903 47.8942 53.6308 48.3593 53.8168C48.8671 54.1363 49.4033 54.4086 49.961 54.63C51.4297 55.3813 53.0178 55.8727 54.6547 56.0823C54.8664 56.0936 55.0789 56.1202 55.2907 56.1121C55.5197 56.1343 55.7509 56.1079 55.969 56.035C56.1872 55.962 56.3876 55.8439 56.5571 55.6885C56.7265 55.5331 56.8613 55.3438 56.9526 55.1329C57.044 54.9221 57.0898 54.6944 57.0871 54.4646C57.1011 54.1957 57.0965 53.9261 57.0734 53.6578C56.7549 51.424 55.985 49.278 54.8106 47.3502C54.666 46.7959 54.3928 46.4901 53.7601 46.7394C53.555 46.7856 53.3441 46.8003 53.1346 46.783C50.6706 46.3619 49.4406 44.7781 49.6693 42.3221C49.7467 41.9065 49.912 41.512 50.1542 41.1652C50.7013 40.6004 50.4904 40.1752 50.0103 39.7468C48.8809 38.087 47.6618 36.4899 46.3584 34.9624C46.049 34.4985 45.6947 34.0662 45.3006 33.6715C44.3413 32.4113 43.2713 31.2462 42.1351 29.9416V30.6371C42.1351 31.957 42.1424 33.2778 42.1351 34.5985C42.1663 35.0493 42.0706 35.4998 41.8586 35.8991C41.6467 36.2983 41.327 36.6304 40.9358 36.8576C40.6789 36.9736 40.4708 37.176 40.3481 37.4295C40.2254 37.683 40.1957 37.9714 40.2643 38.2445C40.2724 38.3494 40.2748 38.4656 40.2805 38.5818V38.5866ZM21.0962 18.1219C20.8457 17.5435 20.7715 16.9042 20.8829 16.284C20.9403 16.142 20.992 15.9975 21.055 15.8588C21.5399 14.7905 21.4963 14.6808 20.4174 14.2742C19.9331 14.0958 19.5136 13.7765 19.2131 13.3575C18.9126 12.9385 18.7449 12.4391 18.7317 11.9239C18.7187 11.3059 18.7454 10.6871 18.7543 10.0683C18.907 9.7044 19.2529 9.2784 19.1583 8.99279C19.0614 8.68862 18.5498 8.51677 18.2193 8.28683C16.6004 7.0871 14.9007 6.00019 13.1321 5.03378C12.6515 4.70253 12.1384 4.42084 11.6007 4.19307C9.72263 3.0756 7.65516 2.31157 5.50094 1.93886C3.74972 1.6831 2.49631 2.23657 2.90523 4.5852C2.91338 4.81556 2.93632 5.04516 2.97392 5.27259C3.42422 7.16481 4.1452 8.98239 5.11465 10.6693C5.34118 11.2051 5.62342 11.7157 5.95672 12.1926C6.27668 12.8279 6.63312 13.4443 7.02427 14.0386C7.10508 14.1741 7.16326 14.2806 7.37903 14.2113C8.02066 14.0188 8.7021 14.0006 9.35311 14.1586C10.0041 14.3165 10.6012 14.645 11.0827 15.11C11.4756 15.5756 11.7953 16.0983 12.0306 16.6599C12.1911 17.2192 12.2209 17.8079 12.1178 18.3805C12.0147 18.9531 11.7814 19.4945 11.4359 19.963C11.2993 20.147 11.3405 20.2583 11.4641 20.4132C12.202 21.3297 12.8711 22.3011 13.6744 23.1652C13.9815 23.6332 14.3368 24.0678 14.7346 24.4618C15.6923 25.7091 16.7477 26.8693 17.8492 28.1174C18.1034 25.1357 19.4143 22.3423 21.5464 20.2389C21.7937 19.9969 22.2591 19.7314 22.2389 19.5128C22.2131 19.2272 21.7977 18.9811 21.5601 18.706C21.3985 18.5196 21.2522 18.3179 21.0962 18.1219ZM56.0964 2.08568C55.7805 1.93107 55.4287 1.86447 55.0781 1.89287C53.7959 1.98256 52.5364 2.2773 51.3478 2.76584C50.7732 2.96108 50.3853 3.19586 50.5526 3.88488C50.5696 4.01986 50.5603 4.15685 50.5251 4.28828C50.4345 4.92666 50.1794 5.53063 49.785 6.04116C49.3906 6.5517 48.8702 6.95133 48.2748 7.201C47.6793 7.45068 47.0292 7.54184 46.3879 7.46559C45.7466 7.38934 45.1361 7.14831 44.6161 6.76601C44.4496 6.64902 44.3316 6.46828 44.0674 6.65304C43.0168 7.39047 41.946 8.10046 40.8849 8.82337C40.7589 8.90889 40.6069 8.99118 40.7524 9.18804C41.1685 9.92219 41.3255 10.7746 41.1985 11.6085C41.2516 12.2262 41.0834 12.8427 40.724 13.3482C40.3645 13.8538 39.8371 14.2156 39.2355 14.3694C38.5632 14.5961 38.4145 14.9342 38.7167 15.5562C39.0476 16.0932 39.1718 16.7318 39.0663 17.3534C38.9607 17.9749 38.6326 18.537 38.1429 18.9351C37.9643 19.1134 37.7712 19.2756 37.5474 19.4789L38.1591 19.9896L39.1976 21.0796C40.4656 22.6556 41.3636 24.4953 41.8256 26.4635C41.8563 26.7297 41.9693 26.9799 42.1488 27.1791C42.4446 27.5938 42.6337 27.547 42.9368 27.1646C43.6722 26.244 44.427 25.3339 45.2343 24.4771C45.6812 24.0035 45.8 23.6211 45.2941 23.1547C45.2931 23.1163 45.2874 23.0781 45.2771 23.041C44.9835 22.3823 44.8878 21.6527 45.0015 20.9407C45.1153 20.2288 45.4336 19.5651 45.9179 19.0303C46.4021 18.4954 47.0315 18.1125 47.7296 17.9279C48.4276 17.7433 49.1644 17.765 49.8503 17.9903C50.1453 18.0839 50.2714 17.9718 50.416 17.7588C51.0213 16.8552 51.6541 15.9685 52.244 15.0535C54.0439 12.4462 55.5015 9.6192 56.5813 6.64174C57.0429 5.58758 57.1948 4.42411 57.0193 3.28703C57.0175 3.01377 56.9264 2.74855 56.7598 2.53171C56.5932 2.31487 56.3603 2.15825 56.0964 2.08568ZM19.6675 40.6859L19.6416 38.4648C19.6399 38.3101 19.648 38.1554 19.6658 38.0017C19.7178 37.7823 19.6875 37.5514 19.5806 37.3528C19.4737 37.1542 19.2976 37.0016 19.0856 36.9238C18.6853 36.6974 18.3538 36.3672 18.1262 35.9681C17.8986 35.569 17.7833 35.1158 17.7926 34.6566C17.7684 33.7845 17.7764 32.9123 17.7708 32.0401C17.7764 31.7102 17.7773 31.3794 17.7894 31.0494C17.7907 30.9312 17.7564 30.8153 17.6908 30.7168C17.6252 30.6184 17.5314 30.542 17.4217 30.4975C17.2479 30.4169 17.1558 30.6589 17.0515 30.7831C16.199 31.7707 15.3367 32.7509 14.51 33.7603C13.1297 35.4449 11.734 37.119 10.5089 38.9239C8.77906 41.1678 7.21008 43.5309 5.81369 45.9955C4.66393 47.886 3.75555 49.9125 3.10968 52.0281C2.774 52.922 2.7055 53.894 2.9125 54.8261C2.95471 55.1646 3.12241 55.4751 3.38255 55.6962C3.64268 55.9174 3.97637 56.0333 4.31784 56.021C4.73135 56.133 5.16594 56.143 5.58418 56.05C7.56936 55.6761 9.48343 54.9933 11.2564 54.0266C11.932 53.7038 12.349 53.4481 12.2262 52.4831C12.1432 51.7888 12.2838 51.0861 12.6275 50.4768C12.9713 49.8676 13.5004 49.3834 14.1382 49.0945C14.7406 48.7466 15.4315 48.5819 16.1263 48.6204C16.8211 48.659 17.4896 48.8992 18.0496 49.3116C18.2419 49.439 18.3793 49.6859 18.6888 49.4398C19.4315 48.8484 20.2049 48.2966 20.9661 47.7286C21.6741 47.2937 22.2761 46.7144 22.9606 46.2521C23.1386 46.1592 23.2787 46.0073 23.3568 45.8226C23.4349 45.6379 23.4463 45.4317 23.3889 45.2396C23.3954 44.6578 23.3808 44.0745 23.4156 43.4944C23.4382 43.1233 23.3348 43.0103 22.9461 43.0103C21.0599 43.012 20.2825 42.4432 19.6675 40.6859ZM37.2193 5.53723C37.2174 5.43933 37.1949 5.34293 37.1531 5.25435C37.1113 5.16577 37.0513 5.08703 36.9768 5.02329C36.7344 4.77399 36.479 4.53032 36.2358 4.27779C36.1084 4.12992 35.9312 4.03376 35.7376 4.00744C35.544 3.98113 35.3475 4.0265 35.1852 4.13499C34.838 4.35642 34.4425 4.49099 34.0322 4.52726C33.6218 4.56353 33.2088 4.50044 32.8281 4.34334C32.4474 4.18623 32.1102 3.93975 31.8453 3.62482C31.5803 3.30989 31.3954 2.93578 31.3062 2.53427C31.2668 2.33223 31.1515 2.15288 30.984 2.03289C30.8165 1.9129 30.6094 1.86137 30.4051 1.88883C30.1717 1.90779 29.9371 1.90779 29.7036 1.88883C29.0725 1.81864 28.7541 2.08892 28.5642 2.69968C28.4638 3.06239 28.2827 3.39781 28.0345 3.68096C27.7862 3.96411 27.4772 4.18767 27.1304 4.33501C26.7835 4.48236 26.4079 4.54967 26.0314 4.53194C25.6549 4.51421 25.2873 4.41189 24.9559 4.23261C24.8437 4.14803 24.7153 4.08746 24.5786 4.05467C24.442 4.02188 24.3 4.01758 24.1616 4.04204C24.0232 4.06649 23.8913 4.11918 23.7742 4.19681C23.6571 4.27444 23.5573 4.37534 23.481 4.49321C23.3421 4.65627 23.1905 4.80816 23.0277 4.94746C22.8666 5.07576 22.7599 5.25984 22.7286 5.46314C22.6973 5.66644 22.7438 5.87406 22.8588 6.04471C23.0756 6.38861 23.207 6.7792 23.2422 7.18402C23.2774 7.58883 23.2153 7.99617 23.0611 8.37222C22.9069 8.74827 22.6651 9.08216 22.3557 9.34614C22.0463 9.61011 21.6782 9.79654 21.2821 9.88996C21.0696 9.92758 20.88 10.0459 20.753 10.2201C20.6259 10.3943 20.5714 10.6108 20.6009 10.8243C20.6203 11.0767 20.6203 11.3302 20.6009 11.5827C20.5607 11.8141 20.6141 12.0521 20.7494 12.2443C20.8847 12.4365 21.0908 12.5674 21.3225 12.6081C21.7082 12.7024 22.0664 12.8858 22.3682 13.1435C22.67 13.4012 22.9069 13.7261 23.06 14.0919C23.2131 14.4577 23.278 14.8543 23.2495 15.2498C23.221 15.6452 23.0999 16.0285 22.8959 16.3687C22.8273 16.4625 22.7779 16.569 22.7506 16.682C22.7233 16.795 22.7186 16.9122 22.7369 17.027C22.7551 17.1418 22.7959 17.2519 22.8569 17.3509C22.9179 17.4499 22.9979 17.5359 23.0923 17.6039C23.2688 17.7572 23.4346 17.9225 23.5885 18.0985C23.7254 18.2894 23.9324 18.4183 24.1643 18.4572C24.3961 18.4961 24.634 18.4416 24.8258 18.3058C25.1662 18.1021 25.5497 17.9807 25.9456 17.9514C26.3415 17.9221 26.7387 17.9857 27.1056 18.1371C27.4724 18.2885 27.7987 18.5235 28.0583 18.8234C28.3178 19.1232 28.5036 19.4795 28.6005 19.8638C28.6195 19.9785 28.6611 20.0885 28.7228 20.1872C28.7845 20.2859 28.8651 20.3714 28.96 20.4389C29.055 20.5064 29.1623 20.5545 29.2759 20.5804C29.3895 20.6063 29.5072 20.6095 29.622 20.5899C29.8357 20.5693 30.0508 20.5693 30.2645 20.5899C30.3888 20.6131 30.5165 20.611 30.6399 20.5836C30.7633 20.5562 30.8799 20.504 30.9825 20.4303C31.0852 20.3566 31.1718 20.2629 31.2372 20.1549C31.3025 20.0468 31.3452 19.9266 31.3627 19.8016C31.4641 19.4289 31.65 19.0845 31.9059 18.7949C32.1619 18.5053 32.481 18.2783 32.8388 18.1314C33.1966 17.9845 33.5833 17.9216 33.9693 17.9477C34.3553 17.9737 34.7301 18.088 35.0648 18.2816C35.1666 18.3558 35.2824 18.4088 35.4052 18.4373C35.528 18.4659 35.6553 18.4695 35.7795 18.4479C35.9037 18.4263 36.0223 18.3799 36.1282 18.3116C36.2341 18.2432 36.3251 18.1543 36.3958 18.0501C36.5354 17.8874 36.6872 17.7355 36.8499 17.5958C37.0389 17.4561 37.1647 17.2474 37.1998 17.0152C37.235 16.7831 37.1766 16.5466 37.0374 16.3574C36.8375 16.0211 36.7185 15.6431 36.6896 15.2531C36.6607 14.8631 36.7228 14.4718 36.8709 14.1098C37.0191 13.7478 37.2493 13.425 37.5435 13.1669C37.8377 12.9087 38.1878 12.7221 38.5664 12.6218C39.1192 12.4476 39.3939 12.1571 39.3349 11.573C39.3141 11.3583 39.3141 11.1422 39.3349 10.9275C39.3574 10.8083 39.3557 10.6858 39.33 10.5673C39.3042 10.4487 39.255 10.3366 39.185 10.2374C39.1151 10.1381 39.026 10.0539 38.9229 9.98968C38.8199 9.92544 38.705 9.88249 38.585 9.86335C38.2063 9.76287 37.8558 9.57695 37.5605 9.31989C37.2652 9.06283 37.0329 8.74149 36.8816 8.38066C36.7303 8.01984 36.6639 7.62915 36.6877 7.2387C36.7115 6.84825 36.8248 6.46847 37.0188 6.12862C37.1433 5.95591 37.2131 5.74992 37.2193 5.53723ZM31.7385 31.3882C31.7272 31.2833 31.7207 31.1857 31.7038 31.0897C31.3854 29.2513 31.0661 27.4123 30.7461 25.5728C30.6192 24.8466 30.4851 24.1205 30.355 23.3944C30.3138 23.166 30.1829 22.9482 29.9727 22.9385C29.7626 22.9288 29.6228 23.1475 29.5751 23.3734C29.559 23.4492 29.5339 23.5235 29.5202 23.6001C29.086 26.1098 28.6525 28.6195 28.2199 31.1293C28.1847 31.2497 28.1776 31.3767 28.1992 31.5003C28.2208 31.6239 28.2704 31.741 28.3444 31.8425C28.8255 32.4551 29.2923 33.0782 29.7449 33.7119C29.9453 33.9934 30.0471 33.891 30.2023 33.6772C30.6492 33.064 31.113 32.4621 31.568 31.8546C31.6714 31.7134 31.7967 31.5786 31.7385 31.3882ZM10.2956 17.8338C10.3059 17.4638 10.2059 17.0991 10.0082 16.7859C9.81058 16.4728 9.52416 16.2253 9.18536 16.075C8.84657 15.9246 8.47066 15.8781 8.10537 15.9415C7.74008 16.0048 7.40187 16.1751 7.13369 16.4307C6.8655 16.6863 6.67943 17.0157 6.5991 17.377C6.51877 17.7384 6.5478 18.1154 6.6825 18.4603C6.8172 18.8051 7.05151 19.1023 7.35567 19.3139C7.65982 19.5256 8.02012 19.6423 8.39082 19.6492C8.88282 19.6537 9.35716 19.4663 9.7129 19.127C10.0686 18.7877 10.2777 18.3231 10.2956 17.8322V17.8338ZM53.3609 44.8934C53.732 44.8962 54.0956 44.7887 54.4054 44.5847C54.7153 44.3807 54.9574 44.0894 55.1011 43.7477C55.2447 43.406 55.2835 43.0294 55.2123 42.6658C55.1412 42.3021 54.9633 41.9677 54.7015 41.7051C54.4396 41.4425 54.1055 41.2636 53.7415 41.191C53.3775 41.1184 53.0002 41.1554 52.6573 41.2973C52.3145 41.4393 52.0216 41.6797 51.8159 41.9882C51.6103 42.2966 51.501 42.6592 51.5022 43.0297C51.5084 43.5205 51.706 43.9896 52.0531 44.3373C52.4001 44.685 52.8693 44.8839 53.3609 44.8918V44.8934ZM17.7861 52.3548C17.7829 51.9849 17.6696 51.6243 17.4607 51.3188C17.2519 51.0132 16.9568 50.7765 16.6129 50.6387C16.2691 50.5009 15.892 50.4681 15.5295 50.5446C15.1669 50.6211 14.8354 50.8034 14.5768 51.0684C14.3182 51.3334 14.1443 51.669 14.0772 52.0328C14.01 52.3966 14.0526 52.7721 14.1996 53.1117C14.3465 53.4513 14.5912 53.7396 14.9026 53.9402C15.214 54.1407 15.578 54.2443 15.9485 54.2379C16.4406 54.2255 16.9083 54.0214 17.2517 53.6692C17.5951 53.317 17.7869 52.8447 17.7861 52.3532V52.3548ZM46.8134 1.89932C46.4426 1.90014 46.0805 2.01092 45.773 2.21758C45.4654 2.42424 45.2263 2.71746 45.0859 3.06004C44.9456 3.40262 44.9104 3.7791 44.9847 4.14171C45.0591 4.50431 45.2397 4.83669 45.5036 5.09664C45.7675 5.3566 46.1028 5.53241 46.467 5.60176C46.8311 5.67112 47.2077 5.63089 47.549 5.48619C47.8902 5.34148 48.1806 5.09883 48.3835 4.78902C48.5863 4.47921 48.6924 4.11621 48.6882 3.74611C48.6794 3.25475 48.4782 2.78637 48.1278 2.44122C47.7774 2.09607 47.3056 1.90156 46.8134 1.89932ZM46.8182 21.4645C46.8059 21.8336 46.9033 22.198 47.0983 22.5119C47.2933 22.8257 47.577 23.0748 47.9137 23.2277C48.2504 23.3807 48.6249 23.4306 48.99 23.3712C49.3551 23.3117 49.6944 23.1456 49.9649 22.8938C50.2355 22.642 50.4253 22.3158 50.5103 21.9564C50.5954 21.597 50.5718 21.2205 50.4426 20.8745C50.3135 20.5284 50.0845 20.2283 49.7846 20.0121C49.4847 19.7959 49.1274 19.6732 48.7577 19.6596C48.2626 19.6469 47.7822 19.8284 47.4196 20.1652C47.057 20.502 46.8411 20.9673 46.8182 21.4612V21.4645ZM33.6974 56.1097C34.4563 56.1097 35.2151 56.1097 35.9747 56.1097C36.2099 56.1097 36.3505 56.1 36.2172 55.7927C35.9803 55.3329 35.6228 54.9461 35.1828 54.6734C34.7429 54.4007 34.237 54.2524 33.7192 54.2444C33.2 54.2375 32.6893 54.3772 32.2461 54.6474C31.8029 54.9176 31.4451 55.3074 31.214 55.7717C31.0799 56.0137 31.1203 56.1162 31.4177 56.1121C32.1765 56.1025 32.9362 56.1097 33.6974 56.1097ZM26.2028 56.1097C26.9617 56.1097 27.7197 56.1017 28.4777 56.1154C28.801 56.121 28.8575 56.0258 28.7016 55.7507C28.4632 55.2979 28.105 54.919 27.666 54.6552C27.227 54.3914 26.724 54.2528 26.2117 54.2545C25.6993 54.2562 25.1972 54.398 24.7599 54.6646C24.3227 54.9313 23.967 55.3125 23.7316 55.7668C23.5497 56.0896 23.7235 56.1129 23.9869 56.1105C24.7272 56.1016 25.4618 56.1065 26.2004 56.1065L26.2028 56.1097ZM23.4107 39.2893V38.823C23.4107 37.2651 23.4107 37.2651 21.8341 37.4216C21.8147 37.4232 21.7952 37.4232 21.7759 37.4216C21.6005 37.4071 21.5399 37.4918 21.5407 37.6636C21.5464 38.5568 21.5076 39.4531 21.5609 40.343C21.5989 40.982 22.1702 41.2571 23.1141 41.1547C23.734 41.0885 23.3299 40.6109 23.3921 40.3366C23.4361 39.9881 23.4415 39.6358 23.4083 39.2861L23.4107 39.2893ZM36.5194 39.2893C36.5194 39.7952 36.5194 40.3003 36.5194 40.8053C36.5194 40.9263 36.4588 41.0716 36.635 41.1531C36.809 41.2299 36.9983 41.2662 37.1885 41.2592C37.3787 41.2523 37.5648 41.2022 37.7327 41.1129C37.9007 41.0237 38.0462 40.8974 38.1581 40.7438C38.2701 40.5901 38.3456 40.4131 38.3789 40.226C38.4104 39.391 38.3789 38.5543 38.3918 37.7193C38.3918 37.4966 38.324 37.4337 38.0969 37.4135C36.5162 37.2707 36.5162 37.2643 36.5162 38.823L36.5194 39.2893ZM33.1762 23.5485C33.4954 22.3294 33.7621 21.2991 34.036 20.2712C34.1459 19.8597 33.9633 19.7815 33.6118 19.8775C33.4901 19.9121 33.3804 19.9796 33.2948 20.0726C33.2093 20.1656 33.1511 20.2804 33.1269 20.4043C33.0123 20.7526 32.8637 21.0888 32.6832 21.408C32.5151 21.7412 31.8993 21.8114 32.0569 22.2382C32.1798 22.569 32.579 22.7949 32.8456 23.0765C32.9638 23.2256 33.0734 23.3813 33.1738 23.5428L33.1762 23.5485ZM26.7435 23.4984C27.1564 23.0539 27.4797 22.6916 27.8167 22.3479C27.9653 22.1963 28.0252 22.0954 27.8061 21.9445C27.2943 21.5797 26.9386 21.0359 26.8097 20.4213C26.7894 20.3061 26.7402 20.1979 26.6667 20.1067C26.5932 20.0156 26.4979 19.9445 26.3895 19.9001C26.3219 19.8604 26.2453 19.8384 26.1669 19.8361C26.0885 19.8338 26.0108 19.8514 25.941 19.8872C25.7648 20.0066 25.8755 20.1728 25.9103 20.3091C26.1656 21.3168 26.4347 22.3262 26.741 23.4928L26.7435 23.4984Z" fill="#3A3A3A"/>
<path d="M37.2193 5.53702C37.2124 5.7517 37.1405 5.95926 37.0133 6.13245C36.8192 6.4723 36.706 6.85208 36.6822 7.24253C36.6584 7.63298 36.7247 8.02367 36.876 8.38449C37.0273 8.74532 37.2596 9.06666 37.5549 9.32372C37.8502 9.58078 38.2007 9.7667 38.5794 9.86717C38.6994 9.88632 38.8143 9.92927 38.9174 9.99351C39.0204 10.0577 39.1095 10.142 39.1795 10.2412C39.2494 10.3404 39.2987 10.4526 39.3244 10.5711C39.3502 10.6897 39.3518 10.8122 39.3294 10.9314C39.3085 11.146 39.3085 11.3621 39.3294 11.5768C39.3884 12.1633 39.1136 12.4538 38.5608 12.6257C38.1822 12.726 37.8321 12.9125 37.5379 13.1707C37.2438 13.4289 37.0135 13.7516 36.8654 14.1136C36.7172 14.4756 36.6551 14.867 36.684 15.2569C36.7129 15.6469 36.832 16.0249 37.0318 16.3612C37.171 16.5504 37.2294 16.787 37.1943 17.0191C37.1591 17.2512 37.0333 17.46 36.8444 17.5997C36.6817 17.7394 36.5298 17.8912 36.3902 18.0539C36.3195 18.1581 36.2285 18.247 36.1226 18.3154C36.0167 18.3837 35.8981 18.4301 35.7739 18.4517C35.6497 18.4733 35.5224 18.4697 35.3996 18.4412C35.2768 18.4126 35.1611 18.3596 35.0592 18.2854C34.7245 18.0918 34.3497 17.9776 33.9637 17.9515C33.5778 17.9255 33.191 17.9883 32.8332 18.1352C32.4754 18.2821 32.1563 18.5091 31.9003 18.7987C31.6444 19.0883 31.4586 19.4328 31.3572 19.8055C31.3397 19.9305 31.2969 20.0507 31.2316 20.1587C31.1662 20.2668 31.0796 20.3605 30.9769 20.4342C30.8743 20.5078 30.7577 20.56 30.6343 20.5874C30.5109 20.6148 30.3832 20.617 30.2589 20.5937C30.0452 20.5731 29.8301 20.5731 29.6164 20.5937C29.5016 20.6134 29.384 20.6101 29.2703 20.5842C29.1567 20.5583 29.0494 20.5102 28.9545 20.4428C28.8595 20.3753 28.7789 20.2897 28.7172 20.191C28.6555 20.0923 28.614 19.9824 28.595 19.8676C28.498 19.4833 28.3123 19.127 28.0527 18.8272C27.7931 18.5274 27.4668 18.2924 27.1 18.1409C26.7331 17.9895 26.3359 17.926 25.94 17.9552C25.5442 17.9845 25.1607 18.1059 24.8202 18.3096C24.6284 18.4455 24.3906 18.4999 24.1587 18.461C23.9268 18.4222 23.7198 18.2932 23.5829 18.1023C23.429 17.9263 23.2633 17.7611 23.0867 17.6077C22.9923 17.5397 22.9123 17.4537 22.8513 17.3547C22.7903 17.2557 22.7495 17.1457 22.7313 17.0309C22.713 16.9161 22.7177 16.7988 22.745 16.6858C22.7723 16.5728 22.8217 16.4663 22.8904 16.3725C23.0943 16.0323 23.2154 15.649 23.2439 15.2536C23.2724 14.8581 23.2075 14.4616 23.0544 14.0957C22.9014 13.7299 22.6644 13.405 22.3626 13.1473C22.0608 12.8896 21.7027 12.7062 21.3169 12.612C21.2017 12.5918 21.0916 12.5491 20.9929 12.4864C20.8942 12.4236 20.8089 12.3421 20.7419 12.2464C20.6748 12.1506 20.6274 12.0427 20.6022 11.9286C20.5771 11.8145 20.5747 11.6966 20.5953 11.5816C20.6147 11.3292 20.6147 11.0757 20.5953 10.8232C20.5659 10.6098 20.6204 10.3933 20.7474 10.2191C20.8744 10.0449 21.064 9.92658 21.2765 9.88897C21.6726 9.79554 22.0407 9.60909 22.3501 9.34512C22.6595 9.08114 22.9014 8.74727 23.0556 8.37122C23.2097 7.99517 23.2718 7.58781 23.2366 7.18299C23.2014 6.77818 23.07 6.38759 22.8532 6.04369C22.7382 5.87304 22.6917 5.66545 22.723 5.46214C22.7543 5.25884 22.8611 5.07473 23.0221 4.94644C23.1849 4.80714 23.3365 4.65527 23.4755 4.49221C23.5517 4.37434 23.6515 4.27342 23.7686 4.19579C23.8857 4.11816 24.0176 4.06547 24.156 4.04102C24.2944 4.01656 24.4364 4.02086 24.573 4.05365C24.7097 4.08644 24.8381 4.14704 24.9503 4.23161C25.2817 4.4109 25.6493 4.51321 26.0258 4.53094C26.4023 4.54867 26.778 4.48136 27.1248 4.33402C27.4716 4.18668 27.7807 3.96308 28.0289 3.67994C28.2772 3.39679 28.4582 3.06137 28.5586 2.69865C28.7485 2.0879 29.0669 1.81761 29.6981 1.88781C29.9315 1.90677 30.1661 1.90677 30.3995 1.88781C30.6038 1.86034 30.8109 1.91188 30.9785 2.03187C31.146 2.15186 31.2612 2.33124 31.3006 2.53327C31.3898 2.93478 31.5748 3.30886 31.8397 3.6238C32.1046 3.93873 32.4418 4.18521 32.8225 4.34231C33.2032 4.49942 33.6163 4.56251 34.0266 4.52624C34.4369 4.48997 34.8325 4.35543 35.1796 4.13399C35.3419 4.0255 35.5385 3.98011 35.732 4.00642C35.9256 4.03273 36.1028 4.12892 36.2302 4.2768C36.4726 4.52933 36.7256 4.77297 36.9712 5.02227C37.0469 5.08554 37.1081 5.16417 37.1509 5.25293C37.1937 5.34169 37.217 5.43855 37.2193 5.53702ZM29.9462 4.69874C28.6516 4.70273 27.3872 5.08936 26.3124 5.80985C25.2376 6.53035 24.4006 7.55245 23.907 8.74725C23.4133 9.94205 23.285 11.256 23.5384 12.5235C23.7918 13.791 24.4154 14.9552 25.3306 15.8692C26.2459 16.7833 27.4117 17.4063 28.6812 17.6598C29.9506 17.9132 31.2668 17.7856 32.4638 17.2932C33.6607 16.8008 34.6848 15.9655 35.4068 14.8928C36.1289 13.82 36.5166 12.5578 36.5211 11.2654C36.5214 10.4029 36.3515 9.54889 36.0211 8.75205C35.6907 7.9552 35.2062 7.2312 34.5954 6.62137C33.9845 6.01154 33.2593 5.52784 32.4612 5.19795C31.663 4.86806 30.8076 4.69842 29.9437 4.69874H29.9462Z" fill="#F9C328"/>
<path d="M36.5354 31.8037C36.529 30.696 36.5104 29.5882 36.5249 28.4813C36.5249 28.1513 36.4368 28.0617 36.1039 28.0561C34.6436 28.0319 34.6492 28.0206 34.6428 29.4769C34.6428 30.9921 34.6298 32.5081 34.6226 34.0232C34.5458 34.0342 34.472 34.0606 34.4057 34.1006C34.3393 34.1407 34.2817 34.1937 34.2363 34.2564L31.4822 37.0069C31.419 37.0519 31.3657 37.1093 31.3256 37.1756C31.2854 37.242 31.2592 37.3157 31.2486 37.3925C29.3794 37.399 27.5094 37.4014 25.6402 37.4183C25.3638 37.4183 25.2677 37.3425 25.2757 37.0593C25.2984 36.2436 25.2951 35.4271 25.3024 34.6106C25.9779 34.2809 26.5485 33.7706 26.951 33.1366C27.8569 34.3298 28.7757 35.5134 29.6623 36.7204C29.9128 37.0617 30.0308 37.0351 30.2668 36.714C31.3286 35.2719 32.4061 33.8409 33.4993 32.4209C33.6015 32.2814 33.6701 32.1202 33.6998 31.95C33.7295 31.7797 33.7195 31.6049 33.6706 31.4391C33.4144 29.9658 33.1671 28.4902 32.9166 27.0153C33.2294 26.9838 33.3724 26.5691 33.7361 26.6522L34.2064 27.025L34.667 25.3767C34.9329 25.3541 35.0525 25.129 35.2182 24.9733C36.0942 24.1447 36.887 23.2314 37.8106 22.4512C39.2458 24.1148 40.0891 26.2059 40.2092 28.3982C40.0114 28.4795 39.8402 28.6142 39.7146 28.7871C38.8257 29.6745 37.9367 30.5621 37.0429 31.4495C36.8975 31.5956 36.7811 31.7957 36.5354 31.8037Z" fill="#B2DB7E"/>
<path d="M31.2512 39.3046C32.263 39.2981 33.2756 39.2997 34.2866 39.2795C34.5686 39.2739 34.651 39.3683 34.6486 39.6442C34.6308 41.2764 34.6292 42.9086 34.6227 44.5407C34.3803 44.5545 34.2607 44.7537 34.1128 44.8998C33.2166 45.7873 32.326 46.6844 31.429 47.5735C31.2811 47.7196 31.1647 47.9205 30.9183 47.9294C30.9118 46.5287 30.911 45.1289 30.8948 43.7283C30.8883 43.623 30.9068 43.5176 30.949 43.4208C30.9911 43.324 31.0556 43.2386 31.1373 43.1716C31.269 43.057 31.387 42.9295 31.5106 42.8021C32.5822 41.7306 32.5782 41.7355 31.4128 40.7205C31.2286 40.5591 31.1179 40.5285 30.9368 40.7148C30.3712 41.3006 29.7909 41.8807 29.1994 42.4455C29.1232 42.5328 29.0678 42.6363 29.0375 42.7481C29.0071 42.8599 29.0025 42.9771 29.024 43.0909C29.0159 45.4441 29.0087 47.7976 29.0022 50.1513C28.4381 50.517 27.9368 50.9711 27.5177 51.4963C27.2469 51.752 26.88 51.9513 26.8 52.3709C26.5285 52.3457 26.2549 52.3514 25.9846 52.3878C25.3042 52.5556 25.2573 52.2264 25.267 51.6689C25.305 49.5285 25.2929 47.3872 25.3001 45.2459C25.4989 45.2411 25.6064 45.0918 25.7284 44.97C27.4772 43.2257 29.2252 41.4805 30.9724 39.7346C31.0969 39.6103 31.2464 39.503 31.2512 39.3046Z" fill="#959EA9"/>
<path d="M25.3001 32.5064C25.2936 31.1848 25.2734 29.8624 25.2904 28.5417C25.2952 28.1633 25.195 28.0576 24.8104 28.0576C23.4083 28.0576 23.4107 28.0455 23.4075 29.4211C23.4075 31.1896 23.3937 32.9582 23.3873 34.7267C23.2032 34.7926 23.0361 34.8985 22.8979 35.0366C22.7597 35.1747 22.6539 35.3416 22.588 35.5254C21.9415 35.5319 21.3007 35.5545 20.6582 35.5408C20.5255 35.5518 20.392 35.5338 20.267 35.488C20.142 35.4423 20.0285 35.3699 19.9343 35.2759C19.8402 35.182 19.7677 35.0686 19.7218 34.9438C19.676 34.819 19.658 34.6857 19.669 34.5532C19.661 32.9759 19.6771 31.3986 19.6836 29.8221C20.2233 29.4801 20.702 29.0506 21.1002 28.5514C22.4401 27.2806 23.6774 25.905 25.0601 24.6738L25.7526 27.1112L27.0457 25.4976L27.2744 25.6743L26.1632 31.9206C25.7906 31.994 25.6969 32.4692 25.3001 32.5064Z" fill="#B2DB7E"/>
<path d="M34.6249 46.7637C34.6314 48.5284 34.6378 50.2929 34.6443 52.0572C34.6443 52.2895 34.6524 52.4606 34.3105 52.4113C33.1068 52.2578 31.8902 52.5759 30.9164 53.2988V50.1523C31.1588 50.1386 31.2784 49.9393 31.4263 49.7932C32.3233 48.9058 33.2139 48.0086 34.1109 47.1195C34.2628 46.9726 34.3784 46.7725 34.6249 46.7637Z" fill="#959EA9"/>
<path d="M40.2431 30.6387C40.2488 31.9409 40.265 33.2439 40.2553 34.546C40.2671 34.6785 40.2499 34.812 40.205 34.9371C40.1601 35.0623 40.0884 35.1763 39.9951 35.2711C39.9017 35.366 39.7888 35.4394 39.6642 35.4864C39.5396 35.5334 39.4062 35.5528 39.2734 35.5433C38.4749 35.561 37.6757 35.5376 36.8781 35.5538C36.6025 35.5594 36.4934 35.4819 36.5128 35.1963C36.5387 34.8091 36.5306 34.4194 36.5379 34.0313C36.7803 34.0168 36.8991 33.8183 37.047 33.6715C37.9448 32.784 38.8354 31.8868 39.7324 30.9969C39.8803 30.8468 39.9967 30.6459 40.2431 30.6387Z" fill="#B2DB7E"/>
<path d="M19.8168 27.4761C20.2222 24.8933 21.5741 22.5528 23.6101 20.9087C23.9592 20.615 24.095 20.6497 24.1847 21.0983C24.3043 21.7074 24.4643 22.3085 24.6066 22.9128C24.4449 23.0492 24.2712 23.1742 24.1217 23.3235C22.8529 24.5837 21.5868 25.8456 20.3235 27.109C20.1748 27.2599 20.0592 27.46 19.8168 27.4761Z" fill="#B2DB7E"/>
<path d="M19.8168 27.4754C20.0593 27.4553 20.1748 27.2552 20.3227 27.1083C21.591 25.8481 22.857 24.5862 24.1209 23.3228C24.2704 23.1735 24.4442 23.0485 24.6058 22.9121C24.8132 23.4815 24.9642 24.0698 25.0568 24.6685C23.6765 25.8997 22.4392 27.2753 21.0969 28.5461C20.6987 29.0453 20.2199 29.4747 19.6803 29.8168C19.6242 29.0337 19.6701 28.2467 19.8168 27.4754Z" fill="#A9D077"/>
<path d="M31.2513 39.3044C31.2464 39.5028 31.0969 39.6101 30.9749 39.7328C29.2277 41.4787 27.4797 43.2238 25.7309 44.9682C25.6089 45.09 25.5014 45.2393 25.3026 45.2441V43.0213C26.6701 41.9143 27.9184 40.668 29.0273 39.3027L31.2513 39.3044Z" fill="#8E96A1"/>
<path d="M10.2955 17.8321C10.2855 18.202 10.1658 18.5605 9.95137 18.8623C9.73699 19.1641 9.43765 19.3955 9.09133 19.5272C8.74501 19.6589 8.36732 19.685 8.00615 19.6021C7.64498 19.5192 7.31662 19.331 7.0627 19.0615C6.80878 18.792 6.64076 18.4534 6.57994 18.0884C6.51911 17.7234 6.56823 17.3486 6.72106 17.0116C6.87389 16.6745 7.12355 16.3904 7.43837 16.1952C7.75319 16 8.11898 15.9025 8.48936 15.9152C8.98196 15.9347 9.44719 16.1465 9.78497 16.505C10.1228 16.8635 10.3061 17.34 10.2955 17.8321Z" fill="#F97F6B"/>
<path d="M53.3608 44.8911C52.9899 44.8893 52.6278 44.7775 52.3205 44.57C52.0133 44.3624 51.7747 44.0684 51.6351 43.7253C51.4955 43.3821 51.4611 43.0053 51.5363 42.6426C51.6116 42.2799 51.793 41.9477 52.0577 41.6882C52.3223 41.4286 52.6582 41.2534 53.0228 41.1847C53.3873 41.1161 53.7641 41.1571 54.1053 41.3026C54.4464 41.448 54.7366 41.6914 54.939 42.0018C55.1415 42.3122 55.247 42.6756 55.2422 43.0459C55.2318 43.5378 55.0293 44.0061 54.6777 44.3509C54.3262 44.6956 53.8536 44.8895 53.3608 44.8911Z" fill="#F97F6B"/>
<path d="M17.7863 52.3537C17.7885 52.7233 17.6808 53.0853 17.4768 53.3938C17.2728 53.7022 16.9817 53.9433 16.6403 54.0864C16.2989 54.2295 15.9227 54.2682 15.5593 54.1976C15.1959 54.1271 14.8616 53.9504 14.5989 53.69C14.3361 53.4296 14.1567 53.0972 14.0833 52.7349C14.01 52.3726 14.046 51.9967 14.1868 51.6549C14.3277 51.313 14.5669 51.0206 14.8744 50.8147C15.1818 50.6087 15.5436 50.4985 15.9138 50.498C16.4074 50.5001 16.8804 50.6959 17.2307 51.0431C17.581 51.3902 17.7805 51.861 17.7863 52.3537Z" fill="#F97F6B"/>
<path d="M46.8132 1.89844C47.1839 1.89749 47.5465 2.00652 47.8551 2.21171C48.1636 2.4169 48.4042 2.70899 48.5462 3.0509C48.6881 3.39281 48.7252 3.76914 48.6525 4.13209C48.5799 4.49505 48.4009 4.82828 48.1382 5.08949C47.8756 5.3507 47.5411 5.5281 47.1773 5.59919C46.8134 5.67028 46.4367 5.63184 46.0948 5.48876C45.7528 5.34568 45.4612 5.1044 45.2569 4.79556C45.0526 4.48671 44.9448 4.12422 44.9472 3.7541C44.9533 3.26259 45.1521 2.79306 45.5009 2.44616C45.8497 2.09926 46.3208 1.90263 46.8132 1.89844Z" fill="#F97F6B"/>
<path d="M46.8184 21.4604C46.8306 21.0952 46.9499 20.7415 47.1614 20.4432C47.3729 20.145 47.6673 19.9151 48.0083 19.7822C48.3493 19.6493 48.7219 19.6192 49.0799 19.6955C49.4378 19.7718 49.7655 19.9513 50.0224 20.2116C50.2793 20.472 50.454 20.8019 50.5251 21.1604C50.5961 21.5189 50.5602 21.8903 50.4219 22.2287C50.2837 22.5671 50.049 22.8576 49.7471 23.0642C49.4452 23.2708 49.0892 23.3845 48.7232 23.3911C48.4698 23.3939 48.2184 23.3457 47.9842 23.2493C47.7499 23.1529 47.5375 23.0103 47.3597 22.8301C47.1818 22.6498 47.0423 22.4356 46.9493 22.2003C46.8563 21.965 46.8118 21.7133 46.8184 21.4604Z" fill="#F97F6B"/>
<path d="M34.6251 46.7638C34.3786 46.7727 34.2622 46.9728 34.1143 47.1196C33.2173 48.0071 32.3268 48.9043 31.4297 49.7934C31.2818 49.9394 31.1647 50.1387 30.9198 50.1524V47.9296C31.1663 47.9208 31.2826 47.7198 31.4305 47.5738C32.3276 46.6863 33.2181 45.7892 34.1143 44.9001C34.2622 44.754 34.3802 44.5547 34.6243 44.541L34.6251 46.7638Z" fill="#8E96A1"/>
<path d="M40.2431 30.6393C39.9958 30.6465 39.8794 30.8474 39.7315 30.9935C38.8345 31.881 37.9439 32.7789 37.0461 33.668C36.8982 33.8149 36.781 34.0134 36.537 34.0279V31.8051C36.7794 31.7971 36.899 31.597 37.0453 31.4517C37.9383 30.5642 38.8232 29.6768 39.717 28.7893C39.8426 28.6164 40.0138 28.4818 40.2116 28.4004C40.2767 29.1449 40.2872 29.8932 40.2431 30.6393Z" fill="#A9D077"/>
<path d="M29.0245 39.3029C27.9157 40.6681 26.6674 41.9144 25.2999 43.0215C25.2942 41.8919 25.295 40.7689 25.2764 39.6426C25.2716 39.3634 25.3572 39.2746 25.6401 39.2795C26.7682 39.298 27.8964 39.2972 29.0245 39.3029Z" fill="#959EA9"/>
<path d="M33.6976 56.1101C32.9387 56.1101 32.1791 56.1028 31.4203 56.1141C31.1229 56.1141 31.0825 56.0157 31.2166 55.7736C31.4477 55.3093 31.8054 54.9196 32.2487 54.6494C32.6919 54.3792 33.2025 54.2395 33.7218 54.2463C34.2396 54.2544 34.7455 54.4027 35.1854 54.6754C35.6253 54.948 35.9829 55.3349 36.2198 55.7946C36.3507 56.102 36.2101 56.1173 35.9773 56.1117C35.2128 56.1068 34.454 56.1101 33.6976 56.1101Z" fill="#CF9D6A"/>
<path d="M26.2004 56.1061C25.4618 56.1061 24.7232 56.1012 23.9845 56.1061C23.7211 56.1061 23.5473 56.0859 23.7291 55.7623C23.9646 55.308 24.3203 54.9268 24.7575 54.6602C25.1948 54.3935 25.6969 54.2517 26.2093 54.25C26.7216 54.2484 27.2246 54.3869 27.6636 54.6507C28.1026 54.9145 28.4608 55.2934 28.6992 55.7462C28.8551 56.0213 28.7953 56.1165 28.4753 56.1109C27.7173 56.0972 26.9592 56.1061 26.2004 56.1061Z" fill="#CF9D6A"/>
<path d="M23.408 39.2859C23.4403 39.6352 23.4341 39.9869 23.3895 40.3348C23.3272 40.6091 23.7313 41.0868 23.1115 41.1529C22.1676 41.2554 21.5962 40.9803 21.5582 40.3413C21.5049 39.4538 21.5437 38.555 21.538 37.6618C21.538 37.4924 21.5978 37.4077 21.7732 37.4198C21.7926 37.4214 21.812 37.4214 21.8314 37.4198C23.408 37.2633 23.408 37.2633 23.408 38.8212V39.2859Z" fill="#EECEB2"/>
<path d="M36.5169 39.283V38.8167C36.5169 37.2579 36.5169 37.2644 38.0976 37.4072C38.3247 37.4274 38.3958 37.4879 38.3926 37.713C38.3821 38.5481 38.4112 39.3847 38.3797 40.2198C38.3463 40.4068 38.2708 40.5838 38.1588 40.7375C38.0469 40.8911 37.9015 41.0173 37.7335 41.1066C37.5655 41.1959 37.3794 41.2459 37.1892 41.2529C36.999 41.2598 36.8098 41.2236 36.6357 41.1468C36.4595 41.0661 36.5226 40.9201 36.5201 40.799C36.5129 40.294 36.5169 39.7889 36.5169 39.283Z" fill="#EECEB2"/>
<path d="M37.8115 22.4544C36.8878 23.2346 36.095 24.1487 35.219 24.9765C35.0533 25.133 34.9337 25.3581 34.6678 25.3799C35.0388 23.9139 35.4218 22.452 35.7726 20.982C35.8631 20.6028 35.9875 20.6431 36.2203 20.8408C36.8191 21.3068 37.354 21.8493 37.8115 22.4544Z" fill="#A9D077"/>
<path d="M31.2489 37.3927C31.2595 37.3159 31.2857 37.2421 31.3258 37.1758C31.366 37.1095 31.4193 37.0521 31.4825 37.007L34.2366 34.2566C34.282 34.1938 34.3396 34.1409 34.4059 34.1008C34.4723 34.0608 34.5461 34.0344 34.6228 34.0234V36.2462C34.1253 36.4958 33.7225 36.9002 33.4753 37.3983L31.2489 37.3927Z" fill="#A9D077"/>
<path d="M26.8026 52.3699C26.8834 51.9504 27.2495 51.7511 27.5202 51.4954C27.9394 50.9702 28.4407 50.5161 29.0048 50.1504V53.3147C28.3457 52.8481 27.5952 52.5261 26.8026 52.3699Z" fill="#8E96A1"/>
<path d="M33.1739 23.5438C33.0719 23.3801 32.9604 23.2226 32.8402 23.0718C32.5735 22.7902 32.1743 22.5643 32.0514 22.2335C31.8898 21.8091 32.5096 21.7365 32.6777 21.4033C32.8582 21.0841 33.0068 20.7479 33.1214 20.3996C33.1456 20.2757 33.2038 20.1609 33.2893 20.0679C33.3749 19.9749 33.4846 19.9074 33.6063 19.8728C33.9578 19.7768 34.1404 19.855 34.0305 20.2665C33.7598 21.2944 33.4931 22.3247 33.1739 23.5438Z" fill="#A9D077"/>
<path d="M26.7412 23.4918C26.4349 22.3252 26.1658 21.3134 25.908 20.3033C25.8733 20.167 25.7625 20.0007 25.9387 19.8813C26.0085 19.8456 26.0862 19.828 26.1646 19.8303C26.243 19.8325 26.3196 19.8545 26.3872 19.8942C26.4956 19.9387 26.591 20.0098 26.6644 20.1009C26.7379 20.1921 26.7871 20.3002 26.8075 20.4154C26.9363 21.0301 27.292 21.5738 27.8039 21.9387C28.0229 22.0888 27.9655 22.1896 27.8144 22.3421C27.475 22.6874 27.1517 23.0473 26.7412 23.4918Z" fill="#A9D077"/>
<path d="M25.3002 32.5065C25.6962 32.4694 25.7907 31.9909 26.1633 31.9199C26.3095 32.404 26.7403 32.6985 26.9512 33.1382C26.5487 33.7723 25.9781 34.2825 25.3026 34.6123L25.3002 32.5065Z" fill="#A9D077"/>
<path d="M33.475 37.3989C33.7236 36.9015 34.1275 36.4982 34.6258 36.25C34.6839 37.4546 34.6839 37.4546 33.475 37.3989Z" fill="#B2DB7E"/>
<path d="M33.733 26.6523C33.3694 26.5716 33.2263 26.9839 32.9136 27.0154C32.8328 26.5982 32.752 26.1811 32.6712 25.7632C32.6655 25.7333 32.6881 25.6986 32.7172 25.5938L33.733 26.6523Z" fill="#A9D077"/>
<path d="M22.5883 35.5233C22.6541 35.3395 22.76 35.1726 22.8981 35.0345C23.0363 34.8964 23.2035 34.7905 23.3875 34.7246C23.419 35.6775 23.5419 35.554 22.5883 35.5233Z" fill="#A9D077"/>
<path d="M29.9438 4.6973C31.241 4.69315 32.5102 5.07336 33.5908 5.7898C34.6715 6.50623 35.5149 7.52667 36.0143 8.72192C36.5137 9.91718 36.6466 11.2335 36.3963 12.5042C36.146 13.7749 35.5236 14.943 34.608 15.8604C33.6924 16.7778 32.5247 17.4033 31.2528 17.6578C29.9809 17.9123 28.6619 17.7842 27.4629 17.2899C26.264 16.7956 25.2388 15.9572 24.5174 14.8809C23.7959 13.8047 23.4105 12.5388 23.41 11.2438C23.4153 9.51321 24.1046 7.85467 25.3281 6.62879C26.5517 5.4029 28.2104 4.70877 29.9438 4.6973ZM29.9502 15.912C30.8756 15.9147 31.781 15.6435 32.5521 15.1328C33.3231 14.622 33.9253 13.8946 34.2825 13.0423C34.6397 12.1901 34.736 11.2513 34.559 10.3445C34.3821 9.43768 33.9399 8.60356 33.2884 7.94749C32.6369 7.29142 31.8053 6.84284 30.8986 6.65838C29.9919 6.47393 29.0507 6.56189 28.194 6.91115C27.3373 7.26042 26.6036 7.85533 26.0853 8.62073C25.5671 9.38612 25.2877 10.2877 25.2825 11.2115C25.2818 12.4514 25.772 13.6414 26.6464 14.522C27.5207 15.4027 28.7083 15.9026 29.9502 15.9128V15.912Z" fill="#030202"/>
<path d="M29.9503 15.9141C29.0252 15.9119 28.1214 15.636 27.3531 15.1213C26.5849 14.6066 25.9866 13.8762 25.6338 13.0223C25.281 12.1684 25.1896 11.2293 25.3711 10.3236C25.5525 9.41785 25.9987 8.58609 26.6533 7.93334C27.3079 7.2806 28.1416 6.83615 29.049 6.65608C29.9565 6.47602 30.897 6.56841 31.7519 6.92163C32.6067 7.27485 33.3376 7.87304 33.8522 8.64066C34.3668 9.40828 34.642 10.3109 34.6432 11.2346C34.6408 12.4759 34.1454 13.6657 33.2657 14.5429C32.386 15.4201 31.1937 15.9132 29.9503 15.9141ZM32.7699 11.2564C32.7733 10.7005 32.6111 10.1561 32.3039 9.69246C31.9968 9.22878 31.5585 8.86669 31.0448 8.65218C30.5311 8.43767 29.9652 8.38043 29.4188 8.48771C28.8725 8.59498 28.3704 8.86193 27.9763 9.25468C27.5822 9.64742 27.314 10.1482 27.2056 10.6935C27.0972 11.2388 27.1535 11.8039 27.3675 12.3171C27.5815 12.8304 27.9434 13.2685 28.4073 13.576C28.8712 13.8834 29.4162 14.0463 29.973 14.0439C30.711 14.0358 31.4166 13.7399 31.9391 13.2196C32.4617 12.6992 32.7598 11.9956 32.7699 11.2588V11.2564Z" fill="#F7D36E"/>
<path d="M32.7698 11.2578C32.7659 11.8136 32.5966 12.3556 32.2836 12.8152C31.9705 13.2748 31.5277 13.6311 31.0114 13.839C30.4951 14.0469 29.9286 14.0969 29.3838 13.9827C28.8389 13.8686 28.3404 13.5953 27.9514 13.1978C27.5624 12.8002 27.3005 12.2962 27.1989 11.7497C27.0973 11.2033 27.1607 10.639 27.3809 10.1286C27.6012 9.61813 27.9683 9.18452 28.4359 8.8828C28.9034 8.58109 29.4502 8.42487 30.0068 8.43397C30.746 8.44961 31.4496 8.75417 31.9663 9.28222C32.4829 9.81027 32.7714 10.5196 32.7698 11.2578ZM30.8982 11.2336C30.8965 11.0482 30.8396 10.8675 30.7348 10.7145C30.63 10.5615 30.4819 10.4431 30.3095 10.3743C30.137 10.3055 29.948 10.2896 29.7664 10.3284C29.5848 10.3672 29.4189 10.4591 29.2898 10.5923C29.1607 10.7255 29.0742 10.8941 29.0413 11.0766C29.0085 11.2591 29.0307 11.4472 29.1053 11.617C29.1798 11.7868 29.3033 11.9306 29.4599 12.0301C29.6166 12.1297 29.7993 12.1804 29.985 12.176C30.2306 12.1686 30.4636 12.0657 30.6342 11.8891C30.8048 11.7126 30.8995 11.4765 30.8982 11.2312V11.2336Z" fill="#030202"/>
</g>
<defs>
<clipPath id="clip0_67_4349">
<rect width="59" height="58" fill="white"/>
</clipPath>
</defs>
</svg>
